<?xml version="1.0" standalone="no"?>
<!DOCTYPE svg PUBLIC "-//W3C//DTD SVG 1.1//EN" "http://www.w3.org/Graphics/SVG/1.1/DTD/svg11.dtd">
<svg width="305mm" height="305mm" viewBox="-305 0 305 305" xmlns="http://www.w3.org/2000/svg" version="1.1">
<title>OpenSCAD Model</title>
<path d="
M -266.8,300.75 L -276.8,300.75 L -276.8,290 L -208.8,290 L -208.8,289.9 L -207.3,289.9
 L -207.3,304.8 L -192.8,304.8 L -192.8,300.75 L -201.3,300.75 L -201.3,289.9 L -154.4,289.9
 L -154.4,304.8 L -1.2207e-05,304.8 L -1.2207e-05,1.2207e-05 L -304.8,1.2207e-05 L -304.8,289.9 L -281.8,289.9
 L -281.8,304.8 L -266.8,304.8 z
M -73.385,10.8596 L -73.385,9.14039 L -72.0409,8.06846 L -70.3647,8.45103 L -69.6188,10 L -70.3647,11.549
 L -72.0409,11.9315 z
M -251.185,10.8596 L -251.185,9.14039 L -249.841,8.06846 L -248.165,8.45103 L -247.419,10 L -248.165,11.549
 L -249.841,11.9315 z
M -124.185,10.8596 L -124.185,9.14039 L -122.841,8.06846 L -121.165,8.45103 L -120.419,10 L -121.165,11.549
 L -122.841,11.9315 z
M -276.585,10.8596 L -276.585,9.14039 L -275.241,8.06846 L -273.565,8.45103 L -272.819,10 L -273.565,11.549
 L -275.241,11.9315 z
M -174.985,10.8596 L -174.985,9.14039 L -173.641,8.06846 L -171.965,8.45103 L -171.219,10 L -171.965,11.549
 L -173.641,11.9315 z
M -225.785,10.8596 L -225.785,9.14039 L -224.441,8.06846 L -222.765,8.45103 L -222.019,10 L -222.765,11.549
 L -224.441,11.9315 z
M -44.2188,10 L -44.9647,11.549 L -46.6409,11.9315 L -47.985,10.8596 L -47.985,9.14039 L -46.6409,8.06846
 L -44.9647,8.45103 z
M -200.385,10.8596 L -200.385,9.14039 L -199.041,8.06846 L -197.365,8.45103 L -196.619,10 L -197.365,11.549
 L -199.041,11.9315 z
M -98.785,10.8596 L -98.785,9.14039 L -97.4409,8.06846 L -95.7647,8.45103 L -95.0188,10 L -95.7647,11.549
 L -97.4409,11.9315 z
M -149.585,10.8596 L -149.585,9.14039 L -148.241,8.06846 L -146.565,8.45103 L -145.819,10 L -146.565,11.549
 L -148.241,11.9315 z
M -22.585,10.8596 L -22.585,9.14039 L -21.2409,8.06846 L -19.5647,8.45103 L -18.8188,10 L -19.5647,11.549
 L -21.2409,11.9315 z
M -194.575,26.9796 L -194.575,25.2604 L -193.231,24.1885 L -191.555,24.571 L -190.809,26.12 L -191.555,27.669
 L -193.231,28.0515 z
M -240.295,26.9796 L -240.295,25.2604 L -238.951,24.1885 L -237.275,24.571 L -236.529,26.12 L -237.275,27.669
 L -238.951,28.0515 z
M -37.095,26.9796 L -37.095,25.2604 L -35.7509,24.1885 L -34.0747,24.571 L -33.3288,26.12 L -34.0747,27.669
 L -35.7509,28.0515 z
M -11.785,41.6596 L -11.785,39.9404 L -10.4409,38.8685 L -8.76475,39.251 L -8.01881,40.8 L -8.76475,42.349
 L -10.4409,42.7315 z
M -296.585,41.6596 L -296.585,39.9404 L -295.241,38.8685 L -293.565,39.251 L -292.819,40.8 L -293.565,42.349
 L -295.241,42.7315 z
M -175.827,52.6532 L -177.327,51.5634 L -177.9,49.8 L -177.327,48.0366 L -175.827,46.9468 L -173.973,46.9468
 L -172.473,48.0366 L -171.9,49.8 L -172.473,51.5634 L -173.973,52.6532 z
M -122.487,52.6532 L -123.987,51.5634 L -124.56,49.8 L -123.987,48.0366 L -122.487,46.9468 L -120.633,46.9468
 L -119.133,48.0366 L -118.56,49.8 L -119.133,51.5634 L -120.633,52.6532 z
M -158.047,52.6532 L -159.547,51.5634 L -160.12,49.8 L -159.547,48.0366 L -158.047,46.9468 L -156.193,46.9468
 L -154.693,48.0366 L -154.12,49.8 L -154.693,51.5634 L -156.193,52.6532 z
M -69.147,52.6532 L -70.647,51.5634 L -71.22,49.8 L -70.647,48.0366 L -69.147,46.9468 L -67.293,46.9468
 L -65.793,48.0366 L -65.22,49.8 L -65.793,51.5634 L -67.293,52.6532 z
M -33.587,52.6532 L -35.087,51.5634 L -35.66,49.8 L -35.087,48.0366 L -33.587,46.9468 L -31.733,46.9468
 L -30.233,48.0366 L -29.66,49.8 L -30.233,51.5634 L -31.733,52.6532 z
M -51.367,52.6532 L -52.867,51.5634 L -53.44,49.8 L -52.867,48.0366 L -51.367,46.9468 L -49.513,46.9468
 L -48.013,48.0366 L -47.44,49.8 L -48.013,51.5634 L -49.513,52.6532 z
M -229.167,52.6532 L -230.667,51.5634 L -231.24,49.8 L -230.667,48.0366 L -229.167,46.9468 L -227.313,46.9468
 L -225.813,48.0366 L -225.24,49.8 L -225.813,51.5634 L -227.313,52.6532 z
M -104.707,52.6532 L -106.207,51.5634 L -106.78,49.8 L -106.207,48.0366 L -104.707,46.9468 L -102.853,46.9468
 L -101.353,48.0366 L -100.78,49.8 L -101.353,51.5634 L -102.853,52.6532 z
M -248.447,48.0366 L -246.947,46.9468 L -245.093,46.9468 L -243.593,48.0366 L -243.02,49.8 L -243.593,51.5634
 L -245.093,52.6532 L -246.947,52.6532 L -248.447,51.5634 L -249.02,49.8 z
M -86.927,52.6532 L -88.427,51.5634 L -89,49.8 L -88.427,48.0366 L -86.927,46.9468 L -85.0729,46.9468
 L -83.5729,48.0366 L -83,49.8 L -83.5729,51.5634 L -85.0729,52.6532 z
M -211.387,52.6532 L -212.887,51.5634 L -213.46,49.8 L -212.887,48.0366 L -211.387,46.9468 L -209.533,46.9468
 L -208.033,48.0366 L -207.46,49.8 L -208.033,51.5634 L -209.533,52.6532 z
M -140.267,52.6532 L -141.767,51.5634 L -142.34,49.8 L -141.767,48.0366 L -140.267,46.9468 L -138.413,46.9468
 L -136.913,48.0366 L -136.34,49.8 L -136.913,51.5634 L -138.413,52.6532 z
M -193.607,52.6532 L -195.107,51.5634 L -195.68,49.8 L -195.107,48.0366 L -193.607,46.9468 L -191.753,46.9468
 L -190.253,48.0366 L -189.68,49.8 L -190.253,51.5634 L -191.753,52.6532 z
M -229.167,64.6532 L -230.667,63.5634 L -231.24,61.8 L -230.667,60.0366 L -229.167,58.9468 L -227.313,58.9468
 L -225.813,60.0366 L -225.24,61.8 L -225.813,63.5634 L -227.313,64.6532 z
M -177.327,60.0366 L -175.827,58.9468 L -173.973,58.9468 L -172.473,60.0366 L -171.9,61.8 L -172.473,63.5634
 L -173.973,64.6532 L -175.827,64.6532 L -177.327,63.5634 L -177.9,61.8 z
M -33.587,64.6532 L -35.087,63.5634 L -35.66,61.8 L -35.087,60.0366 L -33.587,58.9468 L -31.733,58.9468
 L -30.233,60.0366 L -29.66,61.8 L -30.233,63.5634 L -31.733,64.6532 z
M -70.647,60.0366 L -69.147,58.9468 L -67.293,58.9468 L -65.793,60.0366 L -65.22,61.8 L -65.793,63.5634
 L -67.293,64.6532 L -69.147,64.6532 L -70.647,63.5634 L -71.22,61.8 z
M -122.487,64.6532 L -123.987,63.5634 L -124.56,61.8 L -123.987,60.0366 L -122.487,58.9468 L -120.633,58.9468
 L -119.133,60.0366 L -118.56,61.8 L -119.133,63.5634 L -120.633,64.6532 z
M -104.707,64.6532 L -106.207,63.5634 L -106.78,61.8 L -106.207,60.0366 L -104.707,58.9468 L -102.853,58.9468
 L -101.353,60.0366 L -100.78,61.8 L -101.353,63.5634 L -102.853,64.6532 z
M -51.367,64.6532 L -52.867,63.5634 L -53.44,61.8 L -52.867,60.0366 L -51.367,58.9468 L -49.513,58.9468
 L -48.013,60.0366 L -47.44,61.8 L -48.013,63.5634 L -49.513,64.6532 z
M -158.047,64.6532 L -159.547,63.5634 L -160.12,61.8 L -159.547,60.0366 L -158.047,58.9468 L -156.193,58.9468
 L -154.693,60.0366 L -154.12,61.8 L -154.693,63.5634 L -156.193,64.6532 z
M -211.387,64.6532 L -212.887,63.5634 L -213.46,61.8 L -212.887,60.0366 L -211.387,58.9468 L -209.533,58.9468
 L -208.033,60.0366 L -207.46,61.8 L -208.033,63.5634 L -209.533,64.6532 z
M -140.267,64.6532 L -141.767,63.5634 L -142.34,61.8 L -141.767,60.0366 L -140.267,58.9468 L -138.413,58.9468
 L -136.913,60.0366 L -136.34,61.8 L -136.913,63.5634 L -138.413,64.6532 z
M -248.447,60.0366 L -246.947,58.9468 L -245.093,58.9468 L -243.593,60.0366 L -243.02,61.8 L -243.593,63.5634
 L -245.093,64.6532 L -246.947,64.6532 L -248.447,63.5634 L -249.02,61.8 z
M -11.785,67.0596 L -11.785,65.3404 L -10.4409,64.2685 L -8.76475,64.651 L -8.01881,66.2 L -8.76475,67.749
 L -10.4409,68.1315 z
M -296.585,67.0596 L -296.585,65.3404 L -295.241,64.2685 L -293.565,64.651 L -292.819,66.2 L -293.565,67.749
 L -295.241,68.1315 z
M -211.387,76.6532 L -212.887,75.5634 L -213.46,73.8 L -212.887,72.0366 L -211.387,70.9468 L -209.533,70.9468
 L -208.033,72.0366 L -207.46,73.8 L -208.033,75.5634 L -209.533,76.6532 z
M -51.367,76.6532 L -52.867,75.5634 L -53.44,73.8 L -52.867,72.0366 L -51.367,70.9468 L -49.513,70.9468
 L -48.013,72.0366 L -47.44,73.8 L -48.013,75.5634 L -49.513,76.6532 z
M -229.167,76.6532 L -230.667,75.5634 L -231.24,73.8 L -230.667,72.0366 L -229.167,70.9468 L -227.313,70.9468
 L -225.813,72.0366 L -225.24,73.8 L -225.813,75.5634 L -227.313,76.6532 z
M -70.647,72.0366 L -69.147,70.9468 L -67.293,70.9468 L -65.793,72.0366 L -65.22,73.8 L -65.793,75.5634
 L -67.293,76.6532 L -69.147,76.6532 L -70.647,75.5634 L -71.22,73.8 z
M -246.947,76.6532 L -248.447,75.5634 L -249.02,73.8 L -248.447,72.0366 L -246.947,70.9468 L -245.093,70.9468
 L -243.593,72.0366 L -243.02,73.8 L -243.593,75.5634 L -245.093,76.6532 z
M -140.267,76.6532 L -141.767,75.5634 L -142.34,73.8 L -141.767,72.0366 L -140.267,70.9468 L -138.413,70.9468
 L -136.913,72.0366 L -136.34,73.8 L -136.913,75.5634 L -138.413,76.6532 z
M -122.487,76.6532 L -123.987,75.5634 L -124.56,73.8 L -123.987,72.0366 L -122.487,70.9468 L -120.633,70.9468
 L -119.133,72.0366 L -118.56,73.8 L -119.133,75.5634 L -120.633,76.6532 z
M -158.047,76.6532 L -159.547,75.5634 L -160.12,73.8 L -159.547,72.0366 L -158.047,70.9468 L -156.193,70.9468
 L -154.693,72.0366 L -154.12,73.8 L -154.693,75.5634 L -156.193,76.6532 z
M -264.727,76.6532 L -266.227,75.5634 L -266.8,73.8 L -266.227,72.0366 L -264.727,70.9468 L -262.873,70.9468
 L -261.373,72.0366 L -260.8,73.8 L -261.373,75.5634 L -262.873,76.6532 z
M -193.607,76.6532 L -195.107,75.5634 L -195.68,73.8 L -195.107,72.0366 L -193.607,70.9468 L -191.753,70.9468
 L -190.253,72.0366 L -189.68,73.8 L -190.253,75.5634 L -191.753,76.6532 z
M -175.827,76.6532 L -177.327,75.5634 L -177.9,73.8 L -177.327,72.0366 L -175.827,70.9468 L -173.973,70.9468
 L -172.473,72.0366 L -171.9,73.8 L -172.473,75.5634 L -173.973,76.6532 z
M -33.587,76.6532 L -35.087,75.5634 L -35.66,73.8 L -35.087,72.0366 L -33.587,70.9468 L -31.733,70.9468
 L -30.233,72.0366 L -29.66,73.8 L -30.233,75.5634 L -31.733,76.6532 z
M -69.147,88.6532 L -70.647,87.5634 L -71.22,85.8 L -70.647,84.0366 L -69.147,82.9468 L -67.293,82.9468
 L -65.793,84.0366 L -65.22,85.8 L -65.793,87.5634 L -67.293,88.6532 z
M -86.927,88.6532 L -88.427,87.5634 L -89,85.8 L -88.427,84.0366 L -86.927,82.9468 L -85.0729,82.9468
 L -83.5729,84.0366 L -83,85.8 L -83.5729,87.5634 L -85.0729,88.6532 z
M -158.047,88.6532 L -159.547,87.5634 L -160.12,85.8 L -159.547,84.0366 L -158.047,82.9468 L -156.193,82.9468
 L -154.693,84.0366 L -154.12,85.8 L -154.693,87.5634 L -156.193,88.6532 z
M -51.367,88.6532 L -52.867,87.5634 L -53.44,85.8 L -52.867,84.0366 L -51.367,82.9468 L -49.513,82.9468
 L -48.013,84.0366 L -47.44,85.8 L -48.013,87.5634 L -49.513,88.6532 z
M -140.267,88.6532 L -141.767,87.5634 L -142.34,85.8 L -141.767,84.0366 L -140.267,82.9468 L -138.413,82.9468
 L -136.913,84.0366 L -136.34,85.8 L -136.913,87.5634 L -138.413,88.6532 z
M -122.487,88.6532 L -123.987,87.5634 L -124.56,85.8 L -123.987,84.0366 L -122.487,82.9468 L -120.633,82.9468
 L -119.133,84.0366 L -118.56,85.8 L -119.133,87.5634 L -120.633,88.6532 z
M -175.827,88.6532 L -177.327,87.5634 L -177.9,85.8 L -177.327,84.0366 L -175.827,82.9468 L -173.973,82.9468
 L -172.473,84.0366 L -171.9,85.8 L -172.473,87.5634 L -173.973,88.6532 z
M -211.387,88.6532 L -212.887,87.5634 L -213.46,85.8 L -212.887,84.0366 L -211.387,82.9468 L -209.533,82.9468
 L -208.033,84.0366 L -207.46,85.8 L -208.033,87.5634 L -209.533,88.6532 z
M -193.607,88.6532 L -195.107,87.5634 L -195.68,85.8 L -195.107,84.0366 L -193.607,82.9468 L -191.753,82.9468
 L -190.253,84.0366 L -189.68,85.8 L -190.253,87.5634 L -191.753,88.6532 z
M -264.727,88.6532 L -266.227,87.5634 L -266.8,85.8 L -266.227,84.0366 L -264.727,82.9468 L -262.873,82.9468
 L -261.373,84.0366 L -260.8,85.8 L -261.373,87.5634 L -262.873,88.6532 z
M -229.167,88.6532 L -230.667,87.5634 L -231.24,85.8 L -230.667,84.0366 L -229.167,82.9468 L -227.313,82.9468
 L -225.813,84.0366 L -225.24,85.8 L -225.813,87.5634 L -227.313,88.6532 z
M -33.587,88.6532 L -35.087,87.5634 L -35.66,85.8 L -35.087,84.0366 L -33.587,82.9468 L -31.733,82.9468
 L -30.233,84.0366 L -29.66,85.8 L -30.233,87.5634 L -31.733,88.6532 z
M -104.707,88.6532 L -106.207,87.5634 L -106.78,85.8 L -106.207,84.0366 L -104.707,82.9468 L -102.853,82.9468
 L -101.353,84.0366 L -100.78,85.8 L -101.353,87.5634 L -102.853,88.6532 z
M -246.947,88.6532 L -248.447,87.5634 L -249.02,85.8 L -248.447,84.0366 L -246.947,82.9468 L -245.093,82.9468
 L -243.593,84.0366 L -243.02,85.8 L -243.593,87.5634 L -245.093,88.6532 z
M -11.785,92.4596 L -11.785,90.7404 L -10.4409,89.6685 L -8.76475,90.051 L -8.01881,91.6 L -8.76475,93.149
 L -10.4409,93.5315 z
M -296.585,92.4596 L -296.585,90.7404 L -295.241,89.6685 L -293.565,90.051 L -292.819,91.6 L -293.565,93.149
 L -295.241,93.5315 z
M -140.267,100.653 L -141.767,99.5634 L -142.34,97.8 L -141.767,96.0366 L -140.267,94.9468 L -138.413,94.9468
 L -136.913,96.0366 L -136.34,97.8 L -136.913,99.5634 L -138.413,100.653 z
M -35.087,96.0366 L -33.587,94.9468 L -31.733,94.9468 L -30.233,96.0366 L -29.66,97.8 L -30.233,99.5634
 L -31.733,100.653 L -33.587,100.653 L -35.087,99.5634 L -35.66,97.8 z
M -175.827,100.653 L -177.327,99.5634 L -177.9,97.8 L -177.327,96.0366 L -175.827,94.9468 L -173.973,94.9468
 L -172.473,96.0366 L -171.9,97.8 L -172.473,99.5634 L -173.973,100.653 z
M -193.607,100.653 L -195.107,99.5634 L -195.68,97.8 L -195.107,96.0366 L -193.607,94.9468 L -191.753,94.9468
 L -190.253,96.0366 L -189.68,97.8 L -190.253,99.5634 L -191.753,100.653 z
M -88.427,96.0366 L -86.927,94.9468 L -85.0729,94.9468 L -83.5729,96.0366 L -83,97.8 L -83.5729,99.5634
 L -85.0729,100.653 L -86.927,100.653 L -88.427,99.5634 L -89,97.8 z
M -264.727,100.653 L -266.227,99.5634 L -266.8,97.8 L -266.227,96.0366 L -264.727,94.9468 L -262.873,94.9468
 L -261.373,96.0366 L -260.8,97.8 L -261.373,99.5634 L -262.873,100.653 z
M -229.167,100.653 L -230.667,99.5634 L -231.24,97.8 L -230.667,96.0366 L -229.167,94.9468 L -227.313,94.9468
 L -225.813,96.0366 L -225.24,97.8 L -225.813,99.5634 L -227.313,100.653 z
M -158.047,100.653 L -159.547,99.5634 L -160.12,97.8 L -159.547,96.0366 L -158.047,94.9468 L -156.193,94.9468
 L -154.693,96.0366 L -154.12,97.8 L -154.693,99.5634 L -156.193,100.653 z
M -246.947,100.653 L -248.447,99.5634 L -249.02,97.8 L -248.447,96.0366 L -246.947,94.9468 L -245.093,94.9468
 L -243.593,96.0366 L -243.02,97.8 L -243.593,99.5634 L -245.093,100.653 z
M -122.487,100.653 L -123.987,99.5634 L -124.56,97.8 L -123.987,96.0366 L -122.487,94.9468 L -120.633,94.9468
 L -119.133,96.0366 L -118.56,97.8 L -119.133,99.5634 L -120.633,100.653 z
M -211.387,100.653 L -212.887,99.5634 L -213.46,97.8 L -212.887,96.0366 L -211.387,94.9468 L -209.533,94.9468
 L -208.033,96.0366 L -207.46,97.8 L -208.033,99.5634 L -209.533,100.653 z
M -69.147,100.653 L -70.647,99.5634 L -71.22,97.8 L -70.647,96.0366 L -69.147,94.9468 L -67.293,94.9468
 L -65.793,96.0366 L -65.22,97.8 L -65.793,99.5634 L -67.293,100.653 z
M -175.827,112.653 L -177.327,111.563 L -177.9,109.8 L -177.327,108.037 L -175.827,106.947 L -173.973,106.947
 L -172.473,108.037 L -171.9,109.8 L -172.473,111.563 L -173.973,112.653 z
M -193.607,112.653 L -195.107,111.563 L -195.68,109.8 L -195.107,108.037 L -193.607,106.947 L -191.753,106.947
 L -190.253,108.037 L -189.68,109.8 L -190.253,111.563 L -191.753,112.653 z
M -229.167,112.653 L -230.667,111.563 L -231.24,109.8 L -230.667,108.037 L -229.167,106.947 L -227.313,106.947
 L -225.813,108.037 L -225.24,109.8 L -225.813,111.563 L -227.313,112.653 z
M -158.047,112.653 L -159.547,111.563 L -160.12,109.8 L -159.547,108.037 L -158.047,106.947 L -156.193,106.947
 L -154.693,108.037 L -154.12,109.8 L -154.693,111.563 L -156.193,112.653 z
M -140.267,112.653 L -141.767,111.563 L -142.34,109.8 L -141.767,108.037 L -140.267,106.947 L -138.413,106.947
 L -136.913,108.037 L -136.34,109.8 L -136.913,111.563 L -138.413,112.653 z
M -104.707,112.653 L -106.207,111.563 L -106.78,109.8 L -106.207,108.037 L -104.707,106.947 L -102.853,106.947
 L -101.353,108.037 L -100.78,109.8 L -101.353,111.563 L -102.853,112.653 z
M -211.387,112.653 L -212.887,111.563 L -213.46,109.8 L -212.887,108.037 L -211.387,106.947 L -209.533,106.947
 L -208.033,108.037 L -207.46,109.8 L -208.033,111.563 L -209.533,112.653 z
M -264.727,112.653 L -266.227,111.563 L -266.8,109.8 L -266.227,108.037 L -264.727,106.947 L -262.873,106.947
 L -261.373,108.037 L -260.8,109.8 L -261.373,111.563 L -262.873,112.653 z
M -122.487,112.653 L -123.987,111.563 L -124.56,109.8 L -123.987,108.037 L -122.487,106.947 L -120.633,106.947
 L -119.133,108.037 L -118.56,109.8 L -119.133,111.563 L -120.633,112.653 z
M -69.147,112.653 L -70.647,111.563 L -71.22,109.8 L -70.647,108.037 L -69.147,106.947 L -67.293,106.947
 L -65.793,108.037 L -65.22,109.8 L -65.793,111.563 L -67.293,112.653 z
M -86.927,112.653 L -88.427,111.563 L -89,109.8 L -88.427,108.037 L -86.927,106.947 L -85.0729,106.947
 L -83.5729,108.037 L -83,109.8 L -83.5729,111.563 L -85.0729,112.653 z
M -51.367,112.653 L -52.867,111.563 L -53.44,109.8 L -52.867,108.037 L -51.367,106.947 L -49.513,106.947
 L -48.013,108.037 L -47.44,109.8 L -48.013,111.563 L -49.513,112.653 z
M -246.947,112.653 L -248.447,111.563 L -249.02,109.8 L -248.447,108.037 L -246.947,106.947 L -245.093,106.947
 L -243.593,108.037 L -243.02,109.8 L -243.593,111.563 L -245.093,112.653 z
M -33.587,112.653 L -35.087,111.563 L -35.66,109.8 L -35.087,108.037 L -33.587,106.947 L -31.733,106.947
 L -30.233,108.037 L -29.66,109.8 L -30.233,111.563 L -31.733,112.653 z
M -11.785,117.86 L -11.785,116.14 L -10.4409,115.068 L -8.76475,115.451 L -8.01881,117 L -8.76475,118.549
 L -10.4409,118.932 z
M -296.585,117.86 L -296.585,116.14 L -295.241,115.068 L -293.565,115.451 L -292.819,117 L -293.565,118.549
 L -295.241,118.932 z
M -35.087,120.037 L -33.587,118.947 L -31.733,118.947 L -30.233,120.037 L -29.66,121.8 L -30.233,123.563
 L -31.733,124.653 L -33.587,124.653 L -35.087,123.563 L -35.66,121.8 z
M -264.727,124.653 L -266.227,123.563 L -266.8,121.8 L -266.227,120.037 L -264.727,118.947 L -262.873,118.947
 L -261.373,120.037 L -260.8,121.8 L -261.373,123.563 L -262.873,124.653 z
M -211.387,124.653 L -212.887,123.563 L -213.46,121.8 L -212.887,120.037 L -211.387,118.947 L -209.533,118.947
 L -208.033,120.037 L -207.46,121.8 L -208.033,123.563 L -209.533,124.653 z
M -104.707,124.653 L -106.207,123.563 L -106.78,121.8 L -106.207,120.037 L -104.707,118.947 L -102.853,118.947
 L -101.353,120.037 L -100.78,121.8 L -101.353,123.563 L -102.853,124.653 z
M -193.607,124.653 L -195.107,123.563 L -195.68,121.8 L -195.107,120.037 L -193.607,118.947 L -191.753,118.947
 L -190.253,120.037 L -189.68,121.8 L -190.253,123.563 L -191.753,124.653 z
M -229.167,124.653 L -230.667,123.563 L -231.24,121.8 L -230.667,120.037 L -229.167,118.947 L -227.313,118.947
 L -225.813,120.037 L -225.24,121.8 L -225.813,123.563 L -227.313,124.653 z
M -122.487,124.653 L -123.987,123.563 L -124.56,121.8 L -123.987,120.037 L -122.487,118.947 L -120.633,118.947
 L -119.133,120.037 L -118.56,121.8 L -119.133,123.563 L -120.633,124.653 z
M -70.647,120.037 L -69.147,118.947 L -67.293,118.947 L -65.793,120.037 L -65.22,121.8 L -65.793,123.563
 L -67.293,124.653 L -69.147,124.653 L -70.647,123.563 L -71.22,121.8 z
M -141.767,120.037 L -140.267,118.947 L -138.413,118.947 L -136.913,120.037 L -136.34,121.8 L -136.913,123.563
 L -138.413,124.653 L -140.267,124.653 L -141.767,123.563 L -142.34,121.8 z
M -246.947,124.653 L -248.447,123.563 L -249.02,121.8 L -248.447,120.037 L -246.947,118.947 L -245.093,118.947
 L -243.593,120.037 L -243.02,121.8 L -243.593,123.563 L -245.093,124.653 z
M -159.547,132.037 L -158.047,130.947 L -156.193,130.947 L -154.693,132.037 L -154.12,133.8 L -154.693,135.563
 L -156.193,136.653 L -158.047,136.653 L -159.547,135.563 L -160.12,133.8 z
M -33.587,136.653 L -35.087,135.563 L -35.66,133.8 L -35.087,132.037 L -33.587,130.947 L -31.733,130.947
 L -30.233,132.037 L -29.66,133.8 L -30.233,135.563 L -31.733,136.653 z
M -70.647,132.037 L -69.147,130.947 L -67.293,130.947 L -65.793,132.037 L -65.22,133.8 L -65.793,135.563
 L -67.293,136.653 L -69.147,136.653 L -70.647,135.563 L -71.22,133.8 z
M -123.987,132.037 L -122.487,130.947 L -120.633,130.947 L -119.133,132.037 L -118.56,133.8 L -119.133,135.563
 L -120.633,136.653 L -122.487,136.653 L -123.987,135.563 L -124.56,133.8 z
M -211.387,136.653 L -212.887,135.563 L -213.46,133.8 L -212.887,132.037 L -211.387,130.947 L -209.533,130.947
 L -208.033,132.037 L -207.46,133.8 L -208.033,135.563 L -209.533,136.653 z
M -264.727,136.653 L -266.227,135.563 L -266.8,133.8 L -266.227,132.037 L -264.727,130.947 L -262.873,130.947
 L -261.373,132.037 L -260.8,133.8 L -261.373,135.563 L -262.873,136.653 z
M -246.947,136.653 L -248.447,135.563 L -249.02,133.8 L -248.447,132.037 L -246.947,130.947 L -245.093,130.947
 L -243.593,132.037 L -243.02,133.8 L -243.593,135.563 L -245.093,136.653 z
M -51.367,136.653 L -52.867,135.563 L -53.44,133.8 L -52.867,132.037 L -51.367,130.947 L -49.513,130.947
 L -48.013,132.037 L -47.44,133.8 L -48.013,135.563 L -49.513,136.653 z
M -229.167,136.653 L -230.667,135.563 L -231.24,133.8 L -230.667,132.037 L -229.167,130.947 L -227.313,130.947
 L -225.813,132.037 L -225.24,133.8 L -225.813,135.563 L -227.313,136.653 z
M -193.607,136.653 L -195.107,135.563 L -195.68,133.8 L -195.107,132.037 L -193.607,130.947 L -191.753,130.947
 L -190.253,132.037 L -189.68,133.8 L -190.253,135.563 L -191.753,136.653 z
M -296.585,143.26 L -296.585,141.54 L -295.241,140.468 L -293.565,140.851 L -292.819,142.4 L -293.565,143.949
 L -295.241,144.332 z
M -11.785,143.26 L -11.785,141.54 L -10.4409,140.468 L -8.76475,140.851 L -8.01881,142.4 L -8.76475,143.949
 L -10.4409,144.332 z
M -246.947,148.653 L -248.447,147.563 L -249.02,145.8 L -248.447,144.037 L -246.947,142.947 L -245.093,142.947
 L -243.593,144.037 L -243.02,145.8 L -243.593,147.563 L -245.093,148.653 z
M -51.367,148.653 L -52.867,147.563 L -53.44,145.8 L -52.867,144.037 L -51.367,142.947 L -49.513,142.947
 L -48.013,144.037 L -47.44,145.8 L -48.013,147.563 L -49.513,148.653 z
M -104.707,148.653 L -106.207,147.563 L -106.78,145.8 L -106.207,144.037 L -104.707,142.947 L -102.853,142.947
 L -101.353,144.037 L -100.78,145.8 L -101.353,147.563 L -102.853,148.653 z
M -158.047,148.653 L -159.547,147.563 L -160.12,145.8 L -159.547,144.037 L -158.047,142.947 L -156.193,142.947
 L -154.693,144.037 L -154.12,145.8 L -154.693,147.563 L -156.193,148.653 z
M -70.647,144.037 L -69.147,142.947 L -67.293,142.947 L -65.793,144.037 L -65.22,145.8 L -65.793,147.563
 L -67.293,148.653 L -69.147,148.653 L -70.647,147.563 L -71.22,145.8 z
M -177.327,144.037 L -175.827,142.947 L -173.973,142.947 L -172.473,144.037 L -171.9,145.8 L -172.473,147.563
 L -173.973,148.653 L -175.827,148.653 L -177.327,147.563 L -177.9,145.8 z
M -264.727,148.653 L -266.227,147.563 L -266.8,145.8 L -266.227,144.037 L -264.727,142.947 L -262.873,142.947
 L -261.373,144.037 L -260.8,145.8 L -261.373,147.563 L -262.873,148.653 z
M -229.167,148.653 L -230.667,147.563 L -231.24,145.8 L -230.667,144.037 L -229.167,142.947 L -227.313,142.947
 L -225.813,144.037 L -225.24,145.8 L -225.813,147.563 L -227.313,148.653 z
M -122.487,148.653 L -123.987,147.563 L -124.56,145.8 L -123.987,144.037 L -122.487,142.947 L -120.633,142.947
 L -119.133,144.037 L -118.56,145.8 L -119.133,147.563 L -120.633,148.653 z
M -140.267,148.653 L -141.767,147.563 L -142.34,145.8 L -141.767,144.037 L -140.267,142.947 L -138.413,142.947
 L -136.913,144.037 L -136.34,145.8 L -136.913,147.563 L -138.413,148.653 z
M -33.587,148.653 L -35.087,147.563 L -35.66,145.8 L -35.087,144.037 L -33.587,142.947 L -31.733,142.947
 L -30.233,144.037 L -29.66,145.8 L -30.233,147.563 L -31.733,148.653 z
M -229.167,160.653 L -230.667,159.563 L -231.24,157.8 L -230.667,156.037 L -229.167,154.947 L -227.313,154.947
 L -225.813,156.037 L -225.24,157.8 L -225.813,159.563 L -227.313,160.653 z
M -69.147,160.653 L -70.647,159.563 L -71.22,157.8 L -70.647,156.037 L -69.147,154.947 L -67.293,154.947
 L -65.793,156.037 L -65.22,157.8 L -65.793,159.563 L -67.293,160.653 z
M -246.947,160.653 L -248.447,159.563 L -249.02,157.8 L -248.447,156.037 L -246.947,154.947 L -245.093,154.947
 L -243.593,156.037 L -243.02,157.8 L -243.593,159.563 L -245.093,160.653 z
M -264.727,160.653 L -266.227,159.563 L -266.8,157.8 L -266.227,156.037 L -264.727,154.947 L -262.873,154.947
 L -261.373,156.037 L -260.8,157.8 L -261.373,159.563 L -262.873,160.653 z
M -33.587,160.653 L -35.087,159.563 L -35.66,157.8 L -35.087,156.037 L -33.587,154.947 L -31.733,154.947
 L -30.233,156.037 L -29.66,157.8 L -30.233,159.563 L -31.733,160.653 z
M -51.367,160.653 L -52.867,159.563 L -53.44,157.8 L -52.867,156.037 L -51.367,154.947 L -49.513,154.947
 L -48.013,156.037 L -47.44,157.8 L -48.013,159.563 L -49.513,160.653 z
M -175.827,154.947 L -173.973,154.947 L -172.473,156.037 L -171.9,157.8 L -172.473,159.563 L -173.973,160.653
 L -175.827,160.653 L -177.327,159.563 L -177.9,157.8 L -177.327,156.037 z
M -104.707,154.947 L -102.853,154.947 L -101.353,156.037 L -100.78,157.8 L -101.353,159.563 L -102.853,160.653
 L -104.707,160.653 L -106.207,159.563 L -106.78,157.8 L -106.207,156.037 z
M -86.927,160.653 L -88.427,159.563 L -89,157.8 L -88.427,156.037 L -86.927,154.947 L -85.0729,154.947
 L -83.5729,156.037 L -83,157.8 L -83.5729,159.563 L -85.0729,160.653 z
M -211.387,160.653 L -212.887,159.563 L -213.46,157.8 L -212.887,156.037 L -211.387,154.947 L -209.533,154.947
 L -208.033,156.037 L -207.46,157.8 L -208.033,159.563 L -209.533,160.653 z
M -296.585,168.66 L -296.585,166.94 L -295.241,165.868 L -293.565,166.251 L -292.819,167.8 L -293.565,169.349
 L -295.241,169.732 z
M -11.785,168.66 L -11.785,166.94 L -10.4409,165.868 L -8.76475,166.251 L -8.01881,167.8 L -8.76475,169.349
 L -10.4409,169.732 z
M -37.095,181.92 L -37.095,180.2 L -35.7509,179.128 L -34.0747,179.511 L -33.3288,181.06 L -34.0747,182.609
 L -35.7509,182.992 z
M -240.295,181.92 L -240.295,180.2 L -238.951,179.128 L -237.275,179.511 L -236.529,181.06 L -237.275,182.609
 L -238.951,182.992 z
M -194.575,181.92 L -194.575,180.2 L -193.231,179.128 L -191.555,179.511 L -190.809,181.06 L -191.555,182.609
 L -193.231,182.992 z
M -260.615,181.92 L -260.615,180.2 L -259.271,179.128 L -257.595,179.511 L -256.849,181.06 L -257.595,182.609
 L -259.271,182.992 z
M -11.785,194.06 L -11.785,192.34 L -10.4409,191.268 L -8.76475,191.651 L -8.01881,193.2 L -8.76475,194.749
 L -10.4409,195.132 z
M -296.585,194.06 L -296.585,192.34 L -295.241,191.268 L -293.565,191.651 L -292.819,193.2 L -293.565,194.749
 L -295.241,195.132 z
M -11.785,219.46 L -11.785,217.74 L -10.4409,216.668 L -8.76475,217.051 L -8.01881,218.6 L -8.76475,220.149
 L -10.4409,220.532 z
M -296.585,219.46 L -296.585,217.74 L -295.241,216.668 L -293.565,217.051 L -292.819,218.6 L -293.565,220.149
 L -295.241,220.532 z
M -11.785,244.86 L -11.785,243.14 L -10.4409,242.068 L -8.76475,242.451 L -8.01881,244 L -8.76475,245.549
 L -10.4409,245.932 z
M -296.585,244.86 L -296.585,243.14 L -295.241,242.068 L -293.565,242.451 L -292.819,244 L -293.565,245.549
 L -295.241,245.932 z
M -37.095,254.31 L -37.095,252.59 L -35.7509,251.518 L -34.0747,251.901 L -33.3288,253.45 L -34.0747,254.999
 L -35.7509,255.382 z
M -194.575,254.31 L -194.575,252.59 L -193.231,251.518 L -191.555,251.901 L -190.809,253.45 L -191.555,254.999
 L -193.231,255.382 z
M -296.585,270.26 L -296.585,268.54 L -295.241,267.468 L -293.565,267.851 L -292.819,269.4 L -293.565,270.949
 L -295.241,271.332 z
M -11.785,270.26 L -11.785,268.54 L -10.4409,267.468 L -8.76475,267.851 L -8.01881,269.4 L -8.76475,270.949
 L -10.4409,271.332 z
M -138.585,275.66 L -138.585,273.94 L -137.241,272.868 L -135.565,273.251 L -134.819,274.8 L -135.565,276.349
 L -137.241,276.732 z
M -265.585,275.66 L -265.585,273.94 L -264.241,272.868 L -262.565,273.251 L -261.819,274.8 L -262.565,276.349
 L -264.241,276.732 z
M -214.785,275.66 L -214.785,273.94 L -213.441,272.868 L -211.765,273.251 L -211.019,274.8 L -211.765,276.349
 L -213.441,276.732 z
M -189.385,275.66 L -189.385,273.94 L -188.041,272.868 L -186.365,273.251 L -185.619,274.8 L -186.365,276.349
 L -188.041,276.732 z
M -163.985,275.66 L -163.985,273.94 L -162.641,272.868 L -160.965,273.251 L -160.219,274.8 L -160.965,276.349
 L -162.641,276.732 z
M -36.985,275.66 L -36.985,273.94 L -35.6409,272.868 L -33.9647,273.251 L -33.2188,274.8 L -33.9647,276.349
 L -35.6409,276.732 z
M -62.385,275.66 L -62.385,273.94 L -61.0409,272.868 L -59.3647,273.251 L -58.6188,274.8 L -59.3647,276.349
 L -61.0409,276.732 z
M -240.185,275.66 L -240.185,273.94 L -238.841,272.868 L -237.165,273.251 L -236.419,274.8 L -237.165,276.349
 L -238.841,276.732 z
M -113.185,275.66 L -113.185,273.94 L -111.841,272.868 L -110.165,273.251 L -109.419,274.8 L -110.165,276.349
 L -111.841,276.732 z
M -87.785,275.66 L -87.785,273.94 L -86.4409,272.868 L -84.7647,273.251 L -84.0188,274.8 L -84.7647,276.349
 L -86.4409,276.732 z
M -264.727,52.6532 L -266.227,51.5634 L -266.8,49.8 L -266.227,48.0366 L -264.727,46.9468 L -262.873,46.9468
 L -261.373,48.0366 L -260.8,49.8 L -261.373,51.5634 L -262.873,52.6532 z
M -86.927,64.6532 L -88.427,63.5634 L -89,61.8 L -88.427,60.0366 L -86.927,58.9468 L -85.0729,58.9468
 L -83.5729,60.0366 L -83,61.8 L -83.5729,63.5634 L -85.0729,64.6532 z
M -193.607,64.6532 L -195.107,63.5634 L -195.68,61.8 L -195.107,60.0366 L -193.607,58.9468 L -191.753,58.9468
 L -190.253,60.0366 L -189.68,61.8 L -190.253,63.5634 L -191.753,64.6532 z
M -264.727,64.6532 L -266.227,63.5634 L -266.8,61.8 L -266.227,60.0366 L -264.727,58.9468 L -262.873,58.9468
 L -261.373,60.0366 L -260.8,61.8 L -261.373,63.5634 L -262.873,64.6532 z
M -104.707,76.6532 L -106.207,75.5634 L -106.78,73.8 L -106.207,72.0366 L -104.707,70.9468 L -102.853,70.9468
 L -101.353,72.0366 L -100.78,73.8 L -101.353,75.5634 L -102.853,76.6532 z
M -88.427,72.0366 L -86.927,70.9468 L -85.0729,70.9468 L -83.5729,72.0366 L -83,73.8 L -83.5729,75.5634
 L -85.0729,76.6532 L -86.927,76.6532 L -88.427,75.5634 L -89,73.8 z
M -104.707,100.653 L -106.207,99.5634 L -106.78,97.8 L -106.207,96.0366 L -104.707,94.9468 L -102.853,94.9468
 L -101.353,96.0366 L -100.78,97.8 L -101.353,99.5634 L -102.853,100.653 z
M -51.367,100.653 L -52.867,99.5634 L -53.44,97.8 L -52.867,96.0366 L -51.367,94.9468 L -49.513,94.9468
 L -48.013,96.0366 L -47.44,97.8 L -48.013,99.5634 L -49.513,100.653 z
M -173.973,124.653 L -175.827,124.653 L -177.327,123.563 L -177.9,121.8 L -177.327,120.037 L -175.827,118.947
 L -173.973,118.947 L -172.473,120.037 L -171.9,121.8 L -172.473,123.563 z
M -86.927,124.653 L -88.427,123.563 L -89,121.8 L -88.427,120.037 L -86.927,118.947 L -85.0729,118.947
 L -83.5729,120.037 L -83,121.8 L -83.5729,123.563 L -85.0729,124.653 z
M -158.047,118.947 L -156.193,118.947 L -154.693,120.037 L -154.12,121.8 L -154.693,123.563 L -156.193,124.653
 L -158.047,124.653 L -159.547,123.563 L -160.12,121.8 L -159.547,120.037 z
M -51.367,124.653 L -52.867,123.563 L -53.44,121.8 L -52.867,120.037 L -51.367,118.947 L -49.513,118.947
 L -48.013,120.037 L -47.44,121.8 L -48.013,123.563 L -49.513,124.653 z
M -104.707,136.653 L -106.207,135.563 L -106.78,133.8 L -106.207,132.037 L -104.707,130.947 L -102.853,130.947
 L -101.353,132.037 L -100.78,133.8 L -101.353,135.563 L -102.853,136.653 z
M -88.427,132.037 L -86.927,130.947 L -85.0729,130.947 L -83.5729,132.037 L -83,133.8 L -83.5729,135.563
 L -85.0729,136.653 L -86.927,136.653 L -88.427,135.563 L -89,133.8 z
M -140.267,136.653 L -141.767,135.563 L -142.34,133.8 L -141.767,132.037 L -140.267,130.947 L -138.413,130.947
 L -136.913,132.037 L -136.34,133.8 L -136.913,135.563 L -138.413,136.653 z
M -175.827,136.653 L -177.327,135.563 L -177.9,133.8 L -177.327,132.037 L -175.827,130.947 L -173.973,130.947
 L -172.473,132.037 L -171.9,133.8 L -172.473,135.563 L -173.973,136.653 z
M -86.927,148.653 L -88.427,147.563 L -89,145.8 L -88.427,144.037 L -86.927,142.947 L -85.0729,142.947
 L -83.5729,144.037 L -83,145.8 L -83.5729,147.563 L -85.0729,148.653 z
M -193.607,148.653 L -195.107,147.563 L -195.68,145.8 L -195.107,144.037 L -193.607,142.947 L -191.753,142.947
 L -190.253,144.037 L -189.68,145.8 L -190.253,147.563 L -191.753,148.653 z
M -209.533,148.653 L -211.387,148.653 L -212.887,147.563 L -213.46,145.8 L -212.887,144.037 L -211.387,142.947
 L -209.533,142.947 L -208.033,144.037 L -207.46,145.8 L -208.033,147.563 z
M -191.753,160.653 L -193.607,160.653 L -195.107,159.563 L -195.68,157.8 L -195.107,156.037 L -193.607,154.947
 L -191.753,154.947 L -190.253,156.037 L -189.68,157.8 L -190.253,159.563 z
M -138.413,160.653 L -140.267,160.653 L -141.767,159.563 L -142.34,157.8 L -141.767,156.037 L -140.267,154.947
 L -138.413,154.947 L -136.913,156.037 L -136.34,157.8 L -136.913,159.563 z
M -122.487,154.947 L -120.633,154.947 L -119.133,156.037 L -118.56,157.8 L -119.133,159.563 L -120.633,160.653
 L -122.487,160.653 L -123.987,159.563 L -124.56,157.8 L -123.987,156.037 z
M -158.047,160.653 L -159.547,159.563 L -160.12,157.8 L -159.547,156.037 L -158.047,154.947 L -156.193,154.947
 L -154.693,156.037 L -154.12,157.8 L -154.693,159.563 L -156.193,160.653 z
" stroke="black" fill="lightgray" stroke-width="0.5"/>
</svg>
