<?xml version="1.0" standalone="no"?>
<!DOCTYPE svg PUBLIC "-//W3C//DTD SVG 1.1//EN" "http://www.w3.org/Graphics/SVG/1.1/DTD/svg11.dtd">
<svg width="304mm" height="304mm" viewBox="-303 -1 304 304" xmlns="http://www.w3.org/2000/svg" version="1.1">
<title>OpenSCAD Model</title>
<path d="
M -264.26,298.21 L -274.26,298.21 L -274.26,287.46 L -206.26,287.46 L -206.26,287.36 L -204.76,287.36
 L -204.76,302.26 L -190.26,302.26 L -190.26,298.21 L -198.76,298.21 L -198.76,287.36 L -151.86,287.36
 L -151.86,302.26 L 9.76563e-06,302.26 L 9.76563e-06,-9.76563e-06 L -302.26,-9.76563e-06 L -302.26,287.36 L -279.26,287.36
 L -279.26,302.26 L -264.26,302.26 z
M -18.3825,11.244 L -18.5039,11.226 L -18.6229,11.1962 L -18.7384,11.1548 L -18.8492,11.1024 L -18.9545,11.0393
 L -19.053,10.9663 L -19.1439,10.8839 L -19.2263,10.793 L -19.2993,10.6944 L -19.3624,10.5893 L -19.4148,10.4784
 L -19.4562,10.3628 L -19.486,10.2439 L -19.504,10.1225 L -19.51,9.99999 L -19.504,9.87749 L -19.486,9.75612
 L -19.4562,9.63714 L -19.4148,9.52166 L -19.3624,9.41076 L -19.2993,9.30553 L -19.2263,9.20702 L -19.1439,9.11611
 L -19.053,9.03374 L -18.9545,8.96065 L -18.8492,8.8976 L -18.7384,8.84514 L -18.6229,8.80382 L -18.5039,8.77401
 L -18.3825,8.75603 L -18.26,8.74999 L -18.1375,8.75603 L -18.0161,8.77401 L -17.8971,8.80382 L -17.7816,8.84514
 L -17.6708,8.8976 L -17.5655,8.96065 L -17.467,9.03374 L -17.3761,9.11611 L -17.2938,9.20702 L -17.2207,9.30553
 L -17.1576,9.41076 L -17.1052,9.52166 L -17.0638,9.63714 L -17.034,9.75612 L -17.016,9.87749 L -17.01,9.99999
 L -17.016,10.1225 L -17.034,10.2439 L -17.0638,10.3628 L -17.1052,10.4784 L -17.1576,10.5893 L -17.2207,10.6944
 L -17.2938,10.793 L -17.3761,10.8839 L -17.467,10.9663 L -17.5655,11.0393 L -17.6708,11.1024 L -17.7816,11.1548
 L -17.8971,11.1962 L -18.0161,11.226 L -18.1375,11.244 L -18.26,11.25 z
M -196.183,11.244 L -196.304,11.226 L -196.423,11.1962 L -196.538,11.1548 L -196.649,11.1024 L -196.754,11.0393
 L -196.853,10.9663 L -196.944,10.8839 L -197.026,10.793 L -197.099,10.6944 L -197.162,10.5893 L -197.215,10.4784
 L -197.256,10.3628 L -197.286,10.2439 L -197.304,10.1225 L -197.31,9.99999 L -197.304,9.87749 L -197.286,9.75612
 L -197.256,9.63714 L -197.215,9.52166 L -197.162,9.41076 L -197.099,9.30553 L -197.026,9.20702 L -196.944,9.11611
 L -196.853,9.03374 L -196.754,8.96065 L -196.649,8.8976 L -196.538,8.84514 L -196.423,8.80382 L -196.304,8.77401
 L -196.183,8.75603 L -196.06,8.74999 L -195.937,8.75603 L -195.816,8.77401 L -195.697,8.80382 L -195.582,8.84514
 L -195.471,8.8976 L -195.366,8.96065 L -195.267,9.03374 L -195.176,9.11611 L -195.094,9.20702 L -195.021,9.30553
 L -194.958,9.41076 L -194.905,9.52166 L -194.864,9.63714 L -194.834,9.75612 L -194.816,9.87749 L -194.81,9.99999
 L -194.816,10.1225 L -194.834,10.2439 L -194.864,10.3628 L -194.905,10.4784 L -194.958,10.5893 L -195.021,10.6944
 L -195.094,10.793 L -195.176,10.8839 L -195.267,10.9663 L -195.366,11.0393 L -195.471,11.1024 L -195.582,11.1548
 L -195.697,11.1962 L -195.816,11.226 L -195.937,11.244 L -196.06,11.25 z
M -170.783,11.244 L -170.904,11.226 L -171.023,11.1962 L -171.138,11.1548 L -171.249,11.1024 L -171.354,11.0393
 L -171.453,10.9663 L -171.544,10.8839 L -171.626,10.793 L -171.699,10.6944 L -171.762,10.5893 L -171.815,10.4784
 L -171.856,10.3628 L -171.886,10.2439 L -171.904,10.1225 L -171.91,9.99999 L -171.904,9.87749 L -171.886,9.75612
 L -171.856,9.63714 L -171.815,9.52166 L -171.762,9.41076 L -171.699,9.30553 L -171.626,9.20702 L -171.544,9.11611
 L -171.453,9.03374 L -171.354,8.96065 L -171.249,8.8976 L -171.138,8.84514 L -171.023,8.80382 L -170.904,8.77401
 L -170.783,8.75603 L -170.66,8.74999 L -170.537,8.75603 L -170.416,8.77401 L -170.297,8.80382 L -170.182,8.84514
 L -170.071,8.8976 L -169.966,8.96065 L -169.867,9.03374 L -169.776,9.11611 L -169.694,9.20702 L -169.621,9.30553
 L -169.558,9.41076 L -169.505,9.52166 L -169.464,9.63714 L -169.434,9.75612 L -169.416,9.87749 L -169.41,9.99999
 L -169.416,10.1225 L -169.434,10.2439 L -169.464,10.3628 L -169.505,10.4784 L -169.558,10.5893 L -169.621,10.6944
 L -169.694,10.793 L -169.776,10.8839 L -169.867,10.9663 L -169.966,11.0393 L -170.071,11.1024 L -170.182,11.1548
 L -170.297,11.1962 L -170.416,11.226 L -170.537,11.244 L -170.66,11.25 z
M -43.7825,11.244 L -43.9039,11.226 L -44.0229,11.1962 L -44.1384,11.1548 L -44.2492,11.1024 L -44.3545,11.0393
 L -44.453,10.9663 L -44.5439,10.8839 L -44.6263,10.793 L -44.6993,10.6944 L -44.7624,10.5893 L -44.8149,10.4784
 L -44.8562,10.3628 L -44.886,10.2439 L -44.904,10.1225 L -44.91,9.99999 L -44.904,9.87749 L -44.886,9.75612
 L -44.8562,9.63714 L -44.8149,9.52166 L -44.7624,9.41076 L -44.6993,9.30553 L -44.6263,9.20702 L -44.5439,9.11611
 L -44.453,9.03374 L -44.3545,8.96065 L -44.2492,8.8976 L -44.1384,8.84514 L -44.0229,8.80382 L -43.9039,8.77401
 L -43.7825,8.75603 L -43.66,8.74999 L -43.5375,8.75603 L -43.4161,8.77401 L -43.2971,8.80382 L -43.1816,8.84514
 L -43.0708,8.8976 L -42.9655,8.96065 L -42.867,9.03374 L -42.7761,9.11611 L -42.6937,9.20702 L -42.6207,9.30553
 L -42.5576,9.41076 L -42.5051,9.52166 L -42.4638,9.63714 L -42.434,9.75612 L -42.416,9.87749 L -42.41,9.99999
 L -42.416,10.1225 L -42.434,10.2439 L -42.4638,10.3628 L -42.5051,10.4784 L -42.5576,10.5893 L -42.6207,10.6944
 L -42.6937,10.793 L -42.7761,10.8839 L -42.867,10.9663 L -42.9655,11.0393 L -43.0708,11.1024 L -43.1816,11.1548
 L -43.2971,11.1962 L -43.4161,11.226 L -43.5375,11.244 L -43.66,11.25 z
M -221.583,11.244 L -221.704,11.226 L -221.823,11.1962 L -221.938,11.1548 L -222.049,11.1024 L -222.154,11.0393
 L -222.253,10.9663 L -222.344,10.8839 L -222.426,10.793 L -222.499,10.6944 L -222.562,10.5893 L -222.615,10.4784
 L -222.656,10.3628 L -222.686,10.2439 L -222.704,10.1225 L -222.71,9.99999 L -222.704,9.87749 L -222.686,9.75612
 L -222.656,9.63714 L -222.615,9.52166 L -222.562,9.41076 L -222.499,9.30553 L -222.426,9.20702 L -222.344,9.11611
 L -222.253,9.03374 L -222.154,8.96065 L -222.049,8.8976 L -221.938,8.84514 L -221.823,8.80382 L -221.704,8.77401
 L -221.583,8.75603 L -221.46,8.74999 L -221.337,8.75603 L -221.216,8.77401 L -221.097,8.80382 L -220.982,8.84514
 L -220.871,8.8976 L -220.766,8.96065 L -220.667,9.03374 L -220.576,9.11611 L -220.494,9.20702 L -220.421,9.30553
 L -220.358,9.41076 L -220.305,9.52166 L -220.264,9.63714 L -220.234,9.75612 L -220.216,9.87749 L -220.21,9.99999
 L -220.216,10.1225 L -220.234,10.2439 L -220.264,10.3628 L -220.305,10.4784 L -220.358,10.5893 L -220.421,10.6944
 L -220.494,10.793 L -220.576,10.8839 L -220.667,10.9663 L -220.766,11.0393 L -220.871,11.1024 L -220.982,11.1548
 L -221.097,11.1962 L -221.216,11.226 L -221.337,11.244 L -221.46,11.25 z
M -248.104,9.87749 L -248.086,9.75612 L -248.056,9.63714 L -248.015,9.52166 L -247.962,9.41076 L -247.899,9.30553
 L -247.826,9.20702 L -247.744,9.11611 L -247.653,9.03374 L -247.554,8.96065 L -247.449,8.8976 L -247.338,8.84514
 L -247.223,8.80382 L -247.104,8.77401 L -246.983,8.75603 L -246.86,8.74999 L -246.737,8.75603 L -246.616,8.77401
 L -246.497,8.80382 L -246.382,8.84514 L -246.271,8.8976 L -246.166,8.96065 L -246.067,9.03374 L -245.976,9.11611
 L -245.894,9.20702 L -245.821,9.30553 L -245.758,9.41076 L -245.705,9.52166 L -245.664,9.63714 L -245.634,9.75612
 L -245.616,9.87749 L -245.61,9.99999 L -245.616,10.1225 L -245.634,10.2439 L -245.664,10.3628 L -245.705,10.4784
 L -245.758,10.5893 L -245.821,10.6944 L -245.894,10.793 L -245.976,10.8839 L -246.067,10.9663 L -246.166,11.0393
 L -246.271,11.1024 L -246.382,11.1548 L -246.497,11.1962 L -246.616,11.226 L -246.737,11.244 L -246.86,11.25
 L -246.983,11.244 L -247.104,11.226 L -247.223,11.1962 L -247.338,11.1548 L -247.449,11.1024 L -247.554,11.0393
 L -247.653,10.9663 L -247.744,10.8839 L -247.826,10.793 L -247.899,10.6944 L -247.962,10.5893 L -248.015,10.4784
 L -248.056,10.3628 L -248.086,10.2439 L -248.104,10.1225 L -248.11,9.99999 z
M -119.983,11.244 L -120.104,11.226 L -120.223,11.1962 L -120.338,11.1548 L -120.449,11.1024 L -120.554,11.0393
 L -120.653,10.9663 L -120.744,10.8839 L -120.826,10.793 L -120.899,10.6944 L -120.962,10.5893 L -121.015,10.4784
 L -121.056,10.3628 L -121.086,10.2439 L -121.104,10.1225 L -121.11,9.99999 L -121.104,9.87749 L -121.086,9.75612
 L -121.056,9.63714 L -121.015,9.52166 L -120.962,9.41076 L -120.899,9.30553 L -120.826,9.20702 L -120.744,9.11611
 L -120.653,9.03374 L -120.554,8.96065 L -120.449,8.8976 L -120.338,8.84514 L -120.223,8.80382 L -120.104,8.77401
 L -119.983,8.75603 L -119.86,8.74999 L -119.737,8.75603 L -119.616,8.77401 L -119.497,8.80382 L -119.382,8.84514
 L -119.271,8.8976 L -119.166,8.96065 L -119.067,9.03374 L -118.976,9.11611 L -118.894,9.20702 L -118.821,9.30553
 L -118.758,9.41076 L -118.705,9.52166 L -118.664,9.63714 L -118.634,9.75612 L -118.616,9.87749 L -118.61,9.99999
 L -118.616,10.1225 L -118.634,10.2439 L -118.664,10.3628 L -118.705,10.4784 L -118.758,10.5893 L -118.821,10.6944
 L -118.894,10.793 L -118.976,10.8839 L -119.067,10.9663 L -119.166,11.0393 L -119.271,11.1024 L -119.382,11.1548
 L -119.497,11.1962 L -119.616,11.226 L -119.737,11.244 L -119.86,11.25 z
M -145.383,11.244 L -145.504,11.226 L -145.623,11.1962 L -145.738,11.1548 L -145.849,11.1024 L -145.954,11.0393
 L -146.053,10.9663 L -146.144,10.8839 L -146.226,10.793 L -146.299,10.6944 L -146.362,10.5893 L -146.415,10.4784
 L -146.456,10.3628 L -146.486,10.2439 L -146.504,10.1225 L -146.51,9.99999 L -146.504,9.87749 L -146.486,9.75612
 L -146.456,9.63714 L -146.415,9.52166 L -146.362,9.41076 L -146.299,9.30553 L -146.226,9.20702 L -146.144,9.11611
 L -146.053,9.03374 L -145.954,8.96065 L -145.849,8.8976 L -145.738,8.84514 L -145.623,8.80382 L -145.504,8.77401
 L -145.383,8.75603 L -145.26,8.74999 L -145.137,8.75603 L -145.016,8.77401 L -144.897,8.80382 L -144.782,8.84514
 L -144.671,8.8976 L -144.566,8.96065 L -144.467,9.03374 L -144.376,9.11611 L -144.294,9.20702 L -144.221,9.30553
 L -144.158,9.41076 L -144.105,9.52166 L -144.064,9.63714 L -144.034,9.75612 L -144.016,9.87749 L -144.01,9.99999
 L -144.016,10.1225 L -144.034,10.2439 L -144.064,10.3628 L -144.105,10.4784 L -144.158,10.5893 L -144.221,10.6944
 L -144.294,10.793 L -144.376,10.8839 L -144.467,10.9663 L -144.566,11.0393 L -144.671,11.1024 L -144.782,11.1548
 L -144.897,11.1962 L -145.016,11.226 L -145.137,11.244 L -145.26,11.25 z
M -69.1825,11.244 L -69.3039,11.226 L -69.4229,11.1962 L -69.5384,11.1548 L -69.6493,11.1024 L -69.7545,11.0393
 L -69.853,10.9663 L -69.9439,10.8839 L -70.0263,10.793 L -70.0993,10.6944 L -70.1624,10.5893 L -70.2148,10.4784
 L -70.2562,10.3628 L -70.286,10.2439 L -70.304,10.1225 L -70.31,9.99999 L -70.304,9.87749 L -70.286,9.75612
 L -70.2562,9.63714 L -70.2148,9.52166 L -70.1624,9.41076 L -70.0993,9.30553 L -70.0263,9.20702 L -69.9439,9.11611
 L -69.853,9.03374 L -69.7545,8.96065 L -69.6493,8.8976 L -69.5384,8.84514 L -69.4229,8.80382 L -69.3039,8.77401
 L -69.1825,8.75603 L -69.06,8.74999 L -68.9375,8.75603 L -68.8161,8.77401 L -68.6971,8.80382 L -68.5816,8.84514
 L -68.4708,8.8976 L -68.3655,8.96065 L -68.267,9.03374 L -68.1761,9.11611 L -68.0937,9.20702 L -68.0207,9.30553
 L -67.9576,9.41076 L -67.9052,9.52166 L -67.8638,9.63714 L -67.834,9.75612 L -67.816,9.87749 L -67.81,9.99999
 L -67.816,10.1225 L -67.834,10.2439 L -67.8638,10.3628 L -67.9052,10.4784 L -67.9576,10.5893 L -68.0207,10.6944
 L -68.0937,10.793 L -68.1761,10.8839 L -68.267,10.9663 L -68.3655,11.0393 L -68.4708,11.1024 L -68.5816,11.1548
 L -68.6971,11.1962 L -68.8161,11.226 L -68.9375,11.244 L -69.06,11.25 z
M -94.5825,11.244 L -94.7039,11.226 L -94.8229,11.1962 L -94.9384,11.1548 L -95.0492,11.1024 L -95.1545,11.0393
 L -95.253,10.9663 L -95.3439,10.8839 L -95.4263,10.793 L -95.4993,10.6944 L -95.5624,10.5893 L -95.6148,10.4784
 L -95.6562,10.3628 L -95.686,10.2439 L -95.704,10.1225 L -95.71,9.99999 L -95.704,9.87749 L -95.686,9.75612
 L -95.6562,9.63714 L -95.6148,9.52166 L -95.5624,9.41076 L -95.4993,9.30553 L -95.4263,9.20702 L -95.3439,9.11611
 L -95.253,9.03374 L -95.1545,8.96065 L -95.0492,8.8976 L -94.9384,8.84514 L -94.8229,8.80382 L -94.7039,8.77401
 L -94.5825,8.75603 L -94.46,8.74999 L -94.3375,8.75603 L -94.2161,8.77401 L -94.0971,8.80382 L -93.9816,8.84514
 L -93.8707,8.8976 L -93.7655,8.96065 L -93.667,9.03374 L -93.5761,9.11611 L -93.4937,9.20702 L -93.4207,9.30553
 L -93.3576,9.41076 L -93.3052,9.52166 L -93.2638,9.63714 L -93.234,9.75612 L -93.216,9.87749 L -93.21,9.99999
 L -93.216,10.1225 L -93.234,10.2439 L -93.2638,10.3628 L -93.3052,10.4784 L -93.3576,10.5893 L -93.4207,10.6944
 L -93.4937,10.793 L -93.5761,10.8839 L -93.667,10.9663 L -93.7655,11.0393 L -93.8707,11.1024 L -93.9816,11.1548
 L -94.0971,11.1962 L -94.2161,11.226 L -94.3375,11.244 L -94.46,11.25 z
M -236.093,24.824 L -236.214,24.806 L -236.333,24.7762 L -236.448,24.7349 L -236.559,24.6824 L -236.664,24.6193
 L -236.763,24.5463 L -236.854,24.4639 L -236.936,24.373 L -237.009,24.2745 L -237.072,24.1692 L -237.125,24.0583
 L -237.166,23.9429 L -237.196,23.8239 L -237.214,23.7025 L -237.22,23.58 L -237.214,23.4575 L -237.196,23.3361
 L -237.166,23.2172 L -237.125,23.1016 L -237.072,22.9907 L -237.009,22.8855 L -236.936,22.787 L -236.854,22.6961
 L -236.763,22.6137 L -236.664,22.5407 L -236.559,22.4776 L -236.448,22.4252 L -236.333,22.3838 L -236.214,22.354
 L -236.093,22.336 L -235.97,22.33 L -235.847,22.336 L -235.726,22.354 L -235.607,22.3838 L -235.492,22.4252
 L -235.381,22.4776 L -235.276,22.5407 L -235.177,22.6137 L -235.086,22.6961 L -235.004,22.787 L -234.931,22.8855
 L -234.868,22.9907 L -234.815,23.1016 L -234.774,23.2172 L -234.744,23.3361 L -234.726,23.4575 L -234.72,23.58
 L -234.726,23.7025 L -234.744,23.8239 L -234.774,23.9429 L -234.815,24.0583 L -234.868,24.1692 L -234.931,24.2745
 L -235.004,24.373 L -235.086,24.4639 L -235.177,24.5463 L -235.276,24.6193 L -235.381,24.6824 L -235.492,24.7349
 L -235.607,24.7762 L -235.726,24.806 L -235.847,24.824 L -235.97,24.83 z
M -32.8925,24.824 L -33.0139,24.806 L -33.1329,24.7762 L -33.2484,24.7349 L -33.3592,24.6824 L -33.4645,24.6193
 L -33.563,24.5463 L -33.6539,24.4639 L -33.7363,24.373 L -33.8093,24.2745 L -33.8724,24.1692 L -33.9249,24.0583
 L -33.9662,23.9429 L -33.996,23.8239 L -34.014,23.7025 L -34.02,23.58 L -34.014,23.4575 L -33.996,23.3361
 L -33.9662,23.2172 L -33.9249,23.1016 L -33.8724,22.9907 L -33.8093,22.8855 L -33.7363,22.787 L -33.6539,22.6961
 L -33.563,22.6137 L -33.4645,22.5407 L -33.3592,22.4776 L -33.2484,22.4252 L -33.1329,22.3838 L -33.0139,22.354
 L -32.8925,22.336 L -32.77,22.33 L -32.6475,22.336 L -32.5261,22.354 L -32.4071,22.3838 L -32.2916,22.4252
 L -32.1808,22.4776 L -32.0755,22.5407 L -31.977,22.6137 L -31.8861,22.6961 L -31.8037,22.787 L -31.7307,22.8855
 L -31.6676,22.9907 L -31.6151,23.1016 L -31.5738,23.2172 L -31.544,23.3361 L -31.526,23.4575 L -31.52,23.58
 L -31.526,23.7025 L -31.544,23.8239 L -31.5738,23.9429 L -31.6151,24.0583 L -31.6676,24.1692 L -31.7307,24.2745
 L -31.8037,24.373 L -31.8861,24.4639 L -31.977,24.5463 L -32.0755,24.6193 L -32.1808,24.6824 L -32.2916,24.7349
 L -32.4071,24.7762 L -32.5261,24.806 L -32.6475,24.824 L -32.77,24.83 z
M -190.373,24.824 L -190.494,24.806 L -190.613,24.7762 L -190.728,24.7349 L -190.839,24.6824 L -190.944,24.6193
 L -191.043,24.5463 L -191.134,24.4639 L -191.216,24.373 L -191.289,24.2745 L -191.352,24.1692 L -191.405,24.0583
 L -191.446,23.9429 L -191.476,23.8239 L -191.494,23.7025 L -191.5,23.58 L -191.494,23.4575 L -191.476,23.3361
 L -191.446,23.2172 L -191.405,23.1016 L -191.352,22.9907 L -191.289,22.8855 L -191.216,22.787 L -191.134,22.6961
 L -191.043,22.6137 L -190.944,22.5407 L -190.839,22.4776 L -190.728,22.4252 L -190.613,22.3838 L -190.494,22.354
 L -190.373,22.336 L -190.25,22.33 L -190.127,22.336 L -190.006,22.354 L -189.887,22.3838 L -189.772,22.4252
 L -189.661,22.4776 L -189.556,22.5407 L -189.457,22.6137 L -189.366,22.6961 L -189.284,22.787 L -189.211,22.8855
 L -189.148,22.9907 L -189.095,23.1016 L -189.054,23.2172 L -189.024,23.3361 L -189.006,23.4575 L -189,23.58
 L -189.006,23.7025 L -189.024,23.8239 L -189.054,23.9429 L -189.095,24.0583 L -189.148,24.1692 L -189.211,24.2745
 L -189.284,24.373 L -189.366,24.4639 L -189.457,24.5463 L -189.556,24.6193 L -189.661,24.6824 L -189.772,24.7349
 L -189.887,24.7762 L -190.006,24.806 L -190.127,24.824 L -190.25,24.83 z
M -10.1225,39.504 L -10.2439,39.486 L -10.3628,39.4562 L -10.4784,39.4148 L -10.5893,39.3624 L -10.6944,39.2993
 L -10.793,39.2263 L -10.8839,39.1439 L -10.9663,39.053 L -11.0393,38.9545 L -11.1024,38.8492 L -11.1548,38.7383
 L -11.1962,38.6229 L -11.226,38.5039 L -11.244,38.3825 L -11.25,38.26 L -11.244,38.1375 L -11.226,38.0161
 L -11.1962,37.8971 L -11.1548,37.7817 L -11.1024,37.6708 L -11.0393,37.5655 L -10.9663,37.467 L -10.8839,37.3761
 L -10.793,37.2937 L -10.6944,37.2207 L -10.5893,37.1576 L -10.4784,37.1052 L -10.3628,37.0638 L -10.2439,37.034
 L -10.1225,37.016 L -9.99999,37.01 L -9.87749,37.016 L -9.75612,37.034 L -9.63714,37.0638 L -9.52166,37.1052
 L -9.41076,37.1576 L -9.30553,37.2207 L -9.20702,37.2937 L -9.11611,37.3761 L -9.03374,37.467 L -8.96065,37.5655
 L -8.8976,37.6708 L -8.84514,37.7817 L -8.80382,37.8971 L -8.77401,38.0161 L -8.75603,38.1375 L -8.74999,38.26
 L -8.75603,38.3825 L -8.77401,38.5039 L -8.80382,38.6229 L -8.84514,38.7383 L -8.8976,38.8492 L -8.96065,38.9545
 L -9.03374,39.053 L -9.11611,39.1439 L -9.20702,39.2263 L -9.30553,39.2993 L -9.41076,39.3624 L -9.52166,39.4148
 L -9.63714,39.4562 L -9.75612,39.486 L -9.87749,39.504 L -9.99999,39.51 z
M -292.383,39.504 L -292.504,39.486 L -292.623,39.4562 L -292.738,39.4148 L -292.849,39.3624 L -292.954,39.2993
 L -293.053,39.2263 L -293.144,39.1439 L -293.226,39.053 L -293.299,38.9545 L -293.362,38.8492 L -293.415,38.7383
 L -293.456,38.6229 L -293.486,38.5039 L -293.504,38.3825 L -293.51,38.26 L -293.504,38.1375 L -293.486,38.0161
 L -293.456,37.8971 L -293.415,37.7817 L -293.362,37.6708 L -293.299,37.5655 L -293.226,37.467 L -293.144,37.3761
 L -293.053,37.2937 L -292.954,37.2207 L -292.849,37.1576 L -292.738,37.1052 L -292.623,37.0638 L -292.504,37.034
 L -292.383,37.016 L -292.26,37.01 L -292.137,37.016 L -292.016,37.034 L -291.897,37.0638 L -291.782,37.1052
 L -291.671,37.1576 L -291.566,37.2207 L -291.467,37.2937 L -291.376,37.3761 L -291.294,37.467 L -291.221,37.5655
 L -291.158,37.6708 L -291.105,37.7817 L -291.064,37.8971 L -291.034,38.0161 L -291.016,38.1375 L -291.01,38.26
 L -291.016,38.3825 L -291.034,38.5039 L -291.064,38.6229 L -291.105,38.7383 L -291.158,38.8492 L -291.221,38.9545
 L -291.294,39.053 L -291.376,39.1439 L -291.467,39.2263 L -291.566,39.2993 L -291.671,39.3624 L -291.782,39.4148
 L -291.897,39.4562 L -292.016,39.486 L -292.137,39.504 L -292.26,39.51 z
M -10.1225,64.904 L -10.2439,64.886 L -10.3628,64.8562 L -10.4784,64.8149 L -10.5893,64.7624 L -10.6944,64.6993
 L -10.793,64.6263 L -10.8839,64.5439 L -10.9663,64.453 L -11.0393,64.3545 L -11.1024,64.2492 L -11.1548,64.1384
 L -11.1962,64.0229 L -11.226,63.9039 L -11.244,63.7825 L -11.25,63.66 L -11.244,63.5375 L -11.226,63.4161
 L -11.1962,63.2971 L -11.1548,63.1816 L -11.1024,63.0708 L -11.0393,62.9655 L -10.9663,62.867 L -10.8839,62.7761
 L -10.793,62.6937 L -10.6944,62.6207 L -10.5893,62.5576 L -10.4784,62.5051 L -10.3628,62.4638 L -10.2439,62.434
 L -10.1225,62.416 L -9.99999,62.41 L -9.87749,62.416 L -9.75612,62.434 L -9.63714,62.4638 L -9.52166,62.5051
 L -9.41076,62.5576 L -9.30553,62.6207 L -9.20702,62.6937 L -9.11611,62.7761 L -9.03374,62.867 L -8.96065,62.9655
 L -8.8976,63.0708 L -8.84514,63.1816 L -8.80382,63.2971 L -8.77401,63.4161 L -8.75603,63.5375 L -8.74999,63.66
 L -8.75603,63.7825 L -8.77401,63.9039 L -8.80382,64.0229 L -8.84514,64.1384 L -8.8976,64.2492 L -8.96065,64.3545
 L -9.03374,64.453 L -9.11611,64.5439 L -9.20702,64.6263 L -9.30553,64.6993 L -9.41076,64.7624 L -9.52166,64.8149
 L -9.63714,64.8562 L -9.75612,64.886 L -9.87749,64.904 L -9.99999,64.91 z
M -292.383,64.904 L -292.504,64.886 L -292.623,64.8562 L -292.738,64.8149 L -292.849,64.7624 L -292.954,64.6993
 L -293.053,64.6263 L -293.144,64.5439 L -293.226,64.453 L -293.299,64.3545 L -293.362,64.2492 L -293.415,64.1384
 L -293.456,64.0229 L -293.486,63.9039 L -293.504,63.7825 L -293.51,63.66 L -293.504,63.5375 L -293.486,63.4161
 L -293.456,63.2971 L -293.415,63.1816 L -293.362,63.0708 L -293.299,62.9655 L -293.226,62.867 L -293.144,62.7761
 L -293.053,62.6937 L -292.954,62.6207 L -292.849,62.5576 L -292.738,62.5051 L -292.623,62.4638 L -292.504,62.434
 L -292.383,62.416 L -292.26,62.41 L -292.137,62.416 L -292.016,62.434 L -291.897,62.4638 L -291.782,62.5051
 L -291.671,62.5576 L -291.566,62.6207 L -291.467,62.6937 L -291.376,62.7761 L -291.294,62.867 L -291.221,62.9655
 L -291.158,63.0708 L -291.105,63.1816 L -291.064,63.2971 L -291.034,63.4161 L -291.016,63.5375 L -291.01,63.66
 L -291.016,63.7825 L -291.034,63.9039 L -291.064,64.0229 L -291.105,64.1384 L -291.158,64.2492 L -291.221,64.3545
 L -291.294,64.453 L -291.376,64.5439 L -291.467,64.6263 L -291.566,64.6993 L -291.671,64.7624 L -291.782,64.8149
 L -291.897,64.8562 L -292.016,64.886 L -292.137,64.904 L -292.26,64.91 z
M -10.1225,90.304 L -10.2439,90.286 L -10.3628,90.2562 L -10.4784,90.2148 L -10.5893,90.1624 L -10.6944,90.0993
 L -10.793,90.0263 L -10.8839,89.9439 L -10.9663,89.853 L -11.0393,89.7545 L -11.1024,89.6493 L -11.1548,89.5384
 L -11.1962,89.4229 L -11.226,89.3039 L -11.244,89.1825 L -11.25,89.06 L -11.244,88.9375 L -11.226,88.8161
 L -11.1962,88.6971 L -11.1548,88.5816 L -11.1024,88.4708 L -11.0393,88.3655 L -10.9663,88.267 L -10.8839,88.1761
 L -10.793,88.0937 L -10.6944,88.0207 L -10.5893,87.9576 L -10.4784,87.9052 L -10.3628,87.8638 L -10.2439,87.834
 L -10.1225,87.816 L -9.99999,87.81 L -9.87749,87.816 L -9.75612,87.834 L -9.63714,87.8638 L -9.52166,87.9052
 L -9.41076,87.9576 L -9.30553,88.0207 L -9.20702,88.0937 L -9.11611,88.1761 L -9.03374,88.267 L -8.96065,88.3655
 L -8.8976,88.4708 L -8.84514,88.5816 L -8.80382,88.6971 L -8.77401,88.8161 L -8.75603,88.9375 L -8.74999,89.06
 L -8.75603,89.1825 L -8.77401,89.3039 L -8.80382,89.4229 L -8.84514,89.5384 L -8.8976,89.6493 L -8.96065,89.7545
 L -9.03374,89.853 L -9.11611,89.9439 L -9.20702,90.0263 L -9.30553,90.0993 L -9.41076,90.1624 L -9.52166,90.2148
 L -9.63714,90.2562 L -9.75612,90.286 L -9.87749,90.304 L -9.99999,90.31 z
M -292.383,90.304 L -292.504,90.286 L -292.623,90.2562 L -292.738,90.2148 L -292.849,90.1624 L -292.954,90.0993
 L -293.053,90.0263 L -293.144,89.9439 L -293.226,89.853 L -293.299,89.7545 L -293.362,89.6493 L -293.415,89.5384
 L -293.456,89.4229 L -293.486,89.3039 L -293.504,89.1825 L -293.51,89.06 L -293.504,88.9375 L -293.486,88.8161
 L -293.456,88.6971 L -293.415,88.5816 L -293.362,88.4708 L -293.299,88.3655 L -293.226,88.267 L -293.144,88.1761
 L -293.053,88.0937 L -292.954,88.0207 L -292.849,87.9576 L -292.738,87.9052 L -292.623,87.8638 L -292.504,87.834
 L -292.383,87.816 L -292.26,87.81 L -292.137,87.816 L -292.016,87.834 L -291.897,87.8638 L -291.782,87.9052
 L -291.671,87.9576 L -291.566,88.0207 L -291.467,88.0937 L -291.376,88.1761 L -291.294,88.267 L -291.221,88.3655
 L -291.158,88.4708 L -291.105,88.5816 L -291.064,88.6971 L -291.034,88.8161 L -291.016,88.9375 L -291.01,89.06
 L -291.016,89.1825 L -291.034,89.3039 L -291.064,89.4229 L -291.105,89.5384 L -291.158,89.6493 L -291.221,89.7545
 L -291.294,89.853 L -291.376,89.9439 L -291.467,90.0263 L -291.566,90.0993 L -291.671,90.1624 L -291.782,90.2148
 L -291.897,90.2562 L -292.016,90.286 L -292.137,90.304 L -292.26,90.31 z
M -10.1225,115.704 L -10.2439,115.686 L -10.3628,115.656 L -10.4784,115.615 L -10.5893,115.562 L -10.6944,115.499
 L -10.793,115.426 L -10.8839,115.344 L -10.9663,115.253 L -11.0393,115.154 L -11.1024,115.049 L -11.1548,114.938
 L -11.1962,114.823 L -11.226,114.704 L -11.244,114.583 L -11.25,114.46 L -11.244,114.337 L -11.226,114.216
 L -11.1962,114.097 L -11.1548,113.982 L -11.1024,113.871 L -11.0393,113.766 L -10.9663,113.667 L -10.8839,113.576
 L -10.793,113.494 L -10.6944,113.421 L -10.5893,113.358 L -10.4784,113.305 L -10.3628,113.264 L -10.2439,113.234
 L -10.1225,113.216 L -9.99999,113.21 L -9.87749,113.216 L -9.75612,113.234 L -9.63714,113.264 L -9.52166,113.305
 L -9.41076,113.358 L -9.30553,113.421 L -9.20702,113.494 L -9.11611,113.576 L -9.03374,113.667 L -8.96065,113.766
 L -8.8976,113.871 L -8.84514,113.982 L -8.80382,114.097 L -8.77401,114.216 L -8.75603,114.337 L -8.74999,114.46
 L -8.75603,114.583 L -8.77401,114.704 L -8.80382,114.823 L -8.84514,114.938 L -8.8976,115.049 L -8.96065,115.154
 L -9.03374,115.253 L -9.11611,115.344 L -9.20702,115.426 L -9.30553,115.499 L -9.41076,115.562 L -9.52166,115.615
 L -9.63714,115.656 L -9.75612,115.686 L -9.87749,115.704 L -9.99999,115.71 z
M -292.383,115.704 L -292.504,115.686 L -292.623,115.656 L -292.738,115.615 L -292.849,115.562 L -292.954,115.499
 L -293.053,115.426 L -293.144,115.344 L -293.226,115.253 L -293.299,115.154 L -293.362,115.049 L -293.415,114.938
 L -293.456,114.823 L -293.486,114.704 L -293.504,114.583 L -293.51,114.46 L -293.504,114.337 L -293.486,114.216
 L -293.456,114.097 L -293.415,113.982 L -293.362,113.871 L -293.299,113.766 L -293.226,113.667 L -293.144,113.576
 L -293.053,113.494 L -292.954,113.421 L -292.849,113.358 L -292.738,113.305 L -292.623,113.264 L -292.504,113.234
 L -292.383,113.216 L -292.26,113.21 L -292.137,113.216 L -292.016,113.234 L -291.897,113.264 L -291.782,113.305
 L -291.671,113.358 L -291.566,113.421 L -291.467,113.494 L -291.376,113.576 L -291.294,113.667 L -291.221,113.766
 L -291.158,113.871 L -291.105,113.982 L -291.064,114.097 L -291.034,114.216 L -291.016,114.337 L -291.01,114.46
 L -291.016,114.583 L -291.034,114.704 L -291.064,114.823 L -291.105,114.938 L -291.158,115.049 L -291.221,115.154
 L -291.294,115.253 L -291.376,115.344 L -291.467,115.426 L -291.566,115.499 L -291.671,115.562 L -291.782,115.615
 L -291.897,115.656 L -292.016,115.686 L -292.137,115.704 L -292.26,115.71 z
M -10.1225,141.104 L -10.2439,141.086 L -10.3628,141.056 L -10.4784,141.015 L -10.5893,140.962 L -10.6944,140.899
 L -10.793,140.826 L -10.8839,140.744 L -10.9663,140.653 L -11.0393,140.554 L -11.1024,140.449 L -11.1548,140.338
 L -11.1962,140.223 L -11.226,140.104 L -11.244,139.983 L -11.25,139.86 L -11.244,139.737 L -11.226,139.616
 L -11.1962,139.497 L -11.1548,139.382 L -11.1024,139.271 L -11.0393,139.166 L -10.9663,139.067 L -10.8839,138.976
 L -10.793,138.894 L -10.6944,138.821 L -10.5893,138.758 L -10.4784,138.705 L -10.3628,138.664 L -10.2439,138.634
 L -10.1225,138.616 L -9.99999,138.61 L -9.87749,138.616 L -9.75612,138.634 L -9.63714,138.664 L -9.52166,138.705
 L -9.41076,138.758 L -9.30553,138.821 L -9.20702,138.894 L -9.11611,138.976 L -9.03374,139.067 L -8.96065,139.166
 L -8.8976,139.271 L -8.84514,139.382 L -8.80382,139.497 L -8.77401,139.616 L -8.75603,139.737 L -8.74999,139.86
 L -8.75603,139.983 L -8.77401,140.104 L -8.80382,140.223 L -8.84514,140.338 L -8.8976,140.449 L -8.96065,140.554
 L -9.03374,140.653 L -9.11611,140.744 L -9.20702,140.826 L -9.30553,140.899 L -9.41076,140.962 L -9.52166,141.015
 L -9.63714,141.056 L -9.75612,141.086 L -9.87749,141.104 L -9.99999,141.11 z
M -292.383,141.104 L -292.504,141.086 L -292.623,141.056 L -292.738,141.015 L -292.849,140.962 L -292.954,140.899
 L -293.053,140.826 L -293.144,140.744 L -293.226,140.653 L -293.299,140.554 L -293.362,140.449 L -293.415,140.338
 L -293.456,140.223 L -293.486,140.104 L -293.504,139.983 L -293.51,139.86 L -293.504,139.737 L -293.486,139.616
 L -293.456,139.497 L -293.415,139.382 L -293.362,139.271 L -293.299,139.166 L -293.226,139.067 L -293.144,138.976
 L -293.053,138.894 L -292.954,138.821 L -292.849,138.758 L -292.738,138.705 L -292.623,138.664 L -292.504,138.634
 L -292.383,138.616 L -292.26,138.61 L -292.137,138.616 L -292.016,138.634 L -291.897,138.664 L -291.782,138.705
 L -291.671,138.758 L -291.566,138.821 L -291.467,138.894 L -291.376,138.976 L -291.294,139.067 L -291.221,139.166
 L -291.158,139.271 L -291.105,139.382 L -291.064,139.497 L -291.034,139.616 L -291.016,139.737 L -291.01,139.86
 L -291.016,139.983 L -291.034,140.104 L -291.064,140.223 L -291.105,140.338 L -291.158,140.449 L -291.221,140.554
 L -291.294,140.653 L -291.376,140.744 L -291.467,140.826 L -291.566,140.899 L -291.671,140.962 L -291.782,141.015
 L -291.897,141.056 L -292.016,141.086 L -292.137,141.104 L -292.26,141.11 z
M -292.383,166.504 L -292.504,166.486 L -292.623,166.456 L -292.738,166.415 L -292.849,166.362 L -292.954,166.299
 L -293.053,166.226 L -293.144,166.144 L -293.226,166.053 L -293.299,165.954 L -293.362,165.849 L -293.415,165.738
 L -293.456,165.623 L -293.486,165.504 L -293.504,165.383 L -293.51,165.26 L -293.504,165.137 L -293.486,165.016
 L -293.456,164.897 L -293.415,164.782 L -293.362,164.671 L -293.299,164.566 L -293.226,164.467 L -293.144,164.376
 L -293.053,164.294 L -292.954,164.221 L -292.849,164.158 L -292.738,164.105 L -292.623,164.064 L -292.504,164.034
 L -292.383,164.016 L -292.26,164.01 L -292.137,164.016 L -292.016,164.034 L -291.897,164.064 L -291.782,164.105
 L -291.671,164.158 L -291.566,164.221 L -291.467,164.294 L -291.376,164.376 L -291.294,164.467 L -291.221,164.566
 L -291.158,164.671 L -291.105,164.782 L -291.064,164.897 L -291.034,165.016 L -291.016,165.137 L -291.01,165.26
 L -291.016,165.383 L -291.034,165.504 L -291.064,165.623 L -291.105,165.738 L -291.158,165.849 L -291.221,165.954
 L -291.294,166.053 L -291.376,166.144 L -291.467,166.226 L -291.566,166.299 L -291.671,166.362 L -291.782,166.415
 L -291.897,166.456 L -292.016,166.486 L -292.137,166.504 L -292.26,166.51 z
M -10.1225,166.504 L -10.2439,166.486 L -10.3628,166.456 L -10.4784,166.415 L -10.5893,166.362 L -10.6944,166.299
 L -10.793,166.226 L -10.8839,166.144 L -10.9663,166.053 L -11.0393,165.954 L -11.1024,165.849 L -11.1548,165.738
 L -11.1962,165.623 L -11.226,165.504 L -11.244,165.383 L -11.25,165.26 L -11.244,165.137 L -11.226,165.016
 L -11.1962,164.897 L -11.1548,164.782 L -11.1024,164.671 L -11.0393,164.566 L -10.9663,164.467 L -10.8839,164.376
 L -10.793,164.294 L -10.6944,164.221 L -10.5893,164.158 L -10.4784,164.105 L -10.3628,164.064 L -10.2439,164.034
 L -10.1225,164.016 L -9.99999,164.01 L -9.87749,164.016 L -9.75612,164.034 L -9.63714,164.064 L -9.52166,164.105
 L -9.41076,164.158 L -9.30553,164.221 L -9.20702,164.294 L -9.11611,164.376 L -9.03374,164.467 L -8.96065,164.566
 L -8.8976,164.671 L -8.84514,164.782 L -8.80382,164.897 L -8.77401,165.016 L -8.75603,165.137 L -8.74999,165.26
 L -8.75603,165.383 L -8.77401,165.504 L -8.80382,165.623 L -8.84514,165.738 L -8.8976,165.849 L -8.96065,165.954
 L -9.03374,166.053 L -9.11611,166.144 L -9.20702,166.226 L -9.30553,166.299 L -9.41076,166.362 L -9.52166,166.415
 L -9.63714,166.456 L -9.75612,166.486 L -9.87749,166.504 L -9.99999,166.51 z
M -236.093,179.764 L -236.214,179.746 L -236.333,179.716 L -236.448,179.675 L -236.559,179.622 L -236.664,179.559
 L -236.763,179.486 L -236.854,179.404 L -236.936,179.313 L -237.009,179.214 L -237.072,179.109 L -237.125,178.998
 L -237.166,178.883 L -237.196,178.764 L -237.214,178.643 L -237.22,178.52 L -237.214,178.397 L -237.196,178.276
 L -237.166,178.157 L -237.125,178.042 L -237.072,177.931 L -237.009,177.826 L -236.936,177.727 L -236.854,177.636
 L -236.763,177.554 L -236.664,177.481 L -236.559,177.418 L -236.448,177.365 L -236.333,177.324 L -236.214,177.294
 L -236.093,177.276 L -235.97,177.27 L -235.847,177.276 L -235.726,177.294 L -235.607,177.324 L -235.492,177.365
 L -235.381,177.418 L -235.276,177.481 L -235.177,177.554 L -235.086,177.636 L -235.004,177.727 L -234.931,177.826
 L -234.868,177.931 L -234.815,178.042 L -234.774,178.157 L -234.744,178.276 L -234.726,178.397 L -234.72,178.52
 L -234.726,178.643 L -234.744,178.764 L -234.774,178.883 L -234.815,178.998 L -234.868,179.109 L -234.931,179.214
 L -235.004,179.313 L -235.086,179.404 L -235.177,179.486 L -235.276,179.559 L -235.381,179.622 L -235.492,179.675
 L -235.607,179.716 L -235.726,179.746 L -235.847,179.764 L -235.97,179.77 z
M -190.373,179.764 L -190.494,179.746 L -190.613,179.716 L -190.728,179.675 L -190.839,179.622 L -190.944,179.559
 L -191.043,179.486 L -191.134,179.404 L -191.216,179.313 L -191.289,179.214 L -191.352,179.109 L -191.405,178.998
 L -191.446,178.883 L -191.476,178.764 L -191.494,178.643 L -191.5,178.52 L -191.494,178.397 L -191.476,178.276
 L -191.446,178.157 L -191.405,178.042 L -191.352,177.931 L -191.289,177.826 L -191.216,177.727 L -191.134,177.636
 L -191.043,177.554 L -190.944,177.481 L -190.839,177.418 L -190.728,177.365 L -190.613,177.324 L -190.494,177.294
 L -190.373,177.276 L -190.25,177.27 L -190.127,177.276 L -190.006,177.294 L -189.887,177.324 L -189.772,177.365
 L -189.661,177.418 L -189.556,177.481 L -189.457,177.554 L -189.366,177.636 L -189.284,177.727 L -189.211,177.826
 L -189.148,177.931 L -189.095,178.042 L -189.054,178.157 L -189.024,178.276 L -189.006,178.397 L -189,178.52
 L -189.006,178.643 L -189.024,178.764 L -189.054,178.883 L -189.095,178.998 L -189.148,179.109 L -189.211,179.214
 L -189.284,179.313 L -189.366,179.404 L -189.457,179.486 L -189.556,179.559 L -189.661,179.622 L -189.772,179.675
 L -189.887,179.716 L -190.006,179.746 L -190.127,179.764 L -190.25,179.77 z
M -256.413,179.764 L -256.534,179.746 L -256.653,179.716 L -256.768,179.675 L -256.879,179.622 L -256.984,179.559
 L -257.083,179.486 L -257.174,179.404 L -257.256,179.313 L -257.329,179.214 L -257.392,179.109 L -257.445,178.998
 L -257.486,178.883 L -257.516,178.764 L -257.534,178.643 L -257.54,178.52 L -257.534,178.397 L -257.516,178.276
 L -257.486,178.157 L -257.445,178.042 L -257.392,177.931 L -257.329,177.826 L -257.256,177.727 L -257.174,177.636
 L -257.083,177.554 L -256.984,177.481 L -256.879,177.418 L -256.768,177.365 L -256.653,177.324 L -256.534,177.294
 L -256.413,177.276 L -256.29,177.27 L -256.167,177.276 L -256.046,177.294 L -255.927,177.324 L -255.812,177.365
 L -255.701,177.418 L -255.596,177.481 L -255.497,177.554 L -255.406,177.636 L -255.324,177.727 L -255.251,177.826
 L -255.188,177.931 L -255.135,178.042 L -255.094,178.157 L -255.064,178.276 L -255.046,178.397 L -255.04,178.52
 L -255.046,178.643 L -255.064,178.764 L -255.094,178.883 L -255.135,178.998 L -255.188,179.109 L -255.251,179.214
 L -255.324,179.313 L -255.406,179.404 L -255.497,179.486 L -255.596,179.559 L -255.701,179.622 L -255.812,179.675
 L -255.927,179.716 L -256.046,179.746 L -256.167,179.764 L -256.29,179.77 z
M -32.8925,179.764 L -33.0139,179.746 L -33.1329,179.716 L -33.2484,179.675 L -33.3592,179.622 L -33.4645,179.559
 L -33.563,179.486 L -33.6539,179.404 L -33.7363,179.313 L -33.8093,179.214 L -33.8724,179.109 L -33.9249,178.998
 L -33.9662,178.883 L -33.996,178.764 L -34.014,178.643 L -34.02,178.52 L -34.014,178.397 L -33.996,178.276
 L -33.9662,178.157 L -33.9249,178.042 L -33.8724,177.931 L -33.8093,177.826 L -33.7363,177.727 L -33.6539,177.636
 L -33.563,177.554 L -33.4645,177.481 L -33.3592,177.418 L -33.2484,177.365 L -33.1329,177.324 L -33.0139,177.294
 L -32.8925,177.276 L -32.77,177.27 L -32.6475,177.276 L -32.5261,177.294 L -32.4071,177.324 L -32.2916,177.365
 L -32.1808,177.418 L -32.0755,177.481 L -31.977,177.554 L -31.8861,177.636 L -31.8037,177.727 L -31.7307,177.826
 L -31.6676,177.931 L -31.6151,178.042 L -31.5738,178.157 L -31.544,178.276 L -31.526,178.397 L -31.52,178.52
 L -31.526,178.643 L -31.544,178.764 L -31.5738,178.883 L -31.6151,178.998 L -31.6676,179.109 L -31.7307,179.214
 L -31.8037,179.313 L -31.8861,179.404 L -31.977,179.486 L -32.0755,179.559 L -32.1808,179.622 L -32.2916,179.675
 L -32.4071,179.716 L -32.5261,179.746 L -32.6475,179.764 L -32.77,179.77 z
M -292.383,191.904 L -292.504,191.886 L -292.623,191.856 L -292.738,191.815 L -292.849,191.762 L -292.954,191.699
 L -293.053,191.626 L -293.144,191.544 L -293.226,191.453 L -293.299,191.354 L -293.362,191.249 L -293.415,191.138
 L -293.456,191.023 L -293.486,190.904 L -293.504,190.783 L -293.51,190.66 L -293.504,190.537 L -293.486,190.416
 L -293.456,190.297 L -293.415,190.182 L -293.362,190.071 L -293.299,189.966 L -293.226,189.867 L -293.144,189.776
 L -293.053,189.694 L -292.954,189.621 L -292.849,189.558 L -292.738,189.505 L -292.623,189.464 L -292.504,189.434
 L -292.383,189.416 L -292.26,189.41 L -292.137,189.416 L -292.016,189.434 L -291.897,189.464 L -291.782,189.505
 L -291.671,189.558 L -291.566,189.621 L -291.467,189.694 L -291.376,189.776 L -291.294,189.867 L -291.221,189.966
 L -291.158,190.071 L -291.105,190.182 L -291.064,190.297 L -291.034,190.416 L -291.016,190.537 L -291.01,190.66
 L -291.016,190.783 L -291.034,190.904 L -291.064,191.023 L -291.105,191.138 L -291.158,191.249 L -291.221,191.354
 L -291.294,191.453 L -291.376,191.544 L -291.467,191.626 L -291.566,191.699 L -291.671,191.762 L -291.782,191.815
 L -291.897,191.856 L -292.016,191.886 L -292.137,191.904 L -292.26,191.91 z
M -10.1225,191.904 L -10.2439,191.886 L -10.3628,191.856 L -10.4784,191.815 L -10.5893,191.762 L -10.6944,191.699
 L -10.793,191.626 L -10.8839,191.544 L -10.9663,191.453 L -11.0393,191.354 L -11.1024,191.249 L -11.1548,191.138
 L -11.1962,191.023 L -11.226,190.904 L -11.244,190.783 L -11.25,190.66 L -11.244,190.537 L -11.226,190.416
 L -11.1962,190.297 L -11.1548,190.182 L -11.1024,190.071 L -11.0393,189.966 L -10.9663,189.867 L -10.8839,189.776
 L -10.793,189.694 L -10.6944,189.621 L -10.5893,189.558 L -10.4784,189.505 L -10.3628,189.464 L -10.2439,189.434
 L -10.1225,189.416 L -9.99999,189.41 L -9.87749,189.416 L -9.75612,189.434 L -9.63714,189.464 L -9.52166,189.505
 L -9.41076,189.558 L -9.30553,189.621 L -9.20702,189.694 L -9.11611,189.776 L -9.03374,189.867 L -8.96065,189.966
 L -8.8976,190.071 L -8.84514,190.182 L -8.80382,190.297 L -8.77401,190.416 L -8.75603,190.537 L -8.74999,190.66
 L -8.75603,190.783 L -8.77401,190.904 L -8.80382,191.023 L -8.84514,191.138 L -8.8976,191.249 L -8.96065,191.354
 L -9.03374,191.453 L -9.11611,191.544 L -9.20702,191.626 L -9.30553,191.699 L -9.41076,191.762 L -9.52166,191.815
 L -9.63714,191.856 L -9.75612,191.886 L -9.87749,191.904 L -9.99999,191.91 z
M -10.1225,217.304 L -10.2439,217.286 L -10.3628,217.256 L -10.4784,217.215 L -10.5893,217.162 L -10.6944,217.099
 L -10.793,217.026 L -10.8839,216.944 L -10.9663,216.853 L -11.0393,216.754 L -11.1024,216.649 L -11.1548,216.538
 L -11.1962,216.423 L -11.226,216.304 L -11.244,216.183 L -11.25,216.06 L -11.244,215.937 L -11.226,215.816
 L -11.1962,215.697 L -11.1548,215.582 L -11.1024,215.471 L -11.0393,215.366 L -10.9663,215.267 L -10.8839,215.176
 L -10.793,215.094 L -10.6944,215.021 L -10.5893,214.958 L -10.4784,214.905 L -10.3628,214.864 L -10.2439,214.834
 L -10.1225,214.816 L -9.99999,214.81 L -9.87749,214.816 L -9.75612,214.834 L -9.63714,214.864 L -9.52166,214.905
 L -9.41076,214.958 L -9.30553,215.021 L -9.20702,215.094 L -9.11611,215.176 L -9.03374,215.267 L -8.96065,215.366
 L -8.8976,215.471 L -8.84514,215.582 L -8.80382,215.697 L -8.77401,215.816 L -8.75603,215.937 L -8.74999,216.06
 L -8.75603,216.183 L -8.77401,216.304 L -8.80382,216.423 L -8.84514,216.538 L -8.8976,216.649 L -8.96065,216.754
 L -9.03374,216.853 L -9.11611,216.944 L -9.20702,217.026 L -9.30553,217.099 L -9.41076,217.162 L -9.52166,217.215
 L -9.63714,217.256 L -9.75612,217.286 L -9.87749,217.304 L -9.99999,217.31 z
M -292.383,217.304 L -292.504,217.286 L -292.623,217.256 L -292.738,217.215 L -292.849,217.162 L -292.954,217.099
 L -293.053,217.026 L -293.144,216.944 L -293.226,216.853 L -293.299,216.754 L -293.362,216.649 L -293.415,216.538
 L -293.456,216.423 L -293.486,216.304 L -293.504,216.183 L -293.51,216.06 L -293.504,215.937 L -293.486,215.816
 L -293.456,215.697 L -293.415,215.582 L -293.362,215.471 L -293.299,215.366 L -293.226,215.267 L -293.144,215.176
 L -293.053,215.094 L -292.954,215.021 L -292.849,214.958 L -292.738,214.905 L -292.623,214.864 L -292.504,214.834
 L -292.383,214.816 L -292.26,214.81 L -292.137,214.816 L -292.016,214.834 L -291.897,214.864 L -291.782,214.905
 L -291.671,214.958 L -291.566,215.021 L -291.467,215.094 L -291.376,215.176 L -291.294,215.267 L -291.221,215.366
 L -291.158,215.471 L -291.105,215.582 L -291.064,215.697 L -291.034,215.816 L -291.016,215.937 L -291.01,216.06
 L -291.016,216.183 L -291.034,216.304 L -291.064,216.423 L -291.105,216.538 L -291.158,216.649 L -291.221,216.754
 L -291.294,216.853 L -291.376,216.944 L -291.467,217.026 L -291.566,217.099 L -291.671,217.162 L -291.782,217.215
 L -291.897,217.256 L -292.016,217.286 L -292.137,217.304 L -292.26,217.31 z
M -10.1225,242.704 L -10.2439,242.686 L -10.3628,242.656 L -10.4784,242.615 L -10.5893,242.562 L -10.6944,242.499
 L -10.793,242.426 L -10.8839,242.344 L -10.9663,242.253 L -11.0393,242.154 L -11.1024,242.049 L -11.1548,241.938
 L -11.1962,241.823 L -11.226,241.704 L -11.244,241.583 L -11.25,241.46 L -11.244,241.337 L -11.226,241.216
 L -11.1962,241.097 L -11.1548,240.982 L -11.1024,240.871 L -11.0393,240.766 L -10.9663,240.667 L -10.8839,240.576
 L -10.793,240.494 L -10.6944,240.421 L -10.5893,240.358 L -10.4784,240.305 L -10.3628,240.264 L -10.2439,240.234
 L -10.1225,240.216 L -9.99999,240.21 L -9.87749,240.216 L -9.75612,240.234 L -9.63714,240.264 L -9.52166,240.305
 L -9.41076,240.358 L -9.30553,240.421 L -9.20702,240.494 L -9.11611,240.576 L -9.03374,240.667 L -8.96065,240.766
 L -8.8976,240.871 L -8.84514,240.982 L -8.80382,241.097 L -8.77401,241.216 L -8.75603,241.337 L -8.74999,241.46
 L -8.75603,241.583 L -8.77401,241.704 L -8.80382,241.823 L -8.84514,241.938 L -8.8976,242.049 L -8.96065,242.154
 L -9.03374,242.253 L -9.11611,242.344 L -9.20702,242.426 L -9.30553,242.499 L -9.41076,242.562 L -9.52166,242.615
 L -9.63714,242.656 L -9.75612,242.686 L -9.87749,242.704 L -9.99999,242.71 z
M -292.383,242.704 L -292.504,242.686 L -292.623,242.656 L -292.738,242.615 L -292.849,242.562 L -292.954,242.499
 L -293.053,242.426 L -293.144,242.344 L -293.226,242.253 L -293.299,242.154 L -293.362,242.049 L -293.415,241.938
 L -293.456,241.823 L -293.486,241.704 L -293.504,241.583 L -293.51,241.46 L -293.504,241.337 L -293.486,241.216
 L -293.456,241.097 L -293.415,240.982 L -293.362,240.871 L -293.299,240.766 L -293.226,240.667 L -293.144,240.576
 L -293.053,240.494 L -292.954,240.421 L -292.849,240.358 L -292.738,240.305 L -292.623,240.264 L -292.504,240.234
 L -292.383,240.216 L -292.26,240.21 L -292.137,240.216 L -292.016,240.234 L -291.897,240.264 L -291.782,240.305
 L -291.671,240.358 L -291.566,240.421 L -291.467,240.494 L -291.376,240.576 L -291.294,240.667 L -291.221,240.766
 L -291.158,240.871 L -291.105,240.982 L -291.064,241.097 L -291.034,241.216 L -291.016,241.337 L -291.01,241.46
 L -291.016,241.583 L -291.034,241.704 L -291.064,241.823 L -291.105,241.938 L -291.158,242.049 L -291.221,242.154
 L -291.294,242.253 L -291.376,242.344 L -291.467,242.426 L -291.566,242.499 L -291.671,242.562 L -291.782,242.615
 L -291.897,242.656 L -292.016,242.686 L -292.137,242.704 L -292.26,242.71 z
M -32.8925,252.154 L -33.0139,252.136 L -33.1329,252.106 L -33.2484,252.065 L -33.3592,252.012 L -33.4645,251.949
 L -33.563,251.876 L -33.6539,251.794 L -33.7363,251.703 L -33.8093,251.604 L -33.8724,251.499 L -33.9249,251.388
 L -33.9662,251.273 L -33.996,251.154 L -34.014,251.033 L -34.02,250.91 L -34.014,250.787 L -33.996,250.666
 L -33.9662,250.547 L -33.9249,250.432 L -33.8724,250.321 L -33.8093,250.216 L -33.7363,250.117 L -33.6539,250.026
 L -33.563,249.944 L -33.4645,249.871 L -33.3592,249.808 L -33.2484,249.755 L -33.1329,249.714 L -33.0139,249.684
 L -32.8925,249.666 L -32.77,249.66 L -32.6475,249.666 L -32.5261,249.684 L -32.4071,249.714 L -32.2916,249.755
 L -32.1808,249.808 L -32.0755,249.871 L -31.977,249.944 L -31.8861,250.026 L -31.8037,250.117 L -31.7307,250.216
 L -31.6676,250.321 L -31.6151,250.432 L -31.5738,250.547 L -31.544,250.666 L -31.526,250.787 L -31.52,250.91
 L -31.526,251.033 L -31.544,251.154 L -31.5738,251.273 L -31.6151,251.388 L -31.6676,251.499 L -31.7307,251.604
 L -31.8037,251.703 L -31.8861,251.794 L -31.977,251.876 L -32.0755,251.949 L -32.1808,252.012 L -32.2916,252.065
 L -32.4071,252.106 L -32.5261,252.136 L -32.6475,252.154 L -32.77,252.16 z
M -190.373,252.154 L -190.494,252.136 L -190.613,252.106 L -190.728,252.065 L -190.839,252.012 L -190.944,251.949
 L -191.043,251.876 L -191.134,251.794 L -191.216,251.703 L -191.289,251.604 L -191.352,251.499 L -191.405,251.388
 L -191.446,251.273 L -191.476,251.154 L -191.494,251.033 L -191.5,250.91 L -191.494,250.787 L -191.476,250.666
 L -191.446,250.547 L -191.405,250.432 L -191.352,250.321 L -191.289,250.216 L -191.216,250.117 L -191.134,250.026
 L -191.043,249.944 L -190.944,249.871 L -190.839,249.808 L -190.728,249.755 L -190.613,249.714 L -190.494,249.684
 L -190.373,249.666 L -190.25,249.66 L -190.127,249.666 L -190.006,249.684 L -189.887,249.714 L -189.772,249.755
 L -189.661,249.808 L -189.556,249.871 L -189.457,249.944 L -189.366,250.026 L -189.284,250.117 L -189.211,250.216
 L -189.148,250.321 L -189.095,250.432 L -189.054,250.547 L -189.024,250.666 L -189.006,250.787 L -189,250.91
 L -189.006,251.033 L -189.024,251.154 L -189.054,251.273 L -189.095,251.388 L -189.148,251.499 L -189.211,251.604
 L -189.284,251.703 L -189.366,251.794 L -189.457,251.876 L -189.556,251.949 L -189.661,252.012 L -189.772,252.065
 L -189.887,252.106 L -190.006,252.136 L -190.127,252.154 L -190.25,252.16 z
M -10.1225,268.104 L -10.2439,268.086 L -10.3628,268.056 L -10.4784,268.015 L -10.5893,267.962 L -10.6944,267.899
 L -10.793,267.826 L -10.8839,267.744 L -10.9663,267.653 L -11.0393,267.554 L -11.1024,267.449 L -11.1548,267.338
 L -11.1962,267.223 L -11.226,267.104 L -11.244,266.983 L -11.25,266.86 L -11.244,266.737 L -11.226,266.616
 L -11.1962,266.497 L -11.1548,266.382 L -11.1024,266.271 L -11.0393,266.166 L -10.9663,266.067 L -10.8839,265.976
 L -10.793,265.894 L -10.6944,265.821 L -10.5893,265.758 L -10.4784,265.705 L -10.3628,265.664 L -10.2439,265.634
 L -10.1225,265.616 L -9.99999,265.61 L -9.87749,265.616 L -9.75612,265.634 L -9.63714,265.664 L -9.52166,265.705
 L -9.41076,265.758 L -9.30553,265.821 L -9.20702,265.894 L -9.11611,265.976 L -9.03374,266.067 L -8.96065,266.166
 L -8.8976,266.271 L -8.84514,266.382 L -8.80382,266.497 L -8.77401,266.616 L -8.75603,266.737 L -8.74999,266.86
 L -8.75603,266.983 L -8.77401,267.104 L -8.80382,267.223 L -8.84514,267.338 L -8.8976,267.449 L -8.96065,267.554
 L -9.03374,267.653 L -9.11611,267.744 L -9.20702,267.826 L -9.30553,267.899 L -9.41076,267.962 L -9.52166,268.015
 L -9.63714,268.056 L -9.75612,268.086 L -9.87749,268.104 L -9.99999,268.11 z
M -292.383,268.104 L -292.504,268.086 L -292.623,268.056 L -292.738,268.015 L -292.849,267.962 L -292.954,267.899
 L -293.053,267.826 L -293.144,267.744 L -293.226,267.653 L -293.299,267.554 L -293.362,267.449 L -293.415,267.338
 L -293.456,267.223 L -293.486,267.104 L -293.504,266.983 L -293.51,266.86 L -293.504,266.737 L -293.486,266.616
 L -293.456,266.497 L -293.415,266.382 L -293.362,266.271 L -293.299,266.166 L -293.226,266.067 L -293.144,265.976
 L -293.053,265.894 L -292.954,265.821 L -292.849,265.758 L -292.738,265.705 L -292.623,265.664 L -292.504,265.634
 L -292.383,265.616 L -292.26,265.61 L -292.137,265.616 L -292.016,265.634 L -291.897,265.664 L -291.782,265.705
 L -291.671,265.758 L -291.566,265.821 L -291.467,265.894 L -291.376,265.976 L -291.294,266.067 L -291.221,266.166
 L -291.158,266.271 L -291.105,266.382 L -291.064,266.497 L -291.034,266.616 L -291.016,266.737 L -291.01,266.86
 L -291.016,266.983 L -291.034,267.104 L -291.064,267.223 L -291.105,267.338 L -291.158,267.449 L -291.221,267.554
 L -291.294,267.653 L -291.376,267.744 L -291.467,267.826 L -291.566,267.899 L -291.671,267.962 L -291.782,268.015
 L -291.897,268.056 L -292.016,268.086 L -292.137,268.104 L -292.26,268.11 z
M -32.7825,273.504 L -32.9039,273.486 L -33.0229,273.456 L -33.1384,273.415 L -33.2492,273.362 L -33.3545,273.299
 L -33.453,273.226 L -33.5439,273.144 L -33.6263,273.053 L -33.6993,272.954 L -33.7624,272.849 L -33.8149,272.738
 L -33.8562,272.623 L -33.886,272.504 L -33.904,272.383 L -33.91,272.26 L -33.904,272.137 L -33.886,272.016
 L -33.8562,271.897 L -33.8149,271.782 L -33.7624,271.671 L -33.6993,271.566 L -33.6263,271.467 L -33.5439,271.376
 L -33.453,271.294 L -33.3545,271.221 L -33.2492,271.158 L -33.1384,271.105 L -33.0229,271.064 L -32.9039,271.034
 L -32.7825,271.016 L -32.66,271.01 L -32.5375,271.016 L -32.4161,271.034 L -32.2971,271.064 L -32.1816,271.105
 L -32.0708,271.158 L -31.9655,271.221 L -31.867,271.294 L -31.7761,271.376 L -31.6937,271.467 L -31.6207,271.566
 L -31.5576,271.671 L -31.5051,271.782 L -31.4638,271.897 L -31.434,272.016 L -31.416,272.137 L -31.41,272.26
 L -31.416,272.383 L -31.434,272.504 L -31.4638,272.623 L -31.5051,272.738 L -31.5576,272.849 L -31.6207,272.954
 L -31.6937,273.053 L -31.7761,273.144 L -31.867,273.226 L -31.9655,273.299 L -32.0708,273.362 L -32.1816,273.415
 L -32.2971,273.456 L -32.4161,273.486 L -32.5375,273.504 L -32.66,273.51 z
M -261.383,273.504 L -261.504,273.486 L -261.623,273.456 L -261.738,273.415 L -261.849,273.362 L -261.954,273.299
 L -262.053,273.226 L -262.144,273.144 L -262.226,273.053 L -262.299,272.954 L -262.362,272.849 L -262.415,272.738
 L -262.456,272.623 L -262.486,272.504 L -262.504,272.383 L -262.51,272.26 L -262.504,272.137 L -262.486,272.016
 L -262.456,271.897 L -262.415,271.782 L -262.362,271.671 L -262.299,271.566 L -262.226,271.467 L -262.144,271.376
 L -262.053,271.294 L -261.954,271.221 L -261.849,271.158 L -261.738,271.105 L -261.623,271.064 L -261.504,271.034
 L -261.383,271.016 L -261.26,271.01 L -261.137,271.016 L -261.016,271.034 L -260.897,271.064 L -260.782,271.105
 L -260.671,271.158 L -260.566,271.221 L -260.467,271.294 L -260.376,271.376 L -260.294,271.467 L -260.221,271.566
 L -260.158,271.671 L -260.105,271.782 L -260.064,271.897 L -260.034,272.016 L -260.016,272.137 L -260.01,272.26
 L -260.016,272.383 L -260.034,272.504 L -260.064,272.623 L -260.105,272.738 L -260.158,272.849 L -260.221,272.954
 L -260.294,273.053 L -260.376,273.144 L -260.467,273.226 L -260.566,273.299 L -260.671,273.362 L -260.782,273.415
 L -260.897,273.456 L -261.016,273.486 L -261.137,273.504 L -261.26,273.51 z
M -235.983,273.504 L -236.104,273.486 L -236.223,273.456 L -236.338,273.415 L -236.449,273.362 L -236.554,273.299
 L -236.653,273.226 L -236.744,273.144 L -236.826,273.053 L -236.899,272.954 L -236.962,272.849 L -237.015,272.738
 L -237.056,272.623 L -237.086,272.504 L -237.104,272.383 L -237.11,272.26 L -237.104,272.137 L -237.086,272.016
 L -237.056,271.897 L -237.015,271.782 L -236.962,271.671 L -236.899,271.566 L -236.826,271.467 L -236.744,271.376
 L -236.653,271.294 L -236.554,271.221 L -236.449,271.158 L -236.338,271.105 L -236.223,271.064 L -236.104,271.034
 L -235.983,271.016 L -235.86,271.01 L -235.737,271.016 L -235.616,271.034 L -235.497,271.064 L -235.382,271.105
 L -235.271,271.158 L -235.166,271.221 L -235.067,271.294 L -234.976,271.376 L -234.894,271.467 L -234.821,271.566
 L -234.758,271.671 L -234.705,271.782 L -234.664,271.897 L -234.634,272.016 L -234.616,272.137 L -234.61,272.26
 L -234.616,272.383 L -234.634,272.504 L -234.664,272.623 L -234.705,272.738 L -234.758,272.849 L -234.821,272.954
 L -234.894,273.053 L -234.976,273.144 L -235.067,273.226 L -235.166,273.299 L -235.271,273.362 L -235.382,273.415
 L -235.497,273.456 L -235.616,273.486 L -235.737,273.504 L -235.86,273.51 z
M -210.583,273.504 L -210.704,273.486 L -210.823,273.456 L -210.938,273.415 L -211.049,273.362 L -211.154,273.299
 L -211.253,273.226 L -211.344,273.144 L -211.426,273.053 L -211.499,272.954 L -211.562,272.849 L -211.615,272.738
 L -211.656,272.623 L -211.686,272.504 L -211.704,272.383 L -211.71,272.26 L -211.704,272.137 L -211.686,272.016
 L -211.656,271.897 L -211.615,271.782 L -211.562,271.671 L -211.499,271.566 L -211.426,271.467 L -211.344,271.376
 L -211.253,271.294 L -211.154,271.221 L -211.049,271.158 L -210.938,271.105 L -210.823,271.064 L -210.704,271.034
 L -210.583,271.016 L -210.46,271.01 L -210.337,271.016 L -210.216,271.034 L -210.097,271.064 L -209.982,271.105
 L -209.871,271.158 L -209.766,271.221 L -209.667,271.294 L -209.576,271.376 L -209.494,271.467 L -209.421,271.566
 L -209.358,271.671 L -209.305,271.782 L -209.264,271.897 L -209.234,272.016 L -209.216,272.137 L -209.21,272.26
 L -209.216,272.383 L -209.234,272.504 L -209.264,272.623 L -209.305,272.738 L -209.358,272.849 L -209.421,272.954
 L -209.494,273.053 L -209.576,273.144 L -209.667,273.226 L -209.766,273.299 L -209.871,273.362 L -209.982,273.415
 L -210.097,273.456 L -210.216,273.486 L -210.337,273.504 L -210.46,273.51 z
M -185.183,273.504 L -185.304,273.486 L -185.423,273.456 L -185.538,273.415 L -185.649,273.362 L -185.754,273.299
 L -185.853,273.226 L -185.944,273.144 L -186.026,273.053 L -186.099,272.954 L -186.162,272.849 L -186.215,272.738
 L -186.256,272.623 L -186.286,272.504 L -186.304,272.383 L -186.31,272.26 L -186.304,272.137 L -186.286,272.016
 L -186.256,271.897 L -186.215,271.782 L -186.162,271.671 L -186.099,271.566 L -186.026,271.467 L -185.944,271.376
 L -185.853,271.294 L -185.754,271.221 L -185.649,271.158 L -185.538,271.105 L -185.423,271.064 L -185.304,271.034
 L -185.183,271.016 L -185.06,271.01 L -184.937,271.016 L -184.816,271.034 L -184.697,271.064 L -184.582,271.105
 L -184.471,271.158 L -184.366,271.221 L -184.267,271.294 L -184.176,271.376 L -184.094,271.467 L -184.021,271.566
 L -183.958,271.671 L -183.905,271.782 L -183.864,271.897 L -183.834,272.016 L -183.816,272.137 L -183.81,272.26
 L -183.816,272.383 L -183.834,272.504 L -183.864,272.623 L -183.905,272.738 L -183.958,272.849 L -184.021,272.954
 L -184.094,273.053 L -184.176,273.144 L -184.267,273.226 L -184.366,273.299 L -184.471,273.362 L -184.582,273.415
 L -184.697,273.456 L -184.816,273.486 L -184.937,273.504 L -185.06,273.51 z
M -159.783,273.504 L -159.904,273.486 L -160.023,273.456 L -160.138,273.415 L -160.249,273.362 L -160.354,273.299
 L -160.453,273.226 L -160.544,273.144 L -160.626,273.053 L -160.699,272.954 L -160.762,272.849 L -160.815,272.738
 L -160.856,272.623 L -160.886,272.504 L -160.904,272.383 L -160.91,272.26 L -160.904,272.137 L -160.886,272.016
 L -160.856,271.897 L -160.815,271.782 L -160.762,271.671 L -160.699,271.566 L -160.626,271.467 L -160.544,271.376
 L -160.453,271.294 L -160.354,271.221 L -160.249,271.158 L -160.138,271.105 L -160.023,271.064 L -159.904,271.034
 L -159.783,271.016 L -159.66,271.01 L -159.537,271.016 L -159.416,271.034 L -159.297,271.064 L -159.182,271.105
 L -159.071,271.158 L -158.966,271.221 L -158.867,271.294 L -158.776,271.376 L -158.694,271.467 L -158.621,271.566
 L -158.558,271.671 L -158.505,271.782 L -158.464,271.897 L -158.434,272.016 L -158.416,272.137 L -158.41,272.26
 L -158.416,272.383 L -158.434,272.504 L -158.464,272.623 L -158.505,272.738 L -158.558,272.849 L -158.621,272.954
 L -158.694,273.053 L -158.776,273.144 L -158.867,273.226 L -158.966,273.299 L -159.071,273.362 L -159.182,273.415
 L -159.297,273.456 L -159.416,273.486 L -159.537,273.504 L -159.66,273.51 z
M -134.383,273.504 L -134.504,273.486 L -134.623,273.456 L -134.738,273.415 L -134.849,273.362 L -134.954,273.299
 L -135.053,273.226 L -135.144,273.144 L -135.226,273.053 L -135.299,272.954 L -135.362,272.849 L -135.415,272.738
 L -135.456,272.623 L -135.486,272.504 L -135.504,272.383 L -135.51,272.26 L -135.504,272.137 L -135.486,272.016
 L -135.456,271.897 L -135.415,271.782 L -135.362,271.671 L -135.299,271.566 L -135.226,271.467 L -135.144,271.376
 L -135.053,271.294 L -134.954,271.221 L -134.849,271.158 L -134.738,271.105 L -134.623,271.064 L -134.504,271.034
 L -134.383,271.016 L -134.26,271.01 L -134.137,271.016 L -134.016,271.034 L -133.897,271.064 L -133.782,271.105
 L -133.671,271.158 L -133.566,271.221 L -133.467,271.294 L -133.376,271.376 L -133.294,271.467 L -133.221,271.566
 L -133.158,271.671 L -133.105,271.782 L -133.064,271.897 L -133.034,272.016 L -133.016,272.137 L -133.01,272.26
 L -133.016,272.383 L -133.034,272.504 L -133.064,272.623 L -133.105,272.738 L -133.158,272.849 L -133.221,272.954
 L -133.294,273.053 L -133.376,273.144 L -133.467,273.226 L -133.566,273.299 L -133.671,273.362 L -133.782,273.415
 L -133.897,273.456 L -134.016,273.486 L -134.137,273.504 L -134.26,273.51 z
M -108.983,273.504 L -109.104,273.486 L -109.223,273.456 L -109.338,273.415 L -109.449,273.362 L -109.554,273.299
 L -109.653,273.226 L -109.744,273.144 L -109.826,273.053 L -109.899,272.954 L -109.962,272.849 L -110.015,272.738
 L -110.056,272.623 L -110.086,272.504 L -110.104,272.383 L -110.11,272.26 L -110.104,272.137 L -110.086,272.016
 L -110.056,271.897 L -110.015,271.782 L -109.962,271.671 L -109.899,271.566 L -109.826,271.467 L -109.744,271.376
 L -109.653,271.294 L -109.554,271.221 L -109.449,271.158 L -109.338,271.105 L -109.223,271.064 L -109.104,271.034
 L -108.983,271.016 L -108.86,271.01 L -108.737,271.016 L -108.616,271.034 L -108.497,271.064 L -108.382,271.105
 L -108.271,271.158 L -108.166,271.221 L -108.067,271.294 L -107.976,271.376 L -107.894,271.467 L -107.821,271.566
 L -107.758,271.671 L -107.705,271.782 L -107.664,271.897 L -107.634,272.016 L -107.616,272.137 L -107.61,272.26
 L -107.616,272.383 L -107.634,272.504 L -107.664,272.623 L -107.705,272.738 L -107.758,272.849 L -107.821,272.954
 L -107.894,273.053 L -107.976,273.144 L -108.067,273.226 L -108.166,273.299 L -108.271,273.362 L -108.382,273.415
 L -108.497,273.456 L -108.616,273.486 L -108.737,273.504 L -108.86,273.51 z
M -83.5825,273.504 L -83.7039,273.486 L -83.8229,273.456 L -83.9384,273.415 L -84.0492,273.362 L -84.1545,273.299
 L -84.253,273.226 L -84.3439,273.144 L -84.4263,273.053 L -84.4993,272.954 L -84.5624,272.849 L -84.6148,272.738
 L -84.6562,272.623 L -84.686,272.504 L -84.704,272.383 L -84.71,272.26 L -84.704,272.137 L -84.686,272.016
 L -84.6562,271.897 L -84.6148,271.782 L -84.5624,271.671 L -84.4993,271.566 L -84.4263,271.467 L -84.3439,271.376
 L -84.253,271.294 L -84.1545,271.221 L -84.0492,271.158 L -83.9384,271.105 L -83.8229,271.064 L -83.7039,271.034
 L -83.5825,271.016 L -83.46,271.01 L -83.3375,271.016 L -83.2161,271.034 L -83.0971,271.064 L -82.9816,271.105
 L -82.8707,271.158 L -82.7655,271.221 L -82.667,271.294 L -82.5761,271.376 L -82.4937,271.467 L -82.4207,271.566
 L -82.3576,271.671 L -82.3052,271.782 L -82.2638,271.897 L -82.234,272.016 L -82.216,272.137 L -82.21,272.26
 L -82.216,272.383 L -82.234,272.504 L -82.2638,272.623 L -82.3052,272.738 L -82.3576,272.849 L -82.4207,272.954
 L -82.4937,273.053 L -82.5761,273.144 L -82.667,273.226 L -82.7655,273.299 L -82.8707,273.362 L -82.9816,273.415
 L -83.0971,273.456 L -83.2161,273.486 L -83.3375,273.504 L -83.46,273.51 z
M -58.1825,273.504 L -58.3039,273.486 L -58.4229,273.456 L -58.5384,273.415 L -58.6493,273.362 L -58.7545,273.299
 L -58.853,273.226 L -58.9439,273.144 L -59.0263,273.053 L -59.0993,272.954 L -59.1624,272.849 L -59.2148,272.738
 L -59.2562,272.623 L -59.286,272.504 L -59.304,272.383 L -59.31,272.26 L -59.304,272.137 L -59.286,272.016
 L -59.2562,271.897 L -59.2148,271.782 L -59.1624,271.671 L -59.0993,271.566 L -59.0263,271.467 L -58.9439,271.376
 L -58.853,271.294 L -58.7545,271.221 L -58.6493,271.158 L -58.5384,271.105 L -58.4229,271.064 L -58.3039,271.034
 L -58.1825,271.016 L -58.06,271.01 L -57.9375,271.016 L -57.8161,271.034 L -57.6971,271.064 L -57.5816,271.105
 L -57.4708,271.158 L -57.3655,271.221 L -57.267,271.294 L -57.1761,271.376 L -57.0937,271.467 L -57.0207,271.566
 L -56.9576,271.671 L -56.9052,271.782 L -56.8638,271.897 L -56.834,272.016 L -56.816,272.137 L -56.81,272.26
 L -56.816,272.383 L -56.834,272.504 L -56.8638,272.623 L -56.9052,272.738 L -56.9576,272.849 L -57.0207,272.954
 L -57.0937,273.053 L -57.1761,273.144 L -57.267,273.226 L -57.3655,273.299 L -57.4708,273.362 L -57.5816,273.415
 L -57.6971,273.456 L -57.8161,273.486 L -57.9375,273.504 L -58.06,273.51 z
M -271.064,10.3628 L -271.105,10.4784 L -271.158,10.5893 L -271.221,10.6944 L -271.294,10.793 L -271.376,10.8839
 L -271.467,10.9663 L -271.566,11.0393 L -271.671,11.1024 L -271.782,11.1548 L -271.897,11.1962 L -272.016,11.226
 L -272.137,11.244 L -272.26,11.25 L -272.383,11.244 L -272.504,11.226 L -272.623,11.1962 L -272.738,11.1548
 L -272.849,11.1024 L -272.954,11.0393 L -273.053,10.9663 L -273.144,10.8839 L -273.226,10.793 L -273.299,10.6944
 L -273.362,10.5893 L -273.415,10.4784 L -273.456,10.3628 L -273.486,10.2439 L -273.504,10.1225 L -273.51,9.99999
 L -273.504,9.87749 L -273.486,9.75612 L -273.456,9.63714 L -273.415,9.52166 L -273.362,9.41076 L -273.299,9.30553
 L -273.226,9.20702 L -273.144,9.11611 L -273.053,9.03374 L -272.954,8.96065 L -272.849,8.8976 L -272.738,8.84514
 L -272.623,8.80382 L -272.504,8.77401 L -272.383,8.75603 L -272.26,8.74999 L -272.137,8.75603 L -272.016,8.77401
 L -271.897,8.80382 L -271.782,8.84514 L -271.671,8.8976 L -271.566,8.96065 L -271.467,9.03374 L -271.376,9.11611
 L -271.294,9.20702 L -271.221,9.30553 L -271.158,9.41076 L -271.105,9.52166 L -271.064,9.63714 L -271.034,9.75612
 L -271.016,9.87749 L -271.01,9.99999 L -271.016,10.1225 L -271.034,10.2439 z
" stroke="black" fill="lightgray" stroke-width="0.5"/>
</svg>
