<?xml version="1.0" standalone="no"?>
<!DOCTYPE svg PUBLIC "-//W3C//DTD SVG 1.1//EN" "http://www.w3.org/Graphics/SVG/1.1/DTD/svg11.dtd">
<svg width="305mm" height="305mm" viewBox="-305 0 305 305" xmlns="http://www.w3.org/2000/svg" version="1.1">
<title>OpenSCAD Model</title>
<path d="
M -266.8,300.75 L -276.8,300.75 L -276.8,290 L -208.8,290 L -208.8,289.9 L -207.3,289.9
 L -207.3,304.8 L -192.8,304.8 L -192.8,300.75 L -201.3,300.75 L -201.3,289.9 L -154.4,289.9
 L -154.4,304.8 L -1.2207e-05,304.8 L -1.2207e-05,1.2207e-05 L -304.8,1.2207e-05 L -304.8,289.9 L -281.8,289.9
 L -281.8,304.8 L -266.8,304.8 z
M -20.9225,11.244 L -21.0439,11.226 L -21.1629,11.1962 L -21.2784,11.1549 L -21.3892,11.1024 L -21.4945,11.0393
 L -21.593,10.9663 L -21.6839,10.8839 L -21.7663,10.793 L -21.8393,10.6945 L -21.9024,10.5892 L -21.9548,10.4783
 L -21.9962,10.3629 L -22.026,10.2438 L -22.044,10.1225 L -22.05,10 L -22.044,9.87748 L -22.026,9.75615
 L -21.9962,9.63716 L -21.9548,9.52165 L -21.9024,9.41075 L -21.8393,9.30552 L -21.7663,9.20701 L -21.6839,9.11613
 L -21.593,9.03373 L -21.4945,8.96068 L -21.3892,8.8976 L -21.2784,8.84517 L -21.1629,8.80381 L -21.0439,8.77403
 L -20.9225,8.75602 L -20.8,8.75001 L -20.6775,8.75602 L -20.5561,8.77403 L -20.4371,8.80381 L -20.3216,8.84517
 L -20.2108,8.8976 L -20.1055,8.96068 L -20.007,9.03373 L -19.9161,9.11613 L -19.8338,9.20701 L -19.7607,9.30552
 L -19.6976,9.41075 L -19.6452,9.52165 L -19.6038,9.63716 L -19.574,9.75615 L -19.556,9.87748 L -19.55,10
 L -19.556,10.1225 L -19.574,10.2438 L -19.6038,10.3629 L -19.6452,10.4783 L -19.6976,10.5892 L -19.7607,10.6945
 L -19.8338,10.793 L -19.9161,10.8839 L -20.007,10.9663 L -20.1055,11.0393 L -20.2108,11.1024 L -20.3216,11.1549
 L -20.4371,11.1962 L -20.5561,11.226 L -20.6775,11.244 L -20.8,11.25 z
M -122.523,11.244 L -122.644,11.226 L -122.763,11.1962 L -122.878,11.1549 L -122.989,11.1024 L -123.094,11.0393
 L -123.193,10.9663 L -123.284,10.8839 L -123.366,10.793 L -123.439,10.6945 L -123.502,10.5892 L -123.555,10.4783
 L -123.596,10.3629 L -123.626,10.2438 L -123.644,10.1225 L -123.65,10 L -123.644,9.87748 L -123.626,9.75615
 L -123.596,9.63716 L -123.555,9.52165 L -123.502,9.41075 L -123.439,9.30552 L -123.366,9.20701 L -123.284,9.11613
 L -123.193,9.03373 L -123.094,8.96068 L -122.989,8.8976 L -122.878,8.84517 L -122.763,8.80381 L -122.644,8.77403
 L -122.523,8.75602 L -122.4,8.75001 L -122.277,8.75602 L -122.156,8.77403 L -122.037,8.80381 L -121.922,8.84517
 L -121.811,8.8976 L -121.706,8.96068 L -121.607,9.03373 L -121.516,9.11613 L -121.434,9.20701 L -121.361,9.30552
 L -121.298,9.41075 L -121.245,9.52165 L -121.204,9.63716 L -121.174,9.75615 L -121.156,9.87748 L -121.15,10
 L -121.156,10.1225 L -121.174,10.2438 L -121.204,10.3629 L -121.245,10.4783 L -121.298,10.5892 L -121.361,10.6945
 L -121.434,10.793 L -121.516,10.8839 L -121.607,10.9663 L -121.706,11.0393 L -121.811,11.1024 L -121.922,11.1549
 L -122.037,11.1962 L -122.156,11.226 L -122.277,11.244 L -122.4,11.25 z
M -46.3225,11.244 L -46.4439,11.226 L -46.5629,11.1962 L -46.6784,11.1549 L -46.7892,11.1024 L -46.8945,11.0393
 L -46.993,10.9663 L -47.0839,10.8839 L -47.1663,10.793 L -47.2393,10.6945 L -47.3024,10.5892 L -47.3549,10.4783
 L -47.3962,10.3629 L -47.426,10.2438 L -47.444,10.1225 L -47.45,10 L -47.444,9.87748 L -47.426,9.75615
 L -47.3962,9.63716 L -47.3549,9.52165 L -47.3024,9.41075 L -47.2393,9.30552 L -47.1663,9.20701 L -47.0839,9.11613
 L -46.993,9.03373 L -46.8945,8.96068 L -46.7892,8.8976 L -46.6784,8.84517 L -46.5629,8.80381 L -46.4439,8.77403
 L -46.3225,8.75602 L -46.2,8.75001 L -46.0775,8.75602 L -45.9561,8.77403 L -45.8371,8.80381 L -45.7216,8.84517
 L -45.6108,8.8976 L -45.5055,8.96068 L -45.407,9.03373 L -45.3161,9.11613 L -45.2337,9.20701 L -45.1607,9.30552
 L -45.0976,9.41075 L -45.0451,9.52165 L -45.0038,9.63716 L -44.974,9.75615 L -44.956,9.87748 L -44.95,10
 L -44.956,10.1225 L -44.974,10.2438 L -45.0038,10.3629 L -45.0451,10.4783 L -45.0976,10.5892 L -45.1607,10.6945
 L -45.2337,10.793 L -45.3161,10.8839 L -45.407,10.9663 L -45.5055,11.0393 L -45.6108,11.1024 L -45.7216,11.1549
 L -45.8371,11.1962 L -45.9561,11.226 L -46.0775,11.244 L -46.2,11.25 z
M -249.523,11.244 L -249.644,11.226 L -249.763,11.1962 L -249.878,11.1549 L -249.989,11.1024 L -250.094,11.0393
 L -250.193,10.9663 L -250.284,10.8839 L -250.366,10.793 L -250.439,10.6945 L -250.502,10.5892 L -250.555,10.4783
 L -250.596,10.3629 L -250.626,10.2438 L -250.644,10.1225 L -250.65,10 L -250.644,9.87748 L -250.626,9.75615
 L -250.596,9.63716 L -250.555,9.52165 L -250.502,9.41075 L -250.439,9.30552 L -250.366,9.20701 L -250.284,9.11613
 L -250.193,9.03373 L -250.094,8.96068 L -249.989,8.8976 L -249.878,8.84517 L -249.763,8.80381 L -249.644,8.77403
 L -249.523,8.75602 L -249.4,8.75001 L -249.277,8.75602 L -249.156,8.77403 L -249.037,8.80381 L -248.922,8.84517
 L -248.811,8.8976 L -248.706,8.96068 L -248.607,9.03373 L -248.516,9.11613 L -248.434,9.20701 L -248.361,9.30552
 L -248.298,9.41075 L -248.245,9.52165 L -248.204,9.63716 L -248.174,9.75615 L -248.156,9.87748 L -248.15,10
 L -248.156,10.1225 L -248.174,10.2438 L -248.204,10.3629 L -248.245,10.4783 L -248.298,10.5892 L -248.361,10.6945
 L -248.434,10.793 L -248.516,10.8839 L -248.607,10.9663 L -248.706,11.0393 L -248.811,11.1024 L -248.922,11.1549
 L -249.037,11.1962 L -249.156,11.226 L -249.277,11.244 L -249.4,11.25 z
M -147.556,8.77403 L -147.437,8.80381 L -147.322,8.84517 L -147.211,8.8976 L -147.106,8.96068 L -147.007,9.03373
 L -146.916,9.11613 L -146.834,9.20701 L -146.761,9.30552 L -146.698,9.41075 L -146.645,9.52165 L -146.604,9.63716
 L -146.574,9.75615 L -146.556,9.87748 L -146.55,10 L -146.556,10.1225 L -146.574,10.2438 L -146.604,10.3629
 L -146.645,10.4783 L -146.698,10.5892 L -146.761,10.6945 L -146.834,10.793 L -146.916,10.8839 L -147.007,10.9663
 L -147.106,11.0393 L -147.211,11.1024 L -147.322,11.1549 L -147.437,11.1962 L -147.556,11.226 L -147.677,11.244
 L -147.8,11.25 L -147.923,11.244 L -148.044,11.226 L -148.163,11.1962 L -148.278,11.1549 L -148.389,11.1024
 L -148.494,11.0393 L -148.593,10.9663 L -148.684,10.8839 L -148.766,10.793 L -148.839,10.6945 L -148.902,10.5892
 L -148.955,10.4783 L -148.996,10.3629 L -149.026,10.2438 L -149.044,10.1225 L -149.05,10 L -149.044,9.87748
 L -149.026,9.75615 L -148.996,9.63716 L -148.955,9.52165 L -148.902,9.41075 L -148.839,9.30552 L -148.766,9.20701
 L -148.684,9.11613 L -148.593,9.03373 L -148.494,8.96068 L -148.389,8.8976 L -148.278,8.84517 L -148.163,8.80381
 L -148.044,8.77403 L -147.923,8.75602 L -147.8,8.75001 L -147.677,8.75602 z
M -199.826,9.75615 L -199.796,9.63716 L -199.755,9.52165 L -199.702,9.41075 L -199.639,9.30552 L -199.566,9.20701
 L -199.484,9.11613 L -199.393,9.03373 L -199.294,8.96068 L -199.189,8.8976 L -199.078,8.84517 L -198.963,8.80381
 L -198.844,8.77403 L -198.723,8.75602 L -198.6,8.75001 L -198.477,8.75602 L -198.356,8.77403 L -198.237,8.80381
 L -198.122,8.84517 L -198.011,8.8976 L -197.906,8.96068 L -197.807,9.03373 L -197.716,9.11613 L -197.634,9.20701
 L -197.561,9.30552 L -197.498,9.41075 L -197.445,9.52165 L -197.404,9.63716 L -197.374,9.75615 L -197.356,9.87748
 L -197.35,10 L -197.356,10.1225 L -197.374,10.2438 L -197.404,10.3629 L -197.445,10.4783 L -197.498,10.5892
 L -197.561,10.6945 L -197.634,10.793 L -197.716,10.8839 L -197.807,10.9663 L -197.906,11.0393 L -198.011,11.1024
 L -198.122,11.1549 L -198.237,11.1962 L -198.356,11.226 L -198.477,11.244 L -198.6,11.25 L -198.723,11.244
 L -198.844,11.226 L -198.963,11.1962 L -199.078,11.1549 L -199.189,11.1024 L -199.294,11.0393 L -199.393,10.9663
 L -199.484,10.8839 L -199.566,10.793 L -199.639,10.6945 L -199.702,10.5892 L -199.755,10.4783 L -199.796,10.3629
 L -199.826,10.2438 L -199.844,10.1225 L -199.85,10 L -199.844,9.87748 z
M -274.923,11.244 L -275.044,11.226 L -275.163,11.1962 L -275.278,11.1549 L -275.389,11.1024 L -275.494,11.0393
 L -275.593,10.9663 L -275.684,10.8839 L -275.766,10.793 L -275.839,10.6945 L -275.902,10.5892 L -275.955,10.4783
 L -275.996,10.3629 L -276.026,10.2438 L -276.044,10.1225 L -276.05,10 L -276.044,9.87748 L -276.026,9.75615
 L -275.996,9.63716 L -275.955,9.52165 L -275.902,9.41075 L -275.839,9.30552 L -275.766,9.20701 L -275.684,9.11613
 L -275.593,9.03373 L -275.494,8.96068 L -275.389,8.8976 L -275.278,8.84517 L -275.163,8.80381 L -275.044,8.77403
 L -274.923,8.75602 L -274.8,8.75001 L -274.677,8.75602 L -274.556,8.77403 L -274.437,8.80381 L -274.322,8.84517
 L -274.211,8.8976 L -274.106,8.96068 L -274.007,9.03373 L -273.916,9.11613 L -273.834,9.20701 L -273.761,9.30552
 L -273.698,9.41075 L -273.645,9.52165 L -273.604,9.63716 L -273.574,9.75615 L -273.556,9.87748 L -273.55,10
 L -273.556,10.1225 L -273.574,10.2438 L -273.604,10.3629 L -273.645,10.4783 L -273.698,10.5892 L -273.761,10.6945
 L -273.834,10.793 L -273.916,10.8839 L -274.007,10.9663 L -274.106,11.0393 L -274.211,11.1024 L -274.322,11.1549
 L -274.437,11.1962 L -274.556,11.226 L -274.677,11.244 L -274.8,11.25 z
M -97.1225,11.244 L -97.2439,11.226 L -97.3629,11.1962 L -97.4784,11.1549 L -97.5892,11.1024 L -97.6945,11.0393
 L -97.793,10.9663 L -97.8839,10.8839 L -97.9663,10.793 L -98.0393,10.6945 L -98.1024,10.5892 L -98.1548,10.4783
 L -98.1962,10.3629 L -98.226,10.2438 L -98.244,10.1225 L -98.25,10 L -98.244,9.87748 L -98.226,9.75615
 L -98.1962,9.63716 L -98.1548,9.52165 L -98.1024,9.41075 L -98.0393,9.30552 L -97.9663,9.20701 L -97.8839,9.11613
 L -97.793,9.03373 L -97.6945,8.96068 L -97.5892,8.8976 L -97.4784,8.84517 L -97.3629,8.80381 L -97.2439,8.77403
 L -97.1225,8.75602 L -97,8.75001 L -96.8775,8.75602 L -96.7561,8.77403 L -96.6371,8.80381 L -96.5216,8.84517
 L -96.4107,8.8976 L -96.3055,8.96068 L -96.207,9.03373 L -96.1161,9.11613 L -96.0337,9.20701 L -95.9607,9.30552
 L -95.8976,9.41075 L -95.8452,9.52165 L -95.8038,9.63716 L -95.774,9.75615 L -95.756,9.87748 L -95.75,10
 L -95.756,10.1225 L -95.774,10.2438 L -95.8038,10.3629 L -95.8452,10.4783 L -95.8976,10.5892 L -95.9607,10.6945
 L -96.0337,10.793 L -96.1161,10.8839 L -96.207,10.9663 L -96.3055,11.0393 L -96.4107,11.1024 L -96.5216,11.1549
 L -96.6371,11.1962 L -96.7561,11.226 L -96.8775,11.244 L -97,11.25 z
M -71.3561,8.77403 L -71.2371,8.80381 L -71.1216,8.84517 L -71.0108,8.8976 L -70.9055,8.96068 L -70.807,9.03373
 L -70.7161,9.11613 L -70.6337,9.20701 L -70.5607,9.30552 L -70.4976,9.41075 L -70.4452,9.52165 L -70.4038,9.63716
 L -70.374,9.75615 L -70.356,9.87748 L -70.35,10 L -70.356,10.1225 L -70.374,10.2438 L -70.4038,10.3629
 L -70.4452,10.4783 L -70.4976,10.5892 L -70.5607,10.6945 L -70.6337,10.793 L -70.7161,10.8839 L -70.807,10.9663
 L -70.9055,11.0393 L -71.0108,11.1024 L -71.1216,11.1549 L -71.2371,11.1962 L -71.3561,11.226 L -71.4775,11.244
 L -71.6,11.25 L -71.7225,11.244 L -71.8439,11.226 L -71.9629,11.1962 L -72.0784,11.1549 L -72.1893,11.1024
 L -72.2945,11.0393 L -72.393,10.9663 L -72.4839,10.8839 L -72.5663,10.793 L -72.6393,10.6945 L -72.7024,10.5892
 L -72.7548,10.4783 L -72.7962,10.3629 L -72.826,10.2438 L -72.844,10.1225 L -72.85,10 L -72.844,9.87748
 L -72.826,9.75615 L -72.7962,9.63716 L -72.7548,9.52165 L -72.7024,9.41075 L -72.6393,9.30552 L -72.5663,9.20701
 L -72.4839,9.11613 L -72.393,9.03373 L -72.2945,8.96068 L -72.1893,8.8976 L -72.0784,8.84517 L -71.9629,8.80381
 L -71.8439,8.77403 L -71.7225,8.75602 L -71.6,8.75001 L -71.4775,8.75602 z
M -192.913,27.364 L -193.034,27.346 L -193.153,27.3162 L -193.268,27.2749 L -193.379,27.2224 L -193.484,27.1593
 L -193.583,27.0863 L -193.674,27.0039 L -193.756,26.913 L -193.829,26.8145 L -193.892,26.7092 L -193.945,26.5983
 L -193.986,26.4829 L -194.016,26.3639 L -194.034,26.2425 L -194.04,26.12 L -194.034,25.9975 L -194.016,25.8761
 L -193.986,25.7572 L -193.945,25.6416 L -193.892,25.5307 L -193.829,25.4255 L -193.756,25.327 L -193.674,25.2361
 L -193.583,25.1537 L -193.484,25.0807 L -193.379,25.0176 L -193.268,24.9652 L -193.153,24.9238 L -193.034,24.894
 L -192.913,24.876 L -192.79,24.87 L -192.667,24.876 L -192.546,24.894 L -192.427,24.9238 L -192.312,24.9652
 L -192.201,25.0176 L -192.096,25.0807 L -191.997,25.1537 L -191.906,25.2361 L -191.824,25.327 L -191.751,25.4255
 L -191.688,25.5307 L -191.635,25.6416 L -191.594,25.7572 L -191.564,25.8761 L -191.546,25.9975 L -191.54,26.12
 L -191.546,26.2425 L -191.564,26.3639 L -191.594,26.4829 L -191.635,26.5983 L -191.688,26.7092 L -191.751,26.8145
 L -191.824,26.913 L -191.906,27.0039 L -191.997,27.0863 L -192.096,27.1593 L -192.201,27.2224 L -192.312,27.2749
 L -192.427,27.3162 L -192.546,27.346 L -192.667,27.364 L -192.79,27.37 z
M -238.633,27.364 L -238.754,27.346 L -238.873,27.3162 L -238.988,27.2749 L -239.099,27.2224 L -239.204,27.1593
 L -239.303,27.0863 L -239.394,27.0039 L -239.476,26.913 L -239.549,26.8145 L -239.612,26.7092 L -239.665,26.5983
 L -239.706,26.4829 L -239.736,26.3639 L -239.754,26.2425 L -239.76,26.12 L -239.754,25.9975 L -239.736,25.8761
 L -239.706,25.7572 L -239.665,25.6416 L -239.612,25.5307 L -239.549,25.4255 L -239.476,25.327 L -239.394,25.2361
 L -239.303,25.1537 L -239.204,25.0807 L -239.099,25.0176 L -238.988,24.9652 L -238.873,24.9238 L -238.754,24.894
 L -238.633,24.876 L -238.51,24.87 L -238.387,24.876 L -238.266,24.894 L -238.147,24.9238 L -238.032,24.9652
 L -237.921,25.0176 L -237.816,25.0807 L -237.717,25.1537 L -237.626,25.2361 L -237.544,25.327 L -237.471,25.4255
 L -237.408,25.5307 L -237.355,25.6416 L -237.314,25.7572 L -237.284,25.8761 L -237.266,25.9975 L -237.26,26.12
 L -237.266,26.2425 L -237.284,26.3639 L -237.314,26.4829 L -237.355,26.5983 L -237.408,26.7092 L -237.471,26.8145
 L -237.544,26.913 L -237.626,27.0039 L -237.717,27.0863 L -237.816,27.1593 L -237.921,27.2224 L -238.032,27.2749
 L -238.147,27.3162 L -238.266,27.346 L -238.387,27.364 L -238.51,27.37 z
M -35.4325,27.364 L -35.5539,27.346 L -35.6729,27.3162 L -35.7884,27.2749 L -35.8992,27.2224 L -36.0045,27.1593
 L -36.103,27.0863 L -36.1939,27.0039 L -36.2763,26.913 L -36.3493,26.8145 L -36.4124,26.7092 L -36.4649,26.5983
 L -36.5062,26.4829 L -36.536,26.3639 L -36.554,26.2425 L -36.56,26.12 L -36.554,25.9975 L -36.536,25.8761
 L -36.5062,25.7572 L -36.4649,25.6416 L -36.4124,25.5307 L -36.3493,25.4255 L -36.2763,25.327 L -36.1939,25.2361
 L -36.103,25.1537 L -36.0045,25.0807 L -35.8992,25.0176 L -35.7884,24.9652 L -35.6729,24.9238 L -35.5539,24.894
 L -35.4325,24.876 L -35.31,24.87 L -35.1875,24.876 L -35.0661,24.894 L -34.9471,24.9238 L -34.8316,24.9652
 L -34.7208,25.0176 L -34.6155,25.0807 L -34.517,25.1537 L -34.4261,25.2361 L -34.3437,25.327 L -34.2707,25.4255
 L -34.2076,25.5307 L -34.1551,25.6416 L -34.1138,25.7572 L -34.084,25.8761 L -34.066,25.9975 L -34.06,26.12
 L -34.066,26.2425 L -34.084,26.3639 L -34.1138,26.4829 L -34.1551,26.5983 L -34.2076,26.7092 L -34.2707,26.8145
 L -34.3437,26.913 L -34.4261,27.0039 L -34.517,27.0863 L -34.6155,27.1593 L -34.7208,27.2224 L -34.8316,27.2749
 L -34.9471,27.3162 L -35.0661,27.346 L -35.1875,27.364 L -35.31,27.37 z
M -294.923,42.044 L -295.044,42.026 L -295.163,41.9962 L -295.278,41.9548 L -295.389,41.9024 L -295.494,41.8393
 L -295.593,41.7663 L -295.684,41.6839 L -295.766,41.593 L -295.839,41.4945 L -295.902,41.3892 L -295.955,41.2783
 L -295.996,41.1629 L -296.026,41.0439 L -296.044,40.9225 L -296.05,40.8 L -296.044,40.6775 L -296.026,40.5561
 L -295.996,40.4371 L -295.955,40.3217 L -295.902,40.2108 L -295.839,40.1055 L -295.766,40.007 L -295.684,39.9161
 L -295.593,39.8337 L -295.494,39.7607 L -295.389,39.6976 L -295.278,39.6452 L -295.163,39.6038 L -295.044,39.574
 L -294.923,39.556 L -294.8,39.55 L -294.677,39.556 L -294.556,39.574 L -294.437,39.6038 L -294.322,39.6452
 L -294.211,39.6976 L -294.106,39.7607 L -294.007,39.8337 L -293.916,39.9161 L -293.834,40.007 L -293.761,40.1055
 L -293.698,40.2108 L -293.645,40.3217 L -293.604,40.4371 L -293.574,40.5561 L -293.556,40.6775 L -293.55,40.8
 L -293.556,40.9225 L -293.574,41.0439 L -293.604,41.1629 L -293.645,41.2783 L -293.698,41.3892 L -293.761,41.4945
 L -293.834,41.593 L -293.916,41.6839 L -294.007,41.7663 L -294.106,41.8393 L -294.211,41.9024 L -294.322,41.9548
 L -294.437,41.9962 L -294.556,42.026 L -294.677,42.044 L -294.8,42.05 z
M -10.1225,42.044 L -10.2438,42.026 L -10.3629,41.9962 L -10.4783,41.9548 L -10.5892,41.9024 L -10.6945,41.8393
 L -10.793,41.7663 L -10.8839,41.6839 L -10.9663,41.593 L -11.0393,41.4945 L -11.1024,41.3892 L -11.1549,41.2783
 L -11.1962,41.1629 L -11.226,41.0439 L -11.244,40.9225 L -11.25,40.8 L -11.244,40.6775 L -11.226,40.5561
 L -11.1962,40.4371 L -11.1549,40.3217 L -11.1024,40.2108 L -11.0393,40.1055 L -10.9663,40.007 L -10.8839,39.9161
 L -10.793,39.8337 L -10.6945,39.7607 L -10.5892,39.6976 L -10.4783,39.6452 L -10.3629,39.6038 L -10.2438,39.574
 L -10.1225,39.556 L -10,39.55 L -9.87748,39.556 L -9.75615,39.574 L -9.63716,39.6038 L -9.52165,39.6452
 L -9.41075,39.6976 L -9.30552,39.7607 L -9.20701,39.8337 L -9.11613,39.9161 L -9.03373,40.007 L -8.96068,40.1055
 L -8.8976,40.2108 L -8.84517,40.3217 L -8.80381,40.4371 L -8.77403,40.5561 L -8.75602,40.6775 L -8.75001,40.8
 L -8.75602,40.9225 L -8.77403,41.0439 L -8.80381,41.1629 L -8.84517,41.2783 L -8.8976,41.3892 L -8.96068,41.4945
 L -9.03373,41.593 L -9.11613,41.6839 L -9.20701,41.7663 L -9.30552,41.8393 L -9.41075,41.9024 L -9.52165,41.9548
 L -9.63716,41.9962 L -9.75615,42.026 L -9.87748,42.044 L -10,42.05 z
M -10.1225,67.444 L -10.2438,67.426 L -10.3629,67.3962 L -10.4783,67.3549 L -10.5892,67.3024 L -10.6945,67.2393
 L -10.793,67.1663 L -10.8839,67.0839 L -10.9663,66.993 L -11.0393,66.8945 L -11.1024,66.7892 L -11.1549,66.6784
 L -11.1962,66.5629 L -11.226,66.4439 L -11.244,66.3225 L -11.25,66.2 L -11.244,66.0775 L -11.226,65.9561
 L -11.1962,65.8371 L -11.1549,65.7216 L -11.1024,65.6108 L -11.0393,65.5055 L -10.9663,65.407 L -10.8839,65.3161
 L -10.793,65.2337 L -10.6945,65.1607 L -10.5892,65.0976 L -10.4783,65.0451 L -10.3629,65.0038 L -10.2438,64.974
 L -10.1225,64.956 L -10,64.95 L -9.87748,64.956 L -9.75615,64.974 L -9.63716,65.0038 L -9.52165,65.0451
 L -9.41075,65.0976 L -9.30552,65.1607 L -9.20701,65.2337 L -9.11613,65.3161 L -9.03373,65.407 L -8.96068,65.5055
 L -8.8976,65.6108 L -8.84517,65.7216 L -8.80381,65.8371 L -8.77403,65.9561 L -8.75602,66.0775 L -8.75001,66.2
 L -8.75602,66.3225 L -8.77403,66.4439 L -8.80381,66.5629 L -8.84517,66.6784 L -8.8976,66.7892 L -8.96068,66.8945
 L -9.03373,66.993 L -9.11613,67.0839 L -9.20701,67.1663 L -9.30552,67.2393 L -9.41075,67.3024 L -9.52165,67.3549
 L -9.63716,67.3962 L -9.75615,67.426 L -9.87748,67.444 L -10,67.45 z
M -294.923,67.444 L -295.044,67.426 L -295.163,67.3962 L -295.278,67.3549 L -295.389,67.3024 L -295.494,67.2393
 L -295.593,67.1663 L -295.684,67.0839 L -295.766,66.993 L -295.839,66.8945 L -295.902,66.7892 L -295.955,66.6784
 L -295.996,66.5629 L -296.026,66.4439 L -296.044,66.3225 L -296.05,66.2 L -296.044,66.0775 L -296.026,65.9561
 L -295.996,65.8371 L -295.955,65.7216 L -295.902,65.6108 L -295.839,65.5055 L -295.766,65.407 L -295.684,65.3161
 L -295.593,65.2337 L -295.494,65.1607 L -295.389,65.0976 L -295.278,65.0451 L -295.163,65.0038 L -295.044,64.974
 L -294.923,64.956 L -294.8,64.95 L -294.677,64.956 L -294.556,64.974 L -294.437,65.0038 L -294.322,65.0451
 L -294.211,65.0976 L -294.106,65.1607 L -294.007,65.2337 L -293.916,65.3161 L -293.834,65.407 L -293.761,65.5055
 L -293.698,65.6108 L -293.645,65.7216 L -293.604,65.8371 L -293.574,65.9561 L -293.556,66.0775 L -293.55,66.2
 L -293.556,66.3225 L -293.574,66.4439 L -293.604,66.5629 L -293.645,66.6784 L -293.698,66.7892 L -293.761,66.8945
 L -293.834,66.993 L -293.916,67.0839 L -294.007,67.1663 L -294.106,67.2393 L -294.211,67.3024 L -294.322,67.3549
 L -294.437,67.3962 L -294.556,67.426 L -294.677,67.444 L -294.8,67.45 z
M -294.923,92.844 L -295.044,92.826 L -295.163,92.7962 L -295.278,92.7548 L -295.389,92.7024 L -295.494,92.6393
 L -295.593,92.5663 L -295.684,92.4839 L -295.766,92.393 L -295.839,92.2945 L -295.902,92.1893 L -295.955,92.0784
 L -295.996,91.9629 L -296.026,91.8439 L -296.044,91.7225 L -296.05,91.6 L -296.044,91.4775 L -296.026,91.3561
 L -295.996,91.2371 L -295.955,91.1216 L -295.902,91.0108 L -295.839,90.9055 L -295.766,90.807 L -295.684,90.7161
 L -295.593,90.6337 L -295.494,90.5607 L -295.389,90.4976 L -295.278,90.4452 L -295.163,90.4038 L -295.044,90.374
 L -294.923,90.356 L -294.8,90.35 L -294.677,90.356 L -294.556,90.374 L -294.437,90.4038 L -294.322,90.4452
 L -294.211,90.4976 L -294.106,90.5607 L -294.007,90.6337 L -293.916,90.7161 L -293.834,90.807 L -293.761,90.9055
 L -293.698,91.0108 L -293.645,91.1216 L -293.604,91.2371 L -293.574,91.3561 L -293.556,91.4775 L -293.55,91.6
 L -293.556,91.7225 L -293.574,91.8439 L -293.604,91.9629 L -293.645,92.0784 L -293.698,92.1893 L -293.761,92.2945
 L -293.834,92.393 L -293.916,92.4839 L -294.007,92.5663 L -294.106,92.6393 L -294.211,92.7024 L -294.322,92.7548
 L -294.437,92.7962 L -294.556,92.826 L -294.677,92.844 L -294.8,92.85 z
M -10.1225,92.844 L -10.2438,92.826 L -10.3629,92.7962 L -10.4783,92.7548 L -10.5892,92.7024 L -10.6945,92.6393
 L -10.793,92.5663 L -10.8839,92.4839 L -10.9663,92.393 L -11.0393,92.2945 L -11.1024,92.1893 L -11.1549,92.0784
 L -11.1962,91.9629 L -11.226,91.8439 L -11.244,91.7225 L -11.25,91.6 L -11.244,91.4775 L -11.226,91.3561
 L -11.1962,91.2371 L -11.1549,91.1216 L -11.1024,91.0108 L -11.0393,90.9055 L -10.9663,90.807 L -10.8839,90.7161
 L -10.793,90.6337 L -10.6945,90.5607 L -10.5892,90.4976 L -10.4783,90.4452 L -10.3629,90.4038 L -10.2438,90.374
 L -10.1225,90.356 L -10,90.35 L -9.87748,90.356 L -9.75615,90.374 L -9.63716,90.4038 L -9.52165,90.4452
 L -9.41075,90.4976 L -9.30552,90.5607 L -9.20701,90.6337 L -9.11613,90.7161 L -9.03373,90.807 L -8.96068,90.9055
 L -8.8976,91.0108 L -8.84517,91.1216 L -8.80381,91.2371 L -8.77403,91.3561 L -8.75602,91.4775 L -8.75001,91.6
 L -8.75602,91.7225 L -8.77403,91.8439 L -8.80381,91.9629 L -8.84517,92.0784 L -8.8976,92.1893 L -8.96068,92.2945
 L -9.03373,92.393 L -9.11613,92.4839 L -9.20701,92.5663 L -9.30552,92.6393 L -9.41075,92.7024 L -9.52165,92.7548
 L -9.63716,92.7962 L -9.75615,92.826 L -9.87748,92.844 L -10,92.85 z
M -294.923,118.244 L -295.044,118.226 L -295.163,118.196 L -295.278,118.155 L -295.389,118.102 L -295.494,118.039
 L -295.593,117.966 L -295.684,117.884 L -295.766,117.793 L -295.839,117.694 L -295.902,117.589 L -295.955,117.478
 L -295.996,117.363 L -296.026,117.244 L -296.044,117.123 L -296.05,117 L -296.044,116.877 L -296.026,116.756
 L -295.996,116.637 L -295.955,116.522 L -295.902,116.411 L -295.839,116.306 L -295.766,116.207 L -295.684,116.116
 L -295.593,116.034 L -295.494,115.961 L -295.389,115.898 L -295.278,115.845 L -295.163,115.804 L -295.044,115.774
 L -294.923,115.756 L -294.8,115.75 L -294.677,115.756 L -294.556,115.774 L -294.437,115.804 L -294.322,115.845
 L -294.211,115.898 L -294.106,115.961 L -294.007,116.034 L -293.916,116.116 L -293.834,116.207 L -293.761,116.306
 L -293.698,116.411 L -293.645,116.522 L -293.604,116.637 L -293.574,116.756 L -293.556,116.877 L -293.55,117
 L -293.556,117.123 L -293.574,117.244 L -293.604,117.363 L -293.645,117.478 L -293.698,117.589 L -293.761,117.694
 L -293.834,117.793 L -293.916,117.884 L -294.007,117.966 L -294.106,118.039 L -294.211,118.102 L -294.322,118.155
 L -294.437,118.196 L -294.556,118.226 L -294.677,118.244 L -294.8,118.25 z
M -10.1225,118.244 L -10.2438,118.226 L -10.3629,118.196 L -10.4783,118.155 L -10.5892,118.102 L -10.6945,118.039
 L -10.793,117.966 L -10.8839,117.884 L -10.9663,117.793 L -11.0393,117.694 L -11.1024,117.589 L -11.1549,117.478
 L -11.1962,117.363 L -11.226,117.244 L -11.244,117.123 L -11.25,117 L -11.244,116.877 L -11.226,116.756
 L -11.1962,116.637 L -11.1549,116.522 L -11.1024,116.411 L -11.0393,116.306 L -10.9663,116.207 L -10.8839,116.116
 L -10.793,116.034 L -10.6945,115.961 L -10.5892,115.898 L -10.4783,115.845 L -10.3629,115.804 L -10.2438,115.774
 L -10.1225,115.756 L -10,115.75 L -9.87748,115.756 L -9.75615,115.774 L -9.63716,115.804 L -9.52165,115.845
 L -9.41075,115.898 L -9.30552,115.961 L -9.20701,116.034 L -9.11613,116.116 L -9.03373,116.207 L -8.96068,116.306
 L -8.8976,116.411 L -8.84517,116.522 L -8.80381,116.637 L -8.77403,116.756 L -8.75602,116.877 L -8.75001,117
 L -8.75602,117.123 L -8.77403,117.244 L -8.80381,117.363 L -8.84517,117.478 L -8.8976,117.589 L -8.96068,117.694
 L -9.03373,117.793 L -9.11613,117.884 L -9.20701,117.966 L -9.30552,118.039 L -9.41075,118.102 L -9.52165,118.155
 L -9.63716,118.196 L -9.75615,118.226 L -9.87748,118.244 L -10,118.25 z
M -10.1225,143.644 L -10.2438,143.626 L -10.3629,143.596 L -10.4783,143.555 L -10.5892,143.502 L -10.6945,143.439
 L -10.793,143.366 L -10.8839,143.284 L -10.9663,143.193 L -11.0393,143.094 L -11.1024,142.989 L -11.1549,142.878
 L -11.1962,142.763 L -11.226,142.644 L -11.244,142.523 L -11.25,142.4 L -11.244,142.277 L -11.226,142.156
 L -11.1962,142.037 L -11.1549,141.922 L -11.1024,141.811 L -11.0393,141.706 L -10.9663,141.607 L -10.8839,141.516
 L -10.793,141.434 L -10.6945,141.361 L -10.5892,141.298 L -10.4783,141.245 L -10.3629,141.204 L -10.2438,141.174
 L -10.1225,141.156 L -10,141.15 L -9.87748,141.156 L -9.75615,141.174 L -9.63716,141.204 L -9.52165,141.245
 L -9.41075,141.298 L -9.30552,141.361 L -9.20701,141.434 L -9.11613,141.516 L -9.03373,141.607 L -8.96068,141.706
 L -8.8976,141.811 L -8.84517,141.922 L -8.80381,142.037 L -8.77403,142.156 L -8.75602,142.277 L -8.75001,142.4
 L -8.75602,142.523 L -8.77403,142.644 L -8.80381,142.763 L -8.84517,142.878 L -8.8976,142.989 L -8.96068,143.094
 L -9.03373,143.193 L -9.11613,143.284 L -9.20701,143.366 L -9.30552,143.439 L -9.41075,143.502 L -9.52165,143.555
 L -9.63716,143.596 L -9.75615,143.626 L -9.87748,143.644 L -10,143.65 z
M -294.923,143.644 L -295.044,143.626 L -295.163,143.596 L -295.278,143.555 L -295.389,143.502 L -295.494,143.439
 L -295.593,143.366 L -295.684,143.284 L -295.766,143.193 L -295.839,143.094 L -295.902,142.989 L -295.955,142.878
 L -295.996,142.763 L -296.026,142.644 L -296.044,142.523 L -296.05,142.4 L -296.044,142.277 L -296.026,142.156
 L -295.996,142.037 L -295.955,141.922 L -295.902,141.811 L -295.839,141.706 L -295.766,141.607 L -295.684,141.516
 L -295.593,141.434 L -295.494,141.361 L -295.389,141.298 L -295.278,141.245 L -295.163,141.204 L -295.044,141.174
 L -294.923,141.156 L -294.8,141.15 L -294.677,141.156 L -294.556,141.174 L -294.437,141.204 L -294.322,141.245
 L -294.211,141.298 L -294.106,141.361 L -294.007,141.434 L -293.916,141.516 L -293.834,141.607 L -293.761,141.706
 L -293.698,141.811 L -293.645,141.922 L -293.604,142.037 L -293.574,142.156 L -293.556,142.277 L -293.55,142.4
 L -293.556,142.523 L -293.574,142.644 L -293.604,142.763 L -293.645,142.878 L -293.698,142.989 L -293.761,143.094
 L -293.834,143.193 L -293.916,143.284 L -294.007,143.366 L -294.106,143.439 L -294.211,143.502 L -294.322,143.555
 L -294.437,143.596 L -294.556,143.626 L -294.677,143.644 L -294.8,143.65 z
M -294.923,169.044 L -295.044,169.026 L -295.163,168.996 L -295.278,168.955 L -295.389,168.902 L -295.494,168.839
 L -295.593,168.766 L -295.684,168.684 L -295.766,168.593 L -295.839,168.494 L -295.902,168.389 L -295.955,168.278
 L -295.996,168.163 L -296.026,168.044 L -296.044,167.923 L -296.05,167.8 L -296.044,167.677 L -296.026,167.556
 L -295.996,167.437 L -295.955,167.322 L -295.902,167.211 L -295.839,167.106 L -295.766,167.007 L -295.684,166.916
 L -295.593,166.834 L -295.494,166.761 L -295.389,166.698 L -295.278,166.645 L -295.163,166.604 L -295.044,166.574
 L -294.923,166.556 L -294.8,166.55 L -294.677,166.556 L -294.556,166.574 L -294.437,166.604 L -294.322,166.645
 L -294.211,166.698 L -294.106,166.761 L -294.007,166.834 L -293.916,166.916 L -293.834,167.007 L -293.761,167.106
 L -293.698,167.211 L -293.645,167.322 L -293.604,167.437 L -293.574,167.556 L -293.556,167.677 L -293.55,167.8
 L -293.556,167.923 L -293.574,168.044 L -293.604,168.163 L -293.645,168.278 L -293.698,168.389 L -293.761,168.494
 L -293.834,168.593 L -293.916,168.684 L -294.007,168.766 L -294.106,168.839 L -294.211,168.902 L -294.322,168.955
 L -294.437,168.996 L -294.556,169.026 L -294.677,169.044 L -294.8,169.05 z
M -10.1225,169.044 L -10.2438,169.026 L -10.3629,168.996 L -10.4783,168.955 L -10.5892,168.902 L -10.6945,168.839
 L -10.793,168.766 L -10.8839,168.684 L -10.9663,168.593 L -11.0393,168.494 L -11.1024,168.389 L -11.1549,168.278
 L -11.1962,168.163 L -11.226,168.044 L -11.244,167.923 L -11.25,167.8 L -11.244,167.677 L -11.226,167.556
 L -11.1962,167.437 L -11.1549,167.322 L -11.1024,167.211 L -11.0393,167.106 L -10.9663,167.007 L -10.8839,166.916
 L -10.793,166.834 L -10.6945,166.761 L -10.5892,166.698 L -10.4783,166.645 L -10.3629,166.604 L -10.2438,166.574
 L -10.1225,166.556 L -10,166.55 L -9.87748,166.556 L -9.75615,166.574 L -9.63716,166.604 L -9.52165,166.645
 L -9.41075,166.698 L -9.30552,166.761 L -9.20701,166.834 L -9.11613,166.916 L -9.03373,167.007 L -8.96068,167.106
 L -8.8976,167.211 L -8.84517,167.322 L -8.80381,167.437 L -8.77403,167.556 L -8.75602,167.677 L -8.75001,167.8
 L -8.75602,167.923 L -8.77403,168.044 L -8.80381,168.163 L -8.84517,168.278 L -8.8976,168.389 L -8.96068,168.494
 L -9.03373,168.593 L -9.11613,168.684 L -9.20701,168.766 L -9.30552,168.839 L -9.41075,168.902 L -9.52165,168.955
 L -9.63716,168.996 L -9.75615,169.026 L -9.87748,169.044 L -10,169.05 z
M -192.913,182.304 L -193.034,182.286 L -193.153,182.256 L -193.268,182.215 L -193.379,182.162 L -193.484,182.099
 L -193.583,182.026 L -193.674,181.944 L -193.756,181.853 L -193.829,181.754 L -193.892,181.649 L -193.945,181.538
 L -193.986,181.423 L -194.016,181.304 L -194.034,181.183 L -194.04,181.06 L -194.034,180.937 L -194.016,180.816
 L -193.986,180.697 L -193.945,180.582 L -193.892,180.471 L -193.829,180.366 L -193.756,180.267 L -193.674,180.176
 L -193.583,180.094 L -193.484,180.021 L -193.379,179.958 L -193.268,179.905 L -193.153,179.864 L -193.034,179.834
 L -192.913,179.816 L -192.79,179.81 L -192.667,179.816 L -192.546,179.834 L -192.427,179.864 L -192.312,179.905
 L -192.201,179.958 L -192.096,180.021 L -191.997,180.094 L -191.906,180.176 L -191.824,180.267 L -191.751,180.366
 L -191.688,180.471 L -191.635,180.582 L -191.594,180.697 L -191.564,180.816 L -191.546,180.937 L -191.54,181.06
 L -191.546,181.183 L -191.564,181.304 L -191.594,181.423 L -191.635,181.538 L -191.688,181.649 L -191.751,181.754
 L -191.824,181.853 L -191.906,181.944 L -191.997,182.026 L -192.096,182.099 L -192.201,182.162 L -192.312,182.215
 L -192.427,182.256 L -192.546,182.286 L -192.667,182.304 L -192.79,182.31 z
M -258.953,182.304 L -259.074,182.286 L -259.193,182.256 L -259.308,182.215 L -259.419,182.162 L -259.524,182.099
 L -259.623,182.026 L -259.714,181.944 L -259.796,181.853 L -259.869,181.754 L -259.932,181.649 L -259.985,181.538
 L -260.026,181.423 L -260.056,181.304 L -260.074,181.183 L -260.08,181.06 L -260.074,180.937 L -260.056,180.816
 L -260.026,180.697 L -259.985,180.582 L -259.932,180.471 L -259.869,180.366 L -259.796,180.267 L -259.714,180.176
 L -259.623,180.094 L -259.524,180.021 L -259.419,179.958 L -259.308,179.905 L -259.193,179.864 L -259.074,179.834
 L -258.953,179.816 L -258.83,179.81 L -258.707,179.816 L -258.586,179.834 L -258.467,179.864 L -258.352,179.905
 L -258.241,179.958 L -258.136,180.021 L -258.037,180.094 L -257.946,180.176 L -257.864,180.267 L -257.791,180.366
 L -257.728,180.471 L -257.675,180.582 L -257.634,180.697 L -257.604,180.816 L -257.586,180.937 L -257.58,181.06
 L -257.586,181.183 L -257.604,181.304 L -257.634,181.423 L -257.675,181.538 L -257.728,181.649 L -257.791,181.754
 L -257.864,181.853 L -257.946,181.944 L -258.037,182.026 L -258.136,182.099 L -258.241,182.162 L -258.352,182.215
 L -258.467,182.256 L -258.586,182.286 L -258.707,182.304 L -258.83,182.31 z
M -238.633,182.304 L -238.754,182.286 L -238.873,182.256 L -238.988,182.215 L -239.099,182.162 L -239.204,182.099
 L -239.303,182.026 L -239.394,181.944 L -239.476,181.853 L -239.549,181.754 L -239.612,181.649 L -239.665,181.538
 L -239.706,181.423 L -239.736,181.304 L -239.754,181.183 L -239.76,181.06 L -239.754,180.937 L -239.736,180.816
 L -239.706,180.697 L -239.665,180.582 L -239.612,180.471 L -239.549,180.366 L -239.476,180.267 L -239.394,180.176
 L -239.303,180.094 L -239.204,180.021 L -239.099,179.958 L -238.988,179.905 L -238.873,179.864 L -238.754,179.834
 L -238.633,179.816 L -238.51,179.81 L -238.387,179.816 L -238.266,179.834 L -238.147,179.864 L -238.032,179.905
 L -237.921,179.958 L -237.816,180.021 L -237.717,180.094 L -237.626,180.176 L -237.544,180.267 L -237.471,180.366
 L -237.408,180.471 L -237.355,180.582 L -237.314,180.697 L -237.284,180.816 L -237.266,180.937 L -237.26,181.06
 L -237.266,181.183 L -237.284,181.304 L -237.314,181.423 L -237.355,181.538 L -237.408,181.649 L -237.471,181.754
 L -237.544,181.853 L -237.626,181.944 L -237.717,182.026 L -237.816,182.099 L -237.921,182.162 L -238.032,182.215
 L -238.147,182.256 L -238.266,182.286 L -238.387,182.304 L -238.51,182.31 z
M -35.4325,182.304 L -35.5539,182.286 L -35.6729,182.256 L -35.7884,182.215 L -35.8992,182.162 L -36.0045,182.099
 L -36.103,182.026 L -36.1939,181.944 L -36.2763,181.853 L -36.3493,181.754 L -36.4124,181.649 L -36.4649,181.538
 L -36.5062,181.423 L -36.536,181.304 L -36.554,181.183 L -36.56,181.06 L -36.554,180.937 L -36.536,180.816
 L -36.5062,180.697 L -36.4649,180.582 L -36.4124,180.471 L -36.3493,180.366 L -36.2763,180.267 L -36.1939,180.176
 L -36.103,180.094 L -36.0045,180.021 L -35.8992,179.958 L -35.7884,179.905 L -35.6729,179.864 L -35.5539,179.834
 L -35.4325,179.816 L -35.31,179.81 L -35.1875,179.816 L -35.0661,179.834 L -34.9471,179.864 L -34.8316,179.905
 L -34.7208,179.958 L -34.6155,180.021 L -34.517,180.094 L -34.4261,180.176 L -34.3437,180.267 L -34.2707,180.366
 L -34.2076,180.471 L -34.1551,180.582 L -34.1138,180.697 L -34.084,180.816 L -34.066,180.937 L -34.06,181.06
 L -34.066,181.183 L -34.084,181.304 L -34.1138,181.423 L -34.1551,181.538 L -34.2076,181.649 L -34.2707,181.754
 L -34.3437,181.853 L -34.4261,181.944 L -34.517,182.026 L -34.6155,182.099 L -34.7208,182.162 L -34.8316,182.215
 L -34.9471,182.256 L -35.0661,182.286 L -35.1875,182.304 L -35.31,182.31 z
M -294.923,194.444 L -295.044,194.426 L -295.163,194.396 L -295.278,194.355 L -295.389,194.302 L -295.494,194.239
 L -295.593,194.166 L -295.684,194.084 L -295.766,193.993 L -295.839,193.894 L -295.902,193.789 L -295.955,193.678
 L -295.996,193.563 L -296.026,193.444 L -296.044,193.323 L -296.05,193.2 L -296.044,193.077 L -296.026,192.956
 L -295.996,192.837 L -295.955,192.722 L -295.902,192.611 L -295.839,192.506 L -295.766,192.407 L -295.684,192.316
 L -295.593,192.234 L -295.494,192.161 L -295.389,192.098 L -295.278,192.045 L -295.163,192.004 L -295.044,191.974
 L -294.923,191.956 L -294.8,191.95 L -294.677,191.956 L -294.556,191.974 L -294.437,192.004 L -294.322,192.045
 L -294.211,192.098 L -294.106,192.161 L -294.007,192.234 L -293.916,192.316 L -293.834,192.407 L -293.761,192.506
 L -293.698,192.611 L -293.645,192.722 L -293.604,192.837 L -293.574,192.956 L -293.556,193.077 L -293.55,193.2
 L -293.556,193.323 L -293.574,193.444 L -293.604,193.563 L -293.645,193.678 L -293.698,193.789 L -293.761,193.894
 L -293.834,193.993 L -293.916,194.084 L -294.007,194.166 L -294.106,194.239 L -294.211,194.302 L -294.322,194.355
 L -294.437,194.396 L -294.556,194.426 L -294.677,194.444 L -294.8,194.45 z
M -10.1225,194.444 L -10.2438,194.426 L -10.3629,194.396 L -10.4783,194.355 L -10.5892,194.302 L -10.6945,194.239
 L -10.793,194.166 L -10.8839,194.084 L -10.9663,193.993 L -11.0393,193.894 L -11.1024,193.789 L -11.1549,193.678
 L -11.1962,193.563 L -11.226,193.444 L -11.244,193.323 L -11.25,193.2 L -11.244,193.077 L -11.226,192.956
 L -11.1962,192.837 L -11.1549,192.722 L -11.1024,192.611 L -11.0393,192.506 L -10.9663,192.407 L -10.8839,192.316
 L -10.793,192.234 L -10.6945,192.161 L -10.5892,192.098 L -10.4783,192.045 L -10.3629,192.004 L -10.2438,191.974
 L -10.1225,191.956 L -10,191.95 L -9.87748,191.956 L -9.75615,191.974 L -9.63716,192.004 L -9.52165,192.045
 L -9.41075,192.098 L -9.30552,192.161 L -9.20701,192.234 L -9.11613,192.316 L -9.03373,192.407 L -8.96068,192.506
 L -8.8976,192.611 L -8.84517,192.722 L -8.80381,192.837 L -8.77403,192.956 L -8.75602,193.077 L -8.75001,193.2
 L -8.75602,193.323 L -8.77403,193.444 L -8.80381,193.563 L -8.84517,193.678 L -8.8976,193.789 L -8.96068,193.894
 L -9.03373,193.993 L -9.11613,194.084 L -9.20701,194.166 L -9.30552,194.239 L -9.41075,194.302 L -9.52165,194.355
 L -9.63716,194.396 L -9.75615,194.426 L -9.87748,194.444 L -10,194.45 z
M -10.1225,219.844 L -10.2438,219.826 L -10.3629,219.796 L -10.4783,219.755 L -10.5892,219.702 L -10.6945,219.639
 L -10.793,219.566 L -10.8839,219.484 L -10.9663,219.393 L -11.0393,219.294 L -11.1024,219.189 L -11.1549,219.078
 L -11.1962,218.963 L -11.226,218.844 L -11.244,218.723 L -11.25,218.6 L -11.244,218.477 L -11.226,218.356
 L -11.1962,218.237 L -11.1549,218.122 L -11.1024,218.011 L -11.0393,217.906 L -10.9663,217.807 L -10.8839,217.716
 L -10.793,217.634 L -10.6945,217.561 L -10.5892,217.498 L -10.4783,217.445 L -10.3629,217.404 L -10.2438,217.374
 L -10.1225,217.356 L -10,217.35 L -9.87748,217.356 L -9.75615,217.374 L -9.63716,217.404 L -9.52165,217.445
 L -9.41075,217.498 L -9.30552,217.561 L -9.20701,217.634 L -9.11613,217.716 L -9.03373,217.807 L -8.96068,217.906
 L -8.8976,218.011 L -8.84517,218.122 L -8.80381,218.237 L -8.77403,218.356 L -8.75602,218.477 L -8.75001,218.6
 L -8.75602,218.723 L -8.77403,218.844 L -8.80381,218.963 L -8.84517,219.078 L -8.8976,219.189 L -8.96068,219.294
 L -9.03373,219.393 L -9.11613,219.484 L -9.20701,219.566 L -9.30552,219.639 L -9.41075,219.702 L -9.52165,219.755
 L -9.63716,219.796 L -9.75615,219.826 L -9.87748,219.844 L -10,219.85 z
M -294.923,219.844 L -295.044,219.826 L -295.163,219.796 L -295.278,219.755 L -295.389,219.702 L -295.494,219.639
 L -295.593,219.566 L -295.684,219.484 L -295.766,219.393 L -295.839,219.294 L -295.902,219.189 L -295.955,219.078
 L -295.996,218.963 L -296.026,218.844 L -296.044,218.723 L -296.05,218.6 L -296.044,218.477 L -296.026,218.356
 L -295.996,218.237 L -295.955,218.122 L -295.902,218.011 L -295.839,217.906 L -295.766,217.807 L -295.684,217.716
 L -295.593,217.634 L -295.494,217.561 L -295.389,217.498 L -295.278,217.445 L -295.163,217.404 L -295.044,217.374
 L -294.923,217.356 L -294.8,217.35 L -294.677,217.356 L -294.556,217.374 L -294.437,217.404 L -294.322,217.445
 L -294.211,217.498 L -294.106,217.561 L -294.007,217.634 L -293.916,217.716 L -293.834,217.807 L -293.761,217.906
 L -293.698,218.011 L -293.645,218.122 L -293.604,218.237 L -293.574,218.356 L -293.556,218.477 L -293.55,218.6
 L -293.556,218.723 L -293.574,218.844 L -293.604,218.963 L -293.645,219.078 L -293.698,219.189 L -293.761,219.294
 L -293.834,219.393 L -293.916,219.484 L -294.007,219.566 L -294.106,219.639 L -294.211,219.702 L -294.322,219.755
 L -294.437,219.796 L -294.556,219.826 L -294.677,219.844 L -294.8,219.85 z
M -10.1225,245.244 L -10.2438,245.226 L -10.3629,245.196 L -10.4783,245.155 L -10.5892,245.102 L -10.6945,245.039
 L -10.793,244.966 L -10.8839,244.884 L -10.9663,244.793 L -11.0393,244.694 L -11.1024,244.589 L -11.1549,244.478
 L -11.1962,244.363 L -11.226,244.244 L -11.244,244.123 L -11.25,244 L -11.244,243.877 L -11.226,243.756
 L -11.1962,243.637 L -11.1549,243.522 L -11.1024,243.411 L -11.0393,243.306 L -10.9663,243.207 L -10.8839,243.116
 L -10.793,243.034 L -10.6945,242.961 L -10.5892,242.898 L -10.4783,242.845 L -10.3629,242.804 L -10.2438,242.774
 L -10.1225,242.756 L -10,242.75 L -9.87748,242.756 L -9.75615,242.774 L -9.63716,242.804 L -9.52165,242.845
 L -9.41075,242.898 L -9.30552,242.961 L -9.20701,243.034 L -9.11613,243.116 L -9.03373,243.207 L -8.96068,243.306
 L -8.8976,243.411 L -8.84517,243.522 L -8.80381,243.637 L -8.77403,243.756 L -8.75602,243.877 L -8.75001,244
 L -8.75602,244.123 L -8.77403,244.244 L -8.80381,244.363 L -8.84517,244.478 L -8.8976,244.589 L -8.96068,244.694
 L -9.03373,244.793 L -9.11613,244.884 L -9.20701,244.966 L -9.30552,245.039 L -9.41075,245.102 L -9.52165,245.155
 L -9.63716,245.196 L -9.75615,245.226 L -9.87748,245.244 L -10,245.25 z
M -294.923,245.244 L -295.044,245.226 L -295.163,245.196 L -295.278,245.155 L -295.389,245.102 L -295.494,245.039
 L -295.593,244.966 L -295.684,244.884 L -295.766,244.793 L -295.839,244.694 L -295.902,244.589 L -295.955,244.478
 L -295.996,244.363 L -296.026,244.244 L -296.044,244.123 L -296.05,244 L -296.044,243.877 L -296.026,243.756
 L -295.996,243.637 L -295.955,243.522 L -295.902,243.411 L -295.839,243.306 L -295.766,243.207 L -295.684,243.116
 L -295.593,243.034 L -295.494,242.961 L -295.389,242.898 L -295.278,242.845 L -295.163,242.804 L -295.044,242.774
 L -294.923,242.756 L -294.8,242.75 L -294.677,242.756 L -294.556,242.774 L -294.437,242.804 L -294.322,242.845
 L -294.211,242.898 L -294.106,242.961 L -294.007,243.034 L -293.916,243.116 L -293.834,243.207 L -293.761,243.306
 L -293.698,243.411 L -293.645,243.522 L -293.604,243.637 L -293.574,243.756 L -293.556,243.877 L -293.55,244
 L -293.556,244.123 L -293.574,244.244 L -293.604,244.363 L -293.645,244.478 L -293.698,244.589 L -293.761,244.694
 L -293.834,244.793 L -293.916,244.884 L -294.007,244.966 L -294.106,245.039 L -294.211,245.102 L -294.322,245.155
 L -294.437,245.196 L -294.556,245.226 L -294.677,245.244 L -294.8,245.25 z
M -35.4325,254.694 L -35.5539,254.676 L -35.6729,254.646 L -35.7884,254.605 L -35.8992,254.552 L -36.0045,254.489
 L -36.103,254.416 L -36.1939,254.334 L -36.2763,254.243 L -36.3493,254.144 L -36.4124,254.039 L -36.4649,253.928
 L -36.5062,253.813 L -36.536,253.694 L -36.554,253.573 L -36.56,253.45 L -36.554,253.327 L -36.536,253.206
 L -36.5062,253.087 L -36.4649,252.972 L -36.4124,252.861 L -36.3493,252.756 L -36.2763,252.657 L -36.1939,252.566
 L -36.103,252.484 L -36.0045,252.411 L -35.8992,252.348 L -35.7884,252.295 L -35.6729,252.254 L -35.5539,252.224
 L -35.4325,252.206 L -35.31,252.2 L -35.1875,252.206 L -35.0661,252.224 L -34.9471,252.254 L -34.8316,252.295
 L -34.7208,252.348 L -34.6155,252.411 L -34.517,252.484 L -34.4261,252.566 L -34.3437,252.657 L -34.2707,252.756
 L -34.2076,252.861 L -34.1551,252.972 L -34.1138,253.087 L -34.084,253.206 L -34.066,253.327 L -34.06,253.45
 L -34.066,253.573 L -34.084,253.694 L -34.1138,253.813 L -34.1551,253.928 L -34.2076,254.039 L -34.2707,254.144
 L -34.3437,254.243 L -34.4261,254.334 L -34.517,254.416 L -34.6155,254.489 L -34.7208,254.552 L -34.8316,254.605
 L -34.9471,254.646 L -35.0661,254.676 L -35.1875,254.694 L -35.31,254.7 z
M -192.913,254.694 L -193.034,254.676 L -193.153,254.646 L -193.268,254.605 L -193.379,254.552 L -193.484,254.489
 L -193.583,254.416 L -193.674,254.334 L -193.756,254.243 L -193.829,254.144 L -193.892,254.039 L -193.945,253.928
 L -193.986,253.813 L -194.016,253.694 L -194.034,253.573 L -194.04,253.45 L -194.034,253.327 L -194.016,253.206
 L -193.986,253.087 L -193.945,252.972 L -193.892,252.861 L -193.829,252.756 L -193.756,252.657 L -193.674,252.566
 L -193.583,252.484 L -193.484,252.411 L -193.379,252.348 L -193.268,252.295 L -193.153,252.254 L -193.034,252.224
 L -192.913,252.206 L -192.79,252.2 L -192.667,252.206 L -192.546,252.224 L -192.427,252.254 L -192.312,252.295
 L -192.201,252.348 L -192.096,252.411 L -191.997,252.484 L -191.906,252.566 L -191.824,252.657 L -191.751,252.756
 L -191.688,252.861 L -191.635,252.972 L -191.594,253.087 L -191.564,253.206 L -191.546,253.327 L -191.54,253.45
 L -191.546,253.573 L -191.564,253.694 L -191.594,253.813 L -191.635,253.928 L -191.688,254.039 L -191.751,254.144
 L -191.824,254.243 L -191.906,254.334 L -191.997,254.416 L -192.096,254.489 L -192.201,254.552 L -192.312,254.605
 L -192.427,254.646 L -192.546,254.676 L -192.667,254.694 L -192.79,254.7 z
M -294.923,270.644 L -295.044,270.626 L -295.163,270.596 L -295.278,270.555 L -295.389,270.502 L -295.494,270.439
 L -295.593,270.366 L -295.684,270.284 L -295.766,270.193 L -295.839,270.094 L -295.902,269.989 L -295.955,269.878
 L -295.996,269.763 L -296.026,269.644 L -296.044,269.523 L -296.05,269.4 L -296.044,269.277 L -296.026,269.156
 L -295.996,269.037 L -295.955,268.922 L -295.902,268.811 L -295.839,268.706 L -295.766,268.607 L -295.684,268.516
 L -295.593,268.434 L -295.494,268.361 L -295.389,268.298 L -295.278,268.245 L -295.163,268.204 L -295.044,268.174
 L -294.923,268.156 L -294.8,268.15 L -294.677,268.156 L -294.556,268.174 L -294.437,268.204 L -294.322,268.245
 L -294.211,268.298 L -294.106,268.361 L -294.007,268.434 L -293.916,268.516 L -293.834,268.607 L -293.761,268.706
 L -293.698,268.811 L -293.645,268.922 L -293.604,269.037 L -293.574,269.156 L -293.556,269.277 L -293.55,269.4
 L -293.556,269.523 L -293.574,269.644 L -293.604,269.763 L -293.645,269.878 L -293.698,269.989 L -293.761,270.094
 L -293.834,270.193 L -293.916,270.284 L -294.007,270.366 L -294.106,270.439 L -294.211,270.502 L -294.322,270.555
 L -294.437,270.596 L -294.556,270.626 L -294.677,270.644 L -294.8,270.65 z
M -10.1225,270.644 L -10.2438,270.626 L -10.3629,270.596 L -10.4783,270.555 L -10.5892,270.502 L -10.6945,270.439
 L -10.793,270.366 L -10.8839,270.284 L -10.9663,270.193 L -11.0393,270.094 L -11.1024,269.989 L -11.1549,269.878
 L -11.1962,269.763 L -11.226,269.644 L -11.244,269.523 L -11.25,269.4 L -11.244,269.277 L -11.226,269.156
 L -11.1962,269.037 L -11.1549,268.922 L -11.1024,268.811 L -11.0393,268.706 L -10.9663,268.607 L -10.8839,268.516
 L -10.793,268.434 L -10.6945,268.361 L -10.5892,268.298 L -10.4783,268.245 L -10.3629,268.204 L -10.2438,268.174
 L -10.1225,268.156 L -10,268.15 L -9.87748,268.156 L -9.75615,268.174 L -9.63716,268.204 L -9.52165,268.245
 L -9.41075,268.298 L -9.30552,268.361 L -9.20701,268.434 L -9.11613,268.516 L -9.03373,268.607 L -8.96068,268.706
 L -8.8976,268.811 L -8.84517,268.922 L -8.80381,269.037 L -8.77403,269.156 L -8.75602,269.277 L -8.75001,269.4
 L -8.75602,269.523 L -8.77403,269.644 L -8.80381,269.763 L -8.84517,269.878 L -8.8976,269.989 L -8.96068,270.094
 L -9.03373,270.193 L -9.11613,270.284 L -9.20701,270.366 L -9.30552,270.439 L -9.41075,270.502 L -9.52165,270.555
 L -9.63716,270.596 L -9.75615,270.626 L -9.87748,270.644 L -10,270.65 z
M -86.1225,276.044 L -86.2439,276.026 L -86.3629,275.996 L -86.4784,275.955 L -86.5892,275.902 L -86.6945,275.839
 L -86.793,275.766 L -86.8839,275.684 L -86.9663,275.593 L -87.0393,275.494 L -87.1024,275.389 L -87.1548,275.278
 L -87.1962,275.163 L -87.226,275.044 L -87.244,274.923 L -87.25,274.8 L -87.244,274.677 L -87.226,274.556
 L -87.1962,274.437 L -87.1548,274.322 L -87.1024,274.211 L -87.0393,274.106 L -86.9663,274.007 L -86.8839,273.916
 L -86.793,273.834 L -86.6945,273.761 L -86.5892,273.698 L -86.4784,273.645 L -86.3629,273.604 L -86.2439,273.574
 L -86.1225,273.556 L -86,273.55 L -85.8775,273.556 L -85.7561,273.574 L -85.6371,273.604 L -85.5216,273.645
 L -85.4107,273.698 L -85.3055,273.761 L -85.207,273.834 L -85.1161,273.916 L -85.0337,274.007 L -84.9607,274.106
 L -84.8976,274.211 L -84.8452,274.322 L -84.8038,274.437 L -84.774,274.556 L -84.756,274.677 L -84.75,274.8
 L -84.756,274.923 L -84.774,275.044 L -84.8038,275.163 L -84.8452,275.278 L -84.8976,275.389 L -84.9607,275.494
 L -85.0337,275.593 L -85.1161,275.684 L -85.207,275.766 L -85.3055,275.839 L -85.4107,275.902 L -85.5216,275.955
 L -85.6371,275.996 L -85.7561,276.026 L -85.8775,276.044 L -86,276.05 z
M -263.923,276.044 L -264.044,276.026 L -264.163,275.996 L -264.278,275.955 L -264.389,275.902 L -264.494,275.839
 L -264.593,275.766 L -264.684,275.684 L -264.766,275.593 L -264.839,275.494 L -264.902,275.389 L -264.955,275.278
 L -264.996,275.163 L -265.026,275.044 L -265.044,274.923 L -265.05,274.8 L -265.044,274.677 L -265.026,274.556
 L -264.996,274.437 L -264.955,274.322 L -264.902,274.211 L -264.839,274.106 L -264.766,274.007 L -264.684,273.916
 L -264.593,273.834 L -264.494,273.761 L -264.389,273.698 L -264.278,273.645 L -264.163,273.604 L -264.044,273.574
 L -263.923,273.556 L -263.8,273.55 L -263.677,273.556 L -263.556,273.574 L -263.437,273.604 L -263.322,273.645
 L -263.211,273.698 L -263.106,273.761 L -263.007,273.834 L -262.916,273.916 L -262.834,274.007 L -262.761,274.106
 L -262.698,274.211 L -262.645,274.322 L -262.604,274.437 L -262.574,274.556 L -262.556,274.677 L -262.55,274.8
 L -262.556,274.923 L -262.574,275.044 L -262.604,275.163 L -262.645,275.278 L -262.698,275.389 L -262.761,275.494
 L -262.834,275.593 L -262.916,275.684 L -263.007,275.766 L -263.106,275.839 L -263.211,275.902 L -263.322,275.955
 L -263.437,275.996 L -263.556,276.026 L -263.677,276.044 L -263.8,276.05 z
M -36.3962,274.437 L -36.3549,274.322 L -36.3024,274.211 L -36.2393,274.106 L -36.1663,274.007 L -36.0839,273.916
 L -35.993,273.834 L -35.8945,273.761 L -35.7892,273.698 L -35.6784,273.645 L -35.5629,273.604 L -35.4439,273.574
 L -35.3225,273.556 L -35.2,273.55 L -35.0775,273.556 L -34.9561,273.574 L -34.8371,273.604 L -34.7216,273.645
 L -34.6108,273.698 L -34.5055,273.761 L -34.407,273.834 L -34.3161,273.916 L -34.2337,274.007 L -34.1607,274.106
 L -34.0976,274.211 L -34.0451,274.322 L -34.0038,274.437 L -33.974,274.556 L -33.956,274.677 L -33.95,274.8
 L -33.956,274.923 L -33.974,275.044 L -34.0038,275.163 L -34.0451,275.278 L -34.0976,275.389 L -34.1607,275.494
 L -34.2337,275.593 L -34.3161,275.684 L -34.407,275.766 L -34.5055,275.839 L -34.6108,275.902 L -34.7216,275.955
 L -34.8371,275.996 L -34.9561,276.026 L -35.0775,276.044 L -35.2,276.05 L -35.3225,276.044 L -35.4439,276.026
 L -35.5629,275.996 L -35.6784,275.955 L -35.7892,275.902 L -35.8945,275.839 L -35.993,275.766 L -36.0839,275.684
 L -36.1663,275.593 L -36.2393,275.494 L -36.3024,275.389 L -36.3549,275.278 L -36.3962,275.163 L -36.426,275.044
 L -36.444,274.923 L -36.45,274.8 L -36.444,274.677 L -36.426,274.556 z
M -238.523,276.044 L -238.644,276.026 L -238.763,275.996 L -238.878,275.955 L -238.989,275.902 L -239.094,275.839
 L -239.193,275.766 L -239.284,275.684 L -239.366,275.593 L -239.439,275.494 L -239.502,275.389 L -239.555,275.278
 L -239.596,275.163 L -239.626,275.044 L -239.644,274.923 L -239.65,274.8 L -239.644,274.677 L -239.626,274.556
 L -239.596,274.437 L -239.555,274.322 L -239.502,274.211 L -239.439,274.106 L -239.366,274.007 L -239.284,273.916
 L -239.193,273.834 L -239.094,273.761 L -238.989,273.698 L -238.878,273.645 L -238.763,273.604 L -238.644,273.574
 L -238.523,273.556 L -238.4,273.55 L -238.277,273.556 L -238.156,273.574 L -238.037,273.604 L -237.922,273.645
 L -237.811,273.698 L -237.706,273.761 L -237.607,273.834 L -237.516,273.916 L -237.434,274.007 L -237.361,274.106
 L -237.298,274.211 L -237.245,274.322 L -237.204,274.437 L -237.174,274.556 L -237.156,274.677 L -237.15,274.8
 L -237.156,274.923 L -237.174,275.044 L -237.204,275.163 L -237.245,275.278 L -237.298,275.389 L -237.361,275.494
 L -237.434,275.593 L -237.516,275.684 L -237.607,275.766 L -237.706,275.839 L -237.811,275.902 L -237.922,275.955
 L -238.037,275.996 L -238.156,276.026 L -238.277,276.044 L -238.4,276.05 z
M -213.123,276.044 L -213.244,276.026 L -213.363,275.996 L -213.478,275.955 L -213.589,275.902 L -213.694,275.839
 L -213.793,275.766 L -213.884,275.684 L -213.966,275.593 L -214.039,275.494 L -214.102,275.389 L -214.155,275.278
 L -214.196,275.163 L -214.226,275.044 L -214.244,274.923 L -214.25,274.8 L -214.244,274.677 L -214.226,274.556
 L -214.196,274.437 L -214.155,274.322 L -214.102,274.211 L -214.039,274.106 L -213.966,274.007 L -213.884,273.916
 L -213.793,273.834 L -213.694,273.761 L -213.589,273.698 L -213.478,273.645 L -213.363,273.604 L -213.244,273.574
 L -213.123,273.556 L -213,273.55 L -212.877,273.556 L -212.756,273.574 L -212.637,273.604 L -212.522,273.645
 L -212.411,273.698 L -212.306,273.761 L -212.207,273.834 L -212.116,273.916 L -212.034,274.007 L -211.961,274.106
 L -211.898,274.211 L -211.845,274.322 L -211.804,274.437 L -211.774,274.556 L -211.756,274.677 L -211.75,274.8
 L -211.756,274.923 L -211.774,275.044 L -211.804,275.163 L -211.845,275.278 L -211.898,275.389 L -211.961,275.494
 L -212.034,275.593 L -212.116,275.684 L -212.207,275.766 L -212.306,275.839 L -212.411,275.902 L -212.522,275.955
 L -212.637,275.996 L -212.756,276.026 L -212.877,276.044 L -213,276.05 z
M -187.723,276.044 L -187.844,276.026 L -187.963,275.996 L -188.078,275.955 L -188.189,275.902 L -188.294,275.839
 L -188.393,275.766 L -188.484,275.684 L -188.566,275.593 L -188.639,275.494 L -188.702,275.389 L -188.755,275.278
 L -188.796,275.163 L -188.826,275.044 L -188.844,274.923 L -188.85,274.8 L -188.844,274.677 L -188.826,274.556
 L -188.796,274.437 L -188.755,274.322 L -188.702,274.211 L -188.639,274.106 L -188.566,274.007 L -188.484,273.916
 L -188.393,273.834 L -188.294,273.761 L -188.189,273.698 L -188.078,273.645 L -187.963,273.604 L -187.844,273.574
 L -187.723,273.556 L -187.6,273.55 L -187.477,273.556 L -187.356,273.574 L -187.237,273.604 L -187.122,273.645
 L -187.011,273.698 L -186.906,273.761 L -186.807,273.834 L -186.716,273.916 L -186.634,274.007 L -186.561,274.106
 L -186.498,274.211 L -186.445,274.322 L -186.404,274.437 L -186.374,274.556 L -186.356,274.677 L -186.35,274.8
 L -186.356,274.923 L -186.374,275.044 L -186.404,275.163 L -186.445,275.278 L -186.498,275.389 L -186.561,275.494
 L -186.634,275.593 L -186.716,275.684 L -186.807,275.766 L -186.906,275.839 L -187.011,275.902 L -187.122,275.955
 L -187.237,275.996 L -187.356,276.026 L -187.477,276.044 L -187.6,276.05 z
M -162.323,276.044 L -162.444,276.026 L -162.563,275.996 L -162.678,275.955 L -162.789,275.902 L -162.894,275.839
 L -162.993,275.766 L -163.084,275.684 L -163.166,275.593 L -163.239,275.494 L -163.302,275.389 L -163.355,275.278
 L -163.396,275.163 L -163.426,275.044 L -163.444,274.923 L -163.45,274.8 L -163.444,274.677 L -163.426,274.556
 L -163.396,274.437 L -163.355,274.322 L -163.302,274.211 L -163.239,274.106 L -163.166,274.007 L -163.084,273.916
 L -162.993,273.834 L -162.894,273.761 L -162.789,273.698 L -162.678,273.645 L -162.563,273.604 L -162.444,273.574
 L -162.323,273.556 L -162.2,273.55 L -162.077,273.556 L -161.956,273.574 L -161.837,273.604 L -161.722,273.645
 L -161.611,273.698 L -161.506,273.761 L -161.407,273.834 L -161.316,273.916 L -161.234,274.007 L -161.161,274.106
 L -161.098,274.211 L -161.045,274.322 L -161.004,274.437 L -160.974,274.556 L -160.956,274.677 L -160.95,274.8
 L -160.956,274.923 L -160.974,275.044 L -161.004,275.163 L -161.045,275.278 L -161.098,275.389 L -161.161,275.494
 L -161.234,275.593 L -161.316,275.684 L -161.407,275.766 L -161.506,275.839 L -161.611,275.902 L -161.722,275.955
 L -161.837,275.996 L -161.956,276.026 L -162.077,276.044 L -162.2,276.05 z
M -136.923,276.044 L -137.044,276.026 L -137.163,275.996 L -137.278,275.955 L -137.389,275.902 L -137.494,275.839
 L -137.593,275.766 L -137.684,275.684 L -137.766,275.593 L -137.839,275.494 L -137.902,275.389 L -137.955,275.278
 L -137.996,275.163 L -138.026,275.044 L -138.044,274.923 L -138.05,274.8 L -138.044,274.677 L -138.026,274.556
 L -137.996,274.437 L -137.955,274.322 L -137.902,274.211 L -137.839,274.106 L -137.766,274.007 L -137.684,273.916
 L -137.593,273.834 L -137.494,273.761 L -137.389,273.698 L -137.278,273.645 L -137.163,273.604 L -137.044,273.574
 L -136.923,273.556 L -136.8,273.55 L -136.677,273.556 L -136.556,273.574 L -136.437,273.604 L -136.322,273.645
 L -136.211,273.698 L -136.106,273.761 L -136.007,273.834 L -135.916,273.916 L -135.834,274.007 L -135.761,274.106
 L -135.698,274.211 L -135.645,274.322 L -135.604,274.437 L -135.574,274.556 L -135.556,274.677 L -135.55,274.8
 L -135.556,274.923 L -135.574,275.044 L -135.604,275.163 L -135.645,275.278 L -135.698,275.389 L -135.761,275.494
 L -135.834,275.593 L -135.916,275.684 L -136.007,275.766 L -136.106,275.839 L -136.211,275.902 L -136.322,275.955
 L -136.437,275.996 L -136.556,276.026 L -136.677,276.044 L -136.8,276.05 z
M -111.523,276.044 L -111.644,276.026 L -111.763,275.996 L -111.878,275.955 L -111.989,275.902 L -112.094,275.839
 L -112.193,275.766 L -112.284,275.684 L -112.366,275.593 L -112.439,275.494 L -112.502,275.389 L -112.555,275.278
 L -112.596,275.163 L -112.626,275.044 L -112.644,274.923 L -112.65,274.8 L -112.644,274.677 L -112.626,274.556
 L -112.596,274.437 L -112.555,274.322 L -112.502,274.211 L -112.439,274.106 L -112.366,274.007 L -112.284,273.916
 L -112.193,273.834 L -112.094,273.761 L -111.989,273.698 L -111.878,273.645 L -111.763,273.604 L -111.644,273.574
 L -111.523,273.556 L -111.4,273.55 L -111.277,273.556 L -111.156,273.574 L -111.037,273.604 L -110.922,273.645
 L -110.811,273.698 L -110.706,273.761 L -110.607,273.834 L -110.516,273.916 L -110.434,274.007 L -110.361,274.106
 L -110.298,274.211 L -110.245,274.322 L -110.204,274.437 L -110.174,274.556 L -110.156,274.677 L -110.15,274.8
 L -110.156,274.923 L -110.174,275.044 L -110.204,275.163 L -110.245,275.278 L -110.298,275.389 L -110.361,275.494
 L -110.434,275.593 L -110.516,275.684 L -110.607,275.766 L -110.706,275.839 L -110.811,275.902 L -110.922,275.955
 L -111.037,275.996 L -111.156,276.026 L -111.277,276.044 L -111.4,276.05 z
M -222.774,10.2438 L -222.804,10.3629 L -222.845,10.4783 L -222.898,10.5892 L -222.961,10.6945 L -223.034,10.793
 L -223.116,10.8839 L -223.207,10.9663 L -223.306,11.0393 L -223.411,11.1024 L -223.522,11.1549 L -223.637,11.1962
 L -223.756,11.226 L -223.877,11.244 L -224,11.25 L -224.123,11.244 L -224.244,11.226 L -224.363,11.1962
 L -224.478,11.1549 L -224.589,11.1024 L -224.694,11.0393 L -224.793,10.9663 L -224.884,10.8839 L -224.966,10.793
 L -225.039,10.6945 L -225.102,10.5892 L -225.155,10.4783 L -225.196,10.3629 L -225.226,10.2438 L -225.244,10.1225
 L -225.25,10 L -225.244,9.87748 L -225.226,9.75615 L -225.196,9.63716 L -225.155,9.52165 L -225.102,9.41075
 L -225.039,9.30552 L -224.966,9.20701 L -224.884,9.11613 L -224.793,9.03373 L -224.694,8.96068 L -224.589,8.8976
 L -224.478,8.84517 L -224.363,8.80381 L -224.244,8.77403 L -224.123,8.75602 L -224,8.75001 L -223.877,8.75602
 L -223.756,8.77403 L -223.637,8.80381 L -223.522,8.84517 L -223.411,8.8976 L -223.306,8.96068 L -223.207,9.03373
 L -223.116,9.11613 L -223.034,9.20701 L -222.961,9.30552 L -222.898,9.41075 L -222.845,9.52165 L -222.804,9.63716
 L -222.774,9.75615 L -222.756,9.87748 L -222.75,10 L -222.756,10.1225 z
M -172.004,10.3629 L -172.045,10.4783 L -172.098,10.5892 L -172.161,10.6945 L -172.234,10.793 L -172.316,10.8839
 L -172.407,10.9663 L -172.506,11.0393 L -172.611,11.1024 L -172.722,11.1549 L -172.837,11.1962 L -172.956,11.226
 L -173.077,11.244 L -173.2,11.25 L -173.323,11.244 L -173.444,11.226 L -173.563,11.1962 L -173.678,11.1549
 L -173.789,11.1024 L -173.894,11.0393 L -173.993,10.9663 L -174.084,10.8839 L -174.166,10.793 L -174.239,10.6945
 L -174.302,10.5892 L -174.355,10.4783 L -174.396,10.3629 L -174.426,10.2438 L -174.444,10.1225 L -174.45,10
 L -174.444,9.87748 L -174.426,9.75615 L -174.396,9.63716 L -174.355,9.52165 L -174.302,9.41075 L -174.239,9.30552
 L -174.166,9.20701 L -174.084,9.11613 L -173.993,9.03373 L -173.894,8.96068 L -173.789,8.8976 L -173.678,8.84517
 L -173.563,8.80381 L -173.444,8.77403 L -173.323,8.75602 L -173.2,8.75001 L -173.077,8.75602 L -172.956,8.77403
 L -172.837,8.80381 L -172.722,8.84517 L -172.611,8.8976 L -172.506,8.96068 L -172.407,9.03373 L -172.316,9.11613
 L -172.234,9.20701 L -172.161,9.30552 L -172.098,9.41075 L -172.045,9.52165 L -172.004,9.63716 L -171.974,9.75615
 L -171.956,9.87748 L -171.95,10 L -171.956,10.1225 L -171.974,10.2438 z
M -59.356,274.923 L -59.374,275.044 L -59.4038,275.163 L -59.4452,275.278 L -59.4976,275.389 L -59.5607,275.494
 L -59.6337,275.593 L -59.7161,275.684 L -59.807,275.766 L -59.9055,275.839 L -60.0108,275.902 L -60.1216,275.955
 L -60.2371,275.996 L -60.3561,276.026 L -60.4775,276.044 L -60.6,276.05 L -60.7225,276.044 L -60.8439,276.026
 L -60.9629,275.996 L -61.0784,275.955 L -61.1893,275.902 L -61.2945,275.839 L -61.393,275.766 L -61.4839,275.684
 L -61.5663,275.593 L -61.6393,275.494 L -61.7024,275.389 L -61.7548,275.278 L -61.7962,275.163 L -61.826,275.044
 L -61.844,274.923 L -61.85,274.8 L -61.844,274.677 L -61.826,274.556 L -61.7962,274.437 L -61.7548,274.322
 L -61.7024,274.211 L -61.6393,274.106 L -61.5663,274.007 L -61.4839,273.916 L -61.393,273.834 L -61.2945,273.761
 L -61.1893,273.698 L -61.0784,273.645 L -60.9629,273.604 L -60.8439,273.574 L -60.7225,273.556 L -60.6,273.55
 L -60.4775,273.556 L -60.3561,273.574 L -60.2371,273.604 L -60.1216,273.645 L -60.0108,273.698 L -59.9055,273.761
 L -59.807,273.834 L -59.7161,273.916 L -59.6337,274.007 L -59.5607,274.106 L -59.4976,274.211 L -59.4452,274.322
 L -59.4038,274.437 L -59.374,274.556 L -59.356,274.677 L -59.35,274.8 z
" stroke="black" fill="lightgray" stroke-width="0.5"/>
</svg>
