<?xml version="1.0" standalone="no"?>
<!DOCTYPE svg PUBLIC "-//W3C//DTD SVG 1.1//EN" "http://www.w3.org/Graphics/SVG/1.1/DTD/svg11.dtd">
<svg width="301mm" height="301mm" viewBox="-300 -1 301 301" xmlns="http://www.w3.org/2000/svg" version="1.1">
<title>OpenSCAD Model</title>
<path d="
M -261.72,295.67 L -271.72,295.67 L -271.72,284.92 L -203.72,284.92 L -203.72,284.82 L -202.22,284.82
 L -202.22,299.72 L -187.72,299.72 L -187.72,295.67 L -196.22,295.67 L -196.22,284.82 L -149.32,284.82
 L -149.32,299.72 L 1.2207e-06,299.72 L 1.2207e-06,-1.2207e-06 L -299.72,-1.2207e-06 L -299.72,284.82 L -276.72,284.82
 L -276.72,299.72 L -261.72,299.72 z
M -92.0425,11.244 L -92.1639,11.226 L -92.2829,11.1962 L -92.3984,11.1548 L -92.5092,11.1024 L -92.6145,11.0393
 L -92.713,10.9663 L -92.8039,10.8839 L -92.8863,10.793 L -92.9593,10.6945 L -93.0224,10.5892 L -93.0748,10.4784
 L -93.1162,10.3629 L -93.146,10.2439 L -93.164,10.1225 L -93.17,10 L -93.164,9.87747 L -93.146,9.75613
 L -93.1162,9.63714 L -93.0748,9.52164 L -93.0224,9.41077 L -92.9593,9.30554 L -92.8863,9.207 L -92.8039,9.11612
 L -92.713,9.03375 L -92.6145,8.96066 L -92.5092,8.89761 L -92.3984,8.84515 L -92.2829,8.80383 L -92.1639,8.77402
 L -92.0425,8.75601 L -91.92,8.75 L -91.7975,8.75601 L -91.6761,8.77402 L -91.5571,8.80383 L -91.4416,8.84515
 L -91.3307,8.89761 L -91.2255,8.96066 L -91.127,9.03375 L -91.0361,9.11612 L -90.9537,9.207 L -90.8807,9.30554
 L -90.8176,9.41077 L -90.7652,9.52164 L -90.7238,9.63714 L -90.694,9.75613 L -90.676,9.87747 L -90.67,10
 L -90.676,10.1225 L -90.694,10.2439 L -90.7238,10.3629 L -90.7652,10.4784 L -90.8176,10.5892 L -90.8807,10.6945
 L -90.9537,10.793 L -91.0361,10.8839 L -91.127,10.9663 L -91.2255,11.0393 L -91.3307,11.1024 L -91.4416,11.1548
 L -91.5571,11.1962 L -91.6761,11.226 L -91.7975,11.244 L -91.92,11.25 z
M -117.443,11.244 L -117.564,11.226 L -117.683,11.1962 L -117.798,11.1548 L -117.909,11.1024 L -118.014,11.0393
 L -118.113,10.9663 L -118.204,10.8839 L -118.286,10.793 L -118.359,10.6945 L -118.422,10.5892 L -118.475,10.4784
 L -118.516,10.3629 L -118.546,10.2439 L -118.564,10.1225 L -118.57,10 L -118.564,9.87747 L -118.546,9.75613
 L -118.516,9.63714 L -118.475,9.52164 L -118.422,9.41077 L -118.359,9.30554 L -118.286,9.207 L -118.204,9.11612
 L -118.113,9.03375 L -118.014,8.96066 L -117.909,8.89761 L -117.798,8.84515 L -117.683,8.80383 L -117.564,8.77402
 L -117.443,8.75601 L -117.32,8.75 L -117.197,8.75601 L -117.076,8.77402 L -116.957,8.80383 L -116.842,8.84515
 L -116.731,8.89761 L -116.626,8.96066 L -116.527,9.03375 L -116.436,9.11612 L -116.354,9.207 L -116.281,9.30554
 L -116.218,9.41077 L -116.165,9.52164 L -116.124,9.63714 L -116.094,9.75613 L -116.076,9.87747 L -116.07,10
 L -116.076,10.1225 L -116.094,10.2439 L -116.124,10.3629 L -116.165,10.4784 L -116.218,10.5892 L -116.281,10.6945
 L -116.354,10.793 L -116.436,10.8839 L -116.527,10.9663 L -116.626,11.0393 L -116.731,11.1024 L -116.842,11.1548
 L -116.957,11.1962 L -117.076,11.226 L -117.197,11.244 L -117.32,11.25 z
M -193.643,11.244 L -193.764,11.226 L -193.883,11.1962 L -193.998,11.1548 L -194.109,11.1024 L -194.214,11.0393
 L -194.313,10.9663 L -194.404,10.8839 L -194.486,10.793 L -194.559,10.6945 L -194.622,10.5892 L -194.675,10.4784
 L -194.716,10.3629 L -194.746,10.2439 L -194.764,10.1225 L -194.77,10 L -194.764,9.87747 L -194.746,9.75613
 L -194.716,9.63714 L -194.675,9.52164 L -194.622,9.41077 L -194.559,9.30554 L -194.486,9.207 L -194.404,9.11612
 L -194.313,9.03375 L -194.214,8.96066 L -194.109,8.89761 L -193.998,8.84515 L -193.883,8.80383 L -193.764,8.77402
 L -193.643,8.75601 L -193.52,8.75 L -193.397,8.75601 L -193.276,8.77402 L -193.157,8.80383 L -193.042,8.84515
 L -192.931,8.89761 L -192.826,8.96066 L -192.727,9.03375 L -192.636,9.11612 L -192.554,9.207 L -192.481,9.30554
 L -192.418,9.41077 L -192.365,9.52164 L -192.324,9.63714 L -192.294,9.75613 L -192.276,9.87747 L -192.27,10
 L -192.276,10.1225 L -192.294,10.2439 L -192.324,10.3629 L -192.365,10.4784 L -192.418,10.5892 L -192.481,10.6945
 L -192.554,10.793 L -192.636,10.8839 L -192.727,10.9663 L -192.826,11.0393 L -192.931,11.1024 L -193.042,11.1548
 L -193.157,11.1962 L -193.276,11.226 L -193.397,11.244 L -193.52,11.25 z
M -168.243,11.244 L -168.364,11.226 L -168.483,11.1962 L -168.598,11.1548 L -168.709,11.1024 L -168.814,11.0393
 L -168.913,10.9663 L -169.004,10.8839 L -169.086,10.793 L -169.159,10.6945 L -169.222,10.5892 L -169.275,10.4784
 L -169.316,10.3629 L -169.346,10.2439 L -169.364,10.1225 L -169.37,10 L -169.364,9.87747 L -169.346,9.75613
 L -169.316,9.63714 L -169.275,9.52164 L -169.222,9.41077 L -169.159,9.30554 L -169.086,9.207 L -169.004,9.11612
 L -168.913,9.03375 L -168.814,8.96066 L -168.709,8.89761 L -168.598,8.84515 L -168.483,8.80383 L -168.364,8.77402
 L -168.243,8.75601 L -168.12,8.75 L -167.997,8.75601 L -167.876,8.77402 L -167.757,8.80383 L -167.642,8.84515
 L -167.531,8.89761 L -167.426,8.96066 L -167.327,9.03375 L -167.236,9.11612 L -167.154,9.207 L -167.081,9.30554
 L -167.018,9.41077 L -166.965,9.52164 L -166.924,9.63714 L -166.894,9.75613 L -166.876,9.87747 L -166.87,10
 L -166.876,10.1225 L -166.894,10.2439 L -166.924,10.3629 L -166.965,10.4784 L -167.018,10.5892 L -167.081,10.6945
 L -167.154,10.793 L -167.236,10.8839 L -167.327,10.9663 L -167.426,11.0393 L -167.531,11.1024 L -167.642,11.1548
 L -167.757,11.1962 L -167.876,11.226 L -167.997,11.244 L -168.12,11.25 z
M -15.8425,11.244 L -15.9639,11.226 L -16.0829,11.1962 L -16.1984,11.1548 L -16.3092,11.1024 L -16.4145,11.0393
 L -16.513,10.9663 L -16.6039,10.8839 L -16.6863,10.793 L -16.7593,10.6945 L -16.8224,10.5892 L -16.8748,10.4784
 L -16.9162,10.3629 L -16.946,10.2439 L -16.964,10.1225 L -16.97,10 L -16.964,9.87747 L -16.946,9.75613
 L -16.9162,9.63714 L -16.8748,9.52164 L -16.8224,9.41077 L -16.7593,9.30554 L -16.6863,9.207 L -16.6039,9.11612
 L -16.513,9.03375 L -16.4145,8.96066 L -16.3092,8.89761 L -16.1984,8.84515 L -16.0829,8.80383 L -15.9639,8.77402
 L -15.8425,8.75601 L -15.72,8.75 L -15.5975,8.75601 L -15.4761,8.77402 L -15.3571,8.80383 L -15.2416,8.84515
 L -15.1308,8.89761 L -15.0255,8.96066 L -14.927,9.03375 L -14.8361,9.11612 L -14.7538,9.207 L -14.6807,9.30554
 L -14.6176,9.41077 L -14.5652,9.52164 L -14.5238,9.63714 L -14.494,9.75613 L -14.476,9.87747 L -14.47,10
 L -14.476,10.1225 L -14.494,10.2439 L -14.5238,10.3629 L -14.5652,10.4784 L -14.6176,10.5892 L -14.6807,10.6945
 L -14.7538,10.793 L -14.8361,10.8839 L -14.927,10.9663 L -15.0255,11.0393 L -15.1308,11.1024 L -15.2416,11.1548
 L -15.3571,11.1962 L -15.4761,11.226 L -15.5975,11.244 L -15.72,11.25 z
M -219.043,11.244 L -219.164,11.226 L -219.283,11.1962 L -219.398,11.1548 L -219.509,11.1024 L -219.614,11.0393
 L -219.713,10.9663 L -219.804,10.8839 L -219.886,10.793 L -219.959,10.6945 L -220.022,10.5892 L -220.075,10.4784
 L -220.116,10.3629 L -220.146,10.2439 L -220.164,10.1225 L -220.17,10 L -220.164,9.87747 L -220.146,9.75613
 L -220.116,9.63714 L -220.075,9.52164 L -220.022,9.41077 L -219.959,9.30554 L -219.886,9.207 L -219.804,9.11612
 L -219.713,9.03375 L -219.614,8.96066 L -219.509,8.89761 L -219.398,8.84515 L -219.283,8.80383 L -219.164,8.77402
 L -219.043,8.75601 L -218.92,8.75 L -218.797,8.75601 L -218.676,8.77402 L -218.557,8.80383 L -218.442,8.84515
 L -218.331,8.89761 L -218.226,8.96066 L -218.127,9.03375 L -218.036,9.11612 L -217.954,9.207 L -217.881,9.30554
 L -217.818,9.41077 L -217.765,9.52164 L -217.724,9.63714 L -217.694,9.75613 L -217.676,9.87747 L -217.67,10
 L -217.676,10.1225 L -217.694,10.2439 L -217.724,10.3629 L -217.765,10.4784 L -217.818,10.5892 L -217.881,10.6945
 L -217.954,10.793 L -218.036,10.8839 L -218.127,10.9663 L -218.226,11.0393 L -218.331,11.1024 L -218.442,11.1548
 L -218.557,11.1962 L -218.676,11.226 L -218.797,11.244 L -218.92,11.25 z
M -245.564,9.87747 L -245.546,9.75613 L -245.516,9.63714 L -245.475,9.52164 L -245.422,9.41077 L -245.359,9.30554
 L -245.286,9.207 L -245.204,9.11612 L -245.113,9.03375 L -245.014,8.96066 L -244.909,8.89761 L -244.798,8.84515
 L -244.683,8.80383 L -244.564,8.77402 L -244.443,8.75601 L -244.32,8.75 L -244.197,8.75601 L -244.076,8.77402
 L -243.957,8.80383 L -243.842,8.84515 L -243.731,8.89761 L -243.626,8.96066 L -243.527,9.03375 L -243.436,9.11612
 L -243.354,9.207 L -243.281,9.30554 L -243.218,9.41077 L -243.165,9.52164 L -243.124,9.63714 L -243.094,9.75613
 L -243.076,9.87747 L -243.07,10 L -243.076,10.1225 L -243.094,10.2439 L -243.124,10.3629 L -243.165,10.4784
 L -243.218,10.5892 L -243.281,10.6945 L -243.354,10.793 L -243.436,10.8839 L -243.527,10.9663 L -243.626,11.0393
 L -243.731,11.1024 L -243.842,11.1548 L -243.957,11.1962 L -244.076,11.226 L -244.197,11.244 L -244.32,11.25
 L -244.443,11.244 L -244.564,11.226 L -244.683,11.1962 L -244.798,11.1548 L -244.909,11.1024 L -245.014,11.0393
 L -245.113,10.9663 L -245.204,10.8839 L -245.286,10.793 L -245.359,10.6945 L -245.422,10.5892 L -245.475,10.4784
 L -245.516,10.3629 L -245.546,10.2439 L -245.564,10.1225 L -245.57,10 z
M -41.2425,11.244 L -41.3639,11.226 L -41.4829,11.1962 L -41.5984,11.1548 L -41.7092,11.1024 L -41.8145,11.0393
 L -41.913,10.9663 L -42.0039,10.8839 L -42.0863,10.793 L -42.1593,10.6945 L -42.2224,10.5892 L -42.2749,10.4784
 L -42.3162,10.3629 L -42.346,10.2439 L -42.364,10.1225 L -42.37,10 L -42.364,9.87747 L -42.346,9.75613
 L -42.3162,9.63714 L -42.2749,9.52164 L -42.2224,9.41077 L -42.1593,9.30554 L -42.0863,9.207 L -42.0039,9.11612
 L -41.913,9.03375 L -41.8145,8.96066 L -41.7092,8.89761 L -41.5984,8.84515 L -41.4829,8.80383 L -41.3639,8.77402
 L -41.2425,8.75601 L -41.12,8.75 L -40.9975,8.75601 L -40.8761,8.77402 L -40.7571,8.80383 L -40.6416,8.84515
 L -40.5308,8.89761 L -40.4255,8.96066 L -40.327,9.03375 L -40.2361,9.11612 L -40.1537,9.207 L -40.0807,9.30554
 L -40.0176,9.41077 L -39.9651,9.52164 L -39.9238,9.63714 L -39.894,9.75613 L -39.876,9.87747 L -39.87,10
 L -39.876,10.1225 L -39.894,10.2439 L -39.9238,10.3629 L -39.9651,10.4784 L -40.0176,10.5892 L -40.0807,10.6945
 L -40.1537,10.793 L -40.2361,10.8839 L -40.327,10.9663 L -40.4255,11.0393 L -40.5308,11.1024 L -40.6416,11.1548
 L -40.7571,11.1962 L -40.8761,11.226 L -40.9975,11.244 L -41.12,11.25 z
M -142.843,11.244 L -142.964,11.226 L -143.083,11.1962 L -143.198,11.1548 L -143.309,11.1024 L -143.414,11.0393
 L -143.513,10.9663 L -143.604,10.8839 L -143.686,10.793 L -143.759,10.6945 L -143.822,10.5892 L -143.875,10.4784
 L -143.916,10.3629 L -143.946,10.2439 L -143.964,10.1225 L -143.97,10 L -143.964,9.87747 L -143.946,9.75613
 L -143.916,9.63714 L -143.875,9.52164 L -143.822,9.41077 L -143.759,9.30554 L -143.686,9.207 L -143.604,9.11612
 L -143.513,9.03375 L -143.414,8.96066 L -143.309,8.89761 L -143.198,8.84515 L -143.083,8.80383 L -142.964,8.77402
 L -142.843,8.75601 L -142.72,8.75 L -142.597,8.75601 L -142.476,8.77402 L -142.357,8.80383 L -142.242,8.84515
 L -142.131,8.89761 L -142.026,8.96066 L -141.927,9.03375 L -141.836,9.11612 L -141.754,9.207 L -141.681,9.30554
 L -141.618,9.41077 L -141.565,9.52164 L -141.524,9.63714 L -141.494,9.75613 L -141.476,9.87747 L -141.47,10
 L -141.476,10.1225 L -141.494,10.2439 L -141.524,10.3629 L -141.565,10.4784 L -141.618,10.5892 L -141.681,10.6945
 L -141.754,10.793 L -141.836,10.8839 L -141.927,10.9663 L -142.026,11.0393 L -142.131,11.1024 L -142.242,11.1548
 L -142.357,11.1962 L -142.476,11.226 L -142.597,11.244 L -142.72,11.25 z
M -66.6425,11.244 L -66.7639,11.226 L -66.8829,11.1962 L -66.9984,11.1548 L -67.1093,11.1024 L -67.2145,11.0393
 L -67.313,10.9663 L -67.4039,10.8839 L -67.4863,10.793 L -67.5593,10.6945 L -67.6224,10.5892 L -67.6748,10.4784
 L -67.7162,10.3629 L -67.746,10.2439 L -67.764,10.1225 L -67.77,10 L -67.764,9.87747 L -67.746,9.75613
 L -67.7162,9.63714 L -67.6748,9.52164 L -67.6224,9.41077 L -67.5593,9.30554 L -67.4863,9.207 L -67.4039,9.11612
 L -67.313,9.03375 L -67.2145,8.96066 L -67.1093,8.89761 L -66.9984,8.84515 L -66.8829,8.80383 L -66.7639,8.77402
 L -66.6425,8.75601 L -66.52,8.75 L -66.3975,8.75601 L -66.2761,8.77402 L -66.1571,8.80383 L -66.0416,8.84515
 L -65.9308,8.89761 L -65.8255,8.96066 L -65.727,9.03375 L -65.6361,9.11612 L -65.5537,9.207 L -65.4807,9.30554
 L -65.4176,9.41077 L -65.3652,9.52164 L -65.3238,9.63714 L -65.294,9.75613 L -65.276,9.87747 L -65.27,10
 L -65.276,10.1225 L -65.294,10.2439 L -65.3238,10.3629 L -65.3652,10.4784 L -65.4176,10.5892 L -65.4807,10.6945
 L -65.5537,10.793 L -65.6361,10.8839 L -65.727,10.9663 L -65.8255,11.0393 L -65.9308,11.1024 L -66.0416,11.1548
 L -66.1571,11.1962 L -66.2761,11.226 L -66.3975,11.244 L -66.52,11.25 z
M -30.3525,22.284 L -30.4739,22.266 L -30.5929,22.2362 L -30.7084,22.1949 L -30.8192,22.1424 L -30.9245,22.0793
 L -31.023,22.0063 L -31.1139,21.9239 L -31.1963,21.833 L -31.2693,21.7345 L -31.3324,21.6292 L -31.3849,21.5183
 L -31.4262,21.4029 L -31.456,21.2839 L -31.474,21.1625 L -31.48,21.04 L -31.474,20.9175 L -31.456,20.7961
 L -31.4262,20.6772 L -31.3849,20.5616 L -31.3324,20.4507 L -31.2693,20.3455 L -31.1963,20.247 L -31.1139,20.1561
 L -31.023,20.0737 L -30.9245,20.0007 L -30.8192,19.9376 L -30.7084,19.8852 L -30.5929,19.8438 L -30.4739,19.814
 L -30.3525,19.796 L -30.23,19.79 L -30.1075,19.796 L -29.9861,19.814 L -29.8671,19.8438 L -29.7516,19.8852
 L -29.6408,19.9376 L -29.5355,20.0007 L -29.437,20.0737 L -29.3461,20.1561 L -29.2637,20.247 L -29.1907,20.3455
 L -29.1276,20.4507 L -29.0751,20.5616 L -29.0338,20.6772 L -29.004,20.7961 L -28.986,20.9175 L -28.98,21.04
 L -28.986,21.1625 L -29.004,21.2839 L -29.0338,21.4029 L -29.0751,21.5183 L -29.1276,21.6292 L -29.1907,21.7345
 L -29.2637,21.833 L -29.3461,21.9239 L -29.437,22.0063 L -29.5355,22.0793 L -29.6408,22.1424 L -29.7516,22.1949
 L -29.8671,22.2362 L -29.9861,22.266 L -30.1075,22.284 L -30.23,22.29 z
M -187.833,22.284 L -187.954,22.266 L -188.073,22.2362 L -188.188,22.1949 L -188.299,22.1424 L -188.404,22.0793
 L -188.503,22.0063 L -188.594,21.9239 L -188.676,21.833 L -188.749,21.7345 L -188.812,21.6292 L -188.865,21.5183
 L -188.906,21.4029 L -188.936,21.2839 L -188.954,21.1625 L -188.96,21.04 L -188.954,20.9175 L -188.936,20.7961
 L -188.906,20.6772 L -188.865,20.5616 L -188.812,20.4507 L -188.749,20.3455 L -188.676,20.247 L -188.594,20.1561
 L -188.503,20.0737 L -188.404,20.0007 L -188.299,19.9376 L -188.188,19.8852 L -188.073,19.8438 L -187.954,19.814
 L -187.833,19.796 L -187.71,19.79 L -187.587,19.796 L -187.466,19.814 L -187.347,19.8438 L -187.232,19.8852
 L -187.121,19.9376 L -187.016,20.0007 L -186.917,20.0737 L -186.826,20.1561 L -186.744,20.247 L -186.671,20.3455
 L -186.608,20.4507 L -186.555,20.5616 L -186.514,20.6772 L -186.484,20.7961 L -186.466,20.9175 L -186.46,21.04
 L -186.466,21.1625 L -186.484,21.2839 L -186.514,21.4029 L -186.555,21.5183 L -186.608,21.6292 L -186.671,21.7345
 L -186.744,21.833 L -186.826,21.9239 L -186.917,22.0063 L -187.016,22.0793 L -187.121,22.1424 L -187.232,22.1949
 L -187.347,22.2362 L -187.466,22.266 L -187.587,22.284 L -187.71,22.29 z
M -233.553,22.284 L -233.674,22.266 L -233.793,22.2362 L -233.908,22.1949 L -234.019,22.1424 L -234.124,22.0793
 L -234.223,22.0063 L -234.314,21.9239 L -234.396,21.833 L -234.469,21.7345 L -234.532,21.6292 L -234.585,21.5183
 L -234.626,21.4029 L -234.656,21.2839 L -234.674,21.1625 L -234.68,21.04 L -234.674,20.9175 L -234.656,20.7961
 L -234.626,20.6772 L -234.585,20.5616 L -234.532,20.4507 L -234.469,20.3455 L -234.396,20.247 L -234.314,20.1561
 L -234.223,20.0737 L -234.124,20.0007 L -234.019,19.9376 L -233.908,19.8852 L -233.793,19.8438 L -233.674,19.814
 L -233.553,19.796 L -233.43,19.79 L -233.307,19.796 L -233.186,19.814 L -233.067,19.8438 L -232.952,19.8852
 L -232.841,19.9376 L -232.736,20.0007 L -232.637,20.0737 L -232.546,20.1561 L -232.464,20.247 L -232.391,20.3455
 L -232.328,20.4507 L -232.275,20.5616 L -232.234,20.6772 L -232.204,20.7961 L -232.186,20.9175 L -232.18,21.04
 L -232.186,21.1625 L -232.204,21.2839 L -232.234,21.4029 L -232.275,21.5183 L -232.328,21.6292 L -232.391,21.7345
 L -232.464,21.833 L -232.546,21.9239 L -232.637,22.0063 L -232.736,22.0793 L -232.841,22.1424 L -232.952,22.1949
 L -233.067,22.2362 L -233.186,22.266 L -233.307,22.284 L -233.43,22.29 z
M -10.1225,36.964 L -10.2439,36.946 L -10.3629,36.9162 L -10.4784,36.8748 L -10.5892,36.8224 L -10.6945,36.7593
 L -10.793,36.6863 L -10.8839,36.6039 L -10.9663,36.513 L -11.0393,36.4145 L -11.1024,36.3092 L -11.1548,36.1983
 L -11.1962,36.0829 L -11.226,35.9639 L -11.244,35.8425 L -11.25,35.72 L -11.244,35.5975 L -11.226,35.4761
 L -11.1962,35.3571 L -11.1548,35.2417 L -11.1024,35.1308 L -11.0393,35.0255 L -10.9663,34.927 L -10.8839,34.8361
 L -10.793,34.7537 L -10.6945,34.6807 L -10.5892,34.6176 L -10.4784,34.5652 L -10.3629,34.5238 L -10.2439,34.494
 L -10.1225,34.476 L -10,34.47 L -9.87747,34.476 L -9.75613,34.494 L -9.63714,34.5238 L -9.52164,34.5652
 L -9.41077,34.6176 L -9.30554,34.6807 L -9.207,34.7537 L -9.11612,34.8361 L -9.03375,34.927 L -8.96066,35.0255
 L -8.89761,35.1308 L -8.84515,35.2417 L -8.80383,35.3571 L -8.77402,35.4761 L -8.75601,35.5975 L -8.75,35.72
 L -8.75601,35.8425 L -8.77402,35.9639 L -8.80383,36.0829 L -8.84515,36.1983 L -8.89761,36.3092 L -8.96066,36.4145
 L -9.03375,36.513 L -9.11612,36.6039 L -9.207,36.6863 L -9.30554,36.7593 L -9.41077,36.8224 L -9.52164,36.8748
 L -9.63714,36.9162 L -9.75613,36.946 L -9.87747,36.964 L -10,36.97 z
M -289.843,36.964 L -289.964,36.946 L -290.083,36.9162 L -290.198,36.8748 L -290.309,36.8224 L -290.414,36.7593
 L -290.513,36.6863 L -290.604,36.6039 L -290.686,36.513 L -290.759,36.4145 L -290.822,36.3092 L -290.875,36.1983
 L -290.916,36.0829 L -290.946,35.9639 L -290.964,35.8425 L -290.97,35.72 L -290.964,35.5975 L -290.946,35.4761
 L -290.916,35.3571 L -290.875,35.2417 L -290.822,35.1308 L -290.759,35.0255 L -290.686,34.927 L -290.604,34.8361
 L -290.513,34.7537 L -290.414,34.6807 L -290.309,34.6176 L -290.198,34.5652 L -290.083,34.5238 L -289.964,34.494
 L -289.843,34.476 L -289.72,34.47 L -289.597,34.476 L -289.476,34.494 L -289.357,34.5238 L -289.242,34.5652
 L -289.131,34.6176 L -289.026,34.6807 L -288.927,34.7537 L -288.836,34.8361 L -288.754,34.927 L -288.681,35.0255
 L -288.618,35.1308 L -288.565,35.2417 L -288.524,35.3571 L -288.494,35.4761 L -288.476,35.5975 L -288.47,35.72
 L -288.476,35.8425 L -288.494,35.9639 L -288.524,36.0829 L -288.565,36.1983 L -288.618,36.3092 L -288.681,36.4145
 L -288.754,36.513 L -288.836,36.6039 L -288.927,36.6863 L -289.026,36.7593 L -289.131,36.8224 L -289.242,36.8748
 L -289.357,36.9162 L -289.476,36.946 L -289.597,36.964 L -289.72,36.97 z
M -10.1225,62.364 L -10.2439,62.346 L -10.3629,62.3162 L -10.4784,62.2749 L -10.5892,62.2224 L -10.6945,62.1593
 L -10.793,62.0863 L -10.8839,62.0039 L -10.9663,61.913 L -11.0393,61.8145 L -11.1024,61.7092 L -11.1548,61.5984
 L -11.1962,61.4829 L -11.226,61.3639 L -11.244,61.2425 L -11.25,61.12 L -11.244,60.9975 L -11.226,60.8761
 L -11.1962,60.7571 L -11.1548,60.6416 L -11.1024,60.5308 L -11.0393,60.4255 L -10.9663,60.327 L -10.8839,60.2361
 L -10.793,60.1537 L -10.6945,60.0807 L -10.5892,60.0176 L -10.4784,59.9651 L -10.3629,59.9238 L -10.2439,59.894
 L -10.1225,59.876 L -10,59.87 L -9.87747,59.876 L -9.75613,59.894 L -9.63714,59.9238 L -9.52164,59.9651
 L -9.41077,60.0176 L -9.30554,60.0807 L -9.207,60.1537 L -9.11612,60.2361 L -9.03375,60.327 L -8.96066,60.4255
 L -8.89761,60.5308 L -8.84515,60.6416 L -8.80383,60.7571 L -8.77402,60.8761 L -8.75601,60.9975 L -8.75,61.12
 L -8.75601,61.2425 L -8.77402,61.3639 L -8.80383,61.4829 L -8.84515,61.5984 L -8.89761,61.7092 L -8.96066,61.8145
 L -9.03375,61.913 L -9.11612,62.0039 L -9.207,62.0863 L -9.30554,62.1593 L -9.41077,62.2224 L -9.52164,62.2749
 L -9.63714,62.3162 L -9.75613,62.346 L -9.87747,62.364 L -10,62.37 z
M -289.843,62.364 L -289.964,62.346 L -290.083,62.3162 L -290.198,62.2749 L -290.309,62.2224 L -290.414,62.1593
 L -290.513,62.0863 L -290.604,62.0039 L -290.686,61.913 L -290.759,61.8145 L -290.822,61.7092 L -290.875,61.5984
 L -290.916,61.4829 L -290.946,61.3639 L -290.964,61.2425 L -290.97,61.12 L -290.964,60.9975 L -290.946,60.8761
 L -290.916,60.7571 L -290.875,60.6416 L -290.822,60.5308 L -290.759,60.4255 L -290.686,60.327 L -290.604,60.2361
 L -290.513,60.1537 L -290.414,60.0807 L -290.309,60.0176 L -290.198,59.9651 L -290.083,59.9238 L -289.964,59.894
 L -289.843,59.876 L -289.72,59.87 L -289.597,59.876 L -289.476,59.894 L -289.357,59.9238 L -289.242,59.9651
 L -289.131,60.0176 L -289.026,60.0807 L -288.927,60.1537 L -288.836,60.2361 L -288.754,60.327 L -288.681,60.4255
 L -288.618,60.5308 L -288.565,60.6416 L -288.524,60.7571 L -288.494,60.8761 L -288.476,60.9975 L -288.47,61.12
 L -288.476,61.2425 L -288.494,61.3639 L -288.524,61.4829 L -288.565,61.5984 L -288.618,61.7092 L -288.681,61.8145
 L -288.754,61.913 L -288.836,62.0039 L -288.927,62.0863 L -289.026,62.1593 L -289.131,62.2224 L -289.242,62.2749
 L -289.357,62.3162 L -289.476,62.346 L -289.597,62.364 L -289.72,62.37 z
M -10.1225,87.764 L -10.2439,87.746 L -10.3629,87.7162 L -10.4784,87.6748 L -10.5892,87.6224 L -10.6945,87.5593
 L -10.793,87.4863 L -10.8839,87.4039 L -10.9663,87.313 L -11.0393,87.2145 L -11.1024,87.1093 L -11.1548,86.9984
 L -11.1962,86.8829 L -11.226,86.7639 L -11.244,86.6425 L -11.25,86.52 L -11.244,86.3975 L -11.226,86.2761
 L -11.1962,86.1571 L -11.1548,86.0416 L -11.1024,85.9308 L -11.0393,85.8255 L -10.9663,85.727 L -10.8839,85.6361
 L -10.793,85.5537 L -10.6945,85.4807 L -10.5892,85.4176 L -10.4784,85.3652 L -10.3629,85.3238 L -10.2439,85.294
 L -10.1225,85.276 L -10,85.27 L -9.87747,85.276 L -9.75613,85.294 L -9.63714,85.3238 L -9.52164,85.3652
 L -9.41077,85.4176 L -9.30554,85.4807 L -9.207,85.5537 L -9.11612,85.6361 L -9.03375,85.727 L -8.96066,85.8255
 L -8.89761,85.9308 L -8.84515,86.0416 L -8.80383,86.1571 L -8.77402,86.2761 L -8.75601,86.3975 L -8.75,86.52
 L -8.75601,86.6425 L -8.77402,86.7639 L -8.80383,86.8829 L -8.84515,86.9984 L -8.89761,87.1093 L -8.96066,87.2145
 L -9.03375,87.313 L -9.11612,87.4039 L -9.207,87.4863 L -9.30554,87.5593 L -9.41077,87.6224 L -9.52164,87.6748
 L -9.63714,87.7162 L -9.75613,87.746 L -9.87747,87.764 L -10,87.77 z
M -289.843,87.764 L -289.964,87.746 L -290.083,87.7162 L -290.198,87.6748 L -290.309,87.6224 L -290.414,87.5593
 L -290.513,87.4863 L -290.604,87.4039 L -290.686,87.313 L -290.759,87.2145 L -290.822,87.1093 L -290.875,86.9984
 L -290.916,86.8829 L -290.946,86.7639 L -290.964,86.6425 L -290.97,86.52 L -290.964,86.3975 L -290.946,86.2761
 L -290.916,86.1571 L -290.875,86.0416 L -290.822,85.9308 L -290.759,85.8255 L -290.686,85.727 L -290.604,85.6361
 L -290.513,85.5537 L -290.414,85.4807 L -290.309,85.4176 L -290.198,85.3652 L -290.083,85.3238 L -289.964,85.294
 L -289.843,85.276 L -289.72,85.27 L -289.597,85.276 L -289.476,85.294 L -289.357,85.3238 L -289.242,85.3652
 L -289.131,85.4176 L -289.026,85.4807 L -288.927,85.5537 L -288.836,85.6361 L -288.754,85.727 L -288.681,85.8255
 L -288.618,85.9308 L -288.565,86.0416 L -288.524,86.1571 L -288.494,86.2761 L -288.476,86.3975 L -288.47,86.52
 L -288.476,86.6425 L -288.494,86.7639 L -288.524,86.8829 L -288.565,86.9984 L -288.618,87.1093 L -288.681,87.2145
 L -288.754,87.313 L -288.836,87.4039 L -288.927,87.4863 L -289.026,87.5593 L -289.131,87.6224 L -289.242,87.6748
 L -289.357,87.7162 L -289.476,87.746 L -289.597,87.764 L -289.72,87.77 z
M -289.843,113.164 L -289.964,113.146 L -290.083,113.116 L -290.198,113.075 L -290.309,113.022 L -290.414,112.959
 L -290.513,112.886 L -290.604,112.804 L -290.686,112.713 L -290.759,112.614 L -290.822,112.509 L -290.875,112.398
 L -290.916,112.283 L -290.946,112.164 L -290.964,112.043 L -290.97,111.92 L -290.964,111.797 L -290.946,111.676
 L -290.916,111.557 L -290.875,111.442 L -290.822,111.331 L -290.759,111.226 L -290.686,111.127 L -290.604,111.036
 L -290.513,110.954 L -290.414,110.881 L -290.309,110.818 L -290.198,110.765 L -290.083,110.724 L -289.964,110.694
 L -289.843,110.676 L -289.72,110.67 L -289.597,110.676 L -289.476,110.694 L -289.357,110.724 L -289.242,110.765
 L -289.131,110.818 L -289.026,110.881 L -288.927,110.954 L -288.836,111.036 L -288.754,111.127 L -288.681,111.226
 L -288.618,111.331 L -288.565,111.442 L -288.524,111.557 L -288.494,111.676 L -288.476,111.797 L -288.47,111.92
 L -288.476,112.043 L -288.494,112.164 L -288.524,112.283 L -288.565,112.398 L -288.618,112.509 L -288.681,112.614
 L -288.754,112.713 L -288.836,112.804 L -288.927,112.886 L -289.026,112.959 L -289.131,113.022 L -289.242,113.075
 L -289.357,113.116 L -289.476,113.146 L -289.597,113.164 L -289.72,113.17 z
M -10.1225,113.164 L -10.2439,113.146 L -10.3629,113.116 L -10.4784,113.075 L -10.5892,113.022 L -10.6945,112.959
 L -10.793,112.886 L -10.8839,112.804 L -10.9663,112.713 L -11.0393,112.614 L -11.1024,112.509 L -11.1548,112.398
 L -11.1962,112.283 L -11.226,112.164 L -11.244,112.043 L -11.25,111.92 L -11.244,111.797 L -11.226,111.676
 L -11.1962,111.557 L -11.1548,111.442 L -11.1024,111.331 L -11.0393,111.226 L -10.9663,111.127 L -10.8839,111.036
 L -10.793,110.954 L -10.6945,110.881 L -10.5892,110.818 L -10.4784,110.765 L -10.3629,110.724 L -10.2439,110.694
 L -10.1225,110.676 L -10,110.67 L -9.87747,110.676 L -9.75613,110.694 L -9.63714,110.724 L -9.52164,110.765
 L -9.41077,110.818 L -9.30554,110.881 L -9.207,110.954 L -9.11612,111.036 L -9.03375,111.127 L -8.96066,111.226
 L -8.89761,111.331 L -8.84515,111.442 L -8.80383,111.557 L -8.77402,111.676 L -8.75601,111.797 L -8.75,111.92
 L -8.75601,112.043 L -8.77402,112.164 L -8.80383,112.283 L -8.84515,112.398 L -8.89761,112.509 L -8.96066,112.614
 L -9.03375,112.713 L -9.11612,112.804 L -9.207,112.886 L -9.30554,112.959 L -9.41077,113.022 L -9.52164,113.075
 L -9.63714,113.116 L -9.75613,113.146 L -9.87747,113.164 L -10,113.17 z
M -10.1225,138.564 L -10.2439,138.546 L -10.3629,138.516 L -10.4784,138.475 L -10.5892,138.422 L -10.6945,138.359
 L -10.793,138.286 L -10.8839,138.204 L -10.9663,138.113 L -11.0393,138.014 L -11.1024,137.909 L -11.1548,137.798
 L -11.1962,137.683 L -11.226,137.564 L -11.244,137.443 L -11.25,137.32 L -11.244,137.197 L -11.226,137.076
 L -11.1962,136.957 L -11.1548,136.842 L -11.1024,136.731 L -11.0393,136.626 L -10.9663,136.527 L -10.8839,136.436
 L -10.793,136.354 L -10.6945,136.281 L -10.5892,136.218 L -10.4784,136.165 L -10.3629,136.124 L -10.2439,136.094
 L -10.1225,136.076 L -10,136.07 L -9.87747,136.076 L -9.75613,136.094 L -9.63714,136.124 L -9.52164,136.165
 L -9.41077,136.218 L -9.30554,136.281 L -9.207,136.354 L -9.11612,136.436 L -9.03375,136.527 L -8.96066,136.626
 L -8.89761,136.731 L -8.84515,136.842 L -8.80383,136.957 L -8.77402,137.076 L -8.75601,137.197 L -8.75,137.32
 L -8.75601,137.443 L -8.77402,137.564 L -8.80383,137.683 L -8.84515,137.798 L -8.89761,137.909 L -8.96066,138.014
 L -9.03375,138.113 L -9.11612,138.204 L -9.207,138.286 L -9.30554,138.359 L -9.41077,138.422 L -9.52164,138.475
 L -9.63714,138.516 L -9.75613,138.546 L -9.87747,138.564 L -10,138.57 z
M -289.843,138.564 L -289.964,138.546 L -290.083,138.516 L -290.198,138.475 L -290.309,138.422 L -290.414,138.359
 L -290.513,138.286 L -290.604,138.204 L -290.686,138.113 L -290.759,138.014 L -290.822,137.909 L -290.875,137.798
 L -290.916,137.683 L -290.946,137.564 L -290.964,137.443 L -290.97,137.32 L -290.964,137.197 L -290.946,137.076
 L -290.916,136.957 L -290.875,136.842 L -290.822,136.731 L -290.759,136.626 L -290.686,136.527 L -290.604,136.436
 L -290.513,136.354 L -290.414,136.281 L -290.309,136.218 L -290.198,136.165 L -290.083,136.124 L -289.964,136.094
 L -289.843,136.076 L -289.72,136.07 L -289.597,136.076 L -289.476,136.094 L -289.357,136.124 L -289.242,136.165
 L -289.131,136.218 L -289.026,136.281 L -288.927,136.354 L -288.836,136.436 L -288.754,136.527 L -288.681,136.626
 L -288.618,136.731 L -288.565,136.842 L -288.524,136.957 L -288.494,137.076 L -288.476,137.197 L -288.47,137.32
 L -288.476,137.443 L -288.494,137.564 L -288.524,137.683 L -288.565,137.798 L -288.618,137.909 L -288.681,138.014
 L -288.754,138.113 L -288.836,138.204 L -288.927,138.286 L -289.026,138.359 L -289.131,138.422 L -289.242,138.475
 L -289.357,138.516 L -289.476,138.546 L -289.597,138.564 L -289.72,138.57 z
M -289.843,163.964 L -289.964,163.946 L -290.083,163.916 L -290.198,163.875 L -290.309,163.822 L -290.414,163.759
 L -290.513,163.686 L -290.604,163.604 L -290.686,163.513 L -290.759,163.414 L -290.822,163.309 L -290.875,163.198
 L -290.916,163.083 L -290.946,162.964 L -290.964,162.843 L -290.97,162.72 L -290.964,162.597 L -290.946,162.476
 L -290.916,162.357 L -290.875,162.242 L -290.822,162.131 L -290.759,162.026 L -290.686,161.927 L -290.604,161.836
 L -290.513,161.754 L -290.414,161.681 L -290.309,161.618 L -290.198,161.565 L -290.083,161.524 L -289.964,161.494
 L -289.843,161.476 L -289.72,161.47 L -289.597,161.476 L -289.476,161.494 L -289.357,161.524 L -289.242,161.565
 L -289.131,161.618 L -289.026,161.681 L -288.927,161.754 L -288.836,161.836 L -288.754,161.927 L -288.681,162.026
 L -288.618,162.131 L -288.565,162.242 L -288.524,162.357 L -288.494,162.476 L -288.476,162.597 L -288.47,162.72
 L -288.476,162.843 L -288.494,162.964 L -288.524,163.083 L -288.565,163.198 L -288.618,163.309 L -288.681,163.414
 L -288.754,163.513 L -288.836,163.604 L -288.927,163.686 L -289.026,163.759 L -289.131,163.822 L -289.242,163.875
 L -289.357,163.916 L -289.476,163.946 L -289.597,163.964 L -289.72,163.97 z
M -10.1225,163.964 L -10.2439,163.946 L -10.3629,163.916 L -10.4784,163.875 L -10.5892,163.822 L -10.6945,163.759
 L -10.793,163.686 L -10.8839,163.604 L -10.9663,163.513 L -11.0393,163.414 L -11.1024,163.309 L -11.1548,163.198
 L -11.1962,163.083 L -11.226,162.964 L -11.244,162.843 L -11.25,162.72 L -11.244,162.597 L -11.226,162.476
 L -11.1962,162.357 L -11.1548,162.242 L -11.1024,162.131 L -11.0393,162.026 L -10.9663,161.927 L -10.8839,161.836
 L -10.793,161.754 L -10.6945,161.681 L -10.5892,161.618 L -10.4784,161.565 L -10.3629,161.524 L -10.2439,161.494
 L -10.1225,161.476 L -10,161.47 L -9.87747,161.476 L -9.75613,161.494 L -9.63714,161.524 L -9.52164,161.565
 L -9.41077,161.618 L -9.30554,161.681 L -9.207,161.754 L -9.11612,161.836 L -9.03375,161.927 L -8.96066,162.026
 L -8.89761,162.131 L -8.84515,162.242 L -8.80383,162.357 L -8.77402,162.476 L -8.75601,162.597 L -8.75,162.72
 L -8.75601,162.843 L -8.77402,162.964 L -8.80383,163.083 L -8.84515,163.198 L -8.89761,163.309 L -8.96066,163.414
 L -9.03375,163.513 L -9.11612,163.604 L -9.207,163.686 L -9.30554,163.759 L -9.41077,163.822 L -9.52164,163.875
 L -9.63714,163.916 L -9.75613,163.946 L -9.87747,163.964 L -10,163.97 z
M -233.553,177.224 L -233.674,177.206 L -233.793,177.176 L -233.908,177.135 L -234.019,177.082 L -234.124,177.019
 L -234.223,176.946 L -234.314,176.864 L -234.396,176.773 L -234.469,176.674 L -234.532,176.569 L -234.585,176.458
 L -234.626,176.343 L -234.656,176.224 L -234.674,176.103 L -234.68,175.98 L -234.674,175.857 L -234.656,175.736
 L -234.626,175.617 L -234.585,175.502 L -234.532,175.391 L -234.469,175.286 L -234.396,175.187 L -234.314,175.096
 L -234.223,175.014 L -234.124,174.941 L -234.019,174.878 L -233.908,174.825 L -233.793,174.784 L -233.674,174.754
 L -233.553,174.736 L -233.43,174.73 L -233.307,174.736 L -233.186,174.754 L -233.067,174.784 L -232.952,174.825
 L -232.841,174.878 L -232.736,174.941 L -232.637,175.014 L -232.546,175.096 L -232.464,175.187 L -232.391,175.286
 L -232.328,175.391 L -232.275,175.502 L -232.234,175.617 L -232.204,175.736 L -232.186,175.857 L -232.18,175.98
 L -232.186,176.103 L -232.204,176.224 L -232.234,176.343 L -232.275,176.458 L -232.328,176.569 L -232.391,176.674
 L -232.464,176.773 L -232.546,176.864 L -232.637,176.946 L -232.736,177.019 L -232.841,177.082 L -232.952,177.135
 L -233.067,177.176 L -233.186,177.206 L -233.307,177.224 L -233.43,177.23 z
M -187.833,177.224 L -187.954,177.206 L -188.073,177.176 L -188.188,177.135 L -188.299,177.082 L -188.404,177.019
 L -188.503,176.946 L -188.594,176.864 L -188.676,176.773 L -188.749,176.674 L -188.812,176.569 L -188.865,176.458
 L -188.906,176.343 L -188.936,176.224 L -188.954,176.103 L -188.96,175.98 L -188.954,175.857 L -188.936,175.736
 L -188.906,175.617 L -188.865,175.502 L -188.812,175.391 L -188.749,175.286 L -188.676,175.187 L -188.594,175.096
 L -188.503,175.014 L -188.404,174.941 L -188.299,174.878 L -188.188,174.825 L -188.073,174.784 L -187.954,174.754
 L -187.833,174.736 L -187.71,174.73 L -187.587,174.736 L -187.466,174.754 L -187.347,174.784 L -187.232,174.825
 L -187.121,174.878 L -187.016,174.941 L -186.917,175.014 L -186.826,175.096 L -186.744,175.187 L -186.671,175.286
 L -186.608,175.391 L -186.555,175.502 L -186.514,175.617 L -186.484,175.736 L -186.466,175.857 L -186.46,175.98
 L -186.466,176.103 L -186.484,176.224 L -186.514,176.343 L -186.555,176.458 L -186.608,176.569 L -186.671,176.674
 L -186.744,176.773 L -186.826,176.864 L -186.917,176.946 L -187.016,177.019 L -187.121,177.082 L -187.232,177.135
 L -187.347,177.176 L -187.466,177.206 L -187.587,177.224 L -187.71,177.23 z
M -30.3525,177.224 L -30.4739,177.206 L -30.5929,177.176 L -30.7084,177.135 L -30.8192,177.082 L -30.9245,177.019
 L -31.023,176.946 L -31.1139,176.864 L -31.1963,176.773 L -31.2693,176.674 L -31.3324,176.569 L -31.3849,176.458
 L -31.4262,176.343 L -31.456,176.224 L -31.474,176.103 L -31.48,175.98 L -31.474,175.857 L -31.456,175.736
 L -31.4262,175.617 L -31.3849,175.502 L -31.3324,175.391 L -31.2693,175.286 L -31.1963,175.187 L -31.1139,175.096
 L -31.023,175.014 L -30.9245,174.941 L -30.8192,174.878 L -30.7084,174.825 L -30.5929,174.784 L -30.4739,174.754
 L -30.3525,174.736 L -30.23,174.73 L -30.1075,174.736 L -29.9861,174.754 L -29.8671,174.784 L -29.7516,174.825
 L -29.6408,174.878 L -29.5355,174.941 L -29.437,175.014 L -29.3461,175.096 L -29.2637,175.187 L -29.1907,175.286
 L -29.1276,175.391 L -29.0751,175.502 L -29.0338,175.617 L -29.004,175.736 L -28.986,175.857 L -28.98,175.98
 L -28.986,176.103 L -29.004,176.224 L -29.0338,176.343 L -29.0751,176.458 L -29.1276,176.569 L -29.1907,176.674
 L -29.2637,176.773 L -29.3461,176.864 L -29.437,176.946 L -29.5355,177.019 L -29.6408,177.082 L -29.7516,177.135
 L -29.8671,177.176 L -29.9861,177.206 L -30.1075,177.224 L -30.23,177.23 z
M -253.873,177.224 L -253.994,177.206 L -254.113,177.176 L -254.228,177.135 L -254.339,177.082 L -254.444,177.019
 L -254.543,176.946 L -254.634,176.864 L -254.716,176.773 L -254.789,176.674 L -254.852,176.569 L -254.905,176.458
 L -254.946,176.343 L -254.976,176.224 L -254.994,176.103 L -255,175.98 L -254.994,175.857 L -254.976,175.736
 L -254.946,175.617 L -254.905,175.502 L -254.852,175.391 L -254.789,175.286 L -254.716,175.187 L -254.634,175.096
 L -254.543,175.014 L -254.444,174.941 L -254.339,174.878 L -254.228,174.825 L -254.113,174.784 L -253.994,174.754
 L -253.873,174.736 L -253.75,174.73 L -253.627,174.736 L -253.506,174.754 L -253.387,174.784 L -253.272,174.825
 L -253.161,174.878 L -253.056,174.941 L -252.957,175.014 L -252.866,175.096 L -252.784,175.187 L -252.711,175.286
 L -252.648,175.391 L -252.595,175.502 L -252.554,175.617 L -252.524,175.736 L -252.506,175.857 L -252.5,175.98
 L -252.506,176.103 L -252.524,176.224 L -252.554,176.343 L -252.595,176.458 L -252.648,176.569 L -252.711,176.674
 L -252.784,176.773 L -252.866,176.864 L -252.957,176.946 L -253.056,177.019 L -253.161,177.082 L -253.272,177.135
 L -253.387,177.176 L -253.506,177.206 L -253.627,177.224 L -253.75,177.23 z
M -289.843,189.364 L -289.964,189.346 L -290.083,189.316 L -290.198,189.275 L -290.309,189.222 L -290.414,189.159
 L -290.513,189.086 L -290.604,189.004 L -290.686,188.913 L -290.759,188.814 L -290.822,188.709 L -290.875,188.598
 L -290.916,188.483 L -290.946,188.364 L -290.964,188.243 L -290.97,188.12 L -290.964,187.997 L -290.946,187.876
 L -290.916,187.757 L -290.875,187.642 L -290.822,187.531 L -290.759,187.426 L -290.686,187.327 L -290.604,187.236
 L -290.513,187.154 L -290.414,187.081 L -290.309,187.018 L -290.198,186.965 L -290.083,186.924 L -289.964,186.894
 L -289.843,186.876 L -289.72,186.87 L -289.597,186.876 L -289.476,186.894 L -289.357,186.924 L -289.242,186.965
 L -289.131,187.018 L -289.026,187.081 L -288.927,187.154 L -288.836,187.236 L -288.754,187.327 L -288.681,187.426
 L -288.618,187.531 L -288.565,187.642 L -288.524,187.757 L -288.494,187.876 L -288.476,187.997 L -288.47,188.12
 L -288.476,188.243 L -288.494,188.364 L -288.524,188.483 L -288.565,188.598 L -288.618,188.709 L -288.681,188.814
 L -288.754,188.913 L -288.836,189.004 L -288.927,189.086 L -289.026,189.159 L -289.131,189.222 L -289.242,189.275
 L -289.357,189.316 L -289.476,189.346 L -289.597,189.364 L -289.72,189.37 z
M -10.1225,189.364 L -10.2439,189.346 L -10.3629,189.316 L -10.4784,189.275 L -10.5892,189.222 L -10.6945,189.159
 L -10.793,189.086 L -10.8839,189.004 L -10.9663,188.913 L -11.0393,188.814 L -11.1024,188.709 L -11.1548,188.598
 L -11.1962,188.483 L -11.226,188.364 L -11.244,188.243 L -11.25,188.12 L -11.244,187.997 L -11.226,187.876
 L -11.1962,187.757 L -11.1548,187.642 L -11.1024,187.531 L -11.0393,187.426 L -10.9663,187.327 L -10.8839,187.236
 L -10.793,187.154 L -10.6945,187.081 L -10.5892,187.018 L -10.4784,186.965 L -10.3629,186.924 L -10.2439,186.894
 L -10.1225,186.876 L -10,186.87 L -9.87747,186.876 L -9.75613,186.894 L -9.63714,186.924 L -9.52164,186.965
 L -9.41077,187.018 L -9.30554,187.081 L -9.207,187.154 L -9.11612,187.236 L -9.03375,187.327 L -8.96066,187.426
 L -8.89761,187.531 L -8.84515,187.642 L -8.80383,187.757 L -8.77402,187.876 L -8.75601,187.997 L -8.75,188.12
 L -8.75601,188.243 L -8.77402,188.364 L -8.80383,188.483 L -8.84515,188.598 L -8.89761,188.709 L -8.96066,188.814
 L -9.03375,188.913 L -9.11612,189.004 L -9.207,189.086 L -9.30554,189.159 L -9.41077,189.222 L -9.52164,189.275
 L -9.63714,189.316 L -9.75613,189.346 L -9.87747,189.364 L -10,189.37 z
M -289.843,214.764 L -289.964,214.746 L -290.083,214.716 L -290.198,214.675 L -290.309,214.622 L -290.414,214.559
 L -290.513,214.486 L -290.604,214.404 L -290.686,214.313 L -290.759,214.214 L -290.822,214.109 L -290.875,213.998
 L -290.916,213.883 L -290.946,213.764 L -290.964,213.643 L -290.97,213.52 L -290.964,213.397 L -290.946,213.276
 L -290.916,213.157 L -290.875,213.042 L -290.822,212.931 L -290.759,212.826 L -290.686,212.727 L -290.604,212.636
 L -290.513,212.554 L -290.414,212.481 L -290.309,212.418 L -290.198,212.365 L -290.083,212.324 L -289.964,212.294
 L -289.843,212.276 L -289.72,212.27 L -289.597,212.276 L -289.476,212.294 L -289.357,212.324 L -289.242,212.365
 L -289.131,212.418 L -289.026,212.481 L -288.927,212.554 L -288.836,212.636 L -288.754,212.727 L -288.681,212.826
 L -288.618,212.931 L -288.565,213.042 L -288.524,213.157 L -288.494,213.276 L -288.476,213.397 L -288.47,213.52
 L -288.476,213.643 L -288.494,213.764 L -288.524,213.883 L -288.565,213.998 L -288.618,214.109 L -288.681,214.214
 L -288.754,214.313 L -288.836,214.404 L -288.927,214.486 L -289.026,214.559 L -289.131,214.622 L -289.242,214.675
 L -289.357,214.716 L -289.476,214.746 L -289.597,214.764 L -289.72,214.77 z
M -10.1225,214.764 L -10.2439,214.746 L -10.3629,214.716 L -10.4784,214.675 L -10.5892,214.622 L -10.6945,214.559
 L -10.793,214.486 L -10.8839,214.404 L -10.9663,214.313 L -11.0393,214.214 L -11.1024,214.109 L -11.1548,213.998
 L -11.1962,213.883 L -11.226,213.764 L -11.244,213.643 L -11.25,213.52 L -11.244,213.397 L -11.226,213.276
 L -11.1962,213.157 L -11.1548,213.042 L -11.1024,212.931 L -11.0393,212.826 L -10.9663,212.727 L -10.8839,212.636
 L -10.793,212.554 L -10.6945,212.481 L -10.5892,212.418 L -10.4784,212.365 L -10.3629,212.324 L -10.2439,212.294
 L -10.1225,212.276 L -10,212.27 L -9.87747,212.276 L -9.75613,212.294 L -9.63714,212.324 L -9.52164,212.365
 L -9.41077,212.418 L -9.30554,212.481 L -9.207,212.554 L -9.11612,212.636 L -9.03375,212.727 L -8.96066,212.826
 L -8.89761,212.931 L -8.84515,213.042 L -8.80383,213.157 L -8.77402,213.276 L -8.75601,213.397 L -8.75,213.52
 L -8.75601,213.643 L -8.77402,213.764 L -8.80383,213.883 L -8.84515,213.998 L -8.89761,214.109 L -8.96066,214.214
 L -9.03375,214.313 L -9.11612,214.404 L -9.207,214.486 L -9.30554,214.559 L -9.41077,214.622 L -9.52164,214.675
 L -9.63714,214.716 L -9.75613,214.746 L -9.87747,214.764 L -10,214.77 z
M -289.843,240.164 L -289.964,240.146 L -290.083,240.116 L -290.198,240.075 L -290.309,240.022 L -290.414,239.959
 L -290.513,239.886 L -290.604,239.804 L -290.686,239.713 L -290.759,239.614 L -290.822,239.509 L -290.875,239.398
 L -290.916,239.283 L -290.946,239.164 L -290.964,239.043 L -290.97,238.92 L -290.964,238.797 L -290.946,238.676
 L -290.916,238.557 L -290.875,238.442 L -290.822,238.331 L -290.759,238.226 L -290.686,238.127 L -290.604,238.036
 L -290.513,237.954 L -290.414,237.881 L -290.309,237.818 L -290.198,237.765 L -290.083,237.724 L -289.964,237.694
 L -289.843,237.676 L -289.72,237.67 L -289.597,237.676 L -289.476,237.694 L -289.357,237.724 L -289.242,237.765
 L -289.131,237.818 L -289.026,237.881 L -288.927,237.954 L -288.836,238.036 L -288.754,238.127 L -288.681,238.226
 L -288.618,238.331 L -288.565,238.442 L -288.524,238.557 L -288.494,238.676 L -288.476,238.797 L -288.47,238.92
 L -288.476,239.043 L -288.494,239.164 L -288.524,239.283 L -288.565,239.398 L -288.618,239.509 L -288.681,239.614
 L -288.754,239.713 L -288.836,239.804 L -288.927,239.886 L -289.026,239.959 L -289.131,240.022 L -289.242,240.075
 L -289.357,240.116 L -289.476,240.146 L -289.597,240.164 L -289.72,240.17 z
M -10.1225,240.164 L -10.2439,240.146 L -10.3629,240.116 L -10.4784,240.075 L -10.5892,240.022 L -10.6945,239.959
 L -10.793,239.886 L -10.8839,239.804 L -10.9663,239.713 L -11.0393,239.614 L -11.1024,239.509 L -11.1548,239.398
 L -11.1962,239.283 L -11.226,239.164 L -11.244,239.043 L -11.25,238.92 L -11.244,238.797 L -11.226,238.676
 L -11.1962,238.557 L -11.1548,238.442 L -11.1024,238.331 L -11.0393,238.226 L -10.9663,238.127 L -10.8839,238.036
 L -10.793,237.954 L -10.6945,237.881 L -10.5892,237.818 L -10.4784,237.765 L -10.3629,237.724 L -10.2439,237.694
 L -10.1225,237.676 L -10,237.67 L -9.87747,237.676 L -9.75613,237.694 L -9.63714,237.724 L -9.52164,237.765
 L -9.41077,237.818 L -9.30554,237.881 L -9.207,237.954 L -9.11612,238.036 L -9.03375,238.127 L -8.96066,238.226
 L -8.89761,238.331 L -8.84515,238.442 L -8.80383,238.557 L -8.77402,238.676 L -8.75601,238.797 L -8.75,238.92
 L -8.75601,239.043 L -8.77402,239.164 L -8.80383,239.283 L -8.84515,239.398 L -8.89761,239.509 L -8.96066,239.614
 L -9.03375,239.713 L -9.11612,239.804 L -9.207,239.886 L -9.30554,239.959 L -9.41077,240.022 L -9.52164,240.075
 L -9.63714,240.116 L -9.75613,240.146 L -9.87747,240.164 L -10,240.17 z
M -30.3525,249.614 L -30.4739,249.596 L -30.5929,249.566 L -30.7084,249.525 L -30.8192,249.472 L -30.9245,249.409
 L -31.023,249.336 L -31.1139,249.254 L -31.1963,249.163 L -31.2693,249.064 L -31.3324,248.959 L -31.3849,248.848
 L -31.4262,248.733 L -31.456,248.614 L -31.474,248.493 L -31.48,248.37 L -31.474,248.247 L -31.456,248.126
 L -31.4262,248.007 L -31.3849,247.892 L -31.3324,247.781 L -31.2693,247.676 L -31.1963,247.577 L -31.1139,247.486
 L -31.023,247.404 L -30.9245,247.331 L -30.8192,247.268 L -30.7084,247.215 L -30.5929,247.174 L -30.4739,247.144
 L -30.3525,247.126 L -30.23,247.12 L -30.1075,247.126 L -29.9861,247.144 L -29.8671,247.174 L -29.7516,247.215
 L -29.6408,247.268 L -29.5355,247.331 L -29.437,247.404 L -29.3461,247.486 L -29.2637,247.577 L -29.1907,247.676
 L -29.1276,247.781 L -29.0751,247.892 L -29.0338,248.007 L -29.004,248.126 L -28.986,248.247 L -28.98,248.37
 L -28.986,248.493 L -29.004,248.614 L -29.0338,248.733 L -29.0751,248.848 L -29.1276,248.959 L -29.1907,249.064
 L -29.2637,249.163 L -29.3461,249.254 L -29.437,249.336 L -29.5355,249.409 L -29.6408,249.472 L -29.7516,249.525
 L -29.8671,249.566 L -29.9861,249.596 L -30.1075,249.614 L -30.23,249.62 z
M -187.833,249.614 L -187.954,249.596 L -188.073,249.566 L -188.188,249.525 L -188.299,249.472 L -188.404,249.409
 L -188.503,249.336 L -188.594,249.254 L -188.676,249.163 L -188.749,249.064 L -188.812,248.959 L -188.865,248.848
 L -188.906,248.733 L -188.936,248.614 L -188.954,248.493 L -188.96,248.37 L -188.954,248.247 L -188.936,248.126
 L -188.906,248.007 L -188.865,247.892 L -188.812,247.781 L -188.749,247.676 L -188.676,247.577 L -188.594,247.486
 L -188.503,247.404 L -188.404,247.331 L -188.299,247.268 L -188.188,247.215 L -188.073,247.174 L -187.954,247.144
 L -187.833,247.126 L -187.71,247.12 L -187.587,247.126 L -187.466,247.144 L -187.347,247.174 L -187.232,247.215
 L -187.121,247.268 L -187.016,247.331 L -186.917,247.404 L -186.826,247.486 L -186.744,247.577 L -186.671,247.676
 L -186.608,247.781 L -186.555,247.892 L -186.514,248.007 L -186.484,248.126 L -186.466,248.247 L -186.46,248.37
 L -186.466,248.493 L -186.484,248.614 L -186.514,248.733 L -186.555,248.848 L -186.608,248.959 L -186.671,249.064
 L -186.744,249.163 L -186.826,249.254 L -186.917,249.336 L -187.016,249.409 L -187.121,249.472 L -187.232,249.525
 L -187.347,249.566 L -187.466,249.596 L -187.587,249.614 L -187.71,249.62 z
M -10.1225,265.564 L -10.2439,265.546 L -10.3629,265.516 L -10.4784,265.475 L -10.5892,265.422 L -10.6945,265.359
 L -10.793,265.286 L -10.8839,265.204 L -10.9663,265.113 L -11.0393,265.014 L -11.1024,264.909 L -11.1548,264.798
 L -11.1962,264.683 L -11.226,264.564 L -11.244,264.443 L -11.25,264.32 L -11.244,264.197 L -11.226,264.076
 L -11.1962,263.957 L -11.1548,263.842 L -11.1024,263.731 L -11.0393,263.626 L -10.9663,263.527 L -10.8839,263.436
 L -10.793,263.354 L -10.6945,263.281 L -10.5892,263.218 L -10.4784,263.165 L -10.3629,263.124 L -10.2439,263.094
 L -10.1225,263.076 L -10,263.07 L -9.87747,263.076 L -9.75613,263.094 L -9.63714,263.124 L -9.52164,263.165
 L -9.41077,263.218 L -9.30554,263.281 L -9.207,263.354 L -9.11612,263.436 L -9.03375,263.527 L -8.96066,263.626
 L -8.89761,263.731 L -8.84515,263.842 L -8.80383,263.957 L -8.77402,264.076 L -8.75601,264.197 L -8.75,264.32
 L -8.75601,264.443 L -8.77402,264.564 L -8.80383,264.683 L -8.84515,264.798 L -8.89761,264.909 L -8.96066,265.014
 L -9.03375,265.113 L -9.11612,265.204 L -9.207,265.286 L -9.30554,265.359 L -9.41077,265.422 L -9.52164,265.475
 L -9.63714,265.516 L -9.75613,265.546 L -9.87747,265.564 L -10,265.57 z
M -289.843,265.564 L -289.964,265.546 L -290.083,265.516 L -290.198,265.475 L -290.309,265.422 L -290.414,265.359
 L -290.513,265.286 L -290.604,265.204 L -290.686,265.113 L -290.759,265.014 L -290.822,264.909 L -290.875,264.798
 L -290.916,264.683 L -290.946,264.564 L -290.964,264.443 L -290.97,264.32 L -290.964,264.197 L -290.946,264.076
 L -290.916,263.957 L -290.875,263.842 L -290.822,263.731 L -290.759,263.626 L -290.686,263.527 L -290.604,263.436
 L -290.513,263.354 L -290.414,263.281 L -290.309,263.218 L -290.198,263.165 L -290.083,263.124 L -289.964,263.094
 L -289.843,263.076 L -289.72,263.07 L -289.597,263.076 L -289.476,263.094 L -289.357,263.124 L -289.242,263.165
 L -289.131,263.218 L -289.026,263.281 L -288.927,263.354 L -288.836,263.436 L -288.754,263.527 L -288.681,263.626
 L -288.618,263.731 L -288.565,263.842 L -288.524,263.957 L -288.494,264.076 L -288.476,264.197 L -288.47,264.32
 L -288.476,264.443 L -288.494,264.564 L -288.524,264.683 L -288.565,264.798 L -288.618,264.909 L -288.681,265.014
 L -288.754,265.113 L -288.836,265.204 L -288.927,265.286 L -289.026,265.359 L -289.131,265.422 L -289.242,265.475
 L -289.357,265.516 L -289.476,265.546 L -289.597,265.564 L -289.72,265.57 z
M -81.0425,270.964 L -81.1639,270.946 L -81.2829,270.916 L -81.3984,270.875 L -81.5092,270.822 L -81.6145,270.759
 L -81.713,270.686 L -81.8039,270.604 L -81.8863,270.513 L -81.9593,270.414 L -82.0224,270.309 L -82.0748,270.198
 L -82.1162,270.083 L -82.146,269.964 L -82.164,269.843 L -82.17,269.72 L -82.164,269.597 L -82.146,269.476
 L -82.1162,269.357 L -82.0748,269.242 L -82.0224,269.131 L -81.9593,269.026 L -81.8863,268.927 L -81.8039,268.836
 L -81.713,268.754 L -81.6145,268.681 L -81.5092,268.618 L -81.3984,268.565 L -81.2829,268.524 L -81.1639,268.494
 L -81.0425,268.476 L -80.92,268.47 L -80.7975,268.476 L -80.6761,268.494 L -80.5571,268.524 L -80.4416,268.565
 L -80.3307,268.618 L -80.2255,268.681 L -80.127,268.754 L -80.0361,268.836 L -79.9537,268.927 L -79.8807,269.026
 L -79.8176,269.131 L -79.7652,269.242 L -79.7238,269.357 L -79.694,269.476 L -79.676,269.597 L -79.67,269.72
 L -79.676,269.843 L -79.694,269.964 L -79.7238,270.083 L -79.7652,270.198 L -79.8176,270.309 L -79.8807,270.414
 L -79.9537,270.513 L -80.0361,270.604 L -80.127,270.686 L -80.2255,270.759 L -80.3307,270.822 L -80.4416,270.875
 L -80.5571,270.916 L -80.6761,270.946 L -80.7975,270.964 L -80.92,270.97 z
M -258.843,270.964 L -258.964,270.946 L -259.083,270.916 L -259.198,270.875 L -259.309,270.822 L -259.414,270.759
 L -259.513,270.686 L -259.604,270.604 L -259.686,270.513 L -259.759,270.414 L -259.822,270.309 L -259.875,270.198
 L -259.916,270.083 L -259.946,269.964 L -259.964,269.843 L -259.97,269.72 L -259.964,269.597 L -259.946,269.476
 L -259.916,269.357 L -259.875,269.242 L -259.822,269.131 L -259.759,269.026 L -259.686,268.927 L -259.604,268.836
 L -259.513,268.754 L -259.414,268.681 L -259.309,268.618 L -259.198,268.565 L -259.083,268.524 L -258.964,268.494
 L -258.843,268.476 L -258.72,268.47 L -258.597,268.476 L -258.476,268.494 L -258.357,268.524 L -258.242,268.565
 L -258.131,268.618 L -258.026,268.681 L -257.927,268.754 L -257.836,268.836 L -257.754,268.927 L -257.681,269.026
 L -257.618,269.131 L -257.565,269.242 L -257.524,269.357 L -257.494,269.476 L -257.476,269.597 L -257.47,269.72
 L -257.476,269.843 L -257.494,269.964 L -257.524,270.083 L -257.565,270.198 L -257.618,270.309 L -257.681,270.414
 L -257.754,270.513 L -257.836,270.604 L -257.927,270.686 L -258.026,270.759 L -258.131,270.822 L -258.242,270.875
 L -258.357,270.916 L -258.476,270.946 L -258.597,270.964 L -258.72,270.97 z
M -233.443,270.964 L -233.564,270.946 L -233.683,270.916 L -233.798,270.875 L -233.909,270.822 L -234.014,270.759
 L -234.113,270.686 L -234.204,270.604 L -234.286,270.513 L -234.359,270.414 L -234.422,270.309 L -234.475,270.198
 L -234.516,270.083 L -234.546,269.964 L -234.564,269.843 L -234.57,269.72 L -234.564,269.597 L -234.546,269.476
 L -234.516,269.357 L -234.475,269.242 L -234.422,269.131 L -234.359,269.026 L -234.286,268.927 L -234.204,268.836
 L -234.113,268.754 L -234.014,268.681 L -233.909,268.618 L -233.798,268.565 L -233.683,268.524 L -233.564,268.494
 L -233.443,268.476 L -233.32,268.47 L -233.197,268.476 L -233.076,268.494 L -232.957,268.524 L -232.842,268.565
 L -232.731,268.618 L -232.626,268.681 L -232.527,268.754 L -232.436,268.836 L -232.354,268.927 L -232.281,269.026
 L -232.218,269.131 L -232.165,269.242 L -232.124,269.357 L -232.094,269.476 L -232.076,269.597 L -232.07,269.72
 L -232.076,269.843 L -232.094,269.964 L -232.124,270.083 L -232.165,270.198 L -232.218,270.309 L -232.281,270.414
 L -232.354,270.513 L -232.436,270.604 L -232.527,270.686 L -232.626,270.759 L -232.731,270.822 L -232.842,270.875
 L -232.957,270.916 L -233.076,270.946 L -233.197,270.964 L -233.32,270.97 z
M -208.043,270.964 L -208.164,270.946 L -208.283,270.916 L -208.398,270.875 L -208.509,270.822 L -208.614,270.759
 L -208.713,270.686 L -208.804,270.604 L -208.886,270.513 L -208.959,270.414 L -209.022,270.309 L -209.075,270.198
 L -209.116,270.083 L -209.146,269.964 L -209.164,269.843 L -209.17,269.72 L -209.164,269.597 L -209.146,269.476
 L -209.116,269.357 L -209.075,269.242 L -209.022,269.131 L -208.959,269.026 L -208.886,268.927 L -208.804,268.836
 L -208.713,268.754 L -208.614,268.681 L -208.509,268.618 L -208.398,268.565 L -208.283,268.524 L -208.164,268.494
 L -208.043,268.476 L -207.92,268.47 L -207.797,268.476 L -207.676,268.494 L -207.557,268.524 L -207.442,268.565
 L -207.331,268.618 L -207.226,268.681 L -207.127,268.754 L -207.036,268.836 L -206.954,268.927 L -206.881,269.026
 L -206.818,269.131 L -206.765,269.242 L -206.724,269.357 L -206.694,269.476 L -206.676,269.597 L -206.67,269.72
 L -206.676,269.843 L -206.694,269.964 L -206.724,270.083 L -206.765,270.198 L -206.818,270.309 L -206.881,270.414
 L -206.954,270.513 L -207.036,270.604 L -207.127,270.686 L -207.226,270.759 L -207.331,270.822 L -207.442,270.875
 L -207.557,270.916 L -207.676,270.946 L -207.797,270.964 L -207.92,270.97 z
M -182.643,270.964 L -182.764,270.946 L -182.883,270.916 L -182.998,270.875 L -183.109,270.822 L -183.214,270.759
 L -183.313,270.686 L -183.404,270.604 L -183.486,270.513 L -183.559,270.414 L -183.622,270.309 L -183.675,270.198
 L -183.716,270.083 L -183.746,269.964 L -183.764,269.843 L -183.77,269.72 L -183.764,269.597 L -183.746,269.476
 L -183.716,269.357 L -183.675,269.242 L -183.622,269.131 L -183.559,269.026 L -183.486,268.927 L -183.404,268.836
 L -183.313,268.754 L -183.214,268.681 L -183.109,268.618 L -182.998,268.565 L -182.883,268.524 L -182.764,268.494
 L -182.643,268.476 L -182.52,268.47 L -182.397,268.476 L -182.276,268.494 L -182.157,268.524 L -182.042,268.565
 L -181.931,268.618 L -181.826,268.681 L -181.727,268.754 L -181.636,268.836 L -181.554,268.927 L -181.481,269.026
 L -181.418,269.131 L -181.365,269.242 L -181.324,269.357 L -181.294,269.476 L -181.276,269.597 L -181.27,269.72
 L -181.276,269.843 L -181.294,269.964 L -181.324,270.083 L -181.365,270.198 L -181.418,270.309 L -181.481,270.414
 L -181.554,270.513 L -181.636,270.604 L -181.727,270.686 L -181.826,270.759 L -181.931,270.822 L -182.042,270.875
 L -182.157,270.916 L -182.276,270.946 L -182.397,270.964 L -182.52,270.97 z
M -157.243,270.964 L -157.364,270.946 L -157.483,270.916 L -157.598,270.875 L -157.709,270.822 L -157.814,270.759
 L -157.913,270.686 L -158.004,270.604 L -158.086,270.513 L -158.159,270.414 L -158.222,270.309 L -158.275,270.198
 L -158.316,270.083 L -158.346,269.964 L -158.364,269.843 L -158.37,269.72 L -158.364,269.597 L -158.346,269.476
 L -158.316,269.357 L -158.275,269.242 L -158.222,269.131 L -158.159,269.026 L -158.086,268.927 L -158.004,268.836
 L -157.913,268.754 L -157.814,268.681 L -157.709,268.618 L -157.598,268.565 L -157.483,268.524 L -157.364,268.494
 L -157.243,268.476 L -157.12,268.47 L -156.997,268.476 L -156.876,268.494 L -156.757,268.524 L -156.642,268.565
 L -156.531,268.618 L -156.426,268.681 L -156.327,268.754 L -156.236,268.836 L -156.154,268.927 L -156.081,269.026
 L -156.018,269.131 L -155.965,269.242 L -155.924,269.357 L -155.894,269.476 L -155.876,269.597 L -155.87,269.72
 L -155.876,269.843 L -155.894,269.964 L -155.924,270.083 L -155.965,270.198 L -156.018,270.309 L -156.081,270.414
 L -156.154,270.513 L -156.236,270.604 L -156.327,270.686 L -156.426,270.759 L -156.531,270.822 L -156.642,270.875
 L -156.757,270.916 L -156.876,270.946 L -156.997,270.964 L -157.12,270.97 z
M -131.843,270.964 L -131.964,270.946 L -132.083,270.916 L -132.198,270.875 L -132.309,270.822 L -132.414,270.759
 L -132.513,270.686 L -132.604,270.604 L -132.686,270.513 L -132.759,270.414 L -132.822,270.309 L -132.875,270.198
 L -132.916,270.083 L -132.946,269.964 L -132.964,269.843 L -132.97,269.72 L -132.964,269.597 L -132.946,269.476
 L -132.916,269.357 L -132.875,269.242 L -132.822,269.131 L -132.759,269.026 L -132.686,268.927 L -132.604,268.836
 L -132.513,268.754 L -132.414,268.681 L -132.309,268.618 L -132.198,268.565 L -132.083,268.524 L -131.964,268.494
 L -131.843,268.476 L -131.72,268.47 L -131.597,268.476 L -131.476,268.494 L -131.357,268.524 L -131.242,268.565
 L -131.131,268.618 L -131.026,268.681 L -130.927,268.754 L -130.836,268.836 L -130.754,268.927 L -130.681,269.026
 L -130.618,269.131 L -130.565,269.242 L -130.524,269.357 L -130.494,269.476 L -130.476,269.597 L -130.47,269.72
 L -130.476,269.843 L -130.494,269.964 L -130.524,270.083 L -130.565,270.198 L -130.618,270.309 L -130.681,270.414
 L -130.754,270.513 L -130.836,270.604 L -130.927,270.686 L -131.026,270.759 L -131.131,270.822 L -131.242,270.875
 L -131.357,270.916 L -131.476,270.946 L -131.597,270.964 L -131.72,270.97 z
M -106.443,270.964 L -106.564,270.946 L -106.683,270.916 L -106.798,270.875 L -106.909,270.822 L -107.014,270.759
 L -107.113,270.686 L -107.204,270.604 L -107.286,270.513 L -107.359,270.414 L -107.422,270.309 L -107.475,270.198
 L -107.516,270.083 L -107.546,269.964 L -107.564,269.843 L -107.57,269.72 L -107.564,269.597 L -107.546,269.476
 L -107.516,269.357 L -107.475,269.242 L -107.422,269.131 L -107.359,269.026 L -107.286,268.927 L -107.204,268.836
 L -107.113,268.754 L -107.014,268.681 L -106.909,268.618 L -106.798,268.565 L -106.683,268.524 L -106.564,268.494
 L -106.443,268.476 L -106.32,268.47 L -106.197,268.476 L -106.076,268.494 L -105.957,268.524 L -105.842,268.565
 L -105.731,268.618 L -105.626,268.681 L -105.527,268.754 L -105.436,268.836 L -105.354,268.927 L -105.281,269.026
 L -105.218,269.131 L -105.165,269.242 L -105.124,269.357 L -105.094,269.476 L -105.076,269.597 L -105.07,269.72
 L -105.076,269.843 L -105.094,269.964 L -105.124,270.083 L -105.165,270.198 L -105.218,270.309 L -105.281,270.414
 L -105.354,270.513 L -105.436,270.604 L -105.527,270.686 L -105.626,270.759 L -105.731,270.822 L -105.842,270.875
 L -105.957,270.916 L -106.076,270.946 L -106.197,270.964 L -106.32,270.97 z
M -55.6425,270.964 L -55.7639,270.946 L -55.8829,270.916 L -55.9984,270.875 L -56.1093,270.822 L -56.2145,270.759
 L -56.313,270.686 L -56.4039,270.604 L -56.4863,270.513 L -56.5593,270.414 L -56.6224,270.309 L -56.6748,270.198
 L -56.7162,270.083 L -56.746,269.964 L -56.764,269.843 L -56.77,269.72 L -56.764,269.597 L -56.746,269.476
 L -56.7162,269.357 L -56.6748,269.242 L -56.6224,269.131 L -56.5593,269.026 L -56.4863,268.927 L -56.4039,268.836
 L -56.313,268.754 L -56.2145,268.681 L -56.1093,268.618 L -55.9984,268.565 L -55.8829,268.524 L -55.7639,268.494
 L -55.6425,268.476 L -55.52,268.47 L -55.3975,268.476 L -55.2761,268.494 L -55.1571,268.524 L -55.0416,268.565
 L -54.9308,268.618 L -54.8255,268.681 L -54.727,268.754 L -54.6361,268.836 L -54.5537,268.927 L -54.4807,269.026
 L -54.4176,269.131 L -54.3652,269.242 L -54.3238,269.357 L -54.294,269.476 L -54.276,269.597 L -54.27,269.72
 L -54.276,269.843 L -54.294,269.964 L -54.3238,270.083 L -54.3652,270.198 L -54.4176,270.309 L -54.4807,270.414
 L -54.5537,270.513 L -54.6361,270.604 L -54.727,270.686 L -54.8255,270.759 L -54.9308,270.822 L -55.0416,270.875
 L -55.1571,270.916 L -55.2761,270.946 L -55.3975,270.964 L -55.52,270.97 z
M -30.2425,270.964 L -30.3639,270.946 L -30.4829,270.916 L -30.5984,270.875 L -30.7092,270.822 L -30.8145,270.759
 L -30.913,270.686 L -31.0039,270.604 L -31.0863,270.513 L -31.1593,270.414 L -31.2224,270.309 L -31.2749,270.198
 L -31.3162,270.083 L -31.346,269.964 L -31.364,269.843 L -31.37,269.72 L -31.364,269.597 L -31.346,269.476
 L -31.3162,269.357 L -31.2749,269.242 L -31.2224,269.131 L -31.1593,269.026 L -31.0863,268.927 L -31.0039,268.836
 L -30.913,268.754 L -30.8145,268.681 L -30.7092,268.618 L -30.5984,268.565 L -30.4829,268.524 L -30.3639,268.494
 L -30.2425,268.476 L -30.12,268.47 L -29.9975,268.476 L -29.8761,268.494 L -29.7571,268.524 L -29.6416,268.565
 L -29.5308,268.618 L -29.4255,268.681 L -29.327,268.754 L -29.2361,268.836 L -29.1537,268.927 L -29.0807,269.026
 L -29.0176,269.131 L -28.9651,269.242 L -28.9238,269.357 L -28.894,269.476 L -28.876,269.597 L -28.87,269.72
 L -28.876,269.843 L -28.894,269.964 L -28.9238,270.083 L -28.9651,270.198 L -29.0176,270.309 L -29.0807,270.414
 L -29.1537,270.513 L -29.2361,270.604 L -29.327,270.686 L -29.4255,270.759 L -29.5308,270.822 L -29.6416,270.875
 L -29.7571,270.916 L -29.8761,270.946 L -29.9975,270.964 L -30.12,270.97 z
M -268.524,10.3629 L -268.565,10.4784 L -268.618,10.5892 L -268.681,10.6945 L -268.754,10.793 L -268.836,10.8839
 L -268.927,10.9663 L -269.026,11.0393 L -269.131,11.1024 L -269.242,11.1548 L -269.357,11.1962 L -269.476,11.226
 L -269.597,11.244 L -269.72,11.25 L -269.843,11.244 L -269.964,11.226 L -270.083,11.1962 L -270.198,11.1548
 L -270.309,11.1024 L -270.414,11.0393 L -270.513,10.9663 L -270.604,10.8839 L -270.686,10.793 L -270.759,10.6945
 L -270.822,10.5892 L -270.875,10.4784 L -270.916,10.3629 L -270.946,10.2439 L -270.964,10.1225 L -270.97,10
 L -270.964,9.87747 L -270.946,9.75613 L -270.916,9.63714 L -270.875,9.52164 L -270.822,9.41077 L -270.759,9.30554
 L -270.686,9.207 L -270.604,9.11612 L -270.513,9.03375 L -270.414,8.96066 L -270.309,8.89761 L -270.198,8.84515
 L -270.083,8.80383 L -269.964,8.77402 L -269.843,8.75601 L -269.72,8.75 L -269.597,8.75601 L -269.476,8.77402
 L -269.357,8.80383 L -269.242,8.84515 L -269.131,8.89761 L -269.026,8.96066 L -268.927,9.03375 L -268.836,9.11612
 L -268.754,9.207 L -268.681,9.30554 L -268.618,9.41077 L -268.565,9.52164 L -268.524,9.63714 L -268.494,9.75613
 L -268.476,9.87747 L -268.47,10 L -268.476,10.1225 L -268.494,10.2439 z
" stroke="black" fill="lightgray" stroke-width="0.5"/>
</svg>
