<?xml version="1.0" standalone="no"?>
<!DOCTYPE svg PUBLIC "-//W3C//DTD SVG 1.1//EN" "http://www.w3.org/Graphics/SVG/1.1/DTD/svg11.dtd">
<svg width="298mm" height="298mm" viewBox="-298 0 298 298" xmlns="http://www.w3.org/2000/svg" version="1.1">
<title>OpenSCAD Model</title>
<path d="
M -259.18,293.13 L -269.18,293.13 L -269.18,282.38 L -201.18,282.38 L -201.18,282.28 L -199.68,282.28
 L -199.68,297.18 L -185.18,297.18 L -185.18,293.13 L -193.68,293.13 L -193.68,282.28 L -146.78,282.28
 L -146.78,297.18 L -7.32422e-06,297.18 L -7.32422e-06,7.32422e-06 L -297.18,7.32422e-06 L -297.18,282.28 L -274.18,282.28
 L -274.18,297.18 L -259.18,297.18 z
M -13.3025,11.244 L -13.4239,11.226 L -13.5429,11.1962 L -13.6584,11.1549 L -13.7692,11.1024 L -13.8745,11.0393
 L -13.973,10.9663 L -14.0639,10.8839 L -14.1463,10.793 L -14.2193,10.6945 L -14.2824,10.5892 L -14.3348,10.4783
 L -14.3762,10.3629 L -14.406,10.2439 L -14.424,10.1225 L -14.43,10 L -14.424,9.87748 L -14.406,9.75614
 L -14.3762,9.63715 L -14.3348,9.52164 L -14.2824,9.41074 L -14.2193,9.30555 L -14.1463,9.20701 L -14.0639,9.11613
 L -13.973,9.03373 L -13.8745,8.96067 L -13.7692,8.89759 L -13.6584,8.84516 L -13.5429,8.80384 L -13.4239,8.77402
 L -13.3025,8.75602 L -13.18,8.75001 L -13.0575,8.75602 L -12.9361,8.77402 L -12.8171,8.80384 L -12.7016,8.84516
 L -12.5908,8.89759 L -12.4855,8.96067 L -12.387,9.03373 L -12.2961,9.11613 L -12.2138,9.20701 L -12.1407,9.30555
 L -12.0776,9.41074 L -12.0252,9.52164 L -11.9838,9.63715 L -11.954,9.75614 L -11.936,9.87748 L -11.93,10
 L -11.936,10.1225 L -11.954,10.2439 L -11.9838,10.3629 L -12.0252,10.4783 L -12.0776,10.5892 L -12.1407,10.6945
 L -12.2138,10.793 L -12.2961,10.8839 L -12.387,10.9663 L -12.4855,11.0393 L -12.5908,11.1024 L -12.7016,11.1549
 L -12.8171,11.1962 L -12.9361,11.226 L -13.0575,11.244 L -13.18,11.25 z
M -192.224,9.87748 L -192.206,9.75614 L -192.176,9.63715 L -192.135,9.52164 L -192.082,9.41074 L -192.019,9.30555
 L -191.946,9.20701 L -191.864,9.11613 L -191.773,9.03373 L -191.674,8.96067 L -191.569,8.89759 L -191.458,8.84516
 L -191.343,8.80384 L -191.224,8.77402 L -191.103,8.75602 L -190.98,8.75001 L -190.857,8.75602 L -190.736,8.77402
 L -190.617,8.80384 L -190.502,8.84516 L -190.391,8.89759 L -190.286,8.96067 L -190.187,9.03373 L -190.096,9.11613
 L -190.014,9.20701 L -189.941,9.30555 L -189.878,9.41074 L -189.825,9.52164 L -189.784,9.63715 L -189.754,9.75614
 L -189.736,9.87748 L -189.73,10 L -189.736,10.1225 L -189.754,10.2439 L -189.784,10.3629 L -189.825,10.4783
 L -189.878,10.5892 L -189.941,10.6945 L -190.014,10.793 L -190.096,10.8839 L -190.187,10.9663 L -190.286,11.0393
 L -190.391,11.1024 L -190.502,11.1549 L -190.617,11.1962 L -190.736,11.226 L -190.857,11.244 L -190.98,11.25
 L -191.103,11.244 L -191.224,11.226 L -191.343,11.1962 L -191.458,11.1549 L -191.569,11.1024 L -191.674,11.0393
 L -191.773,10.9663 L -191.864,10.8839 L -191.946,10.793 L -192.019,10.6945 L -192.082,10.5892 L -192.135,10.4783
 L -192.176,10.3629 L -192.206,10.2439 L -192.224,10.1225 L -192.23,10 z
M -243.024,9.87748 L -243.006,9.75614 L -242.976,9.63715 L -242.935,9.52164 L -242.882,9.41074 L -242.819,9.30555
 L -242.746,9.20701 L -242.664,9.11613 L -242.573,9.03373 L -242.474,8.96067 L -242.369,8.89759 L -242.258,8.84516
 L -242.143,8.80384 L -242.024,8.77402 L -241.903,8.75602 L -241.78,8.75001 L -241.657,8.75602 L -241.536,8.77402
 L -241.417,8.80384 L -241.302,8.84516 L -241.191,8.89759 L -241.086,8.96067 L -240.987,9.03373 L -240.896,9.11613
 L -240.814,9.20701 L -240.741,9.30555 L -240.678,9.41074 L -240.625,9.52164 L -240.584,9.63715 L -240.554,9.75614
 L -240.536,9.87748 L -240.53,10 L -240.536,10.1225 L -240.554,10.2439 L -240.584,10.3629 L -240.625,10.4783
 L -240.678,10.5892 L -240.741,10.6945 L -240.814,10.793 L -240.896,10.8839 L -240.987,10.9663 L -241.086,11.0393
 L -241.191,11.1024 L -241.302,11.1549 L -241.417,11.1962 L -241.536,11.226 L -241.657,11.244 L -241.78,11.25
 L -241.903,11.244 L -242.024,11.226 L -242.143,11.1962 L -242.258,11.1549 L -242.369,11.1024 L -242.474,11.0393
 L -242.573,10.9663 L -242.664,10.8839 L -242.746,10.793 L -242.819,10.6945 L -242.882,10.5892 L -242.935,10.4783
 L -242.976,10.3629 L -243.006,10.2439 L -243.024,10.1225 L -243.03,10 z
M -38.7025,11.244 L -38.8239,11.226 L -38.9429,11.1962 L -39.0584,11.1549 L -39.1692,11.1024 L -39.2745,11.0393
 L -39.373,10.9663 L -39.4639,10.8839 L -39.5463,10.793 L -39.6193,10.6945 L -39.6824,10.5892 L -39.7349,10.4783
 L -39.7762,10.3629 L -39.806,10.2439 L -39.824,10.1225 L -39.83,10 L -39.824,9.87748 L -39.806,9.75614
 L -39.7762,9.63715 L -39.7349,9.52164 L -39.6824,9.41074 L -39.6193,9.30555 L -39.5463,9.20701 L -39.4639,9.11613
 L -39.373,9.03373 L -39.2745,8.96067 L -39.1692,8.89759 L -39.0584,8.84516 L -38.9429,8.80384 L -38.8239,8.77402
 L -38.7025,8.75602 L -38.58,8.75001 L -38.4575,8.75602 L -38.3361,8.77402 L -38.2171,8.80384 L -38.1016,8.84516
 L -37.9908,8.89759 L -37.8855,8.96067 L -37.787,9.03373 L -37.6961,9.11613 L -37.6137,9.20701 L -37.5407,9.30555
 L -37.4776,9.41074 L -37.4251,9.52164 L -37.3838,9.63715 L -37.354,9.75614 L -37.336,9.87748 L -37.33,10
 L -37.336,10.1225 L -37.354,10.2439 L -37.3838,10.3629 L -37.4251,10.4783 L -37.4776,10.5892 L -37.5407,10.6945
 L -37.6137,10.793 L -37.6961,10.8839 L -37.787,10.9663 L -37.8855,11.0393 L -37.9908,11.1024 L -38.1016,11.1549
 L -38.2171,11.1962 L -38.3361,11.226 L -38.4575,11.244 L -38.58,11.25 z
M -140.303,11.244 L -140.424,11.226 L -140.543,11.1962 L -140.658,11.1549 L -140.769,11.1024 L -140.874,11.0393
 L -140.973,10.9663 L -141.064,10.8839 L -141.146,10.793 L -141.219,10.6945 L -141.282,10.5892 L -141.335,10.4783
 L -141.376,10.3629 L -141.406,10.2439 L -141.424,10.1225 L -141.43,10 L -141.424,9.87748 L -141.406,9.75614
 L -141.376,9.63715 L -141.335,9.52164 L -141.282,9.41074 L -141.219,9.30555 L -141.146,9.20701 L -141.064,9.11613
 L -140.973,9.03373 L -140.874,8.96067 L -140.769,8.89759 L -140.658,8.84516 L -140.543,8.80384 L -140.424,8.77402
 L -140.303,8.75602 L -140.18,8.75001 L -140.057,8.75602 L -139.936,8.77402 L -139.817,8.80384 L -139.702,8.84516
 L -139.591,8.89759 L -139.486,8.96067 L -139.387,9.03373 L -139.296,9.11613 L -139.214,9.20701 L -139.141,9.30555
 L -139.078,9.41074 L -139.025,9.52164 L -138.984,9.63715 L -138.954,9.75614 L -138.936,9.87748 L -138.93,10
 L -138.936,10.1225 L -138.954,10.2439 L -138.984,10.3629 L -139.025,10.4783 L -139.078,10.5892 L -139.141,10.6945
 L -139.214,10.793 L -139.296,10.8839 L -139.387,10.9663 L -139.486,11.0393 L -139.591,11.1024 L -139.702,11.1549
 L -139.817,11.1962 L -139.936,11.226 L -140.057,11.244 L -140.18,11.25 z
M -165.703,11.244 L -165.824,11.226 L -165.943,11.1962 L -166.058,11.1549 L -166.169,11.1024 L -166.274,11.0393
 L -166.373,10.9663 L -166.464,10.8839 L -166.546,10.793 L -166.619,10.6945 L -166.682,10.5892 L -166.735,10.4783
 L -166.776,10.3629 L -166.806,10.2439 L -166.824,10.1225 L -166.83,10 L -166.824,9.87748 L -166.806,9.75614
 L -166.776,9.63715 L -166.735,9.52164 L -166.682,9.41074 L -166.619,9.30555 L -166.546,9.20701 L -166.464,9.11613
 L -166.373,9.03373 L -166.274,8.96067 L -166.169,8.89759 L -166.058,8.84516 L -165.943,8.80384 L -165.824,8.77402
 L -165.703,8.75602 L -165.58,8.75001 L -165.457,8.75602 L -165.336,8.77402 L -165.217,8.80384 L -165.102,8.84516
 L -164.991,8.89759 L -164.886,8.96067 L -164.787,9.03373 L -164.696,9.11613 L -164.614,9.20701 L -164.541,9.30555
 L -164.478,9.41074 L -164.425,9.52164 L -164.384,9.63715 L -164.354,9.75614 L -164.336,9.87748 L -164.33,10
 L -164.336,10.1225 L -164.354,10.2439 L -164.384,10.3629 L -164.425,10.4783 L -164.478,10.5892 L -164.541,10.6945
 L -164.614,10.793 L -164.696,10.8839 L -164.787,10.9663 L -164.886,11.0393 L -164.991,11.1024 L -165.102,11.1549
 L -165.217,11.1962 L -165.336,11.226 L -165.457,11.244 L -165.58,11.25 z
M -114.903,11.244 L -115.024,11.226 L -115.143,11.1962 L -115.258,11.1549 L -115.369,11.1024 L -115.474,11.0393
 L -115.573,10.9663 L -115.664,10.8839 L -115.746,10.793 L -115.819,10.6945 L -115.882,10.5892 L -115.935,10.4783
 L -115.976,10.3629 L -116.006,10.2439 L -116.024,10.1225 L -116.03,10 L -116.024,9.87748 L -116.006,9.75614
 L -115.976,9.63715 L -115.935,9.52164 L -115.882,9.41074 L -115.819,9.30555 L -115.746,9.20701 L -115.664,9.11613
 L -115.573,9.03373 L -115.474,8.96067 L -115.369,8.89759 L -115.258,8.84516 L -115.143,8.80384 L -115.024,8.77402
 L -114.903,8.75602 L -114.78,8.75001 L -114.657,8.75602 L -114.536,8.77402 L -114.417,8.80384 L -114.302,8.84516
 L -114.191,8.89759 L -114.086,8.96067 L -113.987,9.03373 L -113.896,9.11613 L -113.814,9.20701 L -113.741,9.30555
 L -113.678,9.41074 L -113.625,9.52164 L -113.584,9.63715 L -113.554,9.75614 L -113.536,9.87748 L -113.53,10
 L -113.536,10.1225 L -113.554,10.2439 L -113.584,10.3629 L -113.625,10.4783 L -113.678,10.5892 L -113.741,10.6945
 L -113.814,10.793 L -113.896,10.8839 L -113.987,10.9663 L -114.086,11.0393 L -114.191,11.1024 L -114.302,11.1549
 L -114.417,11.1962 L -114.536,11.226 L -114.657,11.244 L -114.78,11.25 z
M -89.5025,11.244 L -89.6239,11.226 L -89.7429,11.1962 L -89.8584,11.1549 L -89.9692,11.1024 L -90.0745,11.0393
 L -90.173,10.9663 L -90.2639,10.8839 L -90.3463,10.793 L -90.4193,10.6945 L -90.4824,10.5892 L -90.5348,10.4783
 L -90.5762,10.3629 L -90.606,10.2439 L -90.624,10.1225 L -90.63,10 L -90.624,9.87748 L -90.606,9.75614
 L -90.5762,9.63715 L -90.5348,9.52164 L -90.4824,9.41074 L -90.4193,9.30555 L -90.3463,9.20701 L -90.2639,9.11613
 L -90.173,9.03373 L -90.0745,8.96067 L -89.9692,8.89759 L -89.8584,8.84516 L -89.7429,8.80384 L -89.6239,8.77402
 L -89.5025,8.75602 L -89.38,8.75001 L -89.2575,8.75602 L -89.1361,8.77402 L -89.0171,8.80384 L -88.9016,8.84516
 L -88.7907,8.89759 L -88.6855,8.96067 L -88.587,9.03373 L -88.4961,9.11613 L -88.4137,9.20701 L -88.3407,9.30555
 L -88.2776,9.41074 L -88.2252,9.52164 L -88.1838,9.63715 L -88.154,9.75614 L -88.136,9.87748 L -88.13,10
 L -88.136,10.1225 L -88.154,10.2439 L -88.1838,10.3629 L -88.2252,10.4783 L -88.2776,10.5892 L -88.3407,10.6945
 L -88.4137,10.793 L -88.4961,10.8839 L -88.587,10.9663 L -88.6855,11.0393 L -88.7907,11.1024 L -88.9016,11.1549
 L -89.0171,11.1962 L -89.1361,11.226 L -89.2575,11.244 L -89.38,11.25 z
M -63.7361,8.77402 L -63.6171,8.80384 L -63.5016,8.84516 L -63.3908,8.89759 L -63.2855,8.96067 L -63.187,9.03373
 L -63.0961,9.11613 L -63.0137,9.20701 L -62.9407,9.30555 L -62.8776,9.41074 L -62.8252,9.52164 L -62.7838,9.63715
 L -62.754,9.75614 L -62.736,9.87748 L -62.73,10 L -62.736,10.1225 L -62.754,10.2439 L -62.7838,10.3629
 L -62.8252,10.4783 L -62.8776,10.5892 L -62.9407,10.6945 L -63.0137,10.793 L -63.0961,10.8839 L -63.187,10.9663
 L -63.2855,11.0393 L -63.3908,11.1024 L -63.5016,11.1549 L -63.6171,11.1962 L -63.7361,11.226 L -63.8575,11.244
 L -63.98,11.25 L -64.1025,11.244 L -64.2239,11.226 L -64.3429,11.1962 L -64.4584,11.1549 L -64.5693,11.1024
 L -64.6745,11.0393 L -64.773,10.9663 L -64.8639,10.8839 L -64.9463,10.793 L -65.0193,10.6945 L -65.0824,10.5892
 L -65.1348,10.4783 L -65.1762,10.3629 L -65.206,10.2439 L -65.224,10.1225 L -65.23,10 L -65.224,9.87748
 L -65.206,9.75614 L -65.1762,9.63715 L -65.1348,9.52164 L -65.0824,9.41074 L -65.0193,9.30555 L -64.9463,9.20701
 L -64.8639,9.11613 L -64.773,9.03373 L -64.6745,8.96067 L -64.5693,8.89759 L -64.4584,8.84516 L -64.3429,8.80384
 L -64.2239,8.77402 L -64.1025,8.75602 L -63.98,8.75001 L -63.8575,8.75602 z
M -185.293,19.744 L -185.414,19.726 L -185.533,19.6962 L -185.648,19.6549 L -185.759,19.6024 L -185.864,19.5393
 L -185.963,19.4663 L -186.054,19.3839 L -186.136,19.293 L -186.209,19.1945 L -186.272,19.0892 L -186.325,18.9783
 L -186.366,18.8629 L -186.396,18.7439 L -186.414,18.6225 L -186.42,18.5 L -186.414,18.3775 L -186.396,18.2561
 L -186.366,18.1372 L -186.325,18.0216 L -186.272,17.9107 L -186.209,17.8055 L -186.136,17.707 L -186.054,17.6161
 L -185.963,17.5337 L -185.864,17.4607 L -185.759,17.3976 L -185.648,17.3452 L -185.533,17.3038 L -185.414,17.274
 L -185.293,17.256 L -185.17,17.25 L -185.047,17.256 L -184.926,17.274 L -184.807,17.3038 L -184.692,17.3452
 L -184.581,17.3976 L -184.476,17.4607 L -184.377,17.5337 L -184.286,17.6161 L -184.204,17.707 L -184.131,17.8055
 L -184.068,17.9107 L -184.015,18.0216 L -183.974,18.1372 L -183.944,18.2561 L -183.926,18.3775 L -183.92,18.5
 L -183.926,18.6225 L -183.944,18.7439 L -183.974,18.8629 L -184.015,18.9783 L -184.068,19.0892 L -184.131,19.1945
 L -184.204,19.293 L -184.286,19.3839 L -184.377,19.4663 L -184.476,19.5393 L -184.581,19.6024 L -184.692,19.6549
 L -184.807,19.6962 L -184.926,19.726 L -185.047,19.744 L -185.17,19.75 z
M -231.013,19.744 L -231.134,19.726 L -231.253,19.6962 L -231.368,19.6549 L -231.479,19.6024 L -231.584,19.5393
 L -231.683,19.4663 L -231.774,19.3839 L -231.856,19.293 L -231.929,19.1945 L -231.992,19.0892 L -232.045,18.9783
 L -232.086,18.8629 L -232.116,18.7439 L -232.134,18.6225 L -232.14,18.5 L -232.134,18.3775 L -232.116,18.2561
 L -232.086,18.1372 L -232.045,18.0216 L -231.992,17.9107 L -231.929,17.8055 L -231.856,17.707 L -231.774,17.6161
 L -231.683,17.5337 L -231.584,17.4607 L -231.479,17.3976 L -231.368,17.3452 L -231.253,17.3038 L -231.134,17.274
 L -231.013,17.256 L -230.89,17.25 L -230.767,17.256 L -230.646,17.274 L -230.527,17.3038 L -230.412,17.3452
 L -230.301,17.3976 L -230.196,17.4607 L -230.097,17.5337 L -230.006,17.6161 L -229.924,17.707 L -229.851,17.8055
 L -229.788,17.9107 L -229.735,18.0216 L -229.694,18.1372 L -229.664,18.2561 L -229.646,18.3775 L -229.64,18.5
 L -229.646,18.6225 L -229.664,18.7439 L -229.694,18.8629 L -229.735,18.9783 L -229.788,19.0892 L -229.851,19.1945
 L -229.924,19.293 L -230.006,19.3839 L -230.097,19.4663 L -230.196,19.5393 L -230.301,19.6024 L -230.412,19.6549
 L -230.527,19.6962 L -230.646,19.726 L -230.767,19.744 L -230.89,19.75 z
M -27.8125,19.744 L -27.9339,19.726 L -28.0529,19.6962 L -28.1684,19.6549 L -28.2792,19.6024 L -28.3845,19.5393
 L -28.483,19.4663 L -28.5739,19.3839 L -28.6563,19.293 L -28.7293,19.1945 L -28.7924,19.0892 L -28.8449,18.9783
 L -28.8862,18.8629 L -28.916,18.7439 L -28.934,18.6225 L -28.94,18.5 L -28.934,18.3775 L -28.916,18.2561
 L -28.8862,18.1372 L -28.8449,18.0216 L -28.7924,17.9107 L -28.7293,17.8055 L -28.6563,17.707 L -28.5739,17.6161
 L -28.483,17.5337 L -28.3845,17.4607 L -28.2792,17.3976 L -28.1684,17.3452 L -28.0529,17.3038 L -27.9339,17.274
 L -27.8125,17.256 L -27.69,17.25 L -27.5675,17.256 L -27.4461,17.274 L -27.3271,17.3038 L -27.2116,17.3452
 L -27.1008,17.3976 L -26.9955,17.4607 L -26.897,17.5337 L -26.8061,17.6161 L -26.7237,17.707 L -26.6507,17.8055
 L -26.5876,17.9107 L -26.5351,18.0216 L -26.4938,18.1372 L -26.464,18.2561 L -26.446,18.3775 L -26.44,18.5
 L -26.446,18.6225 L -26.464,18.7439 L -26.4938,18.8629 L -26.5351,18.9783 L -26.5876,19.0892 L -26.6507,19.1945
 L -26.7237,19.293 L -26.8061,19.3839 L -26.897,19.4663 L -26.9955,19.5393 L -27.1008,19.6024 L -27.2116,19.6549
 L -27.3271,19.6962 L -27.4461,19.726 L -27.5675,19.744 L -27.69,19.75 z
M -287.303,34.424 L -287.424,34.406 L -287.543,34.3762 L -287.658,34.3348 L -287.769,34.2824 L -287.874,34.2193
 L -287.973,34.1463 L -288.064,34.0639 L -288.146,33.973 L -288.219,33.8745 L -288.282,33.7692 L -288.335,33.6583
 L -288.376,33.5429 L -288.406,33.4239 L -288.424,33.3025 L -288.43,33.18 L -288.424,33.0575 L -288.406,32.9361
 L -288.376,32.8171 L -288.335,32.7017 L -288.282,32.5908 L -288.219,32.4855 L -288.146,32.387 L -288.064,32.2961
 L -287.973,32.2137 L -287.874,32.1407 L -287.769,32.0776 L -287.658,32.0252 L -287.543,31.9838 L -287.424,31.954
 L -287.303,31.936 L -287.18,31.93 L -287.057,31.936 L -286.936,31.954 L -286.817,31.9838 L -286.702,32.0252
 L -286.591,32.0776 L -286.486,32.1407 L -286.387,32.2137 L -286.296,32.2961 L -286.214,32.387 L -286.141,32.4855
 L -286.078,32.5908 L -286.025,32.7017 L -285.984,32.8171 L -285.954,32.9361 L -285.936,33.0575 L -285.93,33.18
 L -285.936,33.3025 L -285.954,33.4239 L -285.984,33.5429 L -286.025,33.6583 L -286.078,33.7692 L -286.141,33.8745
 L -286.214,33.973 L -286.296,34.0639 L -286.387,34.1463 L -286.486,34.2193 L -286.591,34.2824 L -286.702,34.3348
 L -286.817,34.3762 L -286.936,34.406 L -287.057,34.424 L -287.18,34.43 z
M -10.1225,34.424 L -10.2439,34.406 L -10.3629,34.3762 L -10.4783,34.3348 L -10.5892,34.2824 L -10.6945,34.2193
 L -10.793,34.1463 L -10.8839,34.0639 L -10.9663,33.973 L -11.0393,33.8745 L -11.1024,33.7692 L -11.1549,33.6583
 L -11.1962,33.5429 L -11.226,33.4239 L -11.244,33.3025 L -11.25,33.18 L -11.244,33.0575 L -11.226,32.9361
 L -11.1962,32.8171 L -11.1549,32.7017 L -11.1024,32.5908 L -11.0393,32.4855 L -10.9663,32.387 L -10.8839,32.2961
 L -10.793,32.2137 L -10.6945,32.1407 L -10.5892,32.0776 L -10.4783,32.0252 L -10.3629,31.9838 L -10.2439,31.954
 L -10.1225,31.936 L -10,31.93 L -9.87748,31.936 L -9.75614,31.954 L -9.63715,31.9838 L -9.52164,32.0252
 L -9.41074,32.0776 L -9.30555,32.1407 L -9.20701,32.2137 L -9.11613,32.2961 L -9.03373,32.387 L -8.96067,32.4855
 L -8.89759,32.5908 L -8.84516,32.7017 L -8.80384,32.8171 L -8.77402,32.9361 L -8.75602,33.0575 L -8.75001,33.18
 L -8.75602,33.3025 L -8.77402,33.4239 L -8.80384,33.5429 L -8.84516,33.6583 L -8.89759,33.7692 L -8.96067,33.8745
 L -9.03373,33.973 L -9.11613,34.0639 L -9.20701,34.1463 L -9.30555,34.2193 L -9.41074,34.2824 L -9.52164,34.3348
 L -9.63715,34.3762 L -9.75614,34.406 L -9.87748,34.424 L -10,34.43 z
M -10.1225,59.824 L -10.2439,59.806 L -10.3629,59.7762 L -10.4783,59.7349 L -10.5892,59.6824 L -10.6945,59.6193
 L -10.793,59.5463 L -10.8839,59.4639 L -10.9663,59.373 L -11.0393,59.2745 L -11.1024,59.1692 L -11.1549,59.0584
 L -11.1962,58.9429 L -11.226,58.8239 L -11.244,58.7025 L -11.25,58.58 L -11.244,58.4575 L -11.226,58.3361
 L -11.1962,58.2171 L -11.1549,58.1016 L -11.1024,57.9908 L -11.0393,57.8855 L -10.9663,57.787 L -10.8839,57.6961
 L -10.793,57.6137 L -10.6945,57.5407 L -10.5892,57.4776 L -10.4783,57.4251 L -10.3629,57.3838 L -10.2439,57.354
 L -10.1225,57.336 L -10,57.33 L -9.87748,57.336 L -9.75614,57.354 L -9.63715,57.3838 L -9.52164,57.4251
 L -9.41074,57.4776 L -9.30555,57.5407 L -9.20701,57.6137 L -9.11613,57.6961 L -9.03373,57.787 L -8.96067,57.8855
 L -8.89759,57.9908 L -8.84516,58.1016 L -8.80384,58.2171 L -8.77402,58.3361 L -8.75602,58.4575 L -8.75001,58.58
 L -8.75602,58.7025 L -8.77402,58.8239 L -8.80384,58.9429 L -8.84516,59.0584 L -8.89759,59.1692 L -8.96067,59.2745
 L -9.03373,59.373 L -9.11613,59.4639 L -9.20701,59.5463 L -9.30555,59.6193 L -9.41074,59.6824 L -9.52164,59.7349
 L -9.63715,59.7762 L -9.75614,59.806 L -9.87748,59.824 L -10,59.83 z
M -287.303,59.824 L -287.424,59.806 L -287.543,59.7762 L -287.658,59.7349 L -287.769,59.6824 L -287.874,59.6193
 L -287.973,59.5463 L -288.064,59.4639 L -288.146,59.373 L -288.219,59.2745 L -288.282,59.1692 L -288.335,59.0584
 L -288.376,58.9429 L -288.406,58.8239 L -288.424,58.7025 L -288.43,58.58 L -288.424,58.4575 L -288.406,58.3361
 L -288.376,58.2171 L -288.335,58.1016 L -288.282,57.9908 L -288.219,57.8855 L -288.146,57.787 L -288.064,57.6961
 L -287.973,57.6137 L -287.874,57.5407 L -287.769,57.4776 L -287.658,57.4251 L -287.543,57.3838 L -287.424,57.354
 L -287.303,57.336 L -287.18,57.33 L -287.057,57.336 L -286.936,57.354 L -286.817,57.3838 L -286.702,57.4251
 L -286.591,57.4776 L -286.486,57.5407 L -286.387,57.6137 L -286.296,57.6961 L -286.214,57.787 L -286.141,57.8855
 L -286.078,57.9908 L -286.025,58.1016 L -285.984,58.2171 L -285.954,58.3361 L -285.936,58.4575 L -285.93,58.58
 L -285.936,58.7025 L -285.954,58.8239 L -285.984,58.9429 L -286.025,59.0584 L -286.078,59.1692 L -286.141,59.2745
 L -286.214,59.373 L -286.296,59.4639 L -286.387,59.5463 L -286.486,59.6193 L -286.591,59.6824 L -286.702,59.7349
 L -286.817,59.7762 L -286.936,59.806 L -287.057,59.824 L -287.18,59.83 z
M -287.303,85.224 L -287.424,85.206 L -287.543,85.1762 L -287.658,85.1348 L -287.769,85.0824 L -287.874,85.0193
 L -287.973,84.9463 L -288.064,84.8639 L -288.146,84.773 L -288.219,84.6745 L -288.282,84.5693 L -288.335,84.4584
 L -288.376,84.3429 L -288.406,84.2239 L -288.424,84.1025 L -288.43,83.98 L -288.424,83.8575 L -288.406,83.7361
 L -288.376,83.6171 L -288.335,83.5016 L -288.282,83.3908 L -288.219,83.2855 L -288.146,83.187 L -288.064,83.0961
 L -287.973,83.0137 L -287.874,82.9407 L -287.769,82.8776 L -287.658,82.8252 L -287.543,82.7838 L -287.424,82.754
 L -287.303,82.736 L -287.18,82.73 L -287.057,82.736 L -286.936,82.754 L -286.817,82.7838 L -286.702,82.8252
 L -286.591,82.8776 L -286.486,82.9407 L -286.387,83.0137 L -286.296,83.0961 L -286.214,83.187 L -286.141,83.2855
 L -286.078,83.3908 L -286.025,83.5016 L -285.984,83.6171 L -285.954,83.7361 L -285.936,83.8575 L -285.93,83.98
 L -285.936,84.1025 L -285.954,84.2239 L -285.984,84.3429 L -286.025,84.4584 L -286.078,84.5693 L -286.141,84.6745
 L -286.214,84.773 L -286.296,84.8639 L -286.387,84.9463 L -286.486,85.0193 L -286.591,85.0824 L -286.702,85.1348
 L -286.817,85.1762 L -286.936,85.206 L -287.057,85.224 L -287.18,85.23 z
M -10.1225,85.224 L -10.2439,85.206 L -10.3629,85.1762 L -10.4783,85.1348 L -10.5892,85.0824 L -10.6945,85.0193
 L -10.793,84.9463 L -10.8839,84.8639 L -10.9663,84.773 L -11.0393,84.6745 L -11.1024,84.5693 L -11.1549,84.4584
 L -11.1962,84.3429 L -11.226,84.2239 L -11.244,84.1025 L -11.25,83.98 L -11.244,83.8575 L -11.226,83.7361
 L -11.1962,83.6171 L -11.1549,83.5016 L -11.1024,83.3908 L -11.0393,83.2855 L -10.9663,83.187 L -10.8839,83.0961
 L -10.793,83.0137 L -10.6945,82.9407 L -10.5892,82.8776 L -10.4783,82.8252 L -10.3629,82.7838 L -10.2439,82.754
 L -10.1225,82.736 L -10,82.73 L -9.87748,82.736 L -9.75614,82.754 L -9.63715,82.7838 L -9.52164,82.8252
 L -9.41074,82.8776 L -9.30555,82.9407 L -9.20701,83.0137 L -9.11613,83.0961 L -9.03373,83.187 L -8.96067,83.2855
 L -8.89759,83.3908 L -8.84516,83.5016 L -8.80384,83.6171 L -8.77402,83.7361 L -8.75602,83.8575 L -8.75001,83.98
 L -8.75602,84.1025 L -8.77402,84.2239 L -8.80384,84.3429 L -8.84516,84.4584 L -8.89759,84.5693 L -8.96067,84.6745
 L -9.03373,84.773 L -9.11613,84.8639 L -9.20701,84.9463 L -9.30555,85.0193 L -9.41074,85.0824 L -9.52164,85.1348
 L -9.63715,85.1762 L -9.75614,85.206 L -9.87748,85.224 L -10,85.23 z
M -287.303,110.624 L -287.424,110.606 L -287.543,110.576 L -287.658,110.535 L -287.769,110.482 L -287.874,110.419
 L -287.973,110.346 L -288.064,110.264 L -288.146,110.173 L -288.219,110.074 L -288.282,109.969 L -288.335,109.858
 L -288.376,109.743 L -288.406,109.624 L -288.424,109.503 L -288.43,109.38 L -288.424,109.257 L -288.406,109.136
 L -288.376,109.017 L -288.335,108.902 L -288.282,108.791 L -288.219,108.686 L -288.146,108.587 L -288.064,108.496
 L -287.973,108.414 L -287.874,108.341 L -287.769,108.278 L -287.658,108.225 L -287.543,108.184 L -287.424,108.154
 L -287.303,108.136 L -287.18,108.13 L -287.057,108.136 L -286.936,108.154 L -286.817,108.184 L -286.702,108.225
 L -286.591,108.278 L -286.486,108.341 L -286.387,108.414 L -286.296,108.496 L -286.214,108.587 L -286.141,108.686
 L -286.078,108.791 L -286.025,108.902 L -285.984,109.017 L -285.954,109.136 L -285.936,109.257 L -285.93,109.38
 L -285.936,109.503 L -285.954,109.624 L -285.984,109.743 L -286.025,109.858 L -286.078,109.969 L -286.141,110.074
 L -286.214,110.173 L -286.296,110.264 L -286.387,110.346 L -286.486,110.419 L -286.591,110.482 L -286.702,110.535
 L -286.817,110.576 L -286.936,110.606 L -287.057,110.624 L -287.18,110.63 z
M -10.1225,110.624 L -10.2439,110.606 L -10.3629,110.576 L -10.4783,110.535 L -10.5892,110.482 L -10.6945,110.419
 L -10.793,110.346 L -10.8839,110.264 L -10.9663,110.173 L -11.0393,110.074 L -11.1024,109.969 L -11.1549,109.858
 L -11.1962,109.743 L -11.226,109.624 L -11.244,109.503 L -11.25,109.38 L -11.244,109.257 L -11.226,109.136
 L -11.1962,109.017 L -11.1549,108.902 L -11.1024,108.791 L -11.0393,108.686 L -10.9663,108.587 L -10.8839,108.496
 L -10.793,108.414 L -10.6945,108.341 L -10.5892,108.278 L -10.4783,108.225 L -10.3629,108.184 L -10.2439,108.154
 L -10.1225,108.136 L -10,108.13 L -9.87748,108.136 L -9.75614,108.154 L -9.63715,108.184 L -9.52164,108.225
 L -9.41074,108.278 L -9.30555,108.341 L -9.20701,108.414 L -9.11613,108.496 L -9.03373,108.587 L -8.96067,108.686
 L -8.89759,108.791 L -8.84516,108.902 L -8.80384,109.017 L -8.77402,109.136 L -8.75602,109.257 L -8.75001,109.38
 L -8.75602,109.503 L -8.77402,109.624 L -8.80384,109.743 L -8.84516,109.858 L -8.89759,109.969 L -8.96067,110.074
 L -9.03373,110.173 L -9.11613,110.264 L -9.20701,110.346 L -9.30555,110.419 L -9.41074,110.482 L -9.52164,110.535
 L -9.63715,110.576 L -9.75614,110.606 L -9.87748,110.624 L -10,110.63 z
M -287.303,136.024 L -287.424,136.006 L -287.543,135.976 L -287.658,135.935 L -287.769,135.882 L -287.874,135.819
 L -287.973,135.746 L -288.064,135.664 L -288.146,135.573 L -288.219,135.474 L -288.282,135.369 L -288.335,135.258
 L -288.376,135.143 L -288.406,135.024 L -288.424,134.903 L -288.43,134.78 L -288.424,134.657 L -288.406,134.536
 L -288.376,134.417 L -288.335,134.302 L -288.282,134.191 L -288.219,134.086 L -288.146,133.987 L -288.064,133.896
 L -287.973,133.814 L -287.874,133.741 L -287.769,133.678 L -287.658,133.625 L -287.543,133.584 L -287.424,133.554
 L -287.303,133.536 L -287.18,133.53 L -287.057,133.536 L -286.936,133.554 L -286.817,133.584 L -286.702,133.625
 L -286.591,133.678 L -286.486,133.741 L -286.387,133.814 L -286.296,133.896 L -286.214,133.987 L -286.141,134.086
 L -286.078,134.191 L -286.025,134.302 L -285.984,134.417 L -285.954,134.536 L -285.936,134.657 L -285.93,134.78
 L -285.936,134.903 L -285.954,135.024 L -285.984,135.143 L -286.025,135.258 L -286.078,135.369 L -286.141,135.474
 L -286.214,135.573 L -286.296,135.664 L -286.387,135.746 L -286.486,135.819 L -286.591,135.882 L -286.702,135.935
 L -286.817,135.976 L -286.936,136.006 L -287.057,136.024 L -287.18,136.03 z
M -10.1225,136.024 L -10.2439,136.006 L -10.3629,135.976 L -10.4783,135.935 L -10.5892,135.882 L -10.6945,135.819
 L -10.793,135.746 L -10.8839,135.664 L -10.9663,135.573 L -11.0393,135.474 L -11.1024,135.369 L -11.1549,135.258
 L -11.1962,135.143 L -11.226,135.024 L -11.244,134.903 L -11.25,134.78 L -11.244,134.657 L -11.226,134.536
 L -11.1962,134.417 L -11.1549,134.302 L -11.1024,134.191 L -11.0393,134.086 L -10.9663,133.987 L -10.8839,133.896
 L -10.793,133.814 L -10.6945,133.741 L -10.5892,133.678 L -10.4783,133.625 L -10.3629,133.584 L -10.2439,133.554
 L -10.1225,133.536 L -10,133.53 L -9.87748,133.536 L -9.75614,133.554 L -9.63715,133.584 L -9.52164,133.625
 L -9.41074,133.678 L -9.30555,133.741 L -9.20701,133.814 L -9.11613,133.896 L -9.03373,133.987 L -8.96067,134.086
 L -8.89759,134.191 L -8.84516,134.302 L -8.80384,134.417 L -8.77402,134.536 L -8.75602,134.657 L -8.75001,134.78
 L -8.75602,134.903 L -8.77402,135.024 L -8.80384,135.143 L -8.84516,135.258 L -8.89759,135.369 L -8.96067,135.474
 L -9.03373,135.573 L -9.11613,135.664 L -9.20701,135.746 L -9.30555,135.819 L -9.41074,135.882 L -9.52164,135.935
 L -9.63715,135.976 L -9.75614,136.006 L -9.87748,136.024 L -10,136.03 z
M -10.1225,161.424 L -10.2439,161.406 L -10.3629,161.376 L -10.4783,161.335 L -10.5892,161.282 L -10.6945,161.219
 L -10.793,161.146 L -10.8839,161.064 L -10.9663,160.973 L -11.0393,160.874 L -11.1024,160.769 L -11.1549,160.658
 L -11.1962,160.543 L -11.226,160.424 L -11.244,160.303 L -11.25,160.18 L -11.244,160.057 L -11.226,159.936
 L -11.1962,159.817 L -11.1549,159.702 L -11.1024,159.591 L -11.0393,159.486 L -10.9663,159.387 L -10.8839,159.296
 L -10.793,159.214 L -10.6945,159.141 L -10.5892,159.078 L -10.4783,159.025 L -10.3629,158.984 L -10.2439,158.954
 L -10.1225,158.936 L -10,158.93 L -9.87748,158.936 L -9.75614,158.954 L -9.63715,158.984 L -9.52164,159.025
 L -9.41074,159.078 L -9.30555,159.141 L -9.20701,159.214 L -9.11613,159.296 L -9.03373,159.387 L -8.96067,159.486
 L -8.89759,159.591 L -8.84516,159.702 L -8.80384,159.817 L -8.77402,159.936 L -8.75602,160.057 L -8.75001,160.18
 L -8.75602,160.303 L -8.77402,160.424 L -8.80384,160.543 L -8.84516,160.658 L -8.89759,160.769 L -8.96067,160.874
 L -9.03373,160.973 L -9.11613,161.064 L -9.20701,161.146 L -9.30555,161.219 L -9.41074,161.282 L -9.52164,161.335
 L -9.63715,161.376 L -9.75614,161.406 L -9.87748,161.424 L -10,161.43 z
M -287.303,161.424 L -287.424,161.406 L -287.543,161.376 L -287.658,161.335 L -287.769,161.282 L -287.874,161.219
 L -287.973,161.146 L -288.064,161.064 L -288.146,160.973 L -288.219,160.874 L -288.282,160.769 L -288.335,160.658
 L -288.376,160.543 L -288.406,160.424 L -288.424,160.303 L -288.43,160.18 L -288.424,160.057 L -288.406,159.936
 L -288.376,159.817 L -288.335,159.702 L -288.282,159.591 L -288.219,159.486 L -288.146,159.387 L -288.064,159.296
 L -287.973,159.214 L -287.874,159.141 L -287.769,159.078 L -287.658,159.025 L -287.543,158.984 L -287.424,158.954
 L -287.303,158.936 L -287.18,158.93 L -287.057,158.936 L -286.936,158.954 L -286.817,158.984 L -286.702,159.025
 L -286.591,159.078 L -286.486,159.141 L -286.387,159.214 L -286.296,159.296 L -286.214,159.387 L -286.141,159.486
 L -286.078,159.591 L -286.025,159.702 L -285.984,159.817 L -285.954,159.936 L -285.936,160.057 L -285.93,160.18
 L -285.936,160.303 L -285.954,160.424 L -285.984,160.543 L -286.025,160.658 L -286.078,160.769 L -286.141,160.874
 L -286.214,160.973 L -286.296,161.064 L -286.387,161.146 L -286.486,161.219 L -286.591,161.282 L -286.702,161.335
 L -286.817,161.376 L -286.936,161.406 L -287.057,161.424 L -287.18,161.43 z
M -185.293,174.684 L -185.414,174.666 L -185.533,174.636 L -185.648,174.595 L -185.759,174.542 L -185.864,174.479
 L -185.963,174.406 L -186.054,174.324 L -186.136,174.233 L -186.209,174.134 L -186.272,174.029 L -186.325,173.918
 L -186.366,173.803 L -186.396,173.684 L -186.414,173.563 L -186.42,173.44 L -186.414,173.317 L -186.396,173.196
 L -186.366,173.077 L -186.325,172.962 L -186.272,172.851 L -186.209,172.746 L -186.136,172.647 L -186.054,172.556
 L -185.963,172.474 L -185.864,172.401 L -185.759,172.338 L -185.648,172.285 L -185.533,172.244 L -185.414,172.214
 L -185.293,172.196 L -185.17,172.19 L -185.047,172.196 L -184.926,172.214 L -184.807,172.244 L -184.692,172.285
 L -184.581,172.338 L -184.476,172.401 L -184.377,172.474 L -184.286,172.556 L -184.204,172.647 L -184.131,172.746
 L -184.068,172.851 L -184.015,172.962 L -183.974,173.077 L -183.944,173.196 L -183.926,173.317 L -183.92,173.44
 L -183.926,173.563 L -183.944,173.684 L -183.974,173.803 L -184.015,173.918 L -184.068,174.029 L -184.131,174.134
 L -184.204,174.233 L -184.286,174.324 L -184.377,174.406 L -184.476,174.479 L -184.581,174.542 L -184.692,174.595
 L -184.807,174.636 L -184.926,174.666 L -185.047,174.684 L -185.17,174.69 z
M -231.013,174.684 L -231.134,174.666 L -231.253,174.636 L -231.368,174.595 L -231.479,174.542 L -231.584,174.479
 L -231.683,174.406 L -231.774,174.324 L -231.856,174.233 L -231.929,174.134 L -231.992,174.029 L -232.045,173.918
 L -232.086,173.803 L -232.116,173.684 L -232.134,173.563 L -232.14,173.44 L -232.134,173.317 L -232.116,173.196
 L -232.086,173.077 L -232.045,172.962 L -231.992,172.851 L -231.929,172.746 L -231.856,172.647 L -231.774,172.556
 L -231.683,172.474 L -231.584,172.401 L -231.479,172.338 L -231.368,172.285 L -231.253,172.244 L -231.134,172.214
 L -231.013,172.196 L -230.89,172.19 L -230.767,172.196 L -230.646,172.214 L -230.527,172.244 L -230.412,172.285
 L -230.301,172.338 L -230.196,172.401 L -230.097,172.474 L -230.006,172.556 L -229.924,172.647 L -229.851,172.746
 L -229.788,172.851 L -229.735,172.962 L -229.694,173.077 L -229.664,173.196 L -229.646,173.317 L -229.64,173.44
 L -229.646,173.563 L -229.664,173.684 L -229.694,173.803 L -229.735,173.918 L -229.788,174.029 L -229.851,174.134
 L -229.924,174.233 L -230.006,174.324 L -230.097,174.406 L -230.196,174.479 L -230.301,174.542 L -230.412,174.595
 L -230.527,174.636 L -230.646,174.666 L -230.767,174.684 L -230.89,174.69 z
M -27.8125,174.684 L -27.9339,174.666 L -28.0529,174.636 L -28.1684,174.595 L -28.2792,174.542 L -28.3845,174.479
 L -28.483,174.406 L -28.5739,174.324 L -28.6563,174.233 L -28.7293,174.134 L -28.7924,174.029 L -28.8449,173.918
 L -28.8862,173.803 L -28.916,173.684 L -28.934,173.563 L -28.94,173.44 L -28.934,173.317 L -28.916,173.196
 L -28.8862,173.077 L -28.8449,172.962 L -28.7924,172.851 L -28.7293,172.746 L -28.6563,172.647 L -28.5739,172.556
 L -28.483,172.474 L -28.3845,172.401 L -28.2792,172.338 L -28.1684,172.285 L -28.0529,172.244 L -27.9339,172.214
 L -27.8125,172.196 L -27.69,172.19 L -27.5675,172.196 L -27.4461,172.214 L -27.3271,172.244 L -27.2116,172.285
 L -27.1008,172.338 L -26.9955,172.401 L -26.897,172.474 L -26.8061,172.556 L -26.7237,172.647 L -26.6507,172.746
 L -26.5876,172.851 L -26.5351,172.962 L -26.4938,173.077 L -26.464,173.196 L -26.446,173.317 L -26.44,173.44
 L -26.446,173.563 L -26.464,173.684 L -26.4938,173.803 L -26.5351,173.918 L -26.5876,174.029 L -26.6507,174.134
 L -26.7237,174.233 L -26.8061,174.324 L -26.897,174.406 L -26.9955,174.479 L -27.1008,174.542 L -27.2116,174.595
 L -27.3271,174.636 L -27.4461,174.666 L -27.5675,174.684 L -27.69,174.69 z
M -251.333,174.684 L -251.454,174.666 L -251.573,174.636 L -251.688,174.595 L -251.799,174.542 L -251.904,174.479
 L -252.003,174.406 L -252.094,174.324 L -252.176,174.233 L -252.249,174.134 L -252.312,174.029 L -252.365,173.918
 L -252.406,173.803 L -252.436,173.684 L -252.454,173.563 L -252.46,173.44 L -252.454,173.317 L -252.436,173.196
 L -252.406,173.077 L -252.365,172.962 L -252.312,172.851 L -252.249,172.746 L -252.176,172.647 L -252.094,172.556
 L -252.003,172.474 L -251.904,172.401 L -251.799,172.338 L -251.688,172.285 L -251.573,172.244 L -251.454,172.214
 L -251.333,172.196 L -251.21,172.19 L -251.087,172.196 L -250.966,172.214 L -250.847,172.244 L -250.732,172.285
 L -250.621,172.338 L -250.516,172.401 L -250.417,172.474 L -250.326,172.556 L -250.244,172.647 L -250.171,172.746
 L -250.108,172.851 L -250.055,172.962 L -250.014,173.077 L -249.984,173.196 L -249.966,173.317 L -249.96,173.44
 L -249.966,173.563 L -249.984,173.684 L -250.014,173.803 L -250.055,173.918 L -250.108,174.029 L -250.171,174.134
 L -250.244,174.233 L -250.326,174.324 L -250.417,174.406 L -250.516,174.479 L -250.621,174.542 L -250.732,174.595
 L -250.847,174.636 L -250.966,174.666 L -251.087,174.684 L -251.21,174.69 z
M -10.1225,186.824 L -10.2439,186.806 L -10.3629,186.776 L -10.4783,186.735 L -10.5892,186.682 L -10.6945,186.619
 L -10.793,186.546 L -10.8839,186.464 L -10.9663,186.373 L -11.0393,186.274 L -11.1024,186.169 L -11.1549,186.058
 L -11.1962,185.943 L -11.226,185.824 L -11.244,185.703 L -11.25,185.58 L -11.244,185.457 L -11.226,185.336
 L -11.1962,185.217 L -11.1549,185.102 L -11.1024,184.991 L -11.0393,184.886 L -10.9663,184.787 L -10.8839,184.696
 L -10.793,184.614 L -10.6945,184.541 L -10.5892,184.478 L -10.4783,184.425 L -10.3629,184.384 L -10.2439,184.354
 L -10.1225,184.336 L -10,184.33 L -9.87748,184.336 L -9.75614,184.354 L -9.63715,184.384 L -9.52164,184.425
 L -9.41074,184.478 L -9.30555,184.541 L -9.20701,184.614 L -9.11613,184.696 L -9.03373,184.787 L -8.96067,184.886
 L -8.89759,184.991 L -8.84516,185.102 L -8.80384,185.217 L -8.77402,185.336 L -8.75602,185.457 L -8.75001,185.58
 L -8.75602,185.703 L -8.77402,185.824 L -8.80384,185.943 L -8.84516,186.058 L -8.89759,186.169 L -8.96067,186.274
 L -9.03373,186.373 L -9.11613,186.464 L -9.20701,186.546 L -9.30555,186.619 L -9.41074,186.682 L -9.52164,186.735
 L -9.63715,186.776 L -9.75614,186.806 L -9.87748,186.824 L -10,186.83 z
M -287.303,186.824 L -287.424,186.806 L -287.543,186.776 L -287.658,186.735 L -287.769,186.682 L -287.874,186.619
 L -287.973,186.546 L -288.064,186.464 L -288.146,186.373 L -288.219,186.274 L -288.282,186.169 L -288.335,186.058
 L -288.376,185.943 L -288.406,185.824 L -288.424,185.703 L -288.43,185.58 L -288.424,185.457 L -288.406,185.336
 L -288.376,185.217 L -288.335,185.102 L -288.282,184.991 L -288.219,184.886 L -288.146,184.787 L -288.064,184.696
 L -287.973,184.614 L -287.874,184.541 L -287.769,184.478 L -287.658,184.425 L -287.543,184.384 L -287.424,184.354
 L -287.303,184.336 L -287.18,184.33 L -287.057,184.336 L -286.936,184.354 L -286.817,184.384 L -286.702,184.425
 L -286.591,184.478 L -286.486,184.541 L -286.387,184.614 L -286.296,184.696 L -286.214,184.787 L -286.141,184.886
 L -286.078,184.991 L -286.025,185.102 L -285.984,185.217 L -285.954,185.336 L -285.936,185.457 L -285.93,185.58
 L -285.936,185.703 L -285.954,185.824 L -285.984,185.943 L -286.025,186.058 L -286.078,186.169 L -286.141,186.274
 L -286.214,186.373 L -286.296,186.464 L -286.387,186.546 L -286.486,186.619 L -286.591,186.682 L -286.702,186.735
 L -286.817,186.776 L -286.936,186.806 L -287.057,186.824 L -287.18,186.83 z
M -287.303,212.224 L -287.424,212.206 L -287.543,212.176 L -287.658,212.135 L -287.769,212.082 L -287.874,212.019
 L -287.973,211.946 L -288.064,211.864 L -288.146,211.773 L -288.219,211.674 L -288.282,211.569 L -288.335,211.458
 L -288.376,211.343 L -288.406,211.224 L -288.424,211.103 L -288.43,210.98 L -288.424,210.857 L -288.406,210.736
 L -288.376,210.617 L -288.335,210.502 L -288.282,210.391 L -288.219,210.286 L -288.146,210.187 L -288.064,210.096
 L -287.973,210.014 L -287.874,209.941 L -287.769,209.878 L -287.658,209.825 L -287.543,209.784 L -287.424,209.754
 L -287.303,209.736 L -287.18,209.73 L -287.057,209.736 L -286.936,209.754 L -286.817,209.784 L -286.702,209.825
 L -286.591,209.878 L -286.486,209.941 L -286.387,210.014 L -286.296,210.096 L -286.214,210.187 L -286.141,210.286
 L -286.078,210.391 L -286.025,210.502 L -285.984,210.617 L -285.954,210.736 L -285.936,210.857 L -285.93,210.98
 L -285.936,211.103 L -285.954,211.224 L -285.984,211.343 L -286.025,211.458 L -286.078,211.569 L -286.141,211.674
 L -286.214,211.773 L -286.296,211.864 L -286.387,211.946 L -286.486,212.019 L -286.591,212.082 L -286.702,212.135
 L -286.817,212.176 L -286.936,212.206 L -287.057,212.224 L -287.18,212.23 z
M -10.1225,212.224 L -10.2439,212.206 L -10.3629,212.176 L -10.4783,212.135 L -10.5892,212.082 L -10.6945,212.019
 L -10.793,211.946 L -10.8839,211.864 L -10.9663,211.773 L -11.0393,211.674 L -11.1024,211.569 L -11.1549,211.458
 L -11.1962,211.343 L -11.226,211.224 L -11.244,211.103 L -11.25,210.98 L -11.244,210.857 L -11.226,210.736
 L -11.1962,210.617 L -11.1549,210.502 L -11.1024,210.391 L -11.0393,210.286 L -10.9663,210.187 L -10.8839,210.096
 L -10.793,210.014 L -10.6945,209.941 L -10.5892,209.878 L -10.4783,209.825 L -10.3629,209.784 L -10.2439,209.754
 L -10.1225,209.736 L -10,209.73 L -9.87748,209.736 L -9.75614,209.754 L -9.63715,209.784 L -9.52164,209.825
 L -9.41074,209.878 L -9.30555,209.941 L -9.20701,210.014 L -9.11613,210.096 L -9.03373,210.187 L -8.96067,210.286
 L -8.89759,210.391 L -8.84516,210.502 L -8.80384,210.617 L -8.77402,210.736 L -8.75602,210.857 L -8.75001,210.98
 L -8.75602,211.103 L -8.77402,211.224 L -8.80384,211.343 L -8.84516,211.458 L -8.89759,211.569 L -8.96067,211.674
 L -9.03373,211.773 L -9.11613,211.864 L -9.20701,211.946 L -9.30555,212.019 L -9.41074,212.082 L -9.52164,212.135
 L -9.63715,212.176 L -9.75614,212.206 L -9.87748,212.224 L -10,212.23 z
M -10.1225,237.624 L -10.2439,237.606 L -10.3629,237.576 L -10.4783,237.535 L -10.5892,237.482 L -10.6945,237.419
 L -10.793,237.346 L -10.8839,237.264 L -10.9663,237.173 L -11.0393,237.074 L -11.1024,236.969 L -11.1549,236.858
 L -11.1962,236.743 L -11.226,236.624 L -11.244,236.503 L -11.25,236.38 L -11.244,236.257 L -11.226,236.136
 L -11.1962,236.017 L -11.1549,235.902 L -11.1024,235.791 L -11.0393,235.686 L -10.9663,235.587 L -10.8839,235.496
 L -10.793,235.414 L -10.6945,235.341 L -10.5892,235.278 L -10.4783,235.225 L -10.3629,235.184 L -10.2439,235.154
 L -10.1225,235.136 L -10,235.13 L -9.87748,235.136 L -9.75614,235.154 L -9.63715,235.184 L -9.52164,235.225
 L -9.41074,235.278 L -9.30555,235.341 L -9.20701,235.414 L -9.11613,235.496 L -9.03373,235.587 L -8.96067,235.686
 L -8.89759,235.791 L -8.84516,235.902 L -8.80384,236.017 L -8.77402,236.136 L -8.75602,236.257 L -8.75001,236.38
 L -8.75602,236.503 L -8.77402,236.624 L -8.80384,236.743 L -8.84516,236.858 L -8.89759,236.969 L -8.96067,237.074
 L -9.03373,237.173 L -9.11613,237.264 L -9.20701,237.346 L -9.30555,237.419 L -9.41074,237.482 L -9.52164,237.535
 L -9.63715,237.576 L -9.75614,237.606 L -9.87748,237.624 L -10,237.63 z
M -287.303,237.624 L -287.424,237.606 L -287.543,237.576 L -287.658,237.535 L -287.769,237.482 L -287.874,237.419
 L -287.973,237.346 L -288.064,237.264 L -288.146,237.173 L -288.219,237.074 L -288.282,236.969 L -288.335,236.858
 L -288.376,236.743 L -288.406,236.624 L -288.424,236.503 L -288.43,236.38 L -288.424,236.257 L -288.406,236.136
 L -288.376,236.017 L -288.335,235.902 L -288.282,235.791 L -288.219,235.686 L -288.146,235.587 L -288.064,235.496
 L -287.973,235.414 L -287.874,235.341 L -287.769,235.278 L -287.658,235.225 L -287.543,235.184 L -287.424,235.154
 L -287.303,235.136 L -287.18,235.13 L -287.057,235.136 L -286.936,235.154 L -286.817,235.184 L -286.702,235.225
 L -286.591,235.278 L -286.486,235.341 L -286.387,235.414 L -286.296,235.496 L -286.214,235.587 L -286.141,235.686
 L -286.078,235.791 L -286.025,235.902 L -285.984,236.017 L -285.954,236.136 L -285.936,236.257 L -285.93,236.38
 L -285.936,236.503 L -285.954,236.624 L -285.984,236.743 L -286.025,236.858 L -286.078,236.969 L -286.141,237.074
 L -286.214,237.173 L -286.296,237.264 L -286.387,237.346 L -286.486,237.419 L -286.591,237.482 L -286.702,237.535
 L -286.817,237.576 L -286.936,237.606 L -287.057,237.624 L -287.18,237.63 z
M -27.8125,247.074 L -27.9339,247.056 L -28.0529,247.026 L -28.1684,246.985 L -28.2792,246.932 L -28.3845,246.869
 L -28.483,246.796 L -28.5739,246.714 L -28.6563,246.623 L -28.7293,246.524 L -28.7924,246.419 L -28.8449,246.308
 L -28.8862,246.193 L -28.916,246.074 L -28.934,245.953 L -28.94,245.83 L -28.934,245.707 L -28.916,245.586
 L -28.8862,245.467 L -28.8449,245.352 L -28.7924,245.241 L -28.7293,245.136 L -28.6563,245.037 L -28.5739,244.946
 L -28.483,244.864 L -28.3845,244.791 L -28.2792,244.728 L -28.1684,244.675 L -28.0529,244.634 L -27.9339,244.604
 L -27.8125,244.586 L -27.69,244.58 L -27.5675,244.586 L -27.4461,244.604 L -27.3271,244.634 L -27.2116,244.675
 L -27.1008,244.728 L -26.9955,244.791 L -26.897,244.864 L -26.8061,244.946 L -26.7237,245.037 L -26.6507,245.136
 L -26.5876,245.241 L -26.5351,245.352 L -26.4938,245.467 L -26.464,245.586 L -26.446,245.707 L -26.44,245.83
 L -26.446,245.953 L -26.464,246.074 L -26.4938,246.193 L -26.5351,246.308 L -26.5876,246.419 L -26.6507,246.524
 L -26.7237,246.623 L -26.8061,246.714 L -26.897,246.796 L -26.9955,246.869 L -27.1008,246.932 L -27.2116,246.985
 L -27.3271,247.026 L -27.4461,247.056 L -27.5675,247.074 L -27.69,247.08 z
M -185.293,247.074 L -185.414,247.056 L -185.533,247.026 L -185.648,246.985 L -185.759,246.932 L -185.864,246.869
 L -185.963,246.796 L -186.054,246.714 L -186.136,246.623 L -186.209,246.524 L -186.272,246.419 L -186.325,246.308
 L -186.366,246.193 L -186.396,246.074 L -186.414,245.953 L -186.42,245.83 L -186.414,245.707 L -186.396,245.586
 L -186.366,245.467 L -186.325,245.352 L -186.272,245.241 L -186.209,245.136 L -186.136,245.037 L -186.054,244.946
 L -185.963,244.864 L -185.864,244.791 L -185.759,244.728 L -185.648,244.675 L -185.533,244.634 L -185.414,244.604
 L -185.293,244.586 L -185.17,244.58 L -185.047,244.586 L -184.926,244.604 L -184.807,244.634 L -184.692,244.675
 L -184.581,244.728 L -184.476,244.791 L -184.377,244.864 L -184.286,244.946 L -184.204,245.037 L -184.131,245.136
 L -184.068,245.241 L -184.015,245.352 L -183.974,245.467 L -183.944,245.586 L -183.926,245.707 L -183.92,245.83
 L -183.926,245.953 L -183.944,246.074 L -183.974,246.193 L -184.015,246.308 L -184.068,246.419 L -184.131,246.524
 L -184.204,246.623 L -184.286,246.714 L -184.377,246.796 L -184.476,246.869 L -184.581,246.932 L -184.692,246.985
 L -184.807,247.026 L -184.926,247.056 L -185.047,247.074 L -185.17,247.08 z
M -10.1225,263.024 L -10.2439,263.006 L -10.3629,262.976 L -10.4783,262.935 L -10.5892,262.882 L -10.6945,262.819
 L -10.793,262.746 L -10.8839,262.664 L -10.9663,262.573 L -11.0393,262.474 L -11.1024,262.369 L -11.1549,262.258
 L -11.1962,262.143 L -11.226,262.024 L -11.244,261.903 L -11.25,261.78 L -11.244,261.657 L -11.226,261.536
 L -11.1962,261.417 L -11.1549,261.302 L -11.1024,261.191 L -11.0393,261.086 L -10.9663,260.987 L -10.8839,260.896
 L -10.793,260.814 L -10.6945,260.741 L -10.5892,260.678 L -10.4783,260.625 L -10.3629,260.584 L -10.2439,260.554
 L -10.1225,260.536 L -10,260.53 L -9.87748,260.536 L -9.75614,260.554 L -9.63715,260.584 L -9.52164,260.625
 L -9.41074,260.678 L -9.30555,260.741 L -9.20701,260.814 L -9.11613,260.896 L -9.03373,260.987 L -8.96067,261.086
 L -8.89759,261.191 L -8.84516,261.302 L -8.80384,261.417 L -8.77402,261.536 L -8.75602,261.657 L -8.75001,261.78
 L -8.75602,261.903 L -8.77402,262.024 L -8.80384,262.143 L -8.84516,262.258 L -8.89759,262.369 L -8.96067,262.474
 L -9.03373,262.573 L -9.11613,262.664 L -9.20701,262.746 L -9.30555,262.819 L -9.41074,262.882 L -9.52164,262.935
 L -9.63715,262.976 L -9.75614,263.006 L -9.87748,263.024 L -10,263.03 z
M -287.303,263.024 L -287.424,263.006 L -287.543,262.976 L -287.658,262.935 L -287.769,262.882 L -287.874,262.819
 L -287.973,262.746 L -288.064,262.664 L -288.146,262.573 L -288.219,262.474 L -288.282,262.369 L -288.335,262.258
 L -288.376,262.143 L -288.406,262.024 L -288.424,261.903 L -288.43,261.78 L -288.424,261.657 L -288.406,261.536
 L -288.376,261.417 L -288.335,261.302 L -288.282,261.191 L -288.219,261.086 L -288.146,260.987 L -288.064,260.896
 L -287.973,260.814 L -287.874,260.741 L -287.769,260.678 L -287.658,260.625 L -287.543,260.584 L -287.424,260.554
 L -287.303,260.536 L -287.18,260.53 L -287.057,260.536 L -286.936,260.554 L -286.817,260.584 L -286.702,260.625
 L -286.591,260.678 L -286.486,260.741 L -286.387,260.814 L -286.296,260.896 L -286.214,260.987 L -286.141,261.086
 L -286.078,261.191 L -286.025,261.302 L -285.984,261.417 L -285.954,261.536 L -285.936,261.657 L -285.93,261.78
 L -285.936,261.903 L -285.954,262.024 L -285.984,262.143 L -286.025,262.258 L -286.078,262.369 L -286.141,262.474
 L -286.214,262.573 L -286.296,262.664 L -286.387,262.746 L -286.486,262.819 L -286.591,262.882 L -286.702,262.935
 L -286.817,262.976 L -286.936,263.006 L -287.057,263.024 L -287.18,263.03 z
M -256.303,268.424 L -256.424,268.406 L -256.543,268.376 L -256.658,268.335 L -256.769,268.282 L -256.874,268.219
 L -256.973,268.146 L -257.064,268.064 L -257.146,267.973 L -257.219,267.874 L -257.282,267.769 L -257.335,267.658
 L -257.376,267.543 L -257.406,267.424 L -257.424,267.303 L -257.43,267.18 L -257.424,267.057 L -257.406,266.936
 L -257.376,266.817 L -257.335,266.702 L -257.282,266.591 L -257.219,266.486 L -257.146,266.387 L -257.064,266.296
 L -256.973,266.214 L -256.874,266.141 L -256.769,266.078 L -256.658,266.025 L -256.543,265.984 L -256.424,265.954
 L -256.303,265.936 L -256.18,265.93 L -256.057,265.936 L -255.936,265.954 L -255.817,265.984 L -255.702,266.025
 L -255.591,266.078 L -255.486,266.141 L -255.387,266.214 L -255.296,266.296 L -255.214,266.387 L -255.141,266.486
 L -255.078,266.591 L -255.025,266.702 L -254.984,266.817 L -254.954,266.936 L -254.936,267.057 L -254.93,267.18
 L -254.936,267.303 L -254.954,267.424 L -254.984,267.543 L -255.025,267.658 L -255.078,267.769 L -255.141,267.874
 L -255.214,267.973 L -255.296,268.064 L -255.387,268.146 L -255.486,268.219 L -255.591,268.282 L -255.702,268.335
 L -255.817,268.376 L -255.936,268.406 L -256.057,268.424 L -256.18,268.43 z
M -230.903,268.424 L -231.024,268.406 L -231.143,268.376 L -231.258,268.335 L -231.369,268.282 L -231.474,268.219
 L -231.573,268.146 L -231.664,268.064 L -231.746,267.973 L -231.819,267.874 L -231.882,267.769 L -231.935,267.658
 L -231.976,267.543 L -232.006,267.424 L -232.024,267.303 L -232.03,267.18 L -232.024,267.057 L -232.006,266.936
 L -231.976,266.817 L -231.935,266.702 L -231.882,266.591 L -231.819,266.486 L -231.746,266.387 L -231.664,266.296
 L -231.573,266.214 L -231.474,266.141 L -231.369,266.078 L -231.258,266.025 L -231.143,265.984 L -231.024,265.954
 L -230.903,265.936 L -230.78,265.93 L -230.657,265.936 L -230.536,265.954 L -230.417,265.984 L -230.302,266.025
 L -230.191,266.078 L -230.086,266.141 L -229.987,266.214 L -229.896,266.296 L -229.814,266.387 L -229.741,266.486
 L -229.678,266.591 L -229.625,266.702 L -229.584,266.817 L -229.554,266.936 L -229.536,267.057 L -229.53,267.18
 L -229.536,267.303 L -229.554,267.424 L -229.584,267.543 L -229.625,267.658 L -229.678,267.769 L -229.741,267.874
 L -229.814,267.973 L -229.896,268.064 L -229.987,268.146 L -230.086,268.219 L -230.191,268.282 L -230.302,268.335
 L -230.417,268.376 L -230.536,268.406 L -230.657,268.424 L -230.78,268.43 z
M -205.503,268.424 L -205.624,268.406 L -205.743,268.376 L -205.858,268.335 L -205.969,268.282 L -206.074,268.219
 L -206.173,268.146 L -206.264,268.064 L -206.346,267.973 L -206.419,267.874 L -206.482,267.769 L -206.535,267.658
 L -206.576,267.543 L -206.606,267.424 L -206.624,267.303 L -206.63,267.18 L -206.624,267.057 L -206.606,266.936
 L -206.576,266.817 L -206.535,266.702 L -206.482,266.591 L -206.419,266.486 L -206.346,266.387 L -206.264,266.296
 L -206.173,266.214 L -206.074,266.141 L -205.969,266.078 L -205.858,266.025 L -205.743,265.984 L -205.624,265.954
 L -205.503,265.936 L -205.38,265.93 L -205.257,265.936 L -205.136,265.954 L -205.017,265.984 L -204.902,266.025
 L -204.791,266.078 L -204.686,266.141 L -204.587,266.214 L -204.496,266.296 L -204.414,266.387 L -204.341,266.486
 L -204.278,266.591 L -204.225,266.702 L -204.184,266.817 L -204.154,266.936 L -204.136,267.057 L -204.13,267.18
 L -204.136,267.303 L -204.154,267.424 L -204.184,267.543 L -204.225,267.658 L -204.278,267.769 L -204.341,267.874
 L -204.414,267.973 L -204.496,268.064 L -204.587,268.146 L -204.686,268.219 L -204.791,268.282 L -204.902,268.335
 L -205.017,268.376 L -205.136,268.406 L -205.257,268.424 L -205.38,268.43 z
M -180.103,268.424 L -180.224,268.406 L -180.343,268.376 L -180.458,268.335 L -180.569,268.282 L -180.674,268.219
 L -180.773,268.146 L -180.864,268.064 L -180.946,267.973 L -181.019,267.874 L -181.082,267.769 L -181.135,267.658
 L -181.176,267.543 L -181.206,267.424 L -181.224,267.303 L -181.23,267.18 L -181.224,267.057 L -181.206,266.936
 L -181.176,266.817 L -181.135,266.702 L -181.082,266.591 L -181.019,266.486 L -180.946,266.387 L -180.864,266.296
 L -180.773,266.214 L -180.674,266.141 L -180.569,266.078 L -180.458,266.025 L -180.343,265.984 L -180.224,265.954
 L -180.103,265.936 L -179.98,265.93 L -179.857,265.936 L -179.736,265.954 L -179.617,265.984 L -179.502,266.025
 L -179.391,266.078 L -179.286,266.141 L -179.187,266.214 L -179.096,266.296 L -179.014,266.387 L -178.941,266.486
 L -178.878,266.591 L -178.825,266.702 L -178.784,266.817 L -178.754,266.936 L -178.736,267.057 L -178.73,267.18
 L -178.736,267.303 L -178.754,267.424 L -178.784,267.543 L -178.825,267.658 L -178.878,267.769 L -178.941,267.874
 L -179.014,267.973 L -179.096,268.064 L -179.187,268.146 L -179.286,268.219 L -179.391,268.282 L -179.502,268.335
 L -179.617,268.376 L -179.736,268.406 L -179.857,268.424 L -179.98,268.43 z
M -154.703,268.424 L -154.824,268.406 L -154.943,268.376 L -155.058,268.335 L -155.169,268.282 L -155.274,268.219
 L -155.373,268.146 L -155.464,268.064 L -155.546,267.973 L -155.619,267.874 L -155.682,267.769 L -155.735,267.658
 L -155.776,267.543 L -155.806,267.424 L -155.824,267.303 L -155.83,267.18 L -155.824,267.057 L -155.806,266.936
 L -155.776,266.817 L -155.735,266.702 L -155.682,266.591 L -155.619,266.486 L -155.546,266.387 L -155.464,266.296
 L -155.373,266.214 L -155.274,266.141 L -155.169,266.078 L -155.058,266.025 L -154.943,265.984 L -154.824,265.954
 L -154.703,265.936 L -154.58,265.93 L -154.457,265.936 L -154.336,265.954 L -154.217,265.984 L -154.102,266.025
 L -153.991,266.078 L -153.886,266.141 L -153.787,266.214 L -153.696,266.296 L -153.614,266.387 L -153.541,266.486
 L -153.478,266.591 L -153.425,266.702 L -153.384,266.817 L -153.354,266.936 L -153.336,267.057 L -153.33,267.18
 L -153.336,267.303 L -153.354,267.424 L -153.384,267.543 L -153.425,267.658 L -153.478,267.769 L -153.541,267.874
 L -153.614,267.973 L -153.696,268.064 L -153.787,268.146 L -153.886,268.219 L -153.991,268.282 L -154.102,268.335
 L -154.217,268.376 L -154.336,268.406 L -154.457,268.424 L -154.58,268.43 z
M -129.303,268.424 L -129.424,268.406 L -129.543,268.376 L -129.658,268.335 L -129.769,268.282 L -129.874,268.219
 L -129.973,268.146 L -130.064,268.064 L -130.146,267.973 L -130.219,267.874 L -130.282,267.769 L -130.335,267.658
 L -130.376,267.543 L -130.406,267.424 L -130.424,267.303 L -130.43,267.18 L -130.424,267.057 L -130.406,266.936
 L -130.376,266.817 L -130.335,266.702 L -130.282,266.591 L -130.219,266.486 L -130.146,266.387 L -130.064,266.296
 L -129.973,266.214 L -129.874,266.141 L -129.769,266.078 L -129.658,266.025 L -129.543,265.984 L -129.424,265.954
 L -129.303,265.936 L -129.18,265.93 L -129.057,265.936 L -128.936,265.954 L -128.817,265.984 L -128.702,266.025
 L -128.591,266.078 L -128.486,266.141 L -128.387,266.214 L -128.296,266.296 L -128.214,266.387 L -128.141,266.486
 L -128.078,266.591 L -128.025,266.702 L -127.984,266.817 L -127.954,266.936 L -127.936,267.057 L -127.93,267.18
 L -127.936,267.303 L -127.954,267.424 L -127.984,267.543 L -128.025,267.658 L -128.078,267.769 L -128.141,267.874
 L -128.214,267.973 L -128.296,268.064 L -128.387,268.146 L -128.486,268.219 L -128.591,268.282 L -128.702,268.335
 L -128.817,268.376 L -128.936,268.406 L -129.057,268.424 L -129.18,268.43 z
M -103.903,268.424 L -104.024,268.406 L -104.143,268.376 L -104.258,268.335 L -104.369,268.282 L -104.474,268.219
 L -104.573,268.146 L -104.664,268.064 L -104.746,267.973 L -104.819,267.874 L -104.882,267.769 L -104.935,267.658
 L -104.976,267.543 L -105.006,267.424 L -105.024,267.303 L -105.03,267.18 L -105.024,267.057 L -105.006,266.936
 L -104.976,266.817 L -104.935,266.702 L -104.882,266.591 L -104.819,266.486 L -104.746,266.387 L -104.664,266.296
 L -104.573,266.214 L -104.474,266.141 L -104.369,266.078 L -104.258,266.025 L -104.143,265.984 L -104.024,265.954
 L -103.903,265.936 L -103.78,265.93 L -103.657,265.936 L -103.536,265.954 L -103.417,265.984 L -103.302,266.025
 L -103.191,266.078 L -103.086,266.141 L -102.987,266.214 L -102.896,266.296 L -102.814,266.387 L -102.741,266.486
 L -102.678,266.591 L -102.625,266.702 L -102.584,266.817 L -102.554,266.936 L -102.536,267.057 L -102.53,267.18
 L -102.536,267.303 L -102.554,267.424 L -102.584,267.543 L -102.625,267.658 L -102.678,267.769 L -102.741,267.874
 L -102.814,267.973 L -102.896,268.064 L -102.987,268.146 L -103.086,268.219 L -103.191,268.282 L -103.302,268.335
 L -103.417,268.376 L -103.536,268.406 L -103.657,268.424 L -103.78,268.43 z
M -53.1025,268.424 L -53.2239,268.406 L -53.3429,268.376 L -53.4584,268.335 L -53.5693,268.282 L -53.6745,268.219
 L -53.773,268.146 L -53.8639,268.064 L -53.9463,267.973 L -54.0193,267.874 L -54.0824,267.769 L -54.1348,267.658
 L -54.1762,267.543 L -54.206,267.424 L -54.224,267.303 L -54.23,267.18 L -54.224,267.057 L -54.206,266.936
 L -54.1762,266.817 L -54.1348,266.702 L -54.0824,266.591 L -54.0193,266.486 L -53.9463,266.387 L -53.8639,266.296
 L -53.773,266.214 L -53.6745,266.141 L -53.5693,266.078 L -53.4584,266.025 L -53.3429,265.984 L -53.2239,265.954
 L -53.1025,265.936 L -52.98,265.93 L -52.8575,265.936 L -52.7361,265.954 L -52.6171,265.984 L -52.5016,266.025
 L -52.3908,266.078 L -52.2855,266.141 L -52.187,266.214 L -52.0961,266.296 L -52.0137,266.387 L -51.9407,266.486
 L -51.8776,266.591 L -51.8252,266.702 L -51.7838,266.817 L -51.754,266.936 L -51.736,267.057 L -51.73,267.18
 L -51.736,267.303 L -51.754,267.424 L -51.7838,267.543 L -51.8252,267.658 L -51.8776,267.769 L -51.9407,267.874
 L -52.0137,267.973 L -52.0961,268.064 L -52.187,268.146 L -52.2855,268.219 L -52.3908,268.282 L -52.5016,268.335
 L -52.6171,268.376 L -52.7361,268.406 L -52.8575,268.424 L -52.98,268.43 z
M -78.5025,268.424 L -78.6239,268.406 L -78.7429,268.376 L -78.8584,268.335 L -78.9692,268.282 L -79.0745,268.219
 L -79.173,268.146 L -79.2639,268.064 L -79.3463,267.973 L -79.4193,267.874 L -79.4824,267.769 L -79.5348,267.658
 L -79.5762,267.543 L -79.606,267.424 L -79.624,267.303 L -79.63,267.18 L -79.624,267.057 L -79.606,266.936
 L -79.5762,266.817 L -79.5348,266.702 L -79.4824,266.591 L -79.4193,266.486 L -79.3463,266.387 L -79.2639,266.296
 L -79.173,266.214 L -79.0745,266.141 L -78.9692,266.078 L -78.8584,266.025 L -78.7429,265.984 L -78.6239,265.954
 L -78.5025,265.936 L -78.38,265.93 L -78.2575,265.936 L -78.1361,265.954 L -78.0171,265.984 L -77.9016,266.025
 L -77.7907,266.078 L -77.6855,266.141 L -77.587,266.214 L -77.4961,266.296 L -77.4137,266.387 L -77.3407,266.486
 L -77.2776,266.591 L -77.2252,266.702 L -77.1838,266.817 L -77.154,266.936 L -77.136,267.057 L -77.13,267.18
 L -77.136,267.303 L -77.154,267.424 L -77.1838,267.543 L -77.2252,267.658 L -77.2776,267.769 L -77.3407,267.874
 L -77.4137,267.973 L -77.4961,268.064 L -77.587,268.146 L -77.6855,268.219 L -77.7907,268.282 L -77.9016,268.335
 L -78.0171,268.376 L -78.1361,268.406 L -78.2575,268.424 L -78.38,268.43 z
M -215.184,10.3629 L -215.225,10.4783 L -215.278,10.5892 L -215.341,10.6945 L -215.414,10.793 L -215.496,10.8839
 L -215.587,10.9663 L -215.686,11.0393 L -215.791,11.1024 L -215.902,11.1549 L -216.017,11.1962 L -216.136,11.226
 L -216.257,11.244 L -216.38,11.25 L -216.503,11.244 L -216.624,11.226 L -216.743,11.1962 L -216.858,11.1549
 L -216.969,11.1024 L -217.074,11.0393 L -217.173,10.9663 L -217.264,10.8839 L -217.346,10.793 L -217.419,10.6945
 L -217.482,10.5892 L -217.535,10.4783 L -217.576,10.3629 L -217.606,10.2439 L -217.624,10.1225 L -217.63,10
 L -217.624,9.87748 L -217.606,9.75614 L -217.576,9.63715 L -217.535,9.52164 L -217.482,9.41074 L -217.419,9.30555
 L -217.346,9.20701 L -217.264,9.11613 L -217.173,9.03373 L -217.074,8.96067 L -216.969,8.89759 L -216.858,8.84516
 L -216.743,8.80384 L -216.624,8.77402 L -216.503,8.75602 L -216.38,8.75001 L -216.257,8.75602 L -216.136,8.77402
 L -216.017,8.80384 L -215.902,8.84516 L -215.791,8.89759 L -215.686,8.96067 L -215.587,9.03373 L -215.496,9.11613
 L -215.414,9.20701 L -215.341,9.30555 L -215.278,9.41074 L -215.225,9.52164 L -215.184,9.63715 L -215.154,9.75614
 L -215.136,9.87748 L -215.13,10 L -215.136,10.1225 L -215.154,10.2439 z
M -265.984,10.3629 L -266.025,10.4783 L -266.078,10.5892 L -266.141,10.6945 L -266.214,10.793 L -266.296,10.8839
 L -266.387,10.9663 L -266.486,11.0393 L -266.591,11.1024 L -266.702,11.1549 L -266.817,11.1962 L -266.936,11.226
 L -267.057,11.244 L -267.18,11.25 L -267.303,11.244 L -267.424,11.226 L -267.543,11.1962 L -267.658,11.1549
 L -267.769,11.1024 L -267.874,11.0393 L -267.973,10.9663 L -268.064,10.8839 L -268.146,10.793 L -268.219,10.6945
 L -268.282,10.5892 L -268.335,10.4783 L -268.376,10.3629 L -268.406,10.2439 L -268.424,10.1225 L -268.43,10
 L -268.424,9.87748 L -268.406,9.75614 L -268.376,9.63715 L -268.335,9.52164 L -268.282,9.41074 L -268.219,9.30555
 L -268.146,9.20701 L -268.064,9.11613 L -267.973,9.03373 L -267.874,8.96067 L -267.769,8.89759 L -267.658,8.84516
 L -267.543,8.80384 L -267.424,8.77402 L -267.303,8.75602 L -267.18,8.75001 L -267.057,8.75602 L -266.936,8.77402
 L -266.817,8.80384 L -266.702,8.84516 L -266.591,8.89759 L -266.486,8.96067 L -266.387,9.03373 L -266.296,9.11613
 L -266.214,9.20701 L -266.141,9.30555 L -266.078,9.41074 L -266.025,9.52164 L -265.984,9.63715 L -265.954,9.75614
 L -265.936,9.87748 L -265.93,10 L -265.936,10.1225 L -265.954,10.2439 z
" stroke="black" fill="lightgray" stroke-width="0.5"/>
</svg>
