<?xml version="1.0" standalone="no"?>
<!DOCTYPE svg PUBLIC "-//W3C//DTD SVG 1.1//EN" "http://www.w3.org/Graphics/SVG/1.1/DTD/svg11.dtd">
<svg width="290mm" height="290mm" viewBox="-290 0 290 290" xmlns="http://www.w3.org/2000/svg" version="1.1">
<title>OpenSCAD Model</title>
<path d="
M -251.56,285.51 L -261.56,285.51 L -261.56,274.76 L -193.56,274.76 L -193.56,274.66 L -192.06,274.66
 L -192.06,289.56 L -177.56,289.56 L -177.56,285.51 L -186.06,285.51 L -186.06,274.66 L -139.16,274.66
 L -139.16,289.56 L -2.44141e-06,289.56 L -2.44141e-06,2.44141e-06 L -289.56,2.44141e-06 L -289.56,274.66 L -266.56,274.66
 L -266.56,289.56 L -251.56,289.56 z
M -5.68253,5.74399 L -5.80387,5.72599 L -5.92285,5.69617 L -6.03836,5.65485 L -6.14923,5.60239 L -6.25446,5.53934
 L -6.353,5.46625 L -6.44388,5.38388 L -6.52628,5.293 L -6.59934,5.19446 L -6.66242,5.08924 L -6.71485,4.97837
 L -6.75617,4.86286 L -6.78598,4.74387 L -6.80399,4.62253 L -6.81,4.5 L -6.80399,4.37747 L -6.78598,4.25614
 L -6.75617,4.13715 L -6.71485,4.02164 L -6.66242,3.91077 L -6.59934,3.80554 L -6.52628,3.707 L -6.44388,3.61612
 L -6.353,3.53372 L -6.25446,3.46067 L -6.14923,3.39759 L -6.03836,3.34516 L -5.92285,3.30384 L -5.80387,3.27402
 L -5.68253,3.25601 L -5.56,3.25 L -5.43747,3.25601 L -5.31613,3.27402 L -5.19715,3.30384 L -5.08164,3.34516
 L -4.97077,3.39759 L -4.86554,3.46067 L -4.767,3.53372 L -4.67612,3.61612 L -4.59375,3.707 L -4.52066,3.80554
 L -4.45761,3.91077 L -4.40515,4.02164 L -4.36383,4.13715 L -4.33402,4.25614 L -4.31601,4.37747 L -4.31,4.5
 L -4.31601,4.62253 L -4.33402,4.74387 L -4.36383,4.86286 L -4.40515,4.97837 L -4.45761,5.08924 L -4.52066,5.19446
 L -4.59375,5.293 L -4.67612,5.38388 L -4.767,5.46625 L -4.86554,5.53934 L -4.97077,5.60239 L -5.08164,5.65485
 L -5.19715,5.69617 L -5.31613,5.72599 L -5.43747,5.74399 L -5.56,5.75 z
M -234.283,5.74399 L -234.404,5.72599 L -234.523,5.69617 L -234.638,5.65485 L -234.749,5.60239 L -234.854,5.53934
 L -234.953,5.46625 L -235.044,5.38388 L -235.126,5.293 L -235.199,5.19446 L -235.262,5.08924 L -235.315,4.97837
 L -235.356,4.86286 L -235.386,4.74387 L -235.404,4.62253 L -235.41,4.5 L -235.404,4.37747 L -235.386,4.25614
 L -235.356,4.13715 L -235.315,4.02164 L -235.262,3.91077 L -235.199,3.80554 L -235.126,3.707 L -235.044,3.61612
 L -234.953,3.53372 L -234.854,3.46067 L -234.749,3.39759 L -234.638,3.34516 L -234.523,3.30384 L -234.404,3.27402
 L -234.283,3.25601 L -234.16,3.25 L -234.037,3.25601 L -233.916,3.27402 L -233.797,3.30384 L -233.682,3.34516
 L -233.571,3.39759 L -233.466,3.46067 L -233.367,3.53372 L -233.276,3.61612 L -233.194,3.707 L -233.121,3.80554
 L -233.058,3.91077 L -233.005,4.02164 L -232.964,4.13715 L -232.934,4.25614 L -232.916,4.37747 L -232.91,4.5
 L -232.916,4.62253 L -232.934,4.74387 L -232.964,4.86286 L -233.005,4.97837 L -233.058,5.08924 L -233.121,5.19446
 L -233.194,5.293 L -233.276,5.38388 L -233.367,5.46625 L -233.466,5.53934 L -233.571,5.60239 L -233.682,5.65485
 L -233.797,5.69617 L -233.916,5.72599 L -234.037,5.74399 L -234.16,5.75 z
M -183.116,3.27402 L -182.997,3.30384 L -182.882,3.34516 L -182.771,3.39759 L -182.666,3.46067 L -182.567,3.53372
 L -182.476,3.61612 L -182.394,3.707 L -182.321,3.80554 L -182.258,3.91077 L -182.205,4.02164 L -182.164,4.13715
 L -182.134,4.25614 L -182.116,4.37747 L -182.11,4.5 L -182.116,4.62253 L -182.134,4.74387 L -182.164,4.86286
 L -182.205,4.97837 L -182.258,5.08924 L -182.321,5.19446 L -182.394,5.293 L -182.476,5.38388 L -182.567,5.46625
 L -182.666,5.53934 L -182.771,5.60239 L -182.882,5.65485 L -182.997,5.69617 L -183.116,5.72599 L -183.237,5.74399
 L -183.36,5.75 L -183.483,5.74399 L -183.604,5.72599 L -183.723,5.69617 L -183.838,5.65485 L -183.949,5.60239
 L -184.054,5.53934 L -184.153,5.46625 L -184.244,5.38388 L -184.326,5.293 L -184.399,5.19446 L -184.462,5.08924
 L -184.515,4.97837 L -184.556,4.86286 L -184.586,4.74387 L -184.604,4.62253 L -184.61,4.5 L -184.604,4.37747
 L -184.586,4.25614 L -184.556,4.13715 L -184.515,4.02164 L -184.462,3.91077 L -184.399,3.80554 L -184.326,3.707
 L -184.244,3.61612 L -184.153,3.53372 L -184.054,3.46067 L -183.949,3.39759 L -183.838,3.34516 L -183.723,3.30384
 L -183.604,3.27402 L -183.483,3.25601 L -183.36,3.25 L -183.237,3.25601 z
M -31.0825,5.74399 L -31.2039,5.72599 L -31.3229,5.69617 L -31.4384,5.65485 L -31.5492,5.60239 L -31.6545,5.53934
 L -31.753,5.46625 L -31.8439,5.38388 L -31.9263,5.293 L -31.9993,5.19446 L -32.0624,5.08924 L -32.1149,4.97837
 L -32.1562,4.86286 L -32.186,4.74387 L -32.204,4.62253 L -32.21,4.5 L -32.204,4.37747 L -32.186,4.25614
 L -32.1562,4.13715 L -32.1149,4.02164 L -32.0624,3.91077 L -31.9993,3.80554 L -31.9263,3.707 L -31.8439,3.61612
 L -31.753,3.53372 L -31.6545,3.46067 L -31.5492,3.39759 L -31.4384,3.34516 L -31.3229,3.30384 L -31.2039,3.27402
 L -31.0825,3.25601 L -30.96,3.25 L -30.8375,3.25601 L -30.7161,3.27402 L -30.5971,3.30384 L -30.4816,3.34516
 L -30.3708,3.39759 L -30.2655,3.46067 L -30.167,3.53372 L -30.0761,3.61612 L -29.9937,3.707 L -29.9207,3.80554
 L -29.8576,3.91077 L -29.8051,4.02164 L -29.7638,4.13715 L -29.734,4.25614 L -29.716,4.37747 L -29.71,4.5
 L -29.716,4.62253 L -29.734,4.74387 L -29.7638,4.86286 L -29.8051,4.97837 L -29.8576,5.08924 L -29.9207,5.19446
 L -29.9937,5.293 L -30.0761,5.38388 L -30.167,5.46625 L -30.2655,5.53934 L -30.3708,5.60239 L -30.4816,5.65485
 L -30.5971,5.69617 L -30.7161,5.72599 L -30.8375,5.74399 L -30.96,5.75 z
M -107.283,5.74399 L -107.404,5.72599 L -107.523,5.69617 L -107.638,5.65485 L -107.749,5.60239 L -107.854,5.53934
 L -107.953,5.46625 L -108.044,5.38388 L -108.126,5.293 L -108.199,5.19446 L -108.262,5.08924 L -108.315,4.97837
 L -108.356,4.86286 L -108.386,4.74387 L -108.404,4.62253 L -108.41,4.5 L -108.404,4.37747 L -108.386,4.25614
 L -108.356,4.13715 L -108.315,4.02164 L -108.262,3.91077 L -108.199,3.80554 L -108.126,3.707 L -108.044,3.61612
 L -107.953,3.53372 L -107.854,3.46067 L -107.749,3.39759 L -107.638,3.34516 L -107.523,3.30384 L -107.404,3.27402
 L -107.283,3.25601 L -107.16,3.25 L -107.037,3.25601 L -106.916,3.27402 L -106.797,3.30384 L -106.682,3.34516
 L -106.571,3.39759 L -106.466,3.46067 L -106.367,3.53372 L -106.276,3.61612 L -106.194,3.707 L -106.121,3.80554
 L -106.058,3.91077 L -106.005,4.02164 L -105.964,4.13715 L -105.934,4.25614 L -105.916,4.37747 L -105.91,4.5
 L -105.916,4.62253 L -105.934,4.74387 L -105.964,4.86286 L -106.005,4.97837 L -106.058,5.08924 L -106.121,5.19446
 L -106.194,5.293 L -106.276,5.38388 L -106.367,5.46625 L -106.466,5.53934 L -106.571,5.60239 L -106.682,5.65485
 L -106.797,5.69617 L -106.916,5.72599 L -107.037,5.74399 L -107.16,5.75 z
M -81.5161,3.27402 L -81.3971,3.30384 L -81.2816,3.34516 L -81.1707,3.39759 L -81.0655,3.46067 L -80.967,3.53372
 L -80.8761,3.61612 L -80.7937,3.707 L -80.7207,3.80554 L -80.6576,3.91077 L -80.6052,4.02164 L -80.5638,4.13715
 L -80.534,4.25614 L -80.516,4.37747 L -80.51,4.5 L -80.516,4.62253 L -80.534,4.74387 L -80.5638,4.86286
 L -80.6052,4.97837 L -80.6576,5.08924 L -80.7207,5.19446 L -80.7937,5.293 L -80.8761,5.38388 L -80.967,5.46625
 L -81.0655,5.53934 L -81.1707,5.60239 L -81.2816,5.65485 L -81.3971,5.69617 L -81.5161,5.72599 L -81.6375,5.74399
 L -81.76,5.75 L -81.8825,5.74399 L -82.0039,5.72599 L -82.1229,5.69617 L -82.2384,5.65485 L -82.3492,5.60239
 L -82.4545,5.53934 L -82.553,5.46625 L -82.6439,5.38388 L -82.7263,5.293 L -82.7993,5.19446 L -82.8624,5.08924
 L -82.9148,4.97837 L -82.9562,4.86286 L -82.986,4.74387 L -83.004,4.62253 L -83.01,4.5 L -83.004,4.37747
 L -82.986,4.25614 L -82.9562,4.13715 L -82.9148,4.02164 L -82.8624,3.91077 L -82.7993,3.80554 L -82.7263,3.707
 L -82.6439,3.61612 L -82.553,3.53372 L -82.4545,3.46067 L -82.3492,3.39759 L -82.2384,3.34516 L -82.1229,3.30384
 L -82.0039,3.27402 L -81.8825,3.25601 L -81.76,3.25 L -81.6375,3.25601 z
M -56.4825,5.74399 L -56.6039,5.72599 L -56.7229,5.69617 L -56.8384,5.65485 L -56.9493,5.60239 L -57.0545,5.53934
 L -57.153,5.46625 L -57.2439,5.38388 L -57.3263,5.293 L -57.3993,5.19446 L -57.4624,5.08924 L -57.5148,4.97837
 L -57.5562,4.86286 L -57.586,4.74387 L -57.604,4.62253 L -57.61,4.5 L -57.604,4.37747 L -57.586,4.25614
 L -57.5562,4.13715 L -57.5148,4.02164 L -57.4624,3.91077 L -57.3993,3.80554 L -57.3263,3.707 L -57.2439,3.61612
 L -57.153,3.53372 L -57.0545,3.46067 L -56.9493,3.39759 L -56.8384,3.34516 L -56.7229,3.30384 L -56.6039,3.27402
 L -56.4825,3.25601 L -56.36,3.25 L -56.2375,3.25601 L -56.1161,3.27402 L -55.9971,3.30384 L -55.8816,3.34516
 L -55.7708,3.39759 L -55.6655,3.46067 L -55.567,3.53372 L -55.4761,3.61612 L -55.3937,3.707 L -55.3207,3.80554
 L -55.2576,3.91077 L -55.2052,4.02164 L -55.1638,4.13715 L -55.134,4.25614 L -55.116,4.37747 L -55.11,4.5
 L -55.116,4.62253 L -55.134,4.74387 L -55.1638,4.86286 L -55.2052,4.97837 L -55.2576,5.08924 L -55.3207,5.19446
 L -55.3937,5.293 L -55.4761,5.38388 L -55.567,5.46625 L -55.6655,5.53934 L -55.7708,5.60239 L -55.8816,5.65485
 L -55.9971,5.69617 L -56.1161,5.72599 L -56.2375,5.74399 L -56.36,5.75 z
M -259.683,5.74399 L -259.804,5.72599 L -259.923,5.69617 L -260.038,5.65485 L -260.149,5.60239 L -260.254,5.53934
 L -260.353,5.46625 L -260.444,5.38388 L -260.526,5.293 L -260.599,5.19446 L -260.662,5.08924 L -260.715,4.97837
 L -260.756,4.86286 L -260.786,4.74387 L -260.804,4.62253 L -260.81,4.5 L -260.804,4.37747 L -260.786,4.25614
 L -260.756,4.13715 L -260.715,4.02164 L -260.662,3.91077 L -260.599,3.80554 L -260.526,3.707 L -260.444,3.61612
 L -260.353,3.53372 L -260.254,3.46067 L -260.149,3.39759 L -260.038,3.34516 L -259.923,3.30384 L -259.804,3.27402
 L -259.683,3.25601 L -259.56,3.25 L -259.437,3.25601 L -259.316,3.27402 L -259.197,3.30384 L -259.082,3.34516
 L -258.971,3.39759 L -258.866,3.46067 L -258.767,3.53372 L -258.676,3.61612 L -258.594,3.707 L -258.521,3.80554
 L -258.458,3.91077 L -258.405,4.02164 L -258.364,4.13715 L -258.334,4.25614 L -258.316,4.37747 L -258.31,4.5
 L -258.316,4.62253 L -258.334,4.74387 L -258.364,4.86286 L -258.405,4.97837 L -258.458,5.08924 L -258.521,5.19446
 L -258.594,5.293 L -258.676,5.38388 L -258.767,5.46625 L -258.866,5.53934 L -258.971,5.60239 L -259.082,5.65485
 L -259.197,5.69617 L -259.316,5.72599 L -259.437,5.74399 L -259.56,5.75 z
M -158.083,5.74399 L -158.204,5.72599 L -158.323,5.69617 L -158.438,5.65485 L -158.549,5.60239 L -158.654,5.53934
 L -158.753,5.46625 L -158.844,5.38388 L -158.926,5.293 L -158.999,5.19446 L -159.062,5.08924 L -159.115,4.97837
 L -159.156,4.86286 L -159.186,4.74387 L -159.204,4.62253 L -159.21,4.5 L -159.204,4.37747 L -159.186,4.25614
 L -159.156,4.13715 L -159.115,4.02164 L -159.062,3.91077 L -158.999,3.80554 L -158.926,3.707 L -158.844,3.61612
 L -158.753,3.53372 L -158.654,3.46067 L -158.549,3.39759 L -158.438,3.34516 L -158.323,3.30384 L -158.204,3.27402
 L -158.083,3.25601 L -157.96,3.25 L -157.837,3.25601 L -157.716,3.27402 L -157.597,3.30384 L -157.482,3.34516
 L -157.371,3.39759 L -157.266,3.46067 L -157.167,3.53372 L -157.076,3.61612 L -156.994,3.707 L -156.921,3.80554
 L -156.858,3.91077 L -156.805,4.02164 L -156.764,4.13715 L -156.734,4.25614 L -156.716,4.37747 L -156.71,4.5
 L -156.716,4.62253 L -156.734,4.74387 L -156.764,4.86286 L -156.805,4.97837 L -156.858,5.08924 L -156.921,5.19446
 L -156.994,5.293 L -157.076,5.38388 L -157.167,5.46625 L -157.266,5.53934 L -157.371,5.60239 L -157.482,5.65485
 L -157.597,5.69617 L -157.716,5.72599 L -157.837,5.74399 L -157.96,5.75 z
M -132.683,5.74399 L -132.804,5.72599 L -132.923,5.69617 L -133.038,5.65485 L -133.149,5.60239 L -133.254,5.53934
 L -133.353,5.46625 L -133.444,5.38388 L -133.526,5.293 L -133.599,5.19446 L -133.662,5.08924 L -133.715,4.97837
 L -133.756,4.86286 L -133.786,4.74387 L -133.804,4.62253 L -133.81,4.5 L -133.804,4.37747 L -133.786,4.25614
 L -133.756,4.13715 L -133.715,4.02164 L -133.662,3.91077 L -133.599,3.80554 L -133.526,3.707 L -133.444,3.61612
 L -133.353,3.53372 L -133.254,3.46067 L -133.149,3.39759 L -133.038,3.34516 L -132.923,3.30384 L -132.804,3.27402
 L -132.683,3.25601 L -132.56,3.25 L -132.437,3.25601 L -132.316,3.27402 L -132.197,3.30384 L -132.082,3.34516
 L -131.971,3.39759 L -131.866,3.46067 L -131.767,3.53372 L -131.676,3.61612 L -131.594,3.707 L -131.521,3.80554
 L -131.458,3.91077 L -131.405,4.02164 L -131.364,4.13715 L -131.334,4.25614 L -131.316,4.37747 L -131.31,4.5
 L -131.316,4.62253 L -131.334,4.74387 L -131.364,4.86286 L -131.405,4.97837 L -131.458,5.08924 L -131.521,5.19446
 L -131.594,5.293 L -131.676,5.38388 L -131.767,5.46625 L -131.866,5.53934 L -131.971,5.60239 L -132.082,5.65485
 L -132.197,5.69617 L -132.316,5.72599 L -132.437,5.74399 L -132.56,5.75 z
M -177.673,12.124 L -177.794,12.106 L -177.913,12.0762 L -178.028,12.0349 L -178.139,11.9824 L -178.244,11.9193
 L -178.343,11.8463 L -178.434,11.7639 L -178.516,11.673 L -178.589,11.5745 L -178.652,11.4692 L -178.705,11.3583
 L -178.746,11.2429 L -178.776,11.1239 L -178.794,11.0025 L -178.8,10.88 L -178.794,10.7575 L -178.776,10.6361
 L -178.746,10.5172 L -178.705,10.4016 L -178.652,10.2907 L -178.589,10.1855 L -178.516,10.087 L -178.434,9.99613
 L -178.343,9.91373 L -178.244,9.84067 L -178.139,9.77759 L -178.028,9.72516 L -177.913,9.68384 L -177.794,9.65402
 L -177.673,9.63602 L -177.55,9.63001 L -177.427,9.63602 L -177.306,9.65402 L -177.187,9.68384 L -177.072,9.72516
 L -176.961,9.77759 L -176.856,9.84067 L -176.757,9.91373 L -176.666,9.99613 L -176.584,10.087 L -176.511,10.1855
 L -176.448,10.2907 L -176.395,10.4016 L -176.354,10.5172 L -176.324,10.6361 L -176.306,10.7575 L -176.3,10.88
 L -176.306,11.0025 L -176.324,11.1239 L -176.354,11.2429 L -176.395,11.3583 L -176.448,11.4692 L -176.511,11.5745
 L -176.584,11.673 L -176.666,11.7639 L -176.757,11.8463 L -176.856,11.9193 L -176.961,11.9824 L -177.072,12.0349
 L -177.187,12.0762 L -177.306,12.106 L -177.427,12.124 L -177.55,12.13 z
M -20.1925,12.124 L -20.3139,12.106 L -20.4329,12.0762 L -20.5484,12.0349 L -20.6592,11.9824 L -20.7645,11.9193
 L -20.863,11.8463 L -20.9539,11.7639 L -21.0363,11.673 L -21.1093,11.5745 L -21.1724,11.4692 L -21.2249,11.3583
 L -21.2662,11.2429 L -21.296,11.1239 L -21.314,11.0025 L -21.32,10.88 L -21.314,10.7575 L -21.296,10.6361
 L -21.2662,10.5172 L -21.2249,10.4016 L -21.1724,10.2907 L -21.1093,10.1855 L -21.0363,10.087 L -20.9539,9.99613
 L -20.863,9.91373 L -20.7645,9.84067 L -20.6592,9.77759 L -20.5484,9.72516 L -20.4329,9.68384 L -20.3139,9.65402
 L -20.1925,9.63602 L -20.07,9.63001 L -19.9475,9.63602 L -19.8261,9.65402 L -19.7071,9.68384 L -19.5916,9.72516
 L -19.4808,9.77759 L -19.3755,9.84067 L -19.277,9.91373 L -19.1861,9.99613 L -19.1037,10.087 L -19.0307,10.1855
 L -18.9676,10.2907 L -18.9151,10.4016 L -18.8738,10.5172 L -18.844,10.6361 L -18.826,10.7575 L -18.82,10.88
 L -18.826,11.0025 L -18.844,11.1239 L -18.8738,11.2429 L -18.9151,11.3583 L -18.9676,11.4692 L -19.0307,11.5745
 L -19.1037,11.673 L -19.1861,11.7639 L -19.277,11.8463 L -19.3755,11.9193 L -19.4808,11.9824 L -19.5916,12.0349
 L -19.7071,12.0762 L -19.8261,12.106 L -19.9475,12.124 L -20.07,12.13 z
M -223.393,12.124 L -223.514,12.106 L -223.633,12.0762 L -223.748,12.0349 L -223.859,11.9824 L -223.964,11.9193
 L -224.063,11.8463 L -224.154,11.7639 L -224.236,11.673 L -224.309,11.5745 L -224.372,11.4692 L -224.425,11.3583
 L -224.466,11.2429 L -224.496,11.1239 L -224.514,11.0025 L -224.52,10.88 L -224.514,10.7575 L -224.496,10.6361
 L -224.466,10.5172 L -224.425,10.4016 L -224.372,10.2907 L -224.309,10.1855 L -224.236,10.087 L -224.154,9.99613
 L -224.063,9.91373 L -223.964,9.84067 L -223.859,9.77759 L -223.748,9.72516 L -223.633,9.68384 L -223.514,9.65402
 L -223.393,9.63602 L -223.27,9.63001 L -223.147,9.63602 L -223.026,9.65402 L -222.907,9.68384 L -222.792,9.72516
 L -222.681,9.77759 L -222.576,9.84067 L -222.477,9.91373 L -222.386,9.99613 L -222.304,10.087 L -222.231,10.1855
 L -222.168,10.2907 L -222.115,10.4016 L -222.074,10.5172 L -222.044,10.6361 L -222.026,10.7575 L -222.02,10.88
 L -222.026,11.0025 L -222.044,11.1239 L -222.074,11.2429 L -222.115,11.3583 L -222.168,11.4692 L -222.231,11.5745
 L -222.304,11.673 L -222.386,11.7639 L -222.477,11.8463 L -222.576,11.9193 L -222.681,11.9824 L -222.792,12.0349
 L -222.907,12.0762 L -223.026,12.106 L -223.147,12.124 L -223.27,12.13 z
M -279.683,52.204 L -279.804,52.186 L -279.923,52.1562 L -280.038,52.1149 L -280.149,52.0624 L -280.254,51.9993
 L -280.353,51.9263 L -280.444,51.8439 L -280.526,51.753 L -280.599,51.6545 L -280.662,51.5492 L -280.715,51.4384
 L -280.756,51.3229 L -280.786,51.2039 L -280.804,51.0825 L -280.81,50.96 L -280.804,50.8375 L -280.786,50.7161
 L -280.756,50.5971 L -280.715,50.4816 L -280.662,50.3708 L -280.599,50.2655 L -280.526,50.167 L -280.444,50.0761
 L -280.353,49.9937 L -280.254,49.9207 L -280.149,49.8576 L -280.038,49.8051 L -279.923,49.7638 L -279.804,49.734
 L -279.683,49.716 L -279.56,49.71 L -279.437,49.716 L -279.316,49.734 L -279.197,49.7638 L -279.082,49.8051
 L -278.971,49.8576 L -278.866,49.9207 L -278.767,49.9937 L -278.676,50.0761 L -278.594,50.167 L -278.521,50.2655
 L -278.458,50.3708 L -278.405,50.4816 L -278.364,50.5971 L -278.334,50.7161 L -278.316,50.8375 L -278.31,50.96
 L -278.316,51.0825 L -278.334,51.2039 L -278.364,51.3229 L -278.405,51.4384 L -278.458,51.5492 L -278.521,51.6545
 L -278.594,51.753 L -278.676,51.8439 L -278.767,51.9263 L -278.866,51.9993 L -278.971,52.0624 L -279.082,52.1149
 L -279.197,52.1562 L -279.316,52.186 L -279.437,52.204 L -279.56,52.21 z
M -10.1225,52.204 L -10.2439,52.186 L -10.3629,52.1562 L -10.4784,52.1149 L -10.5892,52.0624 L -10.6945,51.9993
 L -10.793,51.9263 L -10.8839,51.8439 L -10.9663,51.753 L -11.0393,51.6545 L -11.1024,51.5492 L -11.1548,51.4384
 L -11.1962,51.3229 L -11.226,51.2039 L -11.244,51.0825 L -11.25,50.96 L -11.244,50.8375 L -11.226,50.7161
 L -11.1962,50.5971 L -11.1548,50.4816 L -11.1024,50.3708 L -11.0393,50.2655 L -10.9663,50.167 L -10.8839,50.0761
 L -10.793,49.9937 L -10.6945,49.9207 L -10.5892,49.8576 L -10.4784,49.8051 L -10.3629,49.7638 L -10.2439,49.734
 L -10.1225,49.716 L -10,49.71 L -9.87747,49.716 L -9.75614,49.734 L -9.63715,49.7638 L -9.52164,49.8051
 L -9.41077,49.8576 L -9.30554,49.9207 L -9.207,49.9937 L -9.11612,50.0761 L -9.03372,50.167 L -8.96067,50.2655
 L -8.89759,50.3708 L -8.84516,50.4816 L -8.80384,50.5971 L -8.77402,50.7161 L -8.75601,50.8375 L -8.75,50.96
 L -8.75601,51.0825 L -8.77402,51.2039 L -8.80384,51.3229 L -8.84516,51.4384 L -8.89759,51.5492 L -8.96067,51.6545
 L -9.03372,51.753 L -9.11612,51.8439 L -9.207,51.9263 L -9.30554,51.9993 L -9.41077,52.0624 L -9.52164,52.1149
 L -9.63715,52.1562 L -9.75614,52.186 L -9.87747,52.204 L -10,52.21 z
M -279.683,77.604 L -279.804,77.586 L -279.923,77.5562 L -280.038,77.5148 L -280.149,77.4624 L -280.254,77.3993
 L -280.353,77.3263 L -280.444,77.2439 L -280.526,77.153 L -280.599,77.0545 L -280.662,76.9493 L -280.715,76.8384
 L -280.756,76.7229 L -280.786,76.6039 L -280.804,76.4825 L -280.81,76.36 L -280.804,76.2375 L -280.786,76.1161
 L -280.756,75.9971 L -280.715,75.8816 L -280.662,75.7708 L -280.599,75.6655 L -280.526,75.567 L -280.444,75.4761
 L -280.353,75.3937 L -280.254,75.3207 L -280.149,75.2576 L -280.038,75.2052 L -279.923,75.1638 L -279.804,75.134
 L -279.683,75.116 L -279.56,75.11 L -279.437,75.116 L -279.316,75.134 L -279.197,75.1638 L -279.082,75.2052
 L -278.971,75.2576 L -278.866,75.3207 L -278.767,75.3937 L -278.676,75.4761 L -278.594,75.567 L -278.521,75.6655
 L -278.458,75.7708 L -278.405,75.8816 L -278.364,75.9971 L -278.334,76.1161 L -278.316,76.2375 L -278.31,76.36
 L -278.316,76.4825 L -278.334,76.6039 L -278.364,76.7229 L -278.405,76.8384 L -278.458,76.9493 L -278.521,77.0545
 L -278.594,77.153 L -278.676,77.2439 L -278.767,77.3263 L -278.866,77.3993 L -278.971,77.4624 L -279.082,77.5148
 L -279.197,77.5562 L -279.316,77.586 L -279.437,77.604 L -279.56,77.61 z
M -10.1225,77.604 L -10.2439,77.586 L -10.3629,77.5562 L -10.4784,77.5148 L -10.5892,77.4624 L -10.6945,77.3993
 L -10.793,77.3263 L -10.8839,77.2439 L -10.9663,77.153 L -11.0393,77.0545 L -11.1024,76.9493 L -11.1548,76.8384
 L -11.1962,76.7229 L -11.226,76.6039 L -11.244,76.4825 L -11.25,76.36 L -11.244,76.2375 L -11.226,76.1161
 L -11.1962,75.9971 L -11.1548,75.8816 L -11.1024,75.7708 L -11.0393,75.6655 L -10.9663,75.567 L -10.8839,75.4761
 L -10.793,75.3937 L -10.6945,75.3207 L -10.5892,75.2576 L -10.4784,75.2052 L -10.3629,75.1638 L -10.2439,75.134
 L -10.1225,75.116 L -10,75.11 L -9.87747,75.116 L -9.75614,75.134 L -9.63715,75.1638 L -9.52164,75.2052
 L -9.41077,75.2576 L -9.30554,75.3207 L -9.207,75.3937 L -9.11612,75.4761 L -9.03372,75.567 L -8.96067,75.6655
 L -8.89759,75.7708 L -8.84516,75.8816 L -8.80384,75.9971 L -8.77402,76.1161 L -8.75601,76.2375 L -8.75,76.36
 L -8.75601,76.4825 L -8.77402,76.6039 L -8.80384,76.7229 L -8.84516,76.8384 L -8.89759,76.9493 L -8.96067,77.0545
 L -9.03372,77.153 L -9.11612,77.2439 L -9.207,77.3263 L -9.30554,77.3993 L -9.41077,77.4624 L -9.52164,77.5148
 L -9.63715,77.5562 L -9.75614,77.586 L -9.87747,77.604 L -10,77.61 z
M -10.1225,103.004 L -10.2439,102.986 L -10.3629,102.956 L -10.4784,102.915 L -10.5892,102.862 L -10.6945,102.799
 L -10.793,102.726 L -10.8839,102.644 L -10.9663,102.553 L -11.0393,102.454 L -11.1024,102.349 L -11.1548,102.238
 L -11.1962,102.123 L -11.226,102.004 L -11.244,101.883 L -11.25,101.76 L -11.244,101.637 L -11.226,101.516
 L -11.1962,101.397 L -11.1548,101.282 L -11.1024,101.171 L -11.0393,101.066 L -10.9663,100.967 L -10.8839,100.876
 L -10.793,100.794 L -10.6945,100.721 L -10.5892,100.658 L -10.4784,100.605 L -10.3629,100.564 L -10.2439,100.534
 L -10.1225,100.516 L -10,100.51 L -9.87747,100.516 L -9.75614,100.534 L -9.63715,100.564 L -9.52164,100.605
 L -9.41077,100.658 L -9.30554,100.721 L -9.207,100.794 L -9.11612,100.876 L -9.03372,100.967 L -8.96067,101.066
 L -8.89759,101.171 L -8.84516,101.282 L -8.80384,101.397 L -8.77402,101.516 L -8.75601,101.637 L -8.75,101.76
 L -8.75601,101.883 L -8.77402,102.004 L -8.80384,102.123 L -8.84516,102.238 L -8.89759,102.349 L -8.96067,102.454
 L -9.03372,102.553 L -9.11612,102.644 L -9.207,102.726 L -9.30554,102.799 L -9.41077,102.862 L -9.52164,102.915
 L -9.63715,102.956 L -9.75614,102.986 L -9.87747,103.004 L -10,103.01 z
M -279.683,103.004 L -279.804,102.986 L -279.923,102.956 L -280.038,102.915 L -280.149,102.862 L -280.254,102.799
 L -280.353,102.726 L -280.444,102.644 L -280.526,102.553 L -280.599,102.454 L -280.662,102.349 L -280.715,102.238
 L -280.756,102.123 L -280.786,102.004 L -280.804,101.883 L -280.81,101.76 L -280.804,101.637 L -280.786,101.516
 L -280.756,101.397 L -280.715,101.282 L -280.662,101.171 L -280.599,101.066 L -280.526,100.967 L -280.444,100.876
 L -280.353,100.794 L -280.254,100.721 L -280.149,100.658 L -280.038,100.605 L -279.923,100.564 L -279.804,100.534
 L -279.683,100.516 L -279.56,100.51 L -279.437,100.516 L -279.316,100.534 L -279.197,100.564 L -279.082,100.605
 L -278.971,100.658 L -278.866,100.721 L -278.767,100.794 L -278.676,100.876 L -278.594,100.967 L -278.521,101.066
 L -278.458,101.171 L -278.405,101.282 L -278.364,101.397 L -278.334,101.516 L -278.316,101.637 L -278.31,101.76
 L -278.316,101.883 L -278.334,102.004 L -278.364,102.123 L -278.405,102.238 L -278.458,102.349 L -278.521,102.454
 L -278.594,102.553 L -278.676,102.644 L -278.767,102.726 L -278.866,102.799 L -278.971,102.862 L -279.082,102.915
 L -279.197,102.956 L -279.316,102.986 L -279.437,103.004 L -279.56,103.01 z
M -279.683,128.404 L -279.804,128.386 L -279.923,128.356 L -280.038,128.315 L -280.149,128.262 L -280.254,128.199
 L -280.353,128.126 L -280.444,128.044 L -280.526,127.953 L -280.599,127.854 L -280.662,127.749 L -280.715,127.638
 L -280.756,127.523 L -280.786,127.404 L -280.804,127.283 L -280.81,127.16 L -280.804,127.037 L -280.786,126.916
 L -280.756,126.797 L -280.715,126.682 L -280.662,126.571 L -280.599,126.466 L -280.526,126.367 L -280.444,126.276
 L -280.353,126.194 L -280.254,126.121 L -280.149,126.058 L -280.038,126.005 L -279.923,125.964 L -279.804,125.934
 L -279.683,125.916 L -279.56,125.91 L -279.437,125.916 L -279.316,125.934 L -279.197,125.964 L -279.082,126.005
 L -278.971,126.058 L -278.866,126.121 L -278.767,126.194 L -278.676,126.276 L -278.594,126.367 L -278.521,126.466
 L -278.458,126.571 L -278.405,126.682 L -278.364,126.797 L -278.334,126.916 L -278.316,127.037 L -278.31,127.16
 L -278.316,127.283 L -278.334,127.404 L -278.364,127.523 L -278.405,127.638 L -278.458,127.749 L -278.521,127.854
 L -278.594,127.953 L -278.676,128.044 L -278.767,128.126 L -278.866,128.199 L -278.971,128.262 L -279.082,128.315
 L -279.197,128.356 L -279.316,128.386 L -279.437,128.404 L -279.56,128.41 z
M -10.1225,128.404 L -10.2439,128.386 L -10.3629,128.356 L -10.4784,128.315 L -10.5892,128.262 L -10.6945,128.199
 L -10.793,128.126 L -10.8839,128.044 L -10.9663,127.953 L -11.0393,127.854 L -11.1024,127.749 L -11.1548,127.638
 L -11.1962,127.523 L -11.226,127.404 L -11.244,127.283 L -11.25,127.16 L -11.244,127.037 L -11.226,126.916
 L -11.1962,126.797 L -11.1548,126.682 L -11.1024,126.571 L -11.0393,126.466 L -10.9663,126.367 L -10.8839,126.276
 L -10.793,126.194 L -10.6945,126.121 L -10.5892,126.058 L -10.4784,126.005 L -10.3629,125.964 L -10.2439,125.934
 L -10.1225,125.916 L -10,125.91 L -9.87747,125.916 L -9.75614,125.934 L -9.63715,125.964 L -9.52164,126.005
 L -9.41077,126.058 L -9.30554,126.121 L -9.207,126.194 L -9.11612,126.276 L -9.03372,126.367 L -8.96067,126.466
 L -8.89759,126.571 L -8.84516,126.682 L -8.80384,126.797 L -8.77402,126.916 L -8.75601,127.037 L -8.75,127.16
 L -8.75601,127.283 L -8.77402,127.404 L -8.80384,127.523 L -8.84516,127.638 L -8.89759,127.749 L -8.96067,127.854
 L -9.03372,127.953 L -9.11612,128.044 L -9.207,128.126 L -9.30554,128.199 L -9.41077,128.262 L -9.52164,128.315
 L -9.63715,128.356 L -9.75614,128.386 L -9.87747,128.404 L -10,128.41 z
M -10.1225,153.804 L -10.2439,153.786 L -10.3629,153.756 L -10.4784,153.715 L -10.5892,153.662 L -10.6945,153.599
 L -10.793,153.526 L -10.8839,153.444 L -10.9663,153.353 L -11.0393,153.254 L -11.1024,153.149 L -11.1548,153.038
 L -11.1962,152.923 L -11.226,152.804 L -11.244,152.683 L -11.25,152.56 L -11.244,152.437 L -11.226,152.316
 L -11.1962,152.197 L -11.1548,152.082 L -11.1024,151.971 L -11.0393,151.866 L -10.9663,151.767 L -10.8839,151.676
 L -10.793,151.594 L -10.6945,151.521 L -10.5892,151.458 L -10.4784,151.405 L -10.3629,151.364 L -10.2439,151.334
 L -10.1225,151.316 L -10,151.31 L -9.87747,151.316 L -9.75614,151.334 L -9.63715,151.364 L -9.52164,151.405
 L -9.41077,151.458 L -9.30554,151.521 L -9.207,151.594 L -9.11612,151.676 L -9.03372,151.767 L -8.96067,151.866
 L -8.89759,151.971 L -8.84516,152.082 L -8.80384,152.197 L -8.77402,152.316 L -8.75601,152.437 L -8.75,152.56
 L -8.75601,152.683 L -8.77402,152.804 L -8.80384,152.923 L -8.84516,153.038 L -8.89759,153.149 L -8.96067,153.254
 L -9.03372,153.353 L -9.11612,153.444 L -9.207,153.526 L -9.30554,153.599 L -9.41077,153.662 L -9.52164,153.715
 L -9.63715,153.756 L -9.75614,153.786 L -9.87747,153.804 L -10,153.81 z
M -279.683,153.804 L -279.804,153.786 L -279.923,153.756 L -280.038,153.715 L -280.149,153.662 L -280.254,153.599
 L -280.353,153.526 L -280.444,153.444 L -280.526,153.353 L -280.599,153.254 L -280.662,153.149 L -280.715,153.038
 L -280.756,152.923 L -280.786,152.804 L -280.804,152.683 L -280.81,152.56 L -280.804,152.437 L -280.786,152.316
 L -280.756,152.197 L -280.715,152.082 L -280.662,151.971 L -280.599,151.866 L -280.526,151.767 L -280.444,151.676
 L -280.353,151.594 L -280.254,151.521 L -280.149,151.458 L -280.038,151.405 L -279.923,151.364 L -279.804,151.334
 L -279.683,151.316 L -279.56,151.31 L -279.437,151.316 L -279.316,151.334 L -279.197,151.364 L -279.082,151.405
 L -278.971,151.458 L -278.866,151.521 L -278.767,151.594 L -278.676,151.676 L -278.594,151.767 L -278.521,151.866
 L -278.458,151.971 L -278.405,152.082 L -278.364,152.197 L -278.334,152.316 L -278.316,152.437 L -278.31,152.56
 L -278.316,152.683 L -278.334,152.804 L -278.364,152.923 L -278.405,153.038 L -278.458,153.149 L -278.521,153.254
 L -278.594,153.353 L -278.676,153.444 L -278.767,153.526 L -278.866,153.599 L -278.971,153.662 L -279.082,153.715
 L -279.197,153.756 L -279.316,153.786 L -279.437,153.804 L -279.56,153.81 z
M -20.1925,167.064 L -20.3139,167.046 L -20.4329,167.016 L -20.5484,166.975 L -20.6592,166.922 L -20.7645,166.859
 L -20.863,166.786 L -20.9539,166.704 L -21.0363,166.613 L -21.1093,166.514 L -21.1724,166.409 L -21.2249,166.298
 L -21.2662,166.183 L -21.296,166.064 L -21.314,165.943 L -21.32,165.82 L -21.314,165.697 L -21.296,165.576
 L -21.2662,165.457 L -21.2249,165.342 L -21.1724,165.231 L -21.1093,165.126 L -21.0363,165.027 L -20.9539,164.936
 L -20.863,164.854 L -20.7645,164.781 L -20.6592,164.718 L -20.5484,164.665 L -20.4329,164.624 L -20.3139,164.594
 L -20.1925,164.576 L -20.07,164.57 L -19.9475,164.576 L -19.8261,164.594 L -19.7071,164.624 L -19.5916,164.665
 L -19.4808,164.718 L -19.3755,164.781 L -19.277,164.854 L -19.1861,164.936 L -19.1037,165.027 L -19.0307,165.126
 L -18.9676,165.231 L -18.9151,165.342 L -18.8738,165.457 L -18.844,165.576 L -18.826,165.697 L -18.82,165.82
 L -18.826,165.943 L -18.844,166.064 L -18.8738,166.183 L -18.9151,166.298 L -18.9676,166.409 L -19.0307,166.514
 L -19.1037,166.613 L -19.1861,166.704 L -19.277,166.786 L -19.3755,166.859 L -19.4808,166.922 L -19.5916,166.975
 L -19.7071,167.016 L -19.8261,167.046 L -19.9475,167.064 L -20.07,167.07 z
M -177.673,167.064 L -177.794,167.046 L -177.913,167.016 L -178.028,166.975 L -178.139,166.922 L -178.244,166.859
 L -178.343,166.786 L -178.434,166.704 L -178.516,166.613 L -178.589,166.514 L -178.652,166.409 L -178.705,166.298
 L -178.746,166.183 L -178.776,166.064 L -178.794,165.943 L -178.8,165.82 L -178.794,165.697 L -178.776,165.576
 L -178.746,165.457 L -178.705,165.342 L -178.652,165.231 L -178.589,165.126 L -178.516,165.027 L -178.434,164.936
 L -178.343,164.854 L -178.244,164.781 L -178.139,164.718 L -178.028,164.665 L -177.913,164.624 L -177.794,164.594
 L -177.673,164.576 L -177.55,164.57 L -177.427,164.576 L -177.306,164.594 L -177.187,164.624 L -177.072,164.665
 L -176.961,164.718 L -176.856,164.781 L -176.757,164.854 L -176.666,164.936 L -176.584,165.027 L -176.511,165.126
 L -176.448,165.231 L -176.395,165.342 L -176.354,165.457 L -176.324,165.576 L -176.306,165.697 L -176.3,165.82
 L -176.306,165.943 L -176.324,166.064 L -176.354,166.183 L -176.395,166.298 L -176.448,166.409 L -176.511,166.514
 L -176.584,166.613 L -176.666,166.704 L -176.757,166.786 L -176.856,166.859 L -176.961,166.922 L -177.072,166.975
 L -177.187,167.016 L -177.306,167.046 L -177.427,167.064 L -177.55,167.07 z
M -223.393,167.064 L -223.514,167.046 L -223.633,167.016 L -223.748,166.975 L -223.859,166.922 L -223.964,166.859
 L -224.063,166.786 L -224.154,166.704 L -224.236,166.613 L -224.309,166.514 L -224.372,166.409 L -224.425,166.298
 L -224.466,166.183 L -224.496,166.064 L -224.514,165.943 L -224.52,165.82 L -224.514,165.697 L -224.496,165.576
 L -224.466,165.457 L -224.425,165.342 L -224.372,165.231 L -224.309,165.126 L -224.236,165.027 L -224.154,164.936
 L -224.063,164.854 L -223.964,164.781 L -223.859,164.718 L -223.748,164.665 L -223.633,164.624 L -223.514,164.594
 L -223.393,164.576 L -223.27,164.57 L -223.147,164.576 L -223.026,164.594 L -222.907,164.624 L -222.792,164.665
 L -222.681,164.718 L -222.576,164.781 L -222.477,164.854 L -222.386,164.936 L -222.304,165.027 L -222.231,165.126
 L -222.168,165.231 L -222.115,165.342 L -222.074,165.457 L -222.044,165.576 L -222.026,165.697 L -222.02,165.82
 L -222.026,165.943 L -222.044,166.064 L -222.074,166.183 L -222.115,166.298 L -222.168,166.409 L -222.231,166.514
 L -222.304,166.613 L -222.386,166.704 L -222.477,166.786 L -222.576,166.859 L -222.681,166.922 L -222.792,166.975
 L -222.907,167.016 L -223.026,167.046 L -223.147,167.064 L -223.27,167.07 z
M -243.713,167.064 L -243.834,167.046 L -243.953,167.016 L -244.068,166.975 L -244.179,166.922 L -244.284,166.859
 L -244.383,166.786 L -244.474,166.704 L -244.556,166.613 L -244.629,166.514 L -244.692,166.409 L -244.745,166.298
 L -244.786,166.183 L -244.816,166.064 L -244.834,165.943 L -244.84,165.82 L -244.834,165.697 L -244.816,165.576
 L -244.786,165.457 L -244.745,165.342 L -244.692,165.231 L -244.629,165.126 L -244.556,165.027 L -244.474,164.936
 L -244.383,164.854 L -244.284,164.781 L -244.179,164.718 L -244.068,164.665 L -243.953,164.624 L -243.834,164.594
 L -243.713,164.576 L -243.59,164.57 L -243.467,164.576 L -243.346,164.594 L -243.227,164.624 L -243.112,164.665
 L -243.001,164.718 L -242.896,164.781 L -242.797,164.854 L -242.706,164.936 L -242.624,165.027 L -242.551,165.126
 L -242.488,165.231 L -242.435,165.342 L -242.394,165.457 L -242.364,165.576 L -242.346,165.697 L -242.34,165.82
 L -242.346,165.943 L -242.364,166.064 L -242.394,166.183 L -242.435,166.298 L -242.488,166.409 L -242.551,166.514
 L -242.624,166.613 L -242.706,166.704 L -242.797,166.786 L -242.896,166.859 L -243.001,166.922 L -243.112,166.975
 L -243.227,167.016 L -243.346,167.046 L -243.467,167.064 L -243.59,167.07 z
M -279.683,179.204 L -279.804,179.186 L -279.923,179.156 L -280.038,179.115 L -280.149,179.062 L -280.254,178.999
 L -280.353,178.926 L -280.444,178.844 L -280.526,178.753 L -280.599,178.654 L -280.662,178.549 L -280.715,178.438
 L -280.756,178.323 L -280.786,178.204 L -280.804,178.083 L -280.81,177.96 L -280.804,177.837 L -280.786,177.716
 L -280.756,177.597 L -280.715,177.482 L -280.662,177.371 L -280.599,177.266 L -280.526,177.167 L -280.444,177.076
 L -280.353,176.994 L -280.254,176.921 L -280.149,176.858 L -280.038,176.805 L -279.923,176.764 L -279.804,176.734
 L -279.683,176.716 L -279.56,176.71 L -279.437,176.716 L -279.316,176.734 L -279.197,176.764 L -279.082,176.805
 L -278.971,176.858 L -278.866,176.921 L -278.767,176.994 L -278.676,177.076 L -278.594,177.167 L -278.521,177.266
 L -278.458,177.371 L -278.405,177.482 L -278.364,177.597 L -278.334,177.716 L -278.316,177.837 L -278.31,177.96
 L -278.316,178.083 L -278.334,178.204 L -278.364,178.323 L -278.405,178.438 L -278.458,178.549 L -278.521,178.654
 L -278.594,178.753 L -278.676,178.844 L -278.767,178.926 L -278.866,178.999 L -278.971,179.062 L -279.082,179.115
 L -279.197,179.156 L -279.316,179.186 L -279.437,179.204 L -279.56,179.21 z
M -10.1225,179.204 L -10.2439,179.186 L -10.3629,179.156 L -10.4784,179.115 L -10.5892,179.062 L -10.6945,178.999
 L -10.793,178.926 L -10.8839,178.844 L -10.9663,178.753 L -11.0393,178.654 L -11.1024,178.549 L -11.1548,178.438
 L -11.1962,178.323 L -11.226,178.204 L -11.244,178.083 L -11.25,177.96 L -11.244,177.837 L -11.226,177.716
 L -11.1962,177.597 L -11.1548,177.482 L -11.1024,177.371 L -11.0393,177.266 L -10.9663,177.167 L -10.8839,177.076
 L -10.793,176.994 L -10.6945,176.921 L -10.5892,176.858 L -10.4784,176.805 L -10.3629,176.764 L -10.2439,176.734
 L -10.1225,176.716 L -10,176.71 L -9.87747,176.716 L -9.75614,176.734 L -9.63715,176.764 L -9.52164,176.805
 L -9.41077,176.858 L -9.30554,176.921 L -9.207,176.994 L -9.11612,177.076 L -9.03372,177.167 L -8.96067,177.266
 L -8.89759,177.371 L -8.84516,177.482 L -8.80384,177.597 L -8.77402,177.716 L -8.75601,177.837 L -8.75,177.96
 L -8.75601,178.083 L -8.77402,178.204 L -8.80384,178.323 L -8.84516,178.438 L -8.89759,178.549 L -8.96067,178.654
 L -9.03372,178.753 L -9.11612,178.844 L -9.207,178.926 L -9.30554,178.999 L -9.41077,179.062 L -9.52164,179.115
 L -9.63715,179.156 L -9.75614,179.186 L -9.87747,179.204 L -10,179.21 z
M -279.683,204.604 L -279.804,204.586 L -279.923,204.556 L -280.038,204.515 L -280.149,204.462 L -280.254,204.399
 L -280.353,204.326 L -280.444,204.244 L -280.526,204.153 L -280.599,204.054 L -280.662,203.949 L -280.715,203.838
 L -280.756,203.723 L -280.786,203.604 L -280.804,203.483 L -280.81,203.36 L -280.804,203.237 L -280.786,203.116
 L -280.756,202.997 L -280.715,202.882 L -280.662,202.771 L -280.599,202.666 L -280.526,202.567 L -280.444,202.476
 L -280.353,202.394 L -280.254,202.321 L -280.149,202.258 L -280.038,202.205 L -279.923,202.164 L -279.804,202.134
 L -279.683,202.116 L -279.56,202.11 L -279.437,202.116 L -279.316,202.134 L -279.197,202.164 L -279.082,202.205
 L -278.971,202.258 L -278.866,202.321 L -278.767,202.394 L -278.676,202.476 L -278.594,202.567 L -278.521,202.666
 L -278.458,202.771 L -278.405,202.882 L -278.364,202.997 L -278.334,203.116 L -278.316,203.237 L -278.31,203.36
 L -278.316,203.483 L -278.334,203.604 L -278.364,203.723 L -278.405,203.838 L -278.458,203.949 L -278.521,204.054
 L -278.594,204.153 L -278.676,204.244 L -278.767,204.326 L -278.866,204.399 L -278.971,204.462 L -279.082,204.515
 L -279.197,204.556 L -279.316,204.586 L -279.437,204.604 L -279.56,204.61 z
M -10.1225,204.604 L -10.2439,204.586 L -10.3629,204.556 L -10.4784,204.515 L -10.5892,204.462 L -10.6945,204.399
 L -10.793,204.326 L -10.8839,204.244 L -10.9663,204.153 L -11.0393,204.054 L -11.1024,203.949 L -11.1548,203.838
 L -11.1962,203.723 L -11.226,203.604 L -11.244,203.483 L -11.25,203.36 L -11.244,203.237 L -11.226,203.116
 L -11.1962,202.997 L -11.1548,202.882 L -11.1024,202.771 L -11.0393,202.666 L -10.9663,202.567 L -10.8839,202.476
 L -10.793,202.394 L -10.6945,202.321 L -10.5892,202.258 L -10.4784,202.205 L -10.3629,202.164 L -10.2439,202.134
 L -10.1225,202.116 L -10,202.11 L -9.87747,202.116 L -9.75614,202.134 L -9.63715,202.164 L -9.52164,202.205
 L -9.41077,202.258 L -9.30554,202.321 L -9.207,202.394 L -9.11612,202.476 L -9.03372,202.567 L -8.96067,202.666
 L -8.89759,202.771 L -8.84516,202.882 L -8.80384,202.997 L -8.77402,203.116 L -8.75601,203.237 L -8.75,203.36
 L -8.75601,203.483 L -8.77402,203.604 L -8.80384,203.723 L -8.84516,203.838 L -8.89759,203.949 L -8.96067,204.054
 L -9.03372,204.153 L -9.11612,204.244 L -9.207,204.326 L -9.30554,204.399 L -9.41077,204.462 L -9.52164,204.515
 L -9.63715,204.556 L -9.75614,204.586 L -9.87747,204.604 L -10,204.61 z
M -10.1225,230.004 L -10.2439,229.986 L -10.3629,229.956 L -10.4784,229.915 L -10.5892,229.862 L -10.6945,229.799
 L -10.793,229.726 L -10.8839,229.644 L -10.9663,229.553 L -11.0393,229.454 L -11.1024,229.349 L -11.1548,229.238
 L -11.1962,229.123 L -11.226,229.004 L -11.244,228.883 L -11.25,228.76 L -11.244,228.637 L -11.226,228.516
 L -11.1962,228.397 L -11.1548,228.282 L -11.1024,228.171 L -11.0393,228.066 L -10.9663,227.967 L -10.8839,227.876
 L -10.793,227.794 L -10.6945,227.721 L -10.5892,227.658 L -10.4784,227.605 L -10.3629,227.564 L -10.2439,227.534
 L -10.1225,227.516 L -10,227.51 L -9.87747,227.516 L -9.75614,227.534 L -9.63715,227.564 L -9.52164,227.605
 L -9.41077,227.658 L -9.30554,227.721 L -9.207,227.794 L -9.11612,227.876 L -9.03372,227.967 L -8.96067,228.066
 L -8.89759,228.171 L -8.84516,228.282 L -8.80384,228.397 L -8.77402,228.516 L -8.75601,228.637 L -8.75,228.76
 L -8.75601,228.883 L -8.77402,229.004 L -8.80384,229.123 L -8.84516,229.238 L -8.89759,229.349 L -8.96067,229.454
 L -9.03372,229.553 L -9.11612,229.644 L -9.207,229.726 L -9.30554,229.799 L -9.41077,229.862 L -9.52164,229.915
 L -9.63715,229.956 L -9.75614,229.986 L -9.87747,230.004 L -10,230.01 z
M -279.683,230.004 L -279.804,229.986 L -279.923,229.956 L -280.038,229.915 L -280.149,229.862 L -280.254,229.799
 L -280.353,229.726 L -280.444,229.644 L -280.526,229.553 L -280.599,229.454 L -280.662,229.349 L -280.715,229.238
 L -280.756,229.123 L -280.786,229.004 L -280.804,228.883 L -280.81,228.76 L -280.804,228.637 L -280.786,228.516
 L -280.756,228.397 L -280.715,228.282 L -280.662,228.171 L -280.599,228.066 L -280.526,227.967 L -280.444,227.876
 L -280.353,227.794 L -280.254,227.721 L -280.149,227.658 L -280.038,227.605 L -279.923,227.564 L -279.804,227.534
 L -279.683,227.516 L -279.56,227.51 L -279.437,227.516 L -279.316,227.534 L -279.197,227.564 L -279.082,227.605
 L -278.971,227.658 L -278.866,227.721 L -278.767,227.794 L -278.676,227.876 L -278.594,227.967 L -278.521,228.066
 L -278.458,228.171 L -278.405,228.282 L -278.364,228.397 L -278.334,228.516 L -278.316,228.637 L -278.31,228.76
 L -278.316,228.883 L -278.334,229.004 L -278.364,229.123 L -278.405,229.238 L -278.458,229.349 L -278.521,229.454
 L -278.594,229.553 L -278.676,229.644 L -278.767,229.726 L -278.866,229.799 L -278.971,229.862 L -279.082,229.915
 L -279.197,229.956 L -279.316,229.986 L -279.437,230.004 L -279.56,230.01 z
M -20.1925,239.454 L -20.3139,239.436 L -20.4329,239.406 L -20.5484,239.365 L -20.6592,239.312 L -20.7645,239.249
 L -20.863,239.176 L -20.9539,239.094 L -21.0363,239.003 L -21.1093,238.904 L -21.1724,238.799 L -21.2249,238.688
 L -21.2662,238.573 L -21.296,238.454 L -21.314,238.333 L -21.32,238.21 L -21.314,238.087 L -21.296,237.966
 L -21.2662,237.847 L -21.2249,237.732 L -21.1724,237.621 L -21.1093,237.516 L -21.0363,237.417 L -20.9539,237.326
 L -20.863,237.244 L -20.7645,237.171 L -20.6592,237.108 L -20.5484,237.055 L -20.4329,237.014 L -20.3139,236.984
 L -20.1925,236.966 L -20.07,236.96 L -19.9475,236.966 L -19.8261,236.984 L -19.7071,237.014 L -19.5916,237.055
 L -19.4808,237.108 L -19.3755,237.171 L -19.277,237.244 L -19.1861,237.326 L -19.1037,237.417 L -19.0307,237.516
 L -18.9676,237.621 L -18.9151,237.732 L -18.8738,237.847 L -18.844,237.966 L -18.826,238.087 L -18.82,238.21
 L -18.826,238.333 L -18.844,238.454 L -18.8738,238.573 L -18.9151,238.688 L -18.9676,238.799 L -19.0307,238.904
 L -19.1037,239.003 L -19.1861,239.094 L -19.277,239.176 L -19.3755,239.249 L -19.4808,239.312 L -19.5916,239.365
 L -19.7071,239.406 L -19.8261,239.436 L -19.9475,239.454 L -20.07,239.46 z
M -177.673,239.454 L -177.794,239.436 L -177.913,239.406 L -178.028,239.365 L -178.139,239.312 L -178.244,239.249
 L -178.343,239.176 L -178.434,239.094 L -178.516,239.003 L -178.589,238.904 L -178.652,238.799 L -178.705,238.688
 L -178.746,238.573 L -178.776,238.454 L -178.794,238.333 L -178.8,238.21 L -178.794,238.087 L -178.776,237.966
 L -178.746,237.847 L -178.705,237.732 L -178.652,237.621 L -178.589,237.516 L -178.516,237.417 L -178.434,237.326
 L -178.343,237.244 L -178.244,237.171 L -178.139,237.108 L -178.028,237.055 L -177.913,237.014 L -177.794,236.984
 L -177.673,236.966 L -177.55,236.96 L -177.427,236.966 L -177.306,236.984 L -177.187,237.014 L -177.072,237.055
 L -176.961,237.108 L -176.856,237.171 L -176.757,237.244 L -176.666,237.326 L -176.584,237.417 L -176.511,237.516
 L -176.448,237.621 L -176.395,237.732 L -176.354,237.847 L -176.324,237.966 L -176.306,238.087 L -176.3,238.21
 L -176.306,238.333 L -176.324,238.454 L -176.354,238.573 L -176.395,238.688 L -176.448,238.799 L -176.511,238.904
 L -176.584,239.003 L -176.666,239.094 L -176.757,239.176 L -176.856,239.249 L -176.961,239.312 L -177.072,239.365
 L -177.187,239.406 L -177.306,239.436 L -177.427,239.454 L -177.55,239.46 z
M -279.683,255.404 L -279.804,255.386 L -279.923,255.356 L -280.038,255.315 L -280.149,255.262 L -280.254,255.199
 L -280.353,255.126 L -280.444,255.044 L -280.526,254.953 L -280.599,254.854 L -280.662,254.749 L -280.715,254.638
 L -280.756,254.523 L -280.786,254.404 L -280.804,254.283 L -280.81,254.16 L -280.804,254.037 L -280.786,253.916
 L -280.756,253.797 L -280.715,253.682 L -280.662,253.571 L -280.599,253.466 L -280.526,253.367 L -280.444,253.276
 L -280.353,253.194 L -280.254,253.121 L -280.149,253.058 L -280.038,253.005 L -279.923,252.964 L -279.804,252.934
 L -279.683,252.916 L -279.56,252.91 L -279.437,252.916 L -279.316,252.934 L -279.197,252.964 L -279.082,253.005
 L -278.971,253.058 L -278.866,253.121 L -278.767,253.194 L -278.676,253.276 L -278.594,253.367 L -278.521,253.466
 L -278.458,253.571 L -278.405,253.682 L -278.364,253.797 L -278.334,253.916 L -278.316,254.037 L -278.31,254.16
 L -278.316,254.283 L -278.334,254.404 L -278.364,254.523 L -278.405,254.638 L -278.458,254.749 L -278.521,254.854
 L -278.594,254.953 L -278.676,255.044 L -278.767,255.126 L -278.866,255.199 L -278.971,255.262 L -279.082,255.315
 L -279.197,255.356 L -279.316,255.386 L -279.437,255.404 L -279.56,255.41 z
M -10.1225,255.404 L -10.2439,255.386 L -10.3629,255.356 L -10.4784,255.315 L -10.5892,255.262 L -10.6945,255.199
 L -10.793,255.126 L -10.8839,255.044 L -10.9663,254.953 L -11.0393,254.854 L -11.1024,254.749 L -11.1548,254.638
 L -11.1962,254.523 L -11.226,254.404 L -11.244,254.283 L -11.25,254.16 L -11.244,254.037 L -11.226,253.916
 L -11.1962,253.797 L -11.1548,253.682 L -11.1024,253.571 L -11.0393,253.466 L -10.9663,253.367 L -10.8839,253.276
 L -10.793,253.194 L -10.6945,253.121 L -10.5892,253.058 L -10.4784,253.005 L -10.3629,252.964 L -10.2439,252.934
 L -10.1225,252.916 L -10,252.91 L -9.87747,252.916 L -9.75614,252.934 L -9.63715,252.964 L -9.52164,253.005
 L -9.41077,253.058 L -9.30554,253.121 L -9.207,253.194 L -9.11612,253.276 L -9.03372,253.367 L -8.96067,253.466
 L -8.89759,253.571 L -8.84516,253.682 L -8.80384,253.797 L -8.77402,253.916 L -8.75601,254.037 L -8.75,254.16
 L -8.75601,254.283 L -8.77402,254.404 L -8.80384,254.523 L -8.84516,254.638 L -8.89759,254.749 L -8.96067,254.854
 L -9.03372,254.953 L -9.11612,255.044 L -9.207,255.126 L -9.30554,255.199 L -9.41077,255.262 L -9.52164,255.315
 L -9.63715,255.356 L -9.75614,255.386 L -9.87747,255.404 L -10,255.41 z
M -248.683,260.804 L -248.804,260.786 L -248.923,260.756 L -249.038,260.715 L -249.149,260.662 L -249.254,260.599
 L -249.353,260.526 L -249.444,260.444 L -249.526,260.353 L -249.599,260.254 L -249.662,260.149 L -249.715,260.038
 L -249.756,259.923 L -249.786,259.804 L -249.804,259.683 L -249.81,259.56 L -249.804,259.437 L -249.786,259.316
 L -249.756,259.197 L -249.715,259.082 L -249.662,258.971 L -249.599,258.866 L -249.526,258.767 L -249.444,258.676
 L -249.353,258.594 L -249.254,258.521 L -249.149,258.458 L -249.038,258.405 L -248.923,258.364 L -248.804,258.334
 L -248.683,258.316 L -248.56,258.31 L -248.437,258.316 L -248.316,258.334 L -248.197,258.364 L -248.082,258.405
 L -247.971,258.458 L -247.866,258.521 L -247.767,258.594 L -247.676,258.676 L -247.594,258.767 L -247.521,258.866
 L -247.458,258.971 L -247.405,259.082 L -247.364,259.197 L -247.334,259.316 L -247.316,259.437 L -247.31,259.56
 L -247.316,259.683 L -247.334,259.804 L -247.364,259.923 L -247.405,260.038 L -247.458,260.149 L -247.521,260.254
 L -247.594,260.353 L -247.676,260.444 L -247.767,260.526 L -247.866,260.599 L -247.971,260.662 L -248.082,260.715
 L -248.197,260.756 L -248.316,260.786 L -248.437,260.804 L -248.56,260.81 z
M -223.283,260.804 L -223.404,260.786 L -223.523,260.756 L -223.638,260.715 L -223.749,260.662 L -223.854,260.599
 L -223.953,260.526 L -224.044,260.444 L -224.126,260.353 L -224.199,260.254 L -224.262,260.149 L -224.315,260.038
 L -224.356,259.923 L -224.386,259.804 L -224.404,259.683 L -224.41,259.56 L -224.404,259.437 L -224.386,259.316
 L -224.356,259.197 L -224.315,259.082 L -224.262,258.971 L -224.199,258.866 L -224.126,258.767 L -224.044,258.676
 L -223.953,258.594 L -223.854,258.521 L -223.749,258.458 L -223.638,258.405 L -223.523,258.364 L -223.404,258.334
 L -223.283,258.316 L -223.16,258.31 L -223.037,258.316 L -222.916,258.334 L -222.797,258.364 L -222.682,258.405
 L -222.571,258.458 L -222.466,258.521 L -222.367,258.594 L -222.276,258.676 L -222.194,258.767 L -222.121,258.866
 L -222.058,258.971 L -222.005,259.082 L -221.964,259.197 L -221.934,259.316 L -221.916,259.437 L -221.91,259.56
 L -221.916,259.683 L -221.934,259.804 L -221.964,259.923 L -222.005,260.038 L -222.058,260.149 L -222.121,260.254
 L -222.194,260.353 L -222.276,260.444 L -222.367,260.526 L -222.466,260.599 L -222.571,260.662 L -222.682,260.715
 L -222.797,260.756 L -222.916,260.786 L -223.037,260.804 L -223.16,260.81 z
M -197.883,260.804 L -198.004,260.786 L -198.123,260.756 L -198.238,260.715 L -198.349,260.662 L -198.454,260.599
 L -198.553,260.526 L -198.644,260.444 L -198.726,260.353 L -198.799,260.254 L -198.862,260.149 L -198.915,260.038
 L -198.956,259.923 L -198.986,259.804 L -199.004,259.683 L -199.01,259.56 L -199.004,259.437 L -198.986,259.316
 L -198.956,259.197 L -198.915,259.082 L -198.862,258.971 L -198.799,258.866 L -198.726,258.767 L -198.644,258.676
 L -198.553,258.594 L -198.454,258.521 L -198.349,258.458 L -198.238,258.405 L -198.123,258.364 L -198.004,258.334
 L -197.883,258.316 L -197.76,258.31 L -197.637,258.316 L -197.516,258.334 L -197.397,258.364 L -197.282,258.405
 L -197.171,258.458 L -197.066,258.521 L -196.967,258.594 L -196.876,258.676 L -196.794,258.767 L -196.721,258.866
 L -196.658,258.971 L -196.605,259.082 L -196.564,259.197 L -196.534,259.316 L -196.516,259.437 L -196.51,259.56
 L -196.516,259.683 L -196.534,259.804 L -196.564,259.923 L -196.605,260.038 L -196.658,260.149 L -196.721,260.254
 L -196.794,260.353 L -196.876,260.444 L -196.967,260.526 L -197.066,260.599 L -197.171,260.662 L -197.282,260.715
 L -197.397,260.756 L -197.516,260.786 L -197.637,260.804 L -197.76,260.81 z
M -172.483,260.804 L -172.604,260.786 L -172.723,260.756 L -172.838,260.715 L -172.949,260.662 L -173.054,260.599
 L -173.153,260.526 L -173.244,260.444 L -173.326,260.353 L -173.399,260.254 L -173.462,260.149 L -173.515,260.038
 L -173.556,259.923 L -173.586,259.804 L -173.604,259.683 L -173.61,259.56 L -173.604,259.437 L -173.586,259.316
 L -173.556,259.197 L -173.515,259.082 L -173.462,258.971 L -173.399,258.866 L -173.326,258.767 L -173.244,258.676
 L -173.153,258.594 L -173.054,258.521 L -172.949,258.458 L -172.838,258.405 L -172.723,258.364 L -172.604,258.334
 L -172.483,258.316 L -172.36,258.31 L -172.237,258.316 L -172.116,258.334 L -171.997,258.364 L -171.882,258.405
 L -171.771,258.458 L -171.666,258.521 L -171.567,258.594 L -171.476,258.676 L -171.394,258.767 L -171.321,258.866
 L -171.258,258.971 L -171.205,259.082 L -171.164,259.197 L -171.134,259.316 L -171.116,259.437 L -171.11,259.56
 L -171.116,259.683 L -171.134,259.804 L -171.164,259.923 L -171.205,260.038 L -171.258,260.149 L -171.321,260.254
 L -171.394,260.353 L -171.476,260.444 L -171.567,260.526 L -171.666,260.599 L -171.771,260.662 L -171.882,260.715
 L -171.997,260.756 L -172.116,260.786 L -172.237,260.804 L -172.36,260.81 z
M -147.083,260.804 L -147.204,260.786 L -147.323,260.756 L -147.438,260.715 L -147.549,260.662 L -147.654,260.599
 L -147.753,260.526 L -147.844,260.444 L -147.926,260.353 L -147.999,260.254 L -148.062,260.149 L -148.115,260.038
 L -148.156,259.923 L -148.186,259.804 L -148.204,259.683 L -148.21,259.56 L -148.204,259.437 L -148.186,259.316
 L -148.156,259.197 L -148.115,259.082 L -148.062,258.971 L -147.999,258.866 L -147.926,258.767 L -147.844,258.676
 L -147.753,258.594 L -147.654,258.521 L -147.549,258.458 L -147.438,258.405 L -147.323,258.364 L -147.204,258.334
 L -147.083,258.316 L -146.96,258.31 L -146.837,258.316 L -146.716,258.334 L -146.597,258.364 L -146.482,258.405
 L -146.371,258.458 L -146.266,258.521 L -146.167,258.594 L -146.076,258.676 L -145.994,258.767 L -145.921,258.866
 L -145.858,258.971 L -145.805,259.082 L -145.764,259.197 L -145.734,259.316 L -145.716,259.437 L -145.71,259.56
 L -145.716,259.683 L -145.734,259.804 L -145.764,259.923 L -145.805,260.038 L -145.858,260.149 L -145.921,260.254
 L -145.994,260.353 L -146.076,260.444 L -146.167,260.526 L -146.266,260.599 L -146.371,260.662 L -146.482,260.715
 L -146.597,260.756 L -146.716,260.786 L -146.837,260.804 L -146.96,260.81 z
M -121.683,260.804 L -121.804,260.786 L -121.923,260.756 L -122.038,260.715 L -122.149,260.662 L -122.254,260.599
 L -122.353,260.526 L -122.444,260.444 L -122.526,260.353 L -122.599,260.254 L -122.662,260.149 L -122.715,260.038
 L -122.756,259.923 L -122.786,259.804 L -122.804,259.683 L -122.81,259.56 L -122.804,259.437 L -122.786,259.316
 L -122.756,259.197 L -122.715,259.082 L -122.662,258.971 L -122.599,258.866 L -122.526,258.767 L -122.444,258.676
 L -122.353,258.594 L -122.254,258.521 L -122.149,258.458 L -122.038,258.405 L -121.923,258.364 L -121.804,258.334
 L -121.683,258.316 L -121.56,258.31 L -121.437,258.316 L -121.316,258.334 L -121.197,258.364 L -121.082,258.405
 L -120.971,258.458 L -120.866,258.521 L -120.767,258.594 L -120.676,258.676 L -120.594,258.767 L -120.521,258.866
 L -120.458,258.971 L -120.405,259.082 L -120.364,259.197 L -120.334,259.316 L -120.316,259.437 L -120.31,259.56
 L -120.316,259.683 L -120.334,259.804 L -120.364,259.923 L -120.405,260.038 L -120.458,260.149 L -120.521,260.254
 L -120.594,260.353 L -120.676,260.444 L -120.767,260.526 L -120.866,260.599 L -120.971,260.662 L -121.082,260.715
 L -121.197,260.756 L -121.316,260.786 L -121.437,260.804 L -121.56,260.81 z
M -96.2825,260.804 L -96.4039,260.786 L -96.5229,260.756 L -96.6384,260.715 L -96.7492,260.662 L -96.8545,260.599
 L -96.953,260.526 L -97.0439,260.444 L -97.1263,260.353 L -97.1993,260.254 L -97.2624,260.149 L -97.3149,260.038
 L -97.3562,259.923 L -97.386,259.804 L -97.404,259.683 L -97.41,259.56 L -97.404,259.437 L -97.386,259.316
 L -97.3562,259.197 L -97.3149,259.082 L -97.2624,258.971 L -97.1993,258.866 L -97.1263,258.767 L -97.0439,258.676
 L -96.953,258.594 L -96.8545,258.521 L -96.7492,258.458 L -96.6384,258.405 L -96.5229,258.364 L -96.4039,258.334
 L -96.2825,258.316 L -96.16,258.31 L -96.0375,258.316 L -95.9161,258.334 L -95.7972,258.364 L -95.6816,258.405
 L -95.5708,258.458 L -95.4655,258.521 L -95.367,258.594 L -95.2761,258.676 L -95.1937,258.767 L -95.1207,258.866
 L -95.0576,258.971 L -95.0051,259.082 L -94.9638,259.197 L -94.934,259.316 L -94.916,259.437 L -94.91,259.56
 L -94.916,259.683 L -94.934,259.804 L -94.9638,259.923 L -95.0051,260.038 L -95.0576,260.149 L -95.1207,260.254
 L -95.1937,260.353 L -95.2761,260.444 L -95.367,260.526 L -95.4655,260.599 L -95.5708,260.662 L -95.6816,260.715
 L -95.7972,260.756 L -95.9161,260.786 L -96.0375,260.804 L -96.16,260.81 z
M -45.4825,260.804 L -45.6039,260.786 L -45.7229,260.756 L -45.8384,260.715 L -45.9493,260.662 L -46.0545,260.599
 L -46.153,260.526 L -46.2439,260.444 L -46.3263,260.353 L -46.3993,260.254 L -46.4624,260.149 L -46.5148,260.038
 L -46.5562,259.923 L -46.586,259.804 L -46.604,259.683 L -46.61,259.56 L -46.604,259.437 L -46.586,259.316
 L -46.5562,259.197 L -46.5148,259.082 L -46.4624,258.971 L -46.3993,258.866 L -46.3263,258.767 L -46.2439,258.676
 L -46.153,258.594 L -46.0545,258.521 L -45.9493,258.458 L -45.8384,258.405 L -45.7229,258.364 L -45.6039,258.334
 L -45.4825,258.316 L -45.36,258.31 L -45.2375,258.316 L -45.1161,258.334 L -44.9971,258.364 L -44.8816,258.405
 L -44.7708,258.458 L -44.6655,258.521 L -44.567,258.594 L -44.4761,258.676 L -44.3937,258.767 L -44.3207,258.866
 L -44.2576,258.971 L -44.2052,259.082 L -44.1638,259.197 L -44.134,259.316 L -44.116,259.437 L -44.11,259.56
 L -44.116,259.683 L -44.134,259.804 L -44.1638,259.923 L -44.2052,260.038 L -44.2576,260.149 L -44.3207,260.254
 L -44.3937,260.353 L -44.4761,260.444 L -44.567,260.526 L -44.6655,260.599 L -44.7708,260.662 L -44.8816,260.715
 L -44.9971,260.756 L -45.1161,260.786 L -45.2375,260.804 L -45.36,260.81 z
M -70.8825,260.804 L -71.0039,260.786 L -71.1229,260.756 L -71.2384,260.715 L -71.3492,260.662 L -71.4545,260.599
 L -71.553,260.526 L -71.6439,260.444 L -71.7263,260.353 L -71.7993,260.254 L -71.8624,260.149 L -71.9148,260.038
 L -71.9562,259.923 L -71.986,259.804 L -72.004,259.683 L -72.01,259.56 L -72.004,259.437 L -71.986,259.316
 L -71.9562,259.197 L -71.9148,259.082 L -71.8624,258.971 L -71.7993,258.866 L -71.7263,258.767 L -71.6439,258.676
 L -71.553,258.594 L -71.4545,258.521 L -71.3492,258.458 L -71.2384,258.405 L -71.1229,258.364 L -71.0039,258.334
 L -70.8825,258.316 L -70.76,258.31 L -70.6375,258.316 L -70.5161,258.334 L -70.3971,258.364 L -70.2816,258.405
 L -70.1707,258.458 L -70.0655,258.521 L -69.967,258.594 L -69.8761,258.676 L -69.7937,258.767 L -69.7207,258.866
 L -69.6576,258.971 L -69.6052,259.082 L -69.5638,259.197 L -69.534,259.316 L -69.516,259.437 L -69.51,259.56
 L -69.516,259.683 L -69.534,259.804 L -69.5638,259.923 L -69.6052,260.038 L -69.6576,260.149 L -69.7207,260.254
 L -69.7937,260.353 L -69.8761,260.444 L -69.967,260.526 L -70.0655,260.599 L -70.1707,260.662 L -70.2816,260.715
 L -70.3971,260.756 L -70.5161,260.786 L -70.6375,260.804 L -70.76,260.81 z
M -207.564,4.86286 L -207.605,4.97837 L -207.658,5.08924 L -207.721,5.19446 L -207.794,5.293 L -207.876,5.38388
 L -207.967,5.46625 L -208.066,5.53934 L -208.171,5.60239 L -208.282,5.65485 L -208.397,5.69617 L -208.516,5.72599
 L -208.637,5.74399 L -208.76,5.75 L -208.883,5.74399 L -209.004,5.72599 L -209.123,5.69617 L -209.238,5.65485
 L -209.349,5.60239 L -209.454,5.53934 L -209.553,5.46625 L -209.644,5.38388 L -209.726,5.293 L -209.799,5.19446
 L -209.862,5.08924 L -209.915,4.97837 L -209.956,4.86286 L -209.986,4.74387 L -210.004,4.62253 L -210.01,4.5
 L -210.004,4.37747 L -209.986,4.25614 L -209.956,4.13715 L -209.915,4.02164 L -209.862,3.91077 L -209.799,3.80554
 L -209.726,3.707 L -209.644,3.61612 L -209.553,3.53372 L -209.454,3.46067 L -209.349,3.39759 L -209.238,3.34516
 L -209.123,3.30384 L -209.004,3.27402 L -208.883,3.25601 L -208.76,3.25 L -208.637,3.25601 L -208.516,3.27402
 L -208.397,3.30384 L -208.282,3.34516 L -208.171,3.39759 L -208.066,3.46067 L -207.967,3.53372 L -207.876,3.61612
 L -207.794,3.707 L -207.721,3.80554 L -207.658,3.91077 L -207.605,4.02164 L -207.564,4.13715 L -207.534,4.25614
 L -207.516,4.37747 L -207.51,4.5 L -207.516,4.62253 L -207.534,4.74387 z
" stroke="black" fill="lightgray" stroke-width="0.5"/>
</svg>
